  0
SECTION
  2
BLOCKS
  0
ENDSEC
  0
SECTION
  2
ENTITIES
  0
LINE
  8
0
 10
293.134
 20
-49.2257
 11
295.426
 21
-48.2053
  0
LINE
  8
0
 10
295.426
 20
-48.2053
 11
297.456
 21
-46.7307
  0
LINE
  8
0
 10
297.456
 20
-46.7307
 11
299.134
 21
-44.8664
  0
LINE
  8
0
 10
299.134
 20
-44.8664
 11
418.243
 21
161.436
  0
LINE
  8
0
 10
418.243
 20
161.436
 11
419.019
 21
163.822
  0
LINE
  8
0
 10
419.019
 20
163.822
 11
419.281
 21
166.317
  0
LINE
  8
0
 10
419.281
 20
166.317
 11
419.019
 21
168.812
  0
LINE
  8
0
 10
419.019
 20
168.812
 11
418.243
 21
171.198
  0
LINE
  8
0
 10
418.243
 20
171.198
 11
369.721
 21
255.24
  0
LINE
  8
0
 10
369.721
 20
255.24
 11
368.043
 21
257.105
  0
LINE
  8
0
 10
368.043
 20
257.105
 11
366.013
 21
258.579
  0
LINE
  8
0
 10
366.013
 20
258.579
 11
363.721
 21
259.6
  0
LINE
  8
0
 10
363.721
 20
259.6
 11
361.268
 21
260.121
  0
LINE
  8
0
 10
361.268
 20
260.121
 11
123.05
 21
260.121
  0
LINE
  8
0
 10
123.05
 20
260.121
 11
120.596
 21
259.6
  0
LINE
  8
0
 10
120.596
 20
259.6
 11
118.304
 21
258.579
  0
LINE
  8
0
 10
118.304
 20
258.579
 11
116.274
 21
257.105
  0
LINE
  8
0
 10
116.274
 20
257.105
 11
114.596
 21
255.24
  0
LINE
  8
0
 10
114.596
 20
255.24
 11
66.0739
 21
171.198
  0
LINE
  8
0
 10
66.0739
 20
171.198
 11
65.2986
 21
168.812
  0
LINE
  8
0
 10
65.2986
 20
168.812
 11
65.0364
 21
166.317
  0
LINE
  8
0
 10
65.0364
 20
166.317
 11
65.2986
 21
163.822
  0
LINE
  8
0
 10
65.2986
 20
163.822
 11
66.0739
 21
161.436
  0
LINE
  8
0
 10
66.0739
 20
161.436
 11
185.183
 21
-44.8664
  0
LINE
  8
0
 10
185.183
 20
-44.8664
 11
186.861
 21
-46.7307
  0
LINE
  8
0
 10
186.861
 20
-46.7307
 11
188.891
 21
-48.2053
  0
LINE
  8
0
 10
188.891
 20
-48.2053
 11
191.183
 21
-49.2257
  0
LINE
  8
0
 10
191.183
 20
-49.2257
 11
193.637
 21
-49.7473
  0
LINE
  8
0
 10
193.637
 20
-49.7473
 11
290.68
 21
-49.7473
  0
LINE
  8
0
 10
290.68
 20
-49.7473
 11
293.134
 21
-49.2257
  0
LINE
  8
0
 10
373.09
 20
234.528
 11
372.284
 21
235.333
  0
LINE
  8
0
 10
372.284
 20
235.333
 11
371.99
 21
236.433
  0
LINE
  8
0
 10
371.99
 20
236.433
 11
372.284
 21
237.533
  0
LINE
  8
0
 10
372.284
 20
237.533
 11
373.09
 21
238.338
  0
LINE
  8
0
 10
373.09
 20
238.338
 11
374.19
 21
238.633
  0
LINE
  8
0
 10
374.19
 20
238.633
 11
375.29
 21
238.338
  0
LINE
  8
0
 10
375.29
 20
238.338
 11
376.095
 21
237.533
  0
LINE
  8
0
 10
376.095
 20
237.533
 11
376.39
 21
236.433
  0
LINE
  8
0
 10
376.39
 20
236.433
 11
376.095
 21
235.333
  0
LINE
  8
0
 10
376.095
 20
235.333
 11
375.29
 21
234.528
  0
LINE
  8
0
 10
375.29
 20
234.528
 11
374.19
 21
234.233
  0
LINE
  8
0
 10
374.19
 20
234.233
 11
373.09
 21
234.528
  0
LINE
  8
0
 10
109.028
 20
234.528
 11
108.222
 21
235.333
  0
LINE
  8
0
 10
108.222
 20
235.333
 11
107.928
 21
236.433
  0
LINE
  8
0
 10
107.928
 20
236.433
 11
108.222
 21
237.533
  0
LINE
  8
0
 10
108.222
 20
237.533
 11
109.028
 21
238.338
  0
LINE
  8
0
 10
109.028
 20
238.338
 11
110.128
 21
238.633
  0
LINE
  8
0
 10
110.128
 20
238.633
 11
111.228
 21
238.338
  0
LINE
  8
0
 10
111.228
 20
238.338
 11
112.033
 21
237.533
  0
LINE
  8
0
 10
112.033
 20
237.533
 11
112.328
 21
236.433
  0
LINE
  8
0
 10
112.328
 20
236.433
 11
112.033
 21
235.333
  0
LINE
  8
0
 10
112.033
 20
235.333
 11
111.228
 21
234.528
  0
LINE
  8
0
 10
111.228
 20
234.528
 11
110.128
 21
234.233
  0
LINE
  8
0
 10
110.128
 20
234.233
 11
109.028
 21
234.528
  0
LINE
  8
0
 10
338.649
 20
214.874
 11
337.99
 21
215.533
  0
LINE
  8
0
 10
337.99
 20
215.533
 11
337.749
 21
216.433
  0
LINE
  8
0
 10
337.749
 20
216.433
 11
337.99
 21
217.333
  0
LINE
  8
0
 10
337.99
 20
217.333
 11
338.649
 21
217.992
  0
LINE
  8
0
 10
338.649
 20
217.992
 11
339.549
 21
218.233
  0
LINE
  8
0
 10
339.549
 20
218.233
 11
340.449
 21
217.992
  0
LINE
  8
0
 10
340.449
 20
217.992
 11
341.107
 21
217.333
  0
LINE
  8
0
 10
341.107
 20
217.333
 11
341.349
 21
216.433
  0
LINE
  8
0
 10
341.349
 20
216.433
 11
341.107
 21
215.533
  0
LINE
  8
0
 10
341.107
 20
215.533
 11
340.449
 21
214.874
  0
LINE
  8
0
 10
340.449
 20
214.874
 11
339.549
 21
214.633
  0
LINE
  8
0
 10
339.549
 20
214.633
 11
338.649
 21
214.874
  0
LINE
  8
0
 10
143.869
 20
214.874
 11
143.21
 21
215.533
  0
LINE
  8
0
 10
143.21
 20
215.533
 11
142.969
 21
216.433
  0
LINE
  8
0
 10
142.969
 20
216.433
 11
143.21
 21
217.333
  0
LINE
  8
0
 10
143.21
 20
217.333
 11
143.869
 21
217.992
  0
LINE
  8
0
 10
143.869
 20
217.992
 11
144.769
 21
218.233
  0
LINE
  8
0
 10
144.769
 20
218.233
 11
145.669
 21
217.992
  0
LINE
  8
0
 10
145.669
 20
217.992
 11
146.327
 21
217.333
  0
LINE
  8
0
 10
146.327
 20
217.333
 11
146.569
 21
216.433
  0
LINE
  8
0
 10
146.569
 20
216.433
 11
146.327
 21
215.533
  0
LINE
  8
0
 10
146.327
 20
215.533
 11
145.669
 21
214.874
  0
LINE
  8
0
 10
145.669
 20
214.874
 11
144.769
 21
214.633
  0
LINE
  8
0
 10
144.769
 20
214.633
 11
143.869
 21
214.874
  0
LINE
  8
0
 10
204.559
 20
202.658
 11
203.753
 21
203.464
  0
LINE
  8
0
 10
203.753
 20
203.464
 11
203.459
 21
204.564
  0
LINE
  8
0
 10
203.459
 20
204.564
 11
203.459
 21
210.564
  0
LINE
  8
0
 10
203.459
 20
210.564
 11
203.753
 21
211.664
  0
LINE
  8
0
 10
203.753
 20
211.664
 11
204.559
 21
212.469
  0
LINE
  8
0
 10
204.559
 20
212.469
 11
205.659
 21
212.764
  0
LINE
  8
0
 10
205.659
 20
212.764
 11
206.759
 21
212.469
  0
LINE
  8
0
 10
206.759
 20
212.469
 11
207.564
 21
211.664
  0
LINE
  8
0
 10
207.564
 20
211.664
 11
207.859
 21
210.564
  0
LINE
  8
0
 10
207.859
 20
210.564
 11
207.859
 21
204.564
  0
LINE
  8
0
 10
207.859
 20
204.564
 11
207.564
 21
203.464
  0
LINE
  8
0
 10
207.564
 20
203.464
 11
206.759
 21
202.658
  0
LINE
  8
0
 10
206.759
 20
202.658
 11
205.659
 21
202.364
  0
LINE
  8
0
 10
205.659
 20
202.364
 11
204.559
 21
202.658
  0
LINE
  8
0
 10
277.559
 20
202.658
 11
276.753
 21
203.464
  0
LINE
  8
0
 10
276.753
 20
203.464
 11
276.459
 21
204.564
  0
LINE
  8
0
 10
276.459
 20
204.564
 11
276.459
 21
210.564
  0
LINE
  8
0
 10
276.459
 20
210.564
 11
276.753
 21
211.664
  0
LINE
  8
0
 10
276.753
 20
211.664
 11
277.559
 21
212.469
  0
LINE
  8
0
 10
277.559
 20
212.469
 11
278.659
 21
212.764
  0
LINE
  8
0
 10
278.659
 20
212.764
 11
279.759
 21
212.469
  0
LINE
  8
0
 10
279.759
 20
212.469
 11
280.564
 21
211.664
  0
LINE
  8
0
 10
280.564
 20
211.664
 11
280.859
 21
210.564
  0
LINE
  8
0
 10
280.859
 20
210.564
 11
280.859
 21
204.564
  0
LINE
  8
0
 10
280.859
 20
204.564
 11
280.564
 21
203.464
  0
LINE
  8
0
 10
280.564
 20
203.464
 11
279.759
 21
202.658
  0
LINE
  8
0
 10
279.759
 20
202.658
 11
278.659
 21
202.364
  0
LINE
  8
0
 10
278.659
 20
202.364
 11
277.559
 21
202.658
  0
LINE
  8
0
 10
79.0276
 20
182.566
 11
78.2224
 21
183.371
  0
LINE
  8
0
 10
78.2224
 20
183.371
 11
77.9276
 21
184.471
  0
LINE
  8
0
 10
77.9276
 20
184.471
 11
78.2224
 21
185.571
  0
LINE
  8
0
 10
78.2224
 20
185.571
 11
79.0276
 21
186.377
  0
LINE
  8
0
 10
79.0276
 20
186.377
 11
80.1276
 21
186.671
  0
LINE
  8
0
 10
80.1276
 20
186.671
 11
81.2276
 21
186.377
  0
LINE
  8
0
 10
81.2276
 20
186.377
 11
82.0329
 21
185.571
  0
LINE
  8
0
 10
82.0329
 20
185.571
 11
82.3276
 21
184.471
  0
LINE
  8
0
 10
82.3276
 20
184.471
 11
82.0329
 21
183.371
  0
LINE
  8
0
 10
82.0329
 20
183.371
 11
81.2276
 21
182.566
  0
LINE
  8
0
 10
81.2276
 20
182.566
 11
80.1276
 21
182.271
  0
LINE
  8
0
 10
80.1276
 20
182.271
 11
79.0276
 21
182.566
  0
LINE
  8
0
 10
403.09
 20
182.566
 11
402.284
 21
183.371
  0
LINE
  8
0
 10
402.284
 20
183.371
 11
401.99
 21
184.471
  0
LINE
  8
0
 10
401.99
 20
184.471
 11
402.284
 21
185.571
  0
LINE
  8
0
 10
402.284
 20
185.571
 11
403.09
 21
186.377
  0
LINE
  8
0
 10
403.09
 20
186.377
 11
404.19
 21
186.671
  0
LINE
  8
0
 10
404.19
 20
186.671
 11
405.29
 21
186.377
  0
LINE
  8
0
 10
405.29
 20
186.377
 11
406.095
 21
185.571
  0
LINE
  8
0
 10
406.095
 20
185.571
 11
406.39
 21
184.471
  0
LINE
  8
0
 10
406.39
 20
184.471
 11
406.095
 21
183.371
  0
LINE
  8
0
 10
406.095
 20
183.371
 11
405.29
 21
182.566
  0
LINE
  8
0
 10
405.29
 20
182.566
 11
404.19
 21
182.271
  0
LINE
  8
0
 10
404.19
 20
182.271
 11
403.09
 21
182.566
  0
LINE
  8
0
 10
204.559
 20
162.658
 11
203.753
 21
163.464
  0
LINE
  8
0
 10
203.753
 20
163.464
 11
203.459
 21
164.564
  0
LINE
  8
0
 10
203.459
 20
164.564
 11
203.459
 21
170.564
  0
LINE
  8
0
 10
203.459
 20
170.564
 11
203.753
 21
171.664
  0
LINE
  8
0
 10
203.753
 20
171.664
 11
204.559
 21
172.469
  0
LINE
  8
0
 10
204.559
 20
172.469
 11
205.659
 21
172.764
  0
LINE
  8
0
 10
205.659
 20
172.764
 11
206.759
 21
172.469
  0
LINE
  8
0
 10
206.759
 20
172.469
 11
207.564
 21
171.664
  0
LINE
  8
0
 10
207.564
 20
171.664
 11
207.859
 21
170.564
  0
LINE
  8
0
 10
207.859
 20
170.564
 11
207.859
 21
164.564
  0
LINE
  8
0
 10
207.859
 20
164.564
 11
207.564
 21
163.464
  0
LINE
  8
0
 10
207.564
 20
163.464
 11
206.759
 21
162.658
  0
LINE
  8
0
 10
206.759
 20
162.658
 11
205.659
 21
162.364
  0
LINE
  8
0
 10
205.659
 20
162.364
 11
204.559
 21
162.658
  0
LINE
  8
0
 10
277.559
 20
162.658
 11
276.753
 21
163.464
  0
LINE
  8
0
 10
276.753
 20
163.464
 11
276.459
 21
164.564
  0
LINE
  8
0
 10
276.459
 20
164.564
 11
276.459
 21
170.564
  0
LINE
  8
0
 10
276.459
 20
170.564
 11
276.753
 21
171.664
  0
LINE
  8
0
 10
276.753
 20
171.664
 11
277.559
 21
172.469
  0
LINE
  8
0
 10
277.559
 20
172.469
 11
278.659
 21
172.764
  0
LINE
  8
0
 10
278.659
 20
172.764
 11
279.759
 21
172.469
  0
LINE
  8
0
 10
279.759
 20
172.469
 11
280.564
 21
171.664
  0
LINE
  8
0
 10
280.564
 20
171.664
 11
280.859
 21
170.564
  0
LINE
  8
0
 10
280.859
 20
170.564
 11
280.859
 21
164.564
  0
LINE
  8
0
 10
280.859
 20
164.564
 11
280.564
 21
163.464
  0
LINE
  8
0
 10
280.564
 20
163.464
 11
279.759
 21
162.658
  0
LINE
  8
0
 10
279.759
 20
162.658
 11
278.659
 21
162.364
  0
LINE
  8
0
 10
278.659
 20
162.364
 11
277.559
 21
162.658
  0
LINE
  8
0
 10
113.869
 20
162.912
 11
113.21
 21
163.571
  0
LINE
  8
0
 10
113.21
 20
163.571
 11
112.969
 21
164.471
  0
LINE
  8
0
 10
112.969
 20
164.471
 11
113.21
 21
165.371
  0
LINE
  8
0
 10
113.21
 20
165.371
 11
113.869
 21
166.03
  0
LINE
  8
0
 10
113.869
 20
166.03
 11
114.769
 21
166.271
  0
LINE
  8
0
 10
114.769
 20
166.271
 11
115.669
 21
166.03
  0
LINE
  8
0
 10
115.669
 20
166.03
 11
116.327
 21
165.371
  0
LINE
  8
0
 10
116.327
 20
165.371
 11
116.569
 21
164.471
  0
LINE
  8
0
 10
116.569
 20
164.471
 11
116.327
 21
163.571
  0
LINE
  8
0
 10
116.327
 20
163.571
 11
115.669
 21
162.912
  0
LINE
  8
0
 10
115.669
 20
162.912
 11
114.769
 21
162.671
  0
LINE
  8
0
 10
114.769
 20
162.671
 11
113.869
 21
162.912
  0
LINE
  8
0
 10
368.648
 20
162.912
 11
367.99
 21
163.571
  0
LINE
  8
0
 10
367.99
 20
163.571
 11
367.749
 21
164.471
  0
LINE
  8
0
 10
367.749
 20
164.471
 11
367.99
 21
165.371
  0
LINE
  8
0
 10
367.99
 20
165.371
 11
368.648
 21
166.03
  0
LINE
  8
0
 10
368.648
 20
166.03
 11
369.549
 21
166.271
  0
LINE
  8
0
 10
369.549
 20
166.271
 11
370.449
 21
166.03
  0
LINE
  8
0
 10
370.449
 20
166.03
 11
371.107
 21
165.371
  0
LINE
  8
0
 10
371.107
 20
165.371
 11
371.349
 21
164.471
  0
LINE
  8
0
 10
371.349
 20
164.471
 11
371.107
 21
163.571
  0
LINE
  8
0
 10
371.107
 20
163.571
 11
370.449
 21
162.912
  0
LINE
  8
0
 10
370.449
 20
162.912
 11
369.549
 21
162.671
  0
LINE
  8
0
 10
369.549
 20
162.671
 11
368.648
 21
162.912
  0
LINE
  8
0
 10
230.225
 20
82.4173
 11
229.612
 21
82.5477
  0
LINE
  8
0
 10
229.612
 20
82.5477
 11
229.039
 21
82.8028
  0
LINE
  8
0
 10
229.039
 20
82.8028
 11
228.531
 21
83.1715
  0
LINE
  8
0
 10
228.531
 20
83.1715
 11
228.112
 21
83.6375
  0
LINE
  8
0
 10
228.112
 20
83.6375
 11
198.826
 21
134.362
  0
LINE
  8
0
 10
198.826
 20
134.362
 11
198.632
 21
134.958
  0
LINE
  8
0
 10
198.632
 20
134.958
 11
198.567
 21
135.582
  0
LINE
  8
0
 10
198.567
 20
135.582
 11
198.632
 21
136.206
  0
LINE
  8
0
 10
198.632
 20
136.206
 11
198.826
 21
136.802
  0
LINE
  8
0
 10
198.826
 20
136.802
 11
210.759
 21
157.471
  0
LINE
  8
0
 10
210.759
 20
157.471
 11
211.179
 21
157.938
  0
LINE
  8
0
 10
211.179
 20
157.938
 11
211.686
 21
158.306
  0
LINE
  8
0
 10
211.686
 20
158.306
 11
212.259
 21
158.561
  0
LINE
  8
0
 10
212.259
 20
158.561
 11
212.873
 21
158.692
  0
LINE
  8
0
 10
212.873
 20
158.692
 11
271.444
 21
158.692
  0
LINE
  8
0
 10
271.444
 20
158.692
 11
272.058
 21
158.561
  0
LINE
  8
0
 10
272.058
 20
158.561
 11
272.631
 21
158.306
  0
LINE
  8
0
 10
272.631
 20
158.306
 11
273.138
 21
157.938
  0
LINE
  8
0
 10
273.138
 20
157.938
 11
273.558
 21
157.471
  0
LINE
  8
0
 10
273.558
 20
157.471
 11
285.491
 21
136.802
  0
LINE
  8
0
 10
285.491
 20
136.802
 11
285.685
 21
136.206
  0
LINE
  8
0
 10
285.685
 20
136.206
 11
285.75
 21
135.582
  0
LINE
  8
0
 10
285.75
 20
135.582
 11
285.685
 21
134.958
  0
LINE
  8
0
 10
285.685
 20
134.958
 11
285.491
 21
134.362
  0
LINE
  8
0
 10
285.491
 20
134.362
 11
256.205
 21
83.6375
  0
LINE
  8
0
 10
256.205
 20
83.6375
 11
255.786
 21
83.1715
  0
LINE
  8
0
 10
255.786
 20
83.1715
 11
255.278
 21
82.8028
  0
LINE
  8
0
 10
255.278
 20
82.8028
 11
254.705
 21
82.5477
  0
LINE
  8
0
 10
254.705
 20
82.5477
 11
254.092
 21
82.4173
  0
LINE
  8
0
 10
254.092
 20
82.4173
 11
230.225
 21
82.4173
  0
LINE
  8
0
 10
122.689
 20
84.2105
 11
123.988
 21
84.9605
  0
LINE
  8
0
 10
123.988
 20
84.9605
 11
125.488
 21
82.3624
  0
LINE
  8
0
 10
125.488
 20
82.3624
 11
124.189
 21
81.6124
  0
LINE
  8
0
 10
124.189
 20
81.6124
 11
122.689
 21
84.2105
  0
LINE
  8
0
 10
358.83
 20
82.3624
 11
360.33
 21
84.9605
  0
LINE
  8
0
 10
360.33
 20
84.9605
 11
361.629
 21
84.2105
  0
LINE
  8
0
 10
361.629
 20
84.2105
 11
360.129
 21
81.6124
  0
LINE
  8
0
 10
360.129
 20
81.6124
 11
358.83
 21
82.3624
  0
LINE
  8
0
 10
117.492
 20
81.2105
 11
118.791
 21
81.9605
  0
LINE
  8
0
 10
118.791
 20
81.9605
 11
120.291
 21
79.3624
  0
LINE
  8
0
 10
120.291
 20
79.3624
 11
118.992
 21
78.6124
  0
LINE
  8
0
 10
118.992
 20
78.6124
 11
117.492
 21
81.2105
  0
LINE
  8
0
 10
364.026
 20
79.3624
 11
365.526
 21
81.9605
  0
LINE
  8
0
 10
365.526
 20
81.9605
 11
366.825
 21
81.2105
  0
LINE
  8
0
 10
366.825
 20
81.2105
 11
365.325
 21
78.6124
  0
LINE
  8
0
 10
365.325
 20
78.6124
 11
364.026
 21
79.3624
  0
LINE
  8
0
 10
336.407
 20
43.5262
 11
337.907
 21
46.1243
  0
LINE
  8
0
 10
337.907
 20
46.1243
 11
339.207
 21
45.3743
  0
LINE
  8
0
 10
339.207
 20
45.3743
 11
337.707
 21
42.7762
  0
LINE
  8
0
 10
337.707
 20
42.7762
 11
336.407
 21
43.5262
  0
LINE
  8
0
 10
145.111
 20
45.3743
 11
146.41
 21
46.1243
  0
LINE
  8
0
 10
146.41
 20
46.1243
 11
147.91
 21
43.5262
  0
LINE
  8
0
 10
147.91
 20
43.5262
 11
146.611
 21
42.7762
  0
LINE
  8
0
 10
146.611
 20
42.7762
 11
145.111
 21
45.3743
  0
LINE
  8
0
 10
341.604
 20
40.5262
 11
343.104
 21
43.1243
  0
LINE
  8
0
 10
343.104
 20
43.1243
 11
344.403
 21
42.3743
  0
LINE
  8
0
 10
344.403
 20
42.3743
 11
342.903
 21
39.7762
  0
LINE
  8
0
 10
342.903
 20
39.7762
 11
341.604
 21
40.5262
  0
LINE
  8
0
 10
139.914
 20
42.3743
 11
141.214
 21
43.1243
  0
LINE
  8
0
 10
141.214
 20
43.1243
 11
142.714
 21
40.5262
  0
LINE
  8
0
 10
142.714
 20
40.5262
 11
141.414
 21
39.7762
  0
LINE
  8
0
 10
141.414
 20
39.7762
 11
139.914
 21
42.3743
  0
LINE
  8
0
 10
211.259
 20
-5.77185
 11
210.6
 21
-5.11301
  0
LINE
  8
0
 10
210.6
 20
-5.11301
 11
210.359
 21
-4.213
  0
LINE
  8
0
 10
210.359
 20
-4.213
 11
210.6
 21
-3.313
  0
LINE
  8
0
 10
210.6
 20
-3.313
 11
211.259
 21
-2.65416
  0
LINE
  8
0
 10
211.259
 20
-2.65416
 11
212.159
 21
-2.41301
  0
LINE
  8
0
 10
212.159
 20
-2.41301
 11
213.059
 21
-2.65416
  0
LINE
  8
0
 10
213.059
 20
-2.65416
 11
213.717
 21
-3.313
  0
LINE
  8
0
 10
213.717
 20
-3.313
 11
213.959
 21
-4.213
  0
LINE
  8
0
 10
213.959
 20
-4.213
 11
213.717
 21
-5.11301
  0
LINE
  8
0
 10
213.717
 20
-5.11301
 11
213.059
 21
-5.77185
  0
LINE
  8
0
 10
213.059
 20
-5.77185
 11
212.159
 21
-6.013
  0
LINE
  8
0
 10
212.159
 20
-6.013
 11
211.259
 21
-5.77185
  0
LINE
  8
0
 10
271.259
 20
-5.77185
 11
270.6
 21
-5.11301
  0
LINE
  8
0
 10
270.6
 20
-5.11301
 11
270.359
 21
-4.213
  0
LINE
  8
0
 10
270.359
 20
-4.213
 11
270.6
 21
-3.313
  0
LINE
  8
0
 10
270.6
 20
-3.313
 11
271.259
 21
-2.65416
  0
LINE
  8
0
 10
271.259
 20
-2.65416
 11
272.159
 21
-2.41301
  0
LINE
  8
0
 10
272.159
 20
-2.41301
 11
273.059
 21
-2.65416
  0
LINE
  8
0
 10
273.059
 20
-2.65416
 11
273.717
 21
-3.313
  0
LINE
  8
0
 10
273.717
 20
-3.313
 11
273.959
 21
-4.213
  0
LINE
  8
0
 10
273.959
 20
-4.213
 11
273.717
 21
-5.11301
  0
LINE
  8
0
 10
273.717
 20
-5.11301
 11
273.059
 21
-5.77185
  0
LINE
  8
0
 10
273.059
 20
-5.77185
 11
272.159
 21
-6.013
  0
LINE
  8
0
 10
272.159
 20
-6.013
 11
271.259
 21
-5.77185
  0
LINE
  8
0
 10
211.059
 20
-46.1183
 11
210.253
 21
-45.313
  0
LINE
  8
0
 10
210.253
 20
-45.313
 11
209.959
 21
-44.213
  0
LINE
  8
0
 10
209.959
 20
-44.213
 11
210.253
 21
-43.113
  0
LINE
  8
0
 10
210.253
 20
-43.113
 11
211.059
 21
-42.3078
  0
LINE
  8
0
 10
211.059
 20
-42.3078
 11
212.159
 21
-42.013
  0
LINE
  8
0
 10
212.159
 20
-42.013
 11
213.259
 21
-42.3078
  0
LINE
  8
0
 10
213.259
 20
-42.3078
 11
214.064
 21
-43.113
  0
LINE
  8
0
 10
214.064
 20
-43.113
 11
214.359
 21
-44.213
  0
LINE
  8
0
 10
214.359
 20
-44.213
 11
214.064
 21
-45.313
  0
LINE
  8
0
 10
214.064
 20
-45.313
 11
213.259
 21
-46.1183
  0
LINE
  8
0
 10
213.259
 20
-46.1183
 11
212.159
 21
-46.413
  0
LINE
  8
0
 10
212.159
 20
-46.413
 11
211.059
 21
-46.1183
  0
LINE
  8
0
 10
271.059
 20
-46.1183
 11
270.253
 21
-45.313
  0
LINE
  8
0
 10
270.253
 20
-45.313
 11
269.959
 21
-44.213
  0
LINE
  8
0
 10
269.959
 20
-44.213
 11
270.253
 21
-43.113
  0
LINE
  8
0
 10
270.253
 20
-43.113
 11
271.059
 21
-42.3078
  0
LINE
  8
0
 10
271.059
 20
-42.3078
 11
272.159
 21
-42.013
  0
LINE
  8
0
 10
272.159
 20
-42.013
 11
273.259
 21
-42.3078
  0
LINE
  8
0
 10
273.259
 20
-42.3078
 11
274.064
 21
-43.113
  0
LINE
  8
0
 10
274.064
 20
-43.113
 11
274.359
 21
-44.213
  0
LINE
  8
0
 10
274.359
 20
-44.213
 11
274.064
 21
-45.313
  0
LINE
  8
0
 10
274.064
 20
-45.313
 11
273.259
 21
-46.1183
  0
LINE
  8
0
 10
273.259
 20
-46.1183
 11
272.159
 21
-46.413
  0
LINE
  8
0
 10
272.159
 20
-46.413
 11
271.059
 21
-46.1183
  0
LINE
  8
0
 10
121.563
 20
-134.036
 11
123.855
 21
-133.016
  0
LINE
  8
0
 10
123.855
 20
-133.016
 11
125.884
 21
-131.541
  0
LINE
  8
0
 10
125.884
 20
-131.541
 11
127.563
 21
-129.677
  0
LINE
  8
0
 10
127.563
 20
-129.677
 11
176.085
 21
-45.6343
  0
LINE
  8
0
 10
176.085
 20
-45.6343
 11
176.86
 21
-43.2484
  0
LINE
  8
0
 10
176.86
 20
-43.2484
 11
177.122
 21
-40.7534
  0
LINE
  8
0
 10
177.122
 20
-40.7534
 11
176.86
 21
-38.2585
  0
LINE
  8
0
 10
176.86
 20
-38.2585
 11
176.085
 21
-35.8726
  0
LINE
  8
0
 10
176.085
 20
-35.8726
 11
56.9758
 21
170.43
  0
LINE
  8
0
 10
56.9758
 20
170.43
 11
55.2971
 21
172.294
  0
LINE
  8
0
 10
55.2971
 20
172.294
 11
53.2676
 21
173.769
  0
LINE
  8
0
 10
53.2676
 20
173.769
 11
50.9758
 21
174.789
  0
LINE
  8
0
 10
50.9758
 20
174.789
 11
48.5219
 21
175.311
  0
LINE
  8
0
 10
48.5219
 20
175.311
 11
-48.5219
 21
175.311
  0
LINE
  8
0
 10
-48.5219
 20
175.311
 11
-50.9758
 21
174.789
  0
LINE
  8
0
 10
-50.9758
 20
174.789
 11
-53.2676
 21
173.769
  0
LINE
  8
0
 10
-53.2676
 20
173.769
 11
-55.2971
 21
172.294
  0
LINE
  8
0
 10
-55.2971
 20
172.294
 11
-56.9758
 21
170.43
  0
LINE
  8
0
 10
-56.9758
 20
170.43
 11
-176.085
 21
-35.8726
  0
LINE
  8
0
 10
-176.085
 20
-35.8726
 11
-176.86
 21
-38.2585
  0
LINE
  8
0
 10
-176.86
 20
-38.2585
 11
-177.122
 21
-40.7534
  0
LINE
  8
0
 10
-177.122
 20
-40.7534
 11
-176.86
 21
-43.2484
  0
LINE
  8
0
 10
-176.86
 20
-43.2484
 11
-176.085
 21
-45.6343
  0
LINE
  8
0
 10
-176.085
 20
-45.6343
 11
-127.563
 21
-129.677
  0
LINE
  8
0
 10
-127.563
 20
-129.677
 11
-125.884
 21
-131.541
  0
LINE
  8
0
 10
-125.884
 20
-131.541
 11
-123.855
 21
-133.016
  0
LINE
  8
0
 10
-123.855
 20
-133.016
 11
-121.563
 21
-134.036
  0
LINE
  8
0
 10
-121.563
 20
-134.036
 11
-119.109
 21
-134.558
  0
LINE
  8
0
 10
-119.109
 20
-134.558
 11
119.109
 21
-134.558
  0
LINE
  8
0
 10
119.109
 20
-134.558
 11
121.563
 21
-134.036
  0
LINE
  8
0
 10
-31.1
 20
167.871
 11
-31.9052
 21
168.677
  0
LINE
  8
0
 10
-31.9052
 20
168.677
 11
-32.2
 21
169.777
  0
LINE
  8
0
 10
-32.2
 20
169.777
 11
-31.9052
 21
170.877
  0
LINE
  8
0
 10
-31.9052
 20
170.877
 11
-31.1
 21
171.682
  0
LINE
  8
0
 10
-31.1
 20
171.682
 11
-30
 21
171.977
  0
LINE
  8
0
 10
-30
 20
171.977
 11
-28.9
 21
171.682
  0
LINE
  8
0
 10
-28.9
 20
171.682
 11
-28.0947
 21
170.877
  0
LINE
  8
0
 10
-28.0947
 20
170.877
 11
-27.8
 21
169.777
  0
LINE
  8
0
 10
-27.8
 20
169.777
 11
-28.0947
 21
168.677
  0
LINE
  8
0
 10
-28.0947
 20
168.677
 11
-28.9
 21
167.871
  0
LINE
  8
0
 10
-28.9
 20
167.871
 11
-30
 21
167.577
  0
LINE
  8
0
 10
-30
 20
167.577
 11
-31.1
 21
167.871
  0
LINE
  8
0
 10
28.9
 20
167.871
 11
28.0947
 21
168.677
  0
LINE
  8
0
 10
28.0947
 20
168.677
 11
27.8
 21
169.777
  0
LINE
  8
0
 10
27.8
 20
169.777
 11
28.0947
 21
170.877
  0
LINE
  8
0
 10
28.0947
 20
170.877
 11
28.9
 21
171.682
  0
LINE
  8
0
 10
28.9
 20
171.682
 11
30
 21
171.977
  0
LINE
  8
0
 10
30
 20
171.977
 11
31.1
 21
171.682
  0
LINE
  8
0
 10
31.1
 20
171.682
 11
31.9052
 21
170.877
  0
LINE
  8
0
 10
31.9052
 20
170.877
 11
32.2
 21
169.777
  0
LINE
  8
0
 10
32.2
 20
169.777
 11
31.9052
 21
168.677
  0
LINE
  8
0
 10
31.9052
 20
168.677
 11
31.1
 21
167.871
  0
LINE
  8
0
 10
31.1
 20
167.871
 11
30
 21
167.577
  0
LINE
  8
0
 10
30
 20
167.577
 11
28.9
 21
167.871
  0
LINE
  8
0
 10
-30.9
 20
128.218
 11
-31.5588
 21
128.877
  0
LINE
  8
0
 10
-31.5588
 20
128.877
 11
-31.8
 21
129.777
  0
LINE
  8
0
 10
-31.8
 20
129.777
 11
-31.5588
 21
130.677
  0
LINE
  8
0
 10
-31.5588
 20
130.677
 11
-30.9
 21
131.336
  0
LINE
  8
0
 10
-30.9
 20
131.336
 11
-30
 21
131.577
  0
LINE
  8
0
 10
-30
 20
131.577
 11
-29.1
 21
131.336
  0
LINE
  8
0
 10
-29.1
 20
131.336
 11
-28.4411
 21
130.677
  0
LINE
  8
0
 10
-28.4411
 20
130.677
 11
-28.2
 21
129.777
  0
LINE
  8
0
 10
-28.2
 20
129.777
 11
-28.4411
 21
128.877
  0
LINE
  8
0
 10
-28.4411
 20
128.877
 11
-29.1
 21
128.218
  0
LINE
  8
0
 10
-29.1
 20
128.218
 11
-30
 21
127.977
  0
LINE
  8
0
 10
-30
 20
127.977
 11
-30.9
 21
128.218
  0
LINE
  8
0
 10
29.1
 20
128.218
 11
28.4411
 21
128.877
  0
LINE
  8
0
 10
28.4411
 20
128.877
 11
28.2
 21
129.777
  0
LINE
  8
0
 10
28.2
 20
129.777
 11
28.4411
 21
130.677
  0
LINE
  8
0
 10
28.4411
 20
130.677
 11
29.1
 21
131.336
  0
LINE
  8
0
 10
29.1
 20
131.336
 11
30
 21
131.577
  0
LINE
  8
0
 10
30
 20
131.577
 11
30.9
 21
131.336
  0
LINE
  8
0
 10
30.9
 20
131.336
 11
31.5588
 21
130.677
  0
LINE
  8
0
 10
31.5588
 20
130.677
 11
31.8
 21
129.777
  0
LINE
  8
0
 10
31.8
 20
129.777
 11
31.5588
 21
128.877
  0
LINE
  8
0
 10
31.5588
 20
128.877
 11
30.9
 21
128.218
  0
LINE
  8
0
 10
30.9
 20
128.218
 11
30
 21
127.977
  0
LINE
  8
0
 10
30
 20
127.977
 11
29.1
 21
128.218
  0
LINE
  8
0
 10
-3
 20
-5
 11
-4.91341
 21
-4.61938
  0
LINE
  8
0
 10
-4.91341
 20
-4.61938
 11
-6.53552
 21
-3.53552
  0
LINE
  8
0
 10
-6.53552
 20
-3.53552
 11
-7.61938
 21
-1.91341
  0
LINE
  8
0
 10
-7.61938
 20
-1.91341
 11
-8
 21
0
  0
LINE
  8
0
 10
-8
 20
0
 11
-8
 21
67.5
  0
LINE
  8
0
 10
-8
 20
67.5
 11
-7.61938
 21
69.4134
  0
LINE
  8
0
 10
-7.61938
 20
69.4134
 11
-6.53552
 21
71.0355
  0
LINE
  8
0
 10
-6.53552
 20
71.0355
 11
-4.91341
 21
72.1194
  0
LINE
  8
0
 10
-4.91341
 20
72.1194
 11
-3
 21
72.5
  0
LINE
  8
0
 10
-3
 20
72.5
 11
3
 21
72.5
  0
LINE
  8
0
 10
3
 20
72.5
 11
4.91341
 21
72.1194
  0
LINE
  8
0
 10
4.91341
 20
72.1194
 11
6.53552
 21
71.0355
  0
LINE
  8
0
 10
6.53552
 20
71.0355
 11
7.61938
 21
69.4134
  0
LINE
  8
0
 10
7.61938
 20
69.4134
 11
8
 21
67.5
  0
LINE
  8
0
 10
8
 20
67.5
 11
8
 21
0
  0
LINE
  8
0
 10
8
 20
0
 11
7.61938
 21
-1.91341
  0
LINE
  8
0
 10
7.61938
 20
-1.91341
 11
6.53552
 21
-3.53552
  0
LINE
  8
0
 10
6.53552
 20
-3.53552
 11
4.91341
 21
-4.61938
  0
LINE
  8
0
 10
4.91341
 20
-4.61938
 11
3
 21
-5
  0
LINE
  8
0
 10
3
 20
-5
 11
-3
 21
-5
  0
LINE
  8
0
 10
126.49
 20
-40.4664
 11
125.831
 21
-39.8076
  0
LINE
  8
0
 10
125.831
 20
-39.8076
 11
125.59
 21
-38.9076
  0
LINE
  8
0
 10
125.59
 20
-38.9076
 11
125.831
 21
-38.0076
  0
LINE
  8
0
 10
125.831
 20
-38.0076
 11
126.49
 21
-37.3488
  0
LINE
  8
0
 10
126.49
 20
-37.3488
 11
127.39
 21
-37.1076
  0
LINE
  8
0
 10
127.39
 20
-37.1076
 11
128.29
 21
-37.3488
  0
LINE
  8
0
 10
128.29
 20
-37.3488
 11
128.949
 21
-38.0076
  0
LINE
  8
0
 10
128.949
 20
-38.0076
 11
129.19
 21
-38.9076
  0
LINE
  8
0
 10
129.19
 20
-38.9076
 11
128.949
 21
-39.8076
  0
LINE
  8
0
 10
128.949
 20
-39.8076
 11
128.29
 21
-40.4664
  0
LINE
  8
0
 10
128.29
 20
-40.4664
 11
127.39
 21
-40.7076
  0
LINE
  8
0
 10
127.39
 20
-40.7076
 11
126.49
 21
-40.4664
  0
LINE
  8
0
 10
-128.29
 20
-40.4664
 11
-128.949
 21
-39.8076
  0
LINE
  8
0
 10
-128.949
 20
-39.8076
 11
-129.19
 21
-38.9076
  0
LINE
  8
0
 10
-129.19
 20
-38.9076
 11
-128.949
 21
-38.0076
  0
LINE
  8
0
 10
-128.949
 20
-38.0076
 11
-128.29
 21
-37.3488
  0
LINE
  8
0
 10
-128.29
 20
-37.3488
 11
-127.39
 21
-37.1076
  0
LINE
  8
0
 10
-127.39
 20
-37.1076
 11
-126.49
 21
-37.3488
  0
LINE
  8
0
 10
-126.49
 20
-37.3488
 11
-125.831
 21
-38.0076
  0
LINE
  8
0
 10
-125.831
 20
-38.0076
 11
-125.59
 21
-38.9076
  0
LINE
  8
0
 10
-125.59
 20
-38.9076
 11
-125.831
 21
-39.8076
  0
LINE
  8
0
 10
-125.831
 20
-39.8076
 11
-126.49
 21
-40.4664
  0
LINE
  8
0
 10
-126.49
 20
-40.4664
 11
-127.39
 21
-40.7076
  0
LINE
  8
0
 10
-127.39
 20
-40.7076
 11
-128.29
 21
-40.4664
  0
LINE
  8
0
 10
160.931
 20
-60.8129
 11
160.126
 21
-60.0076
  0
LINE
  8
0
 10
160.126
 20
-60.0076
 11
159.831
 21
-58.9076
  0
LINE
  8
0
 10
159.831
 20
-58.9076
 11
160.126
 21
-57.8076
  0
LINE
  8
0
 10
160.126
 20
-57.8076
 11
160.931
 21
-57.0023
  0
LINE
  8
0
 10
160.931
 20
-57.0023
 11
162.031
 21
-56.7076
  0
LINE
  8
0
 10
162.031
 20
-56.7076
 11
163.131
 21
-57.0023
  0
LINE
  8
0
 10
163.131
 20
-57.0023
 11
163.936
 21
-57.8076
  0
LINE
  8
0
 10
163.936
 20
-57.8076
 11
164.231
 21
-58.9076
  0
LINE
  8
0
 10
164.231
 20
-58.9076
 11
163.936
 21
-60.0076
  0
LINE
  8
0
 10
163.936
 20
-60.0076
 11
163.131
 21
-60.8129
  0
LINE
  8
0
 10
163.131
 20
-60.8129
 11
162.031
 21
-61.1076
  0
LINE
  8
0
 10
162.031
 20
-61.1076
 11
160.931
 21
-60.8129
  0
LINE
  8
0
 10
-163.131
 20
-60.8129
 11
-163.936
 21
-60.0076
  0
LINE
  8
0
 10
-163.936
 20
-60.0076
 11
-164.231
 21
-58.9076
  0
LINE
  8
0
 10
-164.231
 20
-58.9076
 11
-163.936
 21
-57.8076
  0
LINE
  8
0
 10
-163.936
 20
-57.8076
 11
-163.131
 21
-57.0023
  0
LINE
  8
0
 10
-163.131
 20
-57.0023
 11
-162.031
 21
-56.7076
  0
LINE
  8
0
 10
-162.031
 20
-56.7076
 11
-160.931
 21
-57.0023
  0
LINE
  8
0
 10
-160.931
 20
-57.0023
 11
-160.126
 21
-57.8076
  0
LINE
  8
0
 10
-160.126
 20
-57.8076
 11
-159.831
 21
-58.9076
  0
LINE
  8
0
 10
-159.831
 20
-58.9076
 11
-160.126
 21
-60.0076
  0
LINE
  8
0
 10
-160.126
 20
-60.0076
 11
-160.931
 21
-60.8129
  0
LINE
  8
0
 10
-160.931
 20
-60.8129
 11
-162.031
 21
-61.1076
  0
LINE
  8
0
 10
-162.031
 20
-61.1076
 11
-163.131
 21
-60.8129
  0
LINE
  8
0
 10
-98.2899
 20
-92.428
 11
-98.9488
 21
-91.7691
  0
LINE
  8
0
 10
-98.9488
 20
-91.7691
 11
-99.1899
 21
-90.8691
  0
LINE
  8
0
 10
-99.1899
 20
-90.8691
 11
-98.9488
 21
-89.9691
  0
LINE
  8
0
 10
-98.9488
 20
-89.9691
 11
-98.2899
 21
-89.3103
  0
LINE
  8
0
 10
-98.2899
 20
-89.3103
 11
-97.3899
 21
-89.0691
  0
LINE
  8
0
 10
-97.3899
 20
-89.0691
 11
-96.4899
 21
-89.3103
  0
LINE
  8
0
 10
-96.4899
 20
-89.3103
 11
-95.8311
 21
-89.9691
  0
LINE
  8
0
 10
-95.8311
 20
-89.9691
 11
-95.5899
 21
-90.8691
  0
LINE
  8
0
 10
-95.5899
 20
-90.8691
 11
-95.8311
 21
-91.7691
  0
LINE
  8
0
 10
-95.8311
 20
-91.7691
 11
-96.4899
 21
-92.4279
  0
LINE
  8
0
 10
-96.4899
 20
-92.4279
 11
-97.3899
 21
-92.6691
  0
LINE
  8
0
 10
-97.3899
 20
-92.6691
 11
-98.2899
 21
-92.428
  0
LINE
  8
0
 10
96.4899
 20
-92.4279
 11
95.8311
 21
-91.7691
  0
LINE
  8
0
 10
95.8311
 20
-91.7691
 11
95.5899
 21
-90.8691
  0
LINE
  8
0
 10
95.5899
 20
-90.8691
 11
95.8311
 21
-89.9691
  0
LINE
  8
0
 10
95.8311
 20
-89.9691
 11
96.4899
 21
-89.3103
  0
LINE
  8
0
 10
96.4899
 20
-89.3103
 11
97.3899
 21
-89.0691
  0
LINE
  8
0
 10
97.3899
 20
-89.0691
 11
98.2899
 21
-89.3103
  0
LINE
  8
0
 10
98.2899
 20
-89.3103
 11
98.9488
 21
-89.9691
  0
LINE
  8
0
 10
98.9488
 20
-89.9691
 11
99.1899
 21
-90.8691
  0
LINE
  8
0
 10
99.1899
 20
-90.8691
 11
98.9488
 21
-91.7691
  0
LINE
  8
0
 10
98.9488
 20
-91.7691
 11
98.2899
 21
-92.428
  0
LINE
  8
0
 10
98.2899
 20
-92.428
 11
97.3899
 21
-92.6691
  0
LINE
  8
0
 10
97.3899
 20
-92.6691
 11
96.4899
 21
-92.4279
  0
LINE
  8
0
 10
-133.131
 20
-112.774
 11
-133.936
 21
-111.969
  0
LINE
  8
0
 10
-133.936
 20
-111.969
 11
-134.231
 21
-110.869
  0
LINE
  8
0
 10
-134.231
 20
-110.869
 11
-133.936
 21
-109.769
  0
LINE
  8
0
 10
-133.936
 20
-109.769
 11
-133.131
 21
-108.964
  0
LINE
  8
0
 10
-133.131
 20
-108.964
 11
-132.031
 21
-108.669
  0
LINE
  8
0
 10
-132.031
 20
-108.669
 11
-130.931
 21
-108.964
  0
LINE
  8
0
 10
-130.931
 20
-108.964
 11
-130.126
 21
-109.769
  0
LINE
  8
0
 10
-130.126
 20
-109.769
 11
-129.831
 21
-110.869
  0
LINE
  8
0
 10
-129.831
 20
-110.869
 11
-130.126
 21
-111.969
  0
LINE
  8
0
 10
-130.126
 20
-111.969
 11
-130.931
 21
-112.774
  0
LINE
  8
0
 10
-130.931
 20
-112.774
 11
-132.031
 21
-113.069
  0
LINE
  8
0
 10
-132.031
 20
-113.069
 11
-133.131
 21
-112.774
  0
LINE
  8
0
 10
130.931
 20
-112.774
 11
130.126
 21
-111.969
  0
LINE
  8
0
 10
130.126
 20
-111.969
 11
129.831
 21
-110.869
  0
LINE
  8
0
 10
129.831
 20
-110.869
 11
130.126
 21
-109.769
  0
LINE
  8
0
 10
130.126
 20
-109.769
 11
130.931
 21
-108.964
  0
LINE
  8
0
 10
130.931
 20
-108.964
 11
132.031
 21
-108.669
  0
LINE
  8
0
 10
132.031
 20
-108.669
 11
133.131
 21
-108.964
  0
LINE
  8
0
 10
133.131
 20
-108.964
 11
133.936
 21
-109.769
  0
LINE
  8
0
 10
133.936
 20
-109.769
 11
134.231
 21
-110.869
  0
LINE
  8
0
 10
134.231
 20
-110.869
 11
133.936
 21
-111.969
  0
LINE
  8
0
 10
133.936
 20
-111.969
 11
133.131
 21
-112.774
  0
LINE
  8
0
 10
133.131
 20
-112.774
 11
132.031
 21
-113.069
  0
LINE
  8
0
 10
132.031
 20
-113.069
 11
130.931
 21
-112.774
  0
ENDSEC
  0
SECTION
  2
OBJECTS
  0
DICTIONARY
  0
ENDSEC
  0
EOF
