  0
SECTION
  2
BLOCKS
  0
ENDSEC
  0
SECTION
  2
ENTITIES
  0
LINE
  8
0
 10
121.563
 20
-134.036
 11
123.855
 21
-133.016
  0
LINE
  8
0
 10
123.855
 20
-133.016
 11
125.884
 21
-131.541
  0
LINE
  8
0
 10
125.884
 20
-131.541
 11
127.563
 21
-129.677
  0
LINE
  8
0
 10
127.563
 20
-129.677
 11
176.085
 21
-45.6343
  0
LINE
  8
0
 10
176.085
 20
-45.6343
 11
176.86
 21
-43.2484
  0
LINE
  8
0
 10
176.86
 20
-43.2484
 11
177.122
 21
-40.7534
  0
LINE
  8
0
 10
177.122
 20
-40.7534
 11
176.86
 21
-38.2585
  0
LINE
  8
0
 10
176.86
 20
-38.2585
 11
176.085
 21
-35.8726
  0
LINE
  8
0
 10
176.085
 20
-35.8726
 11
56.9758
 21
170.43
  0
LINE
  8
0
 10
56.9758
 20
170.43
 11
55.2971
 21
172.294
  0
LINE
  8
0
 10
55.2971
 20
172.294
 11
53.2676
 21
173.769
  0
LINE
  8
0
 10
53.2676
 20
173.769
 11
50.9758
 21
174.789
  0
LINE
  8
0
 10
50.9758
 20
174.789
 11
48.5219
 21
175.311
  0
LINE
  8
0
 10
48.5219
 20
175.311
 11
-48.5219
 21
175.311
  0
LINE
  8
0
 10
-48.5219
 20
175.311
 11
-50.9758
 21
174.789
  0
LINE
  8
0
 10
-50.9758
 20
174.789
 11
-53.2676
 21
173.769
  0
LINE
  8
0
 10
-53.2676
 20
173.769
 11
-55.2971
 21
172.294
  0
LINE
  8
0
 10
-55.2971
 20
172.294
 11
-56.9758
 21
170.43
  0
LINE
  8
0
 10
-56.9758
 20
170.43
 11
-176.085
 21
-35.8726
  0
LINE
  8
0
 10
-176.085
 20
-35.8726
 11
-176.86
 21
-38.2585
  0
LINE
  8
0
 10
-176.86
 20
-38.2585
 11
-177.122
 21
-40.7534
  0
LINE
  8
0
 10
-177.122
 20
-40.7534
 11
-176.86
 21
-43.2484
  0
LINE
  8
0
 10
-176.86
 20
-43.2484
 11
-176.085
 21
-45.6343
  0
LINE
  8
0
 10
-176.085
 20
-45.6343
 11
-127.563
 21
-129.677
  0
LINE
  8
0
 10
-127.563
 20
-129.677
 11
-125.884
 21
-131.541
  0
LINE
  8
0
 10
-125.884
 20
-131.541
 11
-123.855
 21
-133.016
  0
LINE
  8
0
 10
-123.855
 20
-133.016
 11
-121.563
 21
-134.036
  0
LINE
  8
0
 10
-121.563
 20
-134.036
 11
-119.109
 21
-134.558
  0
LINE
  8
0
 10
-119.109
 20
-134.558
 11
119.109
 21
-134.558
  0
LINE
  8
0
 10
119.109
 20
-134.558
 11
121.563
 21
-134.036
  0
LINE
  8
0
 10
28.9
 20
167.871
 11
28.0947
 21
168.677
  0
LINE
  8
0
 10
28.0947
 20
168.677
 11
27.8
 21
169.777
  0
LINE
  8
0
 10
27.8
 20
169.777
 11
28.0947
 21
170.877
  0
LINE
  8
0
 10
28.0947
 20
170.877
 11
28.9
 21
171.682
  0
LINE
  8
0
 10
28.9
 20
171.682
 11
30
 21
171.977
  0
LINE
  8
0
 10
30
 20
171.977
 11
31.1
 21
171.682
  0
LINE
  8
0
 10
31.1
 20
171.682
 11
31.9052
 21
170.877
  0
LINE
  8
0
 10
31.9052
 20
170.877
 11
32.2
 21
169.777
  0
LINE
  8
0
 10
32.2
 20
169.777
 11
31.9052
 21
168.677
  0
LINE
  8
0
 10
31.9052
 20
168.677
 11
31.1
 21
167.871
  0
LINE
  8
0
 10
31.1
 20
167.871
 11
30
 21
167.577
  0
LINE
  8
0
 10
30
 20
167.577
 11
28.9
 21
167.871
  0
LINE
  8
0
 10
-31.1
 20
167.871
 11
-31.9052
 21
168.677
  0
LINE
  8
0
 10
-31.9052
 20
168.677
 11
-32.2
 21
169.777
  0
LINE
  8
0
 10
-32.2
 20
169.777
 11
-31.9052
 21
170.877
  0
LINE
  8
0
 10
-31.9052
 20
170.877
 11
-31.1
 21
171.682
  0
LINE
  8
0
 10
-31.1
 20
171.682
 11
-30
 21
171.977
  0
LINE
  8
0
 10
-30
 20
171.977
 11
-28.9
 21
171.682
  0
LINE
  8
0
 10
-28.9
 20
171.682
 11
-28.0947
 21
170.877
  0
LINE
  8
0
 10
-28.0947
 20
170.877
 11
-27.8
 21
169.777
  0
LINE
  8
0
 10
-27.8
 20
169.777
 11
-28.0947
 21
168.677
  0
LINE
  8
0
 10
-28.0947
 20
168.677
 11
-28.9
 21
167.871
  0
LINE
  8
0
 10
-28.9
 20
167.871
 11
-30
 21
167.577
  0
LINE
  8
0
 10
-30
 20
167.577
 11
-31.1
 21
167.871
  0
LINE
  8
0
 10
29.1
 20
128.218
 11
28.4411
 21
128.877
  0
LINE
  8
0
 10
28.4411
 20
128.877
 11
28.2
 21
129.777
  0
LINE
  8
0
 10
28.2
 20
129.777
 11
28.4411
 21
130.677
  0
LINE
  8
0
 10
28.4411
 20
130.677
 11
29.1
 21
131.336
  0
LINE
  8
0
 10
29.1
 20
131.336
 11
30
 21
131.577
  0
LINE
  8
0
 10
30
 20
131.577
 11
30.9
 21
131.336
  0
LINE
  8
0
 10
30.9
 20
131.336
 11
31.5588
 21
130.677
  0
LINE
  8
0
 10
31.5588
 20
130.677
 11
31.8
 21
129.777
  0
LINE
  8
0
 10
31.8
 20
129.777
 11
31.5588
 21
128.877
  0
LINE
  8
0
 10
31.5588
 20
128.877
 11
30.9
 21
128.218
  0
LINE
  8
0
 10
30.9
 20
128.218
 11
30
 21
127.977
  0
LINE
  8
0
 10
30
 20
127.977
 11
29.1
 21
128.218
  0
LINE
  8
0
 10
-30.9
 20
128.218
 11
-31.5588
 21
128.877
  0
LINE
  8
0
 10
-31.5588
 20
128.877
 11
-31.8
 21
129.777
  0
LINE
  8
0
 10
-31.8
 20
129.777
 11
-31.5588
 21
130.677
  0
LINE
  8
0
 10
-31.5588
 20
130.677
 11
-30.9
 21
131.336
  0
LINE
  8
0
 10
-30.9
 20
131.336
 11
-30
 21
131.577
  0
LINE
  8
0
 10
-30
 20
131.577
 11
-29.1
 21
131.336
  0
LINE
  8
0
 10
-29.1
 20
131.336
 11
-28.4411
 21
130.677
  0
LINE
  8
0
 10
-28.4411
 20
130.677
 11
-28.2
 21
129.777
  0
LINE
  8
0
 10
-28.2
 20
129.777
 11
-28.4411
 21
128.877
  0
LINE
  8
0
 10
-28.4411
 20
128.877
 11
-29.1
 21
128.218
  0
LINE
  8
0
 10
-29.1
 20
128.218
 11
-30
 21
127.977
  0
LINE
  8
0
 10
-30
 20
127.977
 11
-30.9
 21
128.218
  0
LINE
  8
0
 10
-102.244
 20
83.1894
 11
-100.744
 21
85.7875
  0
LINE
  8
0
 10
-100.744
 20
85.7875
 11
-99.4451
 21
85.0375
  0
LINE
  8
0
 10
-99.4451
 20
85.0375
 11
-100.945
 21
82.4394
  0
LINE
  8
0
 10
-100.945
 20
82.4394
 11
-102.244
 21
83.1894
  0
LINE
  8
0
 10
99.4451
 20
85.0375
 11
100.744
 21
85.7875
  0
LINE
  8
0
 10
100.744
 20
85.7875
 11
102.244
 21
83.1894
  0
LINE
  8
0
 10
102.244
 20
83.1894
 11
100.945
 21
82.4394
  0
LINE
  8
0
 10
100.945
 20
82.4394
 11
99.4451
 21
85.0375
  0
LINE
  8
0
 10
-97.048
 20
80.1894
 11
-95.548
 21
82.7875
  0
LINE
  8
0
 10
-95.548
 20
82.7875
 11
-94.2489
 21
82.0375
  0
LINE
  8
0
 10
-94.2489
 20
82.0375
 11
-95.7489
 21
79.4394
  0
LINE
  8
0
 10
-95.7489
 20
79.4394
 11
-97.048
 21
80.1894
  0
LINE
  8
0
 10
94.2489
 20
82.0375
 11
95.548
 21
82.7875
  0
LINE
  8
0
 10
95.548
 20
82.7875
 11
97.048
 21
80.1894
  0
LINE
  8
0
 10
97.048
 20
80.1894
 11
95.7489
 21
79.4394
  0
LINE
  8
0
 10
95.7489
 20
79.4394
 11
94.2489
 21
82.0375
  0
LINE
  8
0
 10
-124.666
 20
44.3532
 11
-123.166
 21
46.9513
  0
LINE
  8
0
 10
-123.166
 20
46.9513
 11
-121.867
 21
46.2013
  0
LINE
  8
0
 10
-121.867
 20
46.2013
 11
-123.367
 21
43.6032
  0
LINE
  8
0
 10
-123.367
 20
43.6032
 11
-124.666
 21
44.3532
  0
LINE
  8
0
 10
121.867
 20
46.2013
 11
123.166
 21
46.9513
  0
LINE
  8
0
 10
123.166
 20
46.9513
 11
124.666
 21
44.3532
  0
LINE
  8
0
 10
124.666
 20
44.3532
 11
123.367
 21
43.6032
  0
LINE
  8
0
 10
123.367
 20
43.6032
 11
121.867
 21
46.2013
  0
LINE
  8
0
 10
-119.47
 20
41.3532
 11
-117.97
 21
43.9513
  0
LINE
  8
0
 10
-117.97
 20
43.9513
 11
-116.671
 21
43.2013
  0
LINE
  8
0
 10
-116.671
 20
43.2013
 11
-118.171
 21
40.6032
  0
LINE
  8
0
 10
-118.171
 20
40.6032
 11
-119.47
 21
41.3532
  0
LINE
  8
0
 10
116.671
 20
43.2013
 11
117.97
 21
43.9513
  0
LINE
  8
0
 10
117.97
 20
43.9513
 11
119.47
 21
41.3532
  0
LINE
  8
0
 10
119.47
 20
41.3532
 11
118.171
 21
40.6032
  0
LINE
  8
0
 10
118.171
 20
40.6032
 11
116.671
 21
43.2013
  0
LINE
  8
0
 10
-29.2857
 20
-33.128
 11
-29.8992
 21
-32.9976
  0
LINE
  8
0
 10
-29.8992
 20
-32.9976
 11
-30.4721
 21
-32.7425
  0
LINE
  8
0
 10
-30.4721
 20
-32.7425
 11
-30.9795
 21
-32.3738
  0
LINE
  8
0
 10
-30.9795
 20
-32.3738
 11
-31.3992
 21
-31.9078
  0
LINE
  8
0
 10
-31.3992
 20
-31.9078
 11
-43.3325
 21
-11.2386
  0
LINE
  8
0
 10
-43.3325
 20
-11.2386
 11
-43.5263
 21
-10.6421
  0
LINE
  8
0
 10
-43.5263
 20
-10.6421
 11
-43.5919
 21
-10.0184
  0
LINE
  8
0
 10
-43.5919
 20
-10.0184
 11
-43.5263
 21
-9.39465
  0
LINE
  8
0
 10
-43.5263
 20
-9.39465
 11
-43.3325
 21
-8.79819
  0
LINE
  8
0
 10
-43.3325
 20
-8.79819
 11
-14.0468
 21
41.9262
  0
LINE
  8
0
 10
-14.0468
 20
41.9262
 11
-13.6272
 21
42.3922
  0
LINE
  8
0
 10
-13.6272
 20
42.3922
 11
-13.1198
 21
42.7609
  0
LINE
  8
0
 10
-13.1198
 20
42.7609
 11
-12.5468
 21
43.016
  0
LINE
  8
0
 10
-12.5468
 20
43.016
 11
-11.9333
 21
43.1464
  0
LINE
  8
0
 10
-11.9333
 20
43.1464
 11
11.9333
 21
43.1464
  0
LINE
  8
0
 10
11.9333
 20
43.1464
 11
12.5468
 21
43.016
  0
LINE
  8
0
 10
12.5468
 20
43.016
 11
13.1198
 21
42.7609
  0
LINE
  8
0
 10
13.1198
 20
42.7609
 11
13.6272
 21
42.3922
  0
LINE
  8
0
 10
13.6272
 20
42.3922
 11
14.0468
 21
41.9262
  0
LINE
  8
0
 10
14.0468
 20
41.9262
 11
43.3325
 21
-8.79819
  0
LINE
  8
0
 10
43.3325
 20
-8.79819
 11
43.5263
 21
-9.39465
  0
LINE
  8
0
 10
43.5263
 20
-9.39465
 11
43.5919
 21
-10.0184
  0
LINE
  8
0
 10
43.5919
 20
-10.0184
 11
43.5263
 21
-10.6421
  0
LINE
  8
0
 10
43.5263
 20
-10.6421
 11
43.3325
 21
-11.2386
  0
LINE
  8
0
 10
43.3325
 20
-11.2386
 11
31.3992
 21
-31.9078
  0
LINE
  8
0
 10
31.3992
 20
-31.9078
 11
30.9795
 21
-32.3738
  0
LINE
  8
0
 10
30.9795
 20
-32.3738
 11
30.4721
 21
-32.7425
  0
LINE
  8
0
 10
30.4721
 20
-32.7425
 11
29.8992
 21
-32.9976
  0
LINE
  8
0
 10
29.8992
 20
-32.9976
 11
29.2857
 21
-33.128
  0
LINE
  8
0
 10
29.2857
 20
-33.128
 11
-29.2857
 21
-33.128
  0
LINE
  8
0
 10
-37.6
 20
-46.9053
 11
-38.4052
 21
-46.1
  0
LINE
  8
0
 10
-38.4052
 20
-46.1
 11
-38.7
 21
-45
  0
LINE
  8
0
 10
-38.7
 20
-45
 11
-38.7
 21
-39
  0
LINE
  8
0
 10
-38.7
 20
-39
 11
-38.4052
 21
-37.9
  0
LINE
  8
0
 10
-38.4052
 20
-37.9
 11
-37.6
 21
-37.0948
  0
LINE
  8
0
 10
-37.6
 20
-37.0948
 11
-36.5
 21
-36.8
  0
LINE
  8
0
 10
-36.5
 20
-36.8
 11
-35.4
 21
-37.0948
  0
LINE
  8
0
 10
-35.4
 20
-37.0948
 11
-34.5947
 21
-37.9
  0
LINE
  8
0
 10
-34.5947
 20
-37.9
 11
-34.3
 21
-39
  0
LINE
  8
0
 10
-34.3
 20
-39
 11
-34.3
 21
-45
  0
LINE
  8
0
 10
-34.3
 20
-45
 11
-34.5947
 21
-46.1
  0
LINE
  8
0
 10
-34.5947
 20
-46.1
 11
-35.4
 21
-46.9053
  0
LINE
  8
0
 10
-35.4
 20
-46.9053
 11
-36.5
 21
-47.2
  0
LINE
  8
0
 10
-36.5
 20
-47.2
 11
-37.6
 21
-46.9053
  0
LINE
  8
0
 10
35.4
 20
-46.9053
 11
34.5947
 21
-46.1
  0
LINE
  8
0
 10
34.5947
 20
-46.1
 11
34.3
 21
-45
  0
LINE
  8
0
 10
34.3
 20
-45
 11
34.3
 21
-39
  0
LINE
  8
0
 10
34.3
 20
-39
 11
34.5947
 21
-37.9
  0
LINE
  8
0
 10
34.5947
 20
-37.9
 11
35.4
 21
-37.0948
  0
LINE
  8
0
 10
35.4
 20
-37.0948
 11
36.5
 21
-36.8
  0
LINE
  8
0
 10
36.5
 20
-36.8
 11
37.6
 21
-37.0948
  0
LINE
  8
0
 10
37.6
 20
-37.0948
 11
38.4052
 21
-37.9
  0
LINE
  8
0
 10
38.4052
 20
-37.9
 11
38.7
 21
-39
  0
LINE
  8
0
 10
38.7
 20
-39
 11
38.7
 21
-45
  0
LINE
  8
0
 10
38.7
 20
-45
 11
38.4052
 21
-46.1
  0
LINE
  8
0
 10
38.4052
 20
-46.1
 11
37.6
 21
-46.9053
  0
LINE
  8
0
 10
37.6
 20
-46.9053
 11
36.5
 21
-47.2
  0
LINE
  8
0
 10
36.5
 20
-47.2
 11
35.4
 21
-46.9053
  0
LINE
  8
0
 10
-128.29
 20
-40.4664
 11
-128.949
 21
-39.8076
  0
LINE
  8
0
 10
-128.949
 20
-39.8076
 11
-129.19
 21
-38.9076
  0
LINE
  8
0
 10
-129.19
 20
-38.9076
 11
-128.949
 21
-38.0076
  0
LINE
  8
0
 10
-128.949
 20
-38.0076
 11
-128.29
 21
-37.3488
  0
LINE
  8
0
 10
-128.29
 20
-37.3488
 11
-127.39
 21
-37.1076
  0
LINE
  8
0
 10
-127.39
 20
-37.1076
 11
-126.49
 21
-37.3488
  0
LINE
  8
0
 10
-126.49
 20
-37.3488
 11
-125.831
 21
-38.0076
  0
LINE
  8
0
 10
-125.831
 20
-38.0076
 11
-125.59
 21
-38.9076
  0
LINE
  8
0
 10
-125.59
 20
-38.9076
 11
-125.831
 21
-39.8076
  0
LINE
  8
0
 10
-125.831
 20
-39.8076
 11
-126.49
 21
-40.4664
  0
LINE
  8
0
 10
-126.49
 20
-40.4664
 11
-127.39
 21
-40.7076
  0
LINE
  8
0
 10
-127.39
 20
-40.7076
 11
-128.29
 21
-40.4664
  0
LINE
  8
0
 10
126.49
 20
-40.4664
 11
125.831
 21
-39.8076
  0
LINE
  8
0
 10
125.831
 20
-39.8076
 11
125.59
 21
-38.9076
  0
LINE
  8
0
 10
125.59
 20
-38.9076
 11
125.831
 21
-38.0076
  0
LINE
  8
0
 10
125.831
 20
-38.0076
 11
126.49
 21
-37.3488
  0
LINE
  8
0
 10
126.49
 20
-37.3488
 11
127.39
 21
-37.1076
  0
LINE
  8
0
 10
127.39
 20
-37.1076
 11
128.29
 21
-37.3488
  0
LINE
  8
0
 10
128.29
 20
-37.3488
 11
128.949
 21
-38.0076
  0
LINE
  8
0
 10
128.949
 20
-38.0076
 11
129.19
 21
-38.9076
  0
LINE
  8
0
 10
129.19
 20
-38.9076
 11
128.949
 21
-39.8076
  0
LINE
  8
0
 10
128.949
 20
-39.8076
 11
128.29
 21
-40.4664
  0
LINE
  8
0
 10
128.29
 20
-40.4664
 11
127.39
 21
-40.7076
  0
LINE
  8
0
 10
127.39
 20
-40.7076
 11
126.49
 21
-40.4664
  0
LINE
  8
0
 10
160.931
 20
-60.8129
 11
160.126
 21
-60.0076
  0
LINE
  8
0
 10
160.126
 20
-60.0076
 11
159.831
 21
-58.9076
  0
LINE
  8
0
 10
159.831
 20
-58.9076
 11
160.126
 21
-57.8076
  0
LINE
  8
0
 10
160.126
 20
-57.8076
 11
160.931
 21
-57.0023
  0
LINE
  8
0
 10
160.931
 20
-57.0023
 11
162.031
 21
-56.7076
  0
LINE
  8
0
 10
162.031
 20
-56.7076
 11
163.131
 21
-57.0023
  0
LINE
  8
0
 10
163.131
 20
-57.0023
 11
163.936
 21
-57.8076
  0
LINE
  8
0
 10
163.936
 20
-57.8076
 11
164.231
 21
-58.9076
  0
LINE
  8
0
 10
164.231
 20
-58.9076
 11
163.936
 21
-60.0076
  0
LINE
  8
0
 10
163.936
 20
-60.0076
 11
163.131
 21
-60.8129
  0
LINE
  8
0
 10
163.131
 20
-60.8129
 11
162.031
 21
-61.1076
  0
LINE
  8
0
 10
162.031
 20
-61.1076
 11
160.931
 21
-60.8129
  0
LINE
  8
0
 10
-163.131
 20
-60.8129
 11
-163.936
 21
-60.0076
  0
LINE
  8
0
 10
-163.936
 20
-60.0076
 11
-164.231
 21
-58.9076
  0
LINE
  8
0
 10
-164.231
 20
-58.9076
 11
-163.936
 21
-57.8076
  0
LINE
  8
0
 10
-163.936
 20
-57.8076
 11
-163.131
 21
-57.0023
  0
LINE
  8
0
 10
-163.131
 20
-57.0023
 11
-162.031
 21
-56.7076
  0
LINE
  8
0
 10
-162.031
 20
-56.7076
 11
-160.931
 21
-57.0023
  0
LINE
  8
0
 10
-160.931
 20
-57.0023
 11
-160.126
 21
-57.8076
  0
LINE
  8
0
 10
-160.126
 20
-57.8076
 11
-159.831
 21
-58.9076
  0
LINE
  8
0
 10
-159.831
 20
-58.9076
 11
-160.126
 21
-60.0076
  0
LINE
  8
0
 10
-160.126
 20
-60.0076
 11
-160.931
 21
-60.8129
  0
LINE
  8
0
 10
-160.931
 20
-60.8129
 11
-162.031
 21
-61.1076
  0
LINE
  8
0
 10
-162.031
 20
-61.1076
 11
-163.131
 21
-60.8129
  0
LINE
  8
0
 10
35.4
 20
-86.9052
 11
34.5947
 21
-86.1
  0
LINE
  8
0
 10
34.5947
 20
-86.1
 11
34.3
 21
-85
  0
LINE
  8
0
 10
34.3
 20
-85
 11
34.3
 21
-79
  0
LINE
  8
0
 10
34.3
 20
-79
 11
34.5947
 21
-77.9
  0
LINE
  8
0
 10
34.5947
 20
-77.9
 11
35.4
 21
-77.0948
  0
LINE
  8
0
 10
35.4
 20
-77.0948
 11
36.5
 21
-76.8
  0
LINE
  8
0
 10
36.5
 20
-76.8
 11
37.6
 21
-77.0948
  0
LINE
  8
0
 10
37.6
 20
-77.0948
 11
38.4052
 21
-77.9
  0
LINE
  8
0
 10
38.4052
 20
-77.9
 11
38.7
 21
-79
  0
LINE
  8
0
 10
38.7
 20
-79
 11
38.7
 21
-85
  0
LINE
  8
0
 10
38.7
 20
-85
 11
38.4052
 21
-86.1
  0
LINE
  8
0
 10
38.4052
 20
-86.1
 11
37.6
 21
-86.9052
  0
LINE
  8
0
 10
37.6
 20
-86.9052
 11
36.5
 21
-87.2
  0
LINE
  8
0
 10
36.5
 20
-87.2
 11
35.4
 21
-86.9052
  0
LINE
  8
0
 10
-37.6
 20
-86.9052
 11
-38.4052
 21
-86.1
  0
LINE
  8
0
 10
-38.4052
 20
-86.1
 11
-38.7
 21
-85
  0
LINE
  8
0
 10
-38.7
 20
-85
 11
-38.7
 21
-79
  0
LINE
  8
0
 10
-38.7
 20
-79
 11
-38.4052
 21
-77.9
  0
LINE
  8
0
 10
-38.4052
 20
-77.9
 11
-37.6
 21
-77.0948
  0
LINE
  8
0
 10
-37.6
 20
-77.0948
 11
-36.5
 21
-76.8
  0
LINE
  8
0
 10
-36.5
 20
-76.8
 11
-35.4
 21
-77.0948
  0
LINE
  8
0
 10
-35.4
 20
-77.0948
 11
-34.5947
 21
-77.9
  0
LINE
  8
0
 10
-34.5947
 20
-77.9
 11
-34.3
 21
-79
  0
LINE
  8
0
 10
-34.3
 20
-79
 11
-34.3
 21
-85
  0
LINE
  8
0
 10
-34.3
 20
-85
 11
-34.5947
 21
-86.1
  0
LINE
  8
0
 10
-34.5947
 20
-86.1
 11
-35.4
 21
-86.9052
  0
LINE
  8
0
 10
-35.4
 20
-86.9052
 11
-36.5
 21
-87.2
  0
LINE
  8
0
 10
-36.5
 20
-87.2
 11
-37.6
 21
-86.9052
  0
LINE
  8
0
 10
96.4899
 20
-92.4279
 11
95.8311
 21
-91.7691
  0
LINE
  8
0
 10
95.8311
 20
-91.7691
 11
95.5899
 21
-90.8691
  0
LINE
  8
0
 10
95.5899
 20
-90.8691
 11
95.8311
 21
-89.9691
  0
LINE
  8
0
 10
95.8311
 20
-89.9691
 11
96.4899
 21
-89.3103
  0
LINE
  8
0
 10
96.4899
 20
-89.3103
 11
97.3899
 21
-89.0691
  0
LINE
  8
0
 10
97.3899
 20
-89.0691
 11
98.2899
 21
-89.3103
  0
LINE
  8
0
 10
98.2899
 20
-89.3103
 11
98.9488
 21
-89.9691
  0
LINE
  8
0
 10
98.9488
 20
-89.9691
 11
99.1899
 21
-90.8691
  0
LINE
  8
0
 10
99.1899
 20
-90.8691
 11
98.9488
 21
-91.7691
  0
LINE
  8
0
 10
98.9488
 20
-91.7691
 11
98.2899
 21
-92.428
  0
LINE
  8
0
 10
98.2899
 20
-92.428
 11
97.3899
 21
-92.6691
  0
LINE
  8
0
 10
97.3899
 20
-92.6691
 11
96.4899
 21
-92.4279
  0
LINE
  8
0
 10
-98.2899
 20
-92.428
 11
-98.9488
 21
-91.7691
  0
LINE
  8
0
 10
-98.9488
 20
-91.7691
 11
-99.1899
 21
-90.8691
  0
LINE
  8
0
 10
-99.1899
 20
-90.8691
 11
-98.9488
 21
-89.9691
  0
LINE
  8
0
 10
-98.9488
 20
-89.9691
 11
-98.2899
 21
-89.3103
  0
LINE
  8
0
 10
-98.2899
 20
-89.3103
 11
-97.3899
 21
-89.0691
  0
LINE
  8
0
 10
-97.3899
 20
-89.0691
 11
-96.4899
 21
-89.3103
  0
LINE
  8
0
 10
-96.4899
 20
-89.3103
 11
-95.8311
 21
-89.9691
  0
LINE
  8
0
 10
-95.8311
 20
-89.9691
 11
-95.5899
 21
-90.8691
  0
LINE
  8
0
 10
-95.5899
 20
-90.8691
 11
-95.8311
 21
-91.7691
  0
LINE
  8
0
 10
-95.8311
 20
-91.7691
 11
-96.4899
 21
-92.4279
  0
LINE
  8
0
 10
-96.4899
 20
-92.4279
 11
-97.3899
 21
-92.6691
  0
LINE
  8
0
 10
-97.3899
 20
-92.6691
 11
-98.2899
 21
-92.428
  0
LINE
  8
0
 10
130.931
 20
-112.774
 11
130.126
 21
-111.969
  0
LINE
  8
0
 10
130.126
 20
-111.969
 11
129.831
 21
-110.869
  0
LINE
  8
0
 10
129.831
 20
-110.869
 11
130.126
 21
-109.769
  0
LINE
  8
0
 10
130.126
 20
-109.769
 11
130.931
 21
-108.964
  0
LINE
  8
0
 10
130.931
 20
-108.964
 11
132.031
 21
-108.669
  0
LINE
  8
0
 10
132.031
 20
-108.669
 11
133.131
 21
-108.964
  0
LINE
  8
0
 10
133.131
 20
-108.964
 11
133.936
 21
-109.769
  0
LINE
  8
0
 10
133.936
 20
-109.769
 11
134.231
 21
-110.869
  0
LINE
  8
0
 10
134.231
 20
-110.869
 11
133.936
 21
-111.969
  0
LINE
  8
0
 10
133.936
 20
-111.969
 11
133.131
 21
-112.774
  0
LINE
  8
0
 10
133.131
 20
-112.774
 11
132.031
 21
-113.069
  0
LINE
  8
0
 10
132.031
 20
-113.069
 11
130.931
 21
-112.774
  0
LINE
  8
0
 10
-133.131
 20
-112.774
 11
-133.936
 21
-111.969
  0
LINE
  8
0
 10
-133.936
 20
-111.969
 11
-134.231
 21
-110.869
  0
LINE
  8
0
 10
-134.231
 20
-110.869
 11
-133.936
 21
-109.769
  0
LINE
  8
0
 10
-133.936
 20
-109.769
 11
-133.131
 21
-108.964
  0
LINE
  8
0
 10
-133.131
 20
-108.964
 11
-132.031
 21
-108.669
  0
LINE
  8
0
 10
-132.031
 20
-108.669
 11
-130.931
 21
-108.964
  0
LINE
  8
0
 10
-130.931
 20
-108.964
 11
-130.126
 21
-109.769
  0
LINE
  8
0
 10
-130.126
 20
-109.769
 11
-129.831
 21
-110.869
  0
LINE
  8
0
 10
-129.831
 20
-110.869
 11
-130.126
 21
-111.969
  0
LINE
  8
0
 10
-130.126
 20
-111.969
 11
-130.931
 21
-112.774
  0
LINE
  8
0
 10
-130.931
 20
-112.774
 11
-132.031
 21
-113.069
  0
LINE
  8
0
 10
-132.031
 20
-113.069
 11
-133.131
 21
-112.774
  0
ENDSEC
  0
SECTION
  2
OBJECTS
  0
DICTIONARY
  0
ENDSEC
  0
EOF
