ISO-10303-21;
HEADER;
FILE_DESCRIPTION(('FreeCAD Model'),'2;1');
FILE_NAME('Open CASCADE Shape Model','2026-03-05T20:22:46',(''),(''),
  'Open CASCADE STEP processor 7.8','FreeCAD','Unknown');
FILE_SCHEMA(('AUTOMOTIVE_DESIGN { 1 0 10303 214 1 1 1 1 }'));
ENDSEC;
DATA;
#1 = APPLICATION_PROTOCOL_DEFINITION('international standard',
  'automotive_design',2000,#2);
#2 = APPLICATION_CONTEXT(
  'core data for automotive mechanical design processes');
#3 = SHAPE_DEFINITION_REPRESENTATION(#4,#10);
#4 = PRODUCT_DEFINITION_SHAPE('','',#5);
#5 = PRODUCT_DEFINITION('design','',#6,#9);
#6 = PRODUCT_DEFINITION_FORMATION('','',#7);
#7 = PRODUCT('bracket','bracket','',(#8));
#8 = PRODUCT_CONTEXT('',#2,'mechanical');
#9 = PRODUCT_DEFINITION_CONTEXT('part definition',#2,'design');
#10 = SHAPE_REPRESENTATION('',(#11,#15,#19,#23),#27);
#11 = AXIS2_PLACEMENT_3D('',#12,#13,#14);
#12 = CARTESIAN_POINT('',(0.,0.,0.));
#13 = DIRECTION('',(0.,0.,1.));
#14 = DIRECTION('',(1.,0.,-0.));
#15 = AXIS2_PLACEMENT_3D('',#16,#17,#18);
#16 = CARTESIAN_POINT('',(0.,50.,3.));
#17 = DIRECTION('',(0.,0.,1.));
#18 = DIRECTION('',(1.,0.,0.));
#19 = AXIS2_PLACEMENT_3D('',#20,#21,#22);
#20 = CARTESIAN_POINT('',(50.,100.,0.));
#21 = DIRECTION('',(0.,0.,1.));
#22 = DIRECTION('',(1.,0.,0.));
#23 = AXIS2_PLACEMENT_3D('',#24,#25,#26);
#24 = CARTESIAN_POINT('',(0.,0.,10.));
#25 = DIRECTION('',(0.,0.,1.));
#26 = DIRECTION('',(1.,0.,0.));
#27 = ( GEOMETRIC_REPRESENTATION_CONTEXT(3) 
GLOBAL_UNCERTAINTY_ASSIGNED_CONTEXT((#31)) GLOBAL_UNIT_ASSIGNED_CONTEXT(
(#28,#29,#30)) REPRESENTATION_CONTEXT('Context #1',
  '3D Context with UNIT and UNCERTAINTY') );
#28 = ( LENGTH_UNIT() NAMED_UNIT(*) SI_UNIT(.MILLI.,.METRE.) );
#29 = ( NAMED_UNIT(*) PLANE_ANGLE_UNIT() SI_UNIT($,.RADIAN.) );
#30 = ( NAMED_UNIT(*) SI_UNIT($,.STERADIAN.) SOLID_ANGLE_UNIT() );
#31 = UNCERTAINTY_MEASURE_WITH_UNIT(LENGTH_MEASURE(5.E-06),#28,
  'distance_accuracy_value','confusion accuracy');
#32 = PRODUCT_RELATED_PRODUCT_CATEGORY('part',$,(#7));
#33 = SHAPE_DEFINITION_REPRESENTATION(#34,#40);
#34 = PRODUCT_DEFINITION_SHAPE('','',#35);
#35 = PRODUCT_DEFINITION('design','',#36,#39);
#36 = PRODUCT_DEFINITION_FORMATION('','',#37);
#37 = PRODUCT('difference','difference','',(#38));
#38 = PRODUCT_CONTEXT('',#2,'mechanical');
#39 = PRODUCT_DEFINITION_CONTEXT('part definition',#2,'design');
#40 = ADVANCED_BREP_SHAPE_REPRESENTATION('',(#11,#41),#341);
#41 = MANIFOLD_SOLID_BREP('',#42);
#42 = CLOSED_SHELL('',(#43,#76,#96,#155,#180,#211,#235,#259,#283,#307,
    #324));
#43 = ADVANCED_FACE('',(#44),#71,.T.);
#44 = FACE_BOUND('',#45,.F.);
#45 = EDGE_LOOP('',(#46,#56,#63,#64));
#46 = ORIENTED_EDGE('',*,*,#47,.T.);
#47 = EDGE_CURVE('',#48,#50,#52,.T.);
#48 = VERTEX_POINT('',#49);
#49 = CARTESIAN_POINT('',(5.,-1.224646799147E-15,-3.));
#50 = VERTEX_POINT('',#51);
#51 = CARTESIAN_POINT('',(5.,-1.224646799147E-15,3.));
#52 = LINE('',#53,#54);
#53 = CARTESIAN_POINT('',(5.,-1.224646799147E-15,-3.));
#54 = VECTOR('',#55,1.);
#55 = DIRECTION('',(0.,0.,1.));
#56 = ORIENTED_EDGE('',*,*,#57,.T.);
#57 = EDGE_CURVE('',#50,#50,#58,.T.);
#58 = CIRCLE('',#59,5.);
#59 = AXIS2_PLACEMENT_3D('',#60,#61,#62);
#60 = CARTESIAN_POINT('',(0.,0.,3.));
#61 = DIRECTION('',(0.,0.,1.));
#62 = DIRECTION('',(1.,0.,0.));
#63 = ORIENTED_EDGE('',*,*,#47,.F.);
#64 = ORIENTED_EDGE('',*,*,#65,.F.);
#65 = EDGE_CURVE('',#48,#48,#66,.T.);
#66 = CIRCLE('',#67,5.);
#67 = AXIS2_PLACEMENT_3D('',#68,#69,#70);
#68 = CARTESIAN_POINT('',(0.,0.,-3.));
#69 = DIRECTION('',(0.,0.,1.));
#70 = DIRECTION('',(1.,0.,0.));
#71 = CYLINDRICAL_SURFACE('',#72,5.);
#72 = AXIS2_PLACEMENT_3D('',#73,#74,#75);
#73 = CARTESIAN_POINT('',(0.,0.,-3.));
#74 = DIRECTION('',(-0.,-0.,-1.));
#75 = DIRECTION('',(1.,0.,0.));
#76 = ADVANCED_FACE('',(#77,#80),#91,.F.);
#77 = FACE_BOUND('',#78,.F.);
#78 = EDGE_LOOP('',(#79));
#79 = ORIENTED_EDGE('',*,*,#65,.T.);
#80 = FACE_BOUND('',#81,.F.);
#81 = EDGE_LOOP('',(#82));
#82 = ORIENTED_EDGE('',*,*,#83,.F.);
#83 = EDGE_CURVE('',#84,#84,#86,.T.);
#84 = VERTEX_POINT('',#85);
#85 = CARTESIAN_POINT('',(-1.7,-4.163799117101E-16,-3.));
#86 = CIRCLE('',#87,1.7);
#87 = AXIS2_PLACEMENT_3D('',#88,#89,#90);
#88 = CARTESIAN_POINT('',(6.123233995737E-16,0.,-3.));
#89 = DIRECTION('',(-1.224646799147E-16,-0.,1.));
#90 = DIRECTION('',(-1.,0.,-1.224646799147E-16));
#91 = PLANE('',#92);
#92 = AXIS2_PLACEMENT_3D('',#93,#94,#95);
#93 = CARTESIAN_POINT('',(0.,0.,-3.));
#94 = DIRECTION('',(0.,0.,1.));
#95 = DIRECTION('',(1.,0.,0.));
#96 = ADVANCED_FACE('',(#97,#100),#150,.T.);
#97 = FACE_BOUND('',#98,.T.);
#98 = EDGE_LOOP('',(#99));
#99 = ORIENTED_EDGE('',*,*,#57,.T.);
#100 = FACE_BOUND('',#101,.T.);
#101 = EDGE_LOOP('',(#102,#112,#120,#128,#136,#144));
#102 = ORIENTED_EDGE('',*,*,#103,.T.);
#103 = EDGE_CURVE('',#104,#106,#108,.T.);
#104 = VERTEX_POINT('',#105);
#105 = CARTESIAN_POINT('',(-1.6,-2.77128129211,3.));
#106 = VERTEX_POINT('',#107);
#107 = CARTESIAN_POINT('',(-3.2,0.,3.));
#108 = LINE('',#109,#110);
#109 = CARTESIAN_POINT('',(-2.,-2.078460969083,3.));
#110 = VECTOR('',#111,1.);
#111 = DIRECTION('',(-0.5,0.866025403784,0.));
#112 = ORIENTED_EDGE('',*,*,#113,.T.);
#113 = EDGE_CURVE('',#106,#114,#116,.T.);
#114 = VERTEX_POINT('',#115);
#115 = CARTESIAN_POINT('',(-1.6,2.77128129211,3.));
#116 = LINE('',#117,#118);
#117 = CARTESIAN_POINT('',(-2.8,0.692820323028,3.));
#118 = VECTOR('',#119,1.);
#119 = DIRECTION('',(0.5,0.866025403784,-0.));
#120 = ORIENTED_EDGE('',*,*,#121,.T.);
#121 = EDGE_CURVE('',#114,#122,#124,.T.);
#122 = VERTEX_POINT('',#123);
#123 = CARTESIAN_POINT('',(1.6,2.77128129211,3.));
#124 = LINE('',#125,#126);
#125 = CARTESIAN_POINT('',(-0.8,2.77128129211,3.));
#126 = VECTOR('',#127,1.);
#127 = DIRECTION('',(1.,2.775557561563E-16,-0.));
#128 = ORIENTED_EDGE('',*,*,#129,.T.);
#129 = EDGE_CURVE('',#122,#130,#132,.T.);
#130 = VERTEX_POINT('',#131);
#131 = CARTESIAN_POINT('',(3.2,1.33226762955E-15,3.));
#132 = LINE('',#133,#134);
#133 = CARTESIAN_POINT('',(2.,2.078460969083,3.));
#134 = VECTOR('',#135,1.);
#135 = DIRECTION('',(0.5,-0.866025403784,0.));
#136 = ORIENTED_EDGE('',*,*,#137,.T.);
#137 = EDGE_CURVE('',#130,#138,#140,.T.);
#138 = VERTEX_POINT('',#139);
#139 = CARTESIAN_POINT('',(1.6,-2.77128129211,3.));
#140 = LINE('',#141,#142);
#141 = CARTESIAN_POINT('',(2.8,-0.692820323028,3.));
#142 = VECTOR('',#143,1.);
#143 = DIRECTION('',(-0.5,-0.866025403784,0.));
#144 = ORIENTED_EDGE('',*,*,#145,.T.);
#145 = EDGE_CURVE('',#138,#104,#146,.T.);
#146 = LINE('',#147,#148);
#147 = CARTESIAN_POINT('',(0.8,-2.77128129211,3.));
#148 = VECTOR('',#149,1.);
#149 = DIRECTION('',(-1.,-6.938893903907E-16,0.));
#150 = PLANE('',#151);
#151 = AXIS2_PLACEMENT_3D('',#152,#153,#154);
#152 = CARTESIAN_POINT('',(0.,0.,3.));
#153 = DIRECTION('',(0.,0.,1.));
#154 = DIRECTION('',(1.,0.,0.));
#155 = ADVANCED_FACE('',(#156),#175,.F.);
#156 = FACE_BOUND('',#157,.T.);
#157 = EDGE_LOOP('',(#158,#166,#173,#174));
#158 = ORIENTED_EDGE('',*,*,#159,.F.);
#159 = EDGE_CURVE('',#160,#84,#162,.T.);
#160 = VERTEX_POINT('',#161);
#161 = CARTESIAN_POINT('',(-1.7,-4.163799117101E-16,0.85));
#162 = LINE('',#163,#164);
#163 = CARTESIAN_POINT('',(-1.7,-4.163799117101E-16,2.));
#164 = VECTOR('',#165,1.);
#165 = DIRECTION('',(1.224646799147E-16,0.,-1.));
#166 = ORIENTED_EDGE('',*,*,#167,.T.);
#167 = EDGE_CURVE('',#160,#160,#168,.T.);
#168 = CIRCLE('',#169,1.7);
#169 = AXIS2_PLACEMENT_3D('',#170,#171,#172);
#170 = CARTESIAN_POINT('',(1.408343819019E-16,0.,0.85));
#171 = DIRECTION('',(-1.224646799147E-16,-0.,1.));
#172 = DIRECTION('',(-1.,0.,-1.224646799147E-16));
#173 = ORIENTED_EDGE('',*,*,#159,.T.);
#174 = ORIENTED_EDGE('',*,*,#83,.F.);
#175 = CYLINDRICAL_SURFACE('',#176,1.7);
#176 = AXIS2_PLACEMENT_3D('',#177,#178,#179);
#177 = CARTESIAN_POINT('',(0.,0.,2.));
#178 = DIRECTION('',(-1.224646799147E-16,-0.,1.));
#179 = DIRECTION('',(-1.,0.,-1.224646799147E-16));
#180 = ADVANCED_FACE('',(#181),#206,.T.);
#181 = FACE_BOUND('',#182,.T.);
#182 = EDGE_LOOP('',(#183,#184,#192,#200));
#183 = ORIENTED_EDGE('',*,*,#103,.F.);
#184 = ORIENTED_EDGE('',*,*,#185,.T.);
#185 = EDGE_CURVE('',#104,#186,#188,.T.);
#186 = VERTEX_POINT('',#187);
#187 = CARTESIAN_POINT('',(-1.6,-2.77128129211,0.85));
#188 = LINE('',#189,#190);
#189 = CARTESIAN_POINT('',(-1.6,-2.77128129211,3.15));
#190 = VECTOR('',#191,1.);
#191 = DIRECTION('',(1.224646799147E-16,0.,-1.));
#192 = ORIENTED_EDGE('',*,*,#193,.T.);
#193 = EDGE_CURVE('',#186,#194,#196,.T.);
#194 = VERTEX_POINT('',#195);
#195 = CARTESIAN_POINT('',(-3.2,0.,0.85));
#196 = LINE('',#197,#198);
#197 = CARTESIAN_POINT('',(-1.6,-2.77128129211,0.85));
#198 = VECTOR('',#199,1.);
#199 = DIRECTION('',(-0.5,0.866025403784,-6.123233995737E-17));
#200 = ORIENTED_EDGE('',*,*,#201,.F.);
#201 = EDGE_CURVE('',#106,#194,#202,.T.);
#202 = LINE('',#203,#204);
#203 = CARTESIAN_POINT('',(-3.2,0.,3.15));
#204 = VECTOR('',#205,1.);
#205 = DIRECTION('',(1.224646799147E-16,0.,-1.));
#206 = PLANE('',#207);
#207 = AXIS2_PLACEMENT_3D('',#208,#209,#210);
#208 = CARTESIAN_POINT('',(-1.6,-2.77128129211,3.15));
#209 = DIRECTION('',(0.866025403784,0.5,1.060575238725E-16));
#210 = DIRECTION('',(-0.5,0.866025403784,-6.123233995737E-17));
#211 = ADVANCED_FACE('',(#212),#230,.T.);
#212 = FACE_BOUND('',#213,.T.);
#213 = EDGE_LOOP('',(#214,#215,#223,#229));
#214 = ORIENTED_EDGE('',*,*,#145,.F.);
#215 = ORIENTED_EDGE('',*,*,#216,.T.);
#216 = EDGE_CURVE('',#138,#217,#219,.T.);
#217 = VERTEX_POINT('',#218);
#218 = CARTESIAN_POINT('',(1.6,-2.77128129211,0.85));
#219 = LINE('',#220,#221);
#220 = CARTESIAN_POINT('',(1.6,-2.77128129211,3.15));
#221 = VECTOR('',#222,1.);
#222 = DIRECTION('',(1.224646799147E-16,0.,-1.));
#223 = ORIENTED_EDGE('',*,*,#224,.T.);
#224 = EDGE_CURVE('',#217,#186,#225,.T.);
#225 = LINE('',#226,#227);
#226 = CARTESIAN_POINT('',(1.6,-2.77128129211,0.85));
#227 = VECTOR('',#228,1.);
#228 = DIRECTION('',(-1.,-6.938893903907E-16,-1.224646799147E-16));
#229 = ORIENTED_EDGE('',*,*,#185,.F.);
#230 = PLANE('',#231);
#231 = AXIS2_PLACEMENT_3D('',#232,#233,#234);
#232 = CARTESIAN_POINT('',(1.6,-2.77128129211,3.15));
#233 = DIRECTION('',(-6.938893903907E-16,1.,-8.497694209043E-32));
#234 = DIRECTION('',(-1.,-6.938893903907E-16,-1.224646799147E-16));
#235 = ADVANCED_FACE('',(#236),#254,.T.);
#236 = FACE_BOUND('',#237,.T.);
#237 = EDGE_LOOP('',(#238,#239,#247,#253));
#238 = ORIENTED_EDGE('',*,*,#137,.F.);
#239 = ORIENTED_EDGE('',*,*,#240,.T.);
#240 = EDGE_CURVE('',#130,#241,#243,.T.);
#241 = VERTEX_POINT('',#242);
#242 = CARTESIAN_POINT('',(3.2,1.33226762955E-15,0.85));
#243 = LINE('',#244,#245);
#244 = CARTESIAN_POINT('',(3.2,1.33226762955E-15,3.15));
#245 = VECTOR('',#246,1.);
#246 = DIRECTION('',(1.224646799147E-16,0.,-1.));
#247 = ORIENTED_EDGE('',*,*,#248,.T.);
#248 = EDGE_CURVE('',#241,#217,#249,.T.);
#249 = LINE('',#250,#251);
#250 = CARTESIAN_POINT('',(3.2,1.33226762955E-15,0.85));
#251 = VECTOR('',#252,1.);
#252 = DIRECTION('',(-0.5,-0.866025403784,-6.123233995737E-17));
#253 = ORIENTED_EDGE('',*,*,#216,.F.);
#254 = PLANE('',#255);
#255 = AXIS2_PLACEMENT_3D('',#256,#257,#258);
#256 = CARTESIAN_POINT('',(3.2,1.33226762955E-15,3.15));
#257 = DIRECTION('',(-0.866025403784,0.5,-1.060575238725E-16));
#258 = DIRECTION('',(-0.5,-0.866025403784,-6.123233995737E-17));
#259 = ADVANCED_FACE('',(#260),#278,.T.);
#260 = FACE_BOUND('',#261,.T.);
#261 = EDGE_LOOP('',(#262,#263,#271,#277));
#262 = ORIENTED_EDGE('',*,*,#129,.F.);
#263 = ORIENTED_EDGE('',*,*,#264,.T.);
#264 = EDGE_CURVE('',#122,#265,#267,.T.);
#265 = VERTEX_POINT('',#266);
#266 = CARTESIAN_POINT('',(1.6,2.77128129211,0.85));
#267 = LINE('',#268,#269);
#268 = CARTESIAN_POINT('',(1.6,2.77128129211,3.15));
#269 = VECTOR('',#270,1.);
#270 = DIRECTION('',(1.224646799147E-16,0.,-1.));
#271 = ORIENTED_EDGE('',*,*,#272,.T.);
#272 = EDGE_CURVE('',#265,#241,#273,.T.);
#273 = LINE('',#274,#275);
#274 = CARTESIAN_POINT('',(1.6,2.77128129211,0.85));
#275 = VECTOR('',#276,1.);
#276 = DIRECTION('',(0.5,-0.866025403784,6.123233995737E-17));
#277 = ORIENTED_EDGE('',*,*,#240,.F.);
#278 = PLANE('',#279);
#279 = AXIS2_PLACEMENT_3D('',#280,#281,#282);
#280 = CARTESIAN_POINT('',(1.6,2.77128129211,3.15));
#281 = DIRECTION('',(-0.866025403784,-0.5,-1.060575238725E-16));
#282 = DIRECTION('',(0.5,-0.866025403784,6.123233995737E-17));
#283 = ADVANCED_FACE('',(#284),#302,.T.);
#284 = FACE_BOUND('',#285,.T.);
#285 = EDGE_LOOP('',(#286,#287,#295,#301));
#286 = ORIENTED_EDGE('',*,*,#121,.F.);
#287 = ORIENTED_EDGE('',*,*,#288,.T.);
#288 = EDGE_CURVE('',#114,#289,#291,.T.);
#289 = VERTEX_POINT('',#290);
#290 = CARTESIAN_POINT('',(-1.6,2.77128129211,0.85));
#291 = LINE('',#292,#293);
#292 = CARTESIAN_POINT('',(-1.6,2.77128129211,3.15));
#293 = VECTOR('',#294,1.);
#294 = DIRECTION('',(1.224646799147E-16,0.,-1.));
#295 = ORIENTED_EDGE('',*,*,#296,.T.);
#296 = EDGE_CURVE('',#289,#265,#297,.T.);
#297 = LINE('',#298,#299);
#298 = CARTESIAN_POINT('',(-1.6,2.77128129211,0.85));
#299 = VECTOR('',#300,1.);
#300 = DIRECTION('',(1.,2.775557561563E-16,1.224646799147E-16));
#301 = ORIENTED_EDGE('',*,*,#264,.F.);
#302 = PLANE('',#303);
#303 = AXIS2_PLACEMENT_3D('',#304,#305,#306);
#304 = CARTESIAN_POINT('',(-1.6,2.77128129211,3.15));
#305 = DIRECTION('',(2.775557561563E-16,-1.,3.399077683617E-32));
#306 = DIRECTION('',(1.,2.775557561563E-16,1.224646799147E-16));
#307 = ADVANCED_FACE('',(#308),#319,.T.);
#308 = FACE_BOUND('',#309,.T.);
#309 = EDGE_LOOP('',(#310,#311,#312,#318));
#310 = ORIENTED_EDGE('',*,*,#113,.F.);
#311 = ORIENTED_EDGE('',*,*,#201,.T.);
#312 = ORIENTED_EDGE('',*,*,#313,.T.);
#313 = EDGE_CURVE('',#194,#289,#314,.T.);
#314 = LINE('',#315,#316);
#315 = CARTESIAN_POINT('',(-3.2,0.,0.85));
#316 = VECTOR('',#317,1.);
#317 = DIRECTION('',(0.5,0.866025403784,6.123233995737E-17));
#318 = ORIENTED_EDGE('',*,*,#288,.F.);
#319 = PLANE('',#320);
#320 = AXIS2_PLACEMENT_3D('',#321,#322,#323);
#321 = CARTESIAN_POINT('',(-3.2,0.,3.15));
#322 = DIRECTION('',(0.866025403784,-0.5,1.060575238725E-16));
#323 = DIRECTION('',(0.5,0.866025403784,6.123233995737E-17));
#324 = ADVANCED_FACE('',(#325,#333),#336,.F.);
#325 = FACE_BOUND('',#326,.F.);
#326 = EDGE_LOOP('',(#327,#328,#329,#330,#331,#332));
#327 = ORIENTED_EDGE('',*,*,#313,.T.);
#328 = ORIENTED_EDGE('',*,*,#296,.T.);
#329 = ORIENTED_EDGE('',*,*,#272,.T.);
#330 = ORIENTED_EDGE('',*,*,#248,.T.);
#331 = ORIENTED_EDGE('',*,*,#224,.T.);
#332 = ORIENTED_EDGE('',*,*,#193,.T.);
#333 = FACE_BOUND('',#334,.F.);
#334 = EDGE_LOOP('',(#335));
#335 = ORIENTED_EDGE('',*,*,#167,.T.);
#336 = PLANE('',#337);
#337 = AXIS2_PLACEMENT_3D('',#338,#339,#340);
#338 = CARTESIAN_POINT('',(4.183901380582E-16,9.251858538543E-17,0.85));
#339 = DIRECTION('',(1.224646799147E-16,0.,-1.));
#340 = DIRECTION('',(-1.,0.,-1.224646799147E-16));
#341 = ( GEOMETRIC_REPRESENTATION_CONTEXT(3) 
GLOBAL_UNCERTAINTY_ASSIGNED_CONTEXT((#345)) GLOBAL_UNIT_ASSIGNED_CONTEXT
((#342,#343,#344)) REPRESENTATION_CONTEXT('Context #1',
  '3D Context with UNIT and UNCERTAINTY') );
#342 = ( LENGTH_UNIT() NAMED_UNIT(*) SI_UNIT(.MILLI.,.METRE.) );
#343 = ( NAMED_UNIT(*) PLANE_ANGLE_UNIT() SI_UNIT($,.RADIAN.) );
#344 = ( NAMED_UNIT(*) SI_UNIT($,.STERADIAN.) SOLID_ANGLE_UNIT() );
#345 = UNCERTAINTY_MEASURE_WITH_UNIT(LENGTH_MEASURE(2.E-06),#342,
  'distance_accuracy_value','confusion accuracy');
#346 = CONTEXT_DEPENDENT_SHAPE_REPRESENTATION(#347,#349);
#347 = ( REPRESENTATION_RELATIONSHIP('','',#40,#10) 
REPRESENTATION_RELATIONSHIP_WITH_TRANSFORMATION(#348) 
SHAPE_REPRESENTATION_RELATIONSHIP() );
#348 = ITEM_DEFINED_TRANSFORMATION('','',#11,#15);
#349 = PRODUCT_DEFINITION_SHAPE('Placement','Placement of an item',#350
  );
#350 = NEXT_ASSEMBLY_USAGE_OCCURRENCE('1','difference','',#5,#35,$);
#351 = PRODUCT_RELATED_PRODUCT_CATEGORY('part',$,(#37));
#352 = SHAPE_DEFINITION_REPRESENTATION(#353,#359);
#353 = PRODUCT_DEFINITION_SHAPE('','',#354);
#354 = PRODUCT_DEFINITION('design','',#355,#358);
#355 = PRODUCT_DEFINITION_FORMATION('','',#356);
#356 = PRODUCT('union','union','',(#357));
#357 = PRODUCT_CONTEXT('',#2,'mechanical');
#358 = PRODUCT_DEFINITION_CONTEXT('part definition',#2,'design');
#359 = ADVANCED_BREP_SHAPE_REPRESENTATION('',(#11,#360),#968);
#360 = MANIFOLD_SOLID_BREP('',#361);
#361 = CLOSED_SHELL('',(#362,#402,#433,#480,#511,#550,#590,#612,#654,
    #694,#725,#756,#787,#818,#840,#865,#882,#901,#941,#954));
#362 = ADVANCED_FACE('',(#363),#397,.F.);
#363 = FACE_BOUND('',#364,.F.);
#364 = EDGE_LOOP('',(#365,#375,#383,#391));
#365 = ORIENTED_EDGE('',*,*,#366,.T.);
#366 = EDGE_CURVE('',#367,#369,#371,.T.);
#367 = VERTEX_POINT('',#368);
#368 = CARTESIAN_POINT('',(2.5,3.,0.));
#369 = VERTEX_POINT('',#370);
#370 = CARTESIAN_POINT('',(-2.5,3.,-1.110223024625E-15));
#371 = LINE('',#372,#373);
#372 = CARTESIAN_POINT('',(2.5,3.,0.));
#373 = VECTOR('',#374,1.);
#374 = DIRECTION('',(-1.,0.,-2.22044604925E-16));
#375 = ORIENTED_EDGE('',*,*,#376,.T.);
#376 = EDGE_CURVE('',#369,#377,#379,.T.);
#377 = VERTEX_POINT('',#378);
#378 = CARTESIAN_POINT('',(-2.5,3.,30.));
#379 = LINE('',#380,#381);
#380 = CARTESIAN_POINT('',(-2.5,3.,-1.110223024625E-15));
#381 = VECTOR('',#382,1.);
#382 = DIRECTION('',(-2.22044604925E-16,0.,1.));
#383 = ORIENTED_EDGE('',*,*,#384,.F.);
#384 = EDGE_CURVE('',#385,#377,#387,.T.);
#385 = VERTEX_POINT('',#386);
#386 = CARTESIAN_POINT('',(2.5,3.,30.));
#387 = LINE('',#388,#389);
#388 = CARTESIAN_POINT('',(2.5,3.,30.));
#389 = VECTOR('',#390,1.);
#390 = DIRECTION('',(-1.,0.,-2.22044604925E-16));
#391 = ORIENTED_EDGE('',*,*,#392,.F.);
#392 = EDGE_CURVE('',#367,#385,#393,.T.);
#393 = LINE('',#394,#395);
#394 = CARTESIAN_POINT('',(2.5,3.,0.));
#395 = VECTOR('',#396,1.);
#396 = DIRECTION('',(-2.22044604925E-16,0.,1.));
#397 = PLANE('',#398);
#398 = AXIS2_PLACEMENT_3D('',#399,#400,#401);
#399 = CARTESIAN_POINT('',(2.5,3.,0.));
#400 = DIRECTION('',(0.,1.,0.));
#401 = DIRECTION('',(-2.22044604925E-16,0.,1.));
#402 = ADVANCED_FACE('',(#403),#428,.F.);
#403 = FACE_BOUND('',#404,.F.);
#404 = EDGE_LOOP('',(#405,#413,#414,#422));
#405 = ORIENTED_EDGE('',*,*,#406,.T.);
#406 = EDGE_CURVE('',#407,#367,#409,.T.);
#407 = VERTEX_POINT('',#408);
#408 = CARTESIAN_POINT('',(2.5,34.,-4.440892098501E-15));
#409 = LINE('',#410,#411);
#410 = CARTESIAN_POINT('',(2.5,37.,0.));
#411 = VECTOR('',#412,1.);
#412 = DIRECTION('',(-0.,-1.,0.));
#413 = ORIENTED_EDGE('',*,*,#392,.T.);
#414 = ORIENTED_EDGE('',*,*,#415,.T.);
#415 = EDGE_CURVE('',#385,#416,#418,.T.);
#416 = VERTEX_POINT('',#417);
#417 = CARTESIAN_POINT('',(2.5,27.,30.));
#418 = LINE('',#419,#420);
#419 = CARTESIAN_POINT('',(2.5,5.,30.));
#420 = VECTOR('',#421,1.);
#421 = DIRECTION('',(0.,1.,0.));
#422 = ORIENTED_EDGE('',*,*,#423,.F.);
#423 = EDGE_CURVE('',#407,#416,#424,.T.);
#424 = LINE('',#425,#426);
#425 = CARTESIAN_POINT('',(2.5,34.,-4.440892098501E-15));
#426 = VECTOR('',#427,1.);
#427 = DIRECTION('',(-2.162361866768E-16,-0.227229615606,0.973841209742)
  );
#428 = PLANE('',#429);
#429 = AXIS2_PLACEMENT_3D('',#430,#431,#432);
#430 = CARTESIAN_POINT('',(2.5,18.710631804178,14.035757816263));
#431 = DIRECTION('',(-1.,0.,-2.22044604925E-16));
#432 = DIRECTION('',(-2.22044604925E-16,0.,1.));
#433 = ADVANCED_FACE('',(#434),#475,.T.);
#434 = FACE_BOUND('',#435,.T.);
#435 = EDGE_LOOP('',(#436,#444,#445,#453,#461,#469));
#436 = ORIENTED_EDGE('',*,*,#437,.T.);
#437 = EDGE_CURVE('',#438,#369,#440,.T.);
#438 = VERTEX_POINT('',#439);
#439 = CARTESIAN_POINT('',(-2.5,35.669872981078,-5.551115123126E-16));
#440 = LINE('',#441,#442);
#441 = CARTESIAN_POINT('',(-2.5,37.,-1.110223024625E-15));
#442 = VECTOR('',#443,1.);
#443 = DIRECTION('',(-0.,-1.,0.));
#444 = ORIENTED_EDGE('',*,*,#376,.T.);
#445 = ORIENTED_EDGE('',*,*,#446,.T.);
#446 = EDGE_CURVE('',#377,#447,#449,.T.);
#447 = VERTEX_POINT('',#448);
#448 = CARTESIAN_POINT('',(-2.5,30.,30.));
#449 = LINE('',#450,#451);
#450 = CARTESIAN_POINT('',(-2.5,3.,30.));
#451 = VECTOR('',#452,1.);
#452 = DIRECTION('',(0.,1.,0.));
#453 = ORIENTED_EDGE('',*,*,#454,.T.);
#454 = EDGE_CURVE('',#447,#455,#457,.T.);
#455 = VERTEX_POINT('',#456);
#456 = CARTESIAN_POINT('',(-2.5,35.,7.));
#457 = LINE('',#458,#459);
#458 = CARTESIAN_POINT('',(-2.5,30.,30.));
#459 = VECTOR('',#460,1.);
#460 = DIRECTION('',(2.169767396693E-16,0.212429644331,-0.977176363923)
  );
#461 = ORIENTED_EDGE('',*,*,#462,.T.);
#462 = EDGE_CURVE('',#455,#463,#465,.T.);
#463 = VERTEX_POINT('',#464);
#464 = CARTESIAN_POINT('',(-2.5,35.669872981078,7.));
#465 = LINE('',#466,#467);
#466 = CARTESIAN_POINT('',(-2.5,35.,7.));
#467 = VECTOR('',#468,1.);
#468 = DIRECTION('',(0.,1.,0.));
#469 = ORIENTED_EDGE('',*,*,#470,.T.);
#470 = EDGE_CURVE('',#463,#438,#471,.T.);
#471 = LINE('',#472,#473);
#472 = CARTESIAN_POINT('',(-2.5,35.669872981078,-5.551115123126E-16));
#473 = VECTOR('',#474,1.);
#474 = DIRECTION('',(-0.,-0.,-1.));
#475 = PLANE('',#476);
#476 = AXIS2_PLACEMENT_3D('',#477,#478,#479);
#477 = CARTESIAN_POINT('',(-2.5,18.710631804178,14.035757816263));
#478 = DIRECTION('',(-1.,0.,-2.22044604925E-16));
#479 = DIRECTION('',(-2.22044604925E-16,0.,1.));
#480 = ADVANCED_FACE('',(#481),#506,.F.);
#481 = FACE_BOUND('',#482,.F.);
#482 = EDGE_LOOP('',(#483,#491,#492,#500));
#483 = ORIENTED_EDGE('',*,*,#484,.T.);
#484 = EDGE_CURVE('',#485,#407,#487,.T.);
#485 = VERTEX_POINT('',#486);
#486 = CARTESIAN_POINT('',(22.5,34.,0.));
#487 = LINE('',#488,#489);
#488 = CARTESIAN_POINT('',(22.5,34.,0.));
#489 = VECTOR('',#490,1.);
#490 = DIRECTION('',(-1.,0.,-2.22044604925E-16));
#491 = ORIENTED_EDGE('',*,*,#423,.T.);
#492 = ORIENTED_EDGE('',*,*,#493,.F.);
#493 = EDGE_CURVE('',#494,#416,#496,.T.);
#494 = VERTEX_POINT('',#495);
#495 = CARTESIAN_POINT('',(22.5,27.,30.));
#496 = LINE('',#497,#498);
#497 = CARTESIAN_POINT('',(22.5,27.,30.));
#498 = VECTOR('',#499,1.);
#499 = DIRECTION('',(-1.,0.,-2.22044604925E-16));
#500 = ORIENTED_EDGE('',*,*,#501,.F.);
#501 = EDGE_CURVE('',#485,#494,#502,.T.);
#502 = LINE('',#503,#504);
#503 = CARTESIAN_POINT('',(22.5,34.,0.));
#504 = VECTOR('',#505,1.);
#505 = DIRECTION('',(-2.162361866768E-16,-0.227229615606,0.973841209742)
  );
#506 = PLANE('',#507);
#507 = AXIS2_PLACEMENT_3D('',#508,#509,#510);
#508 = CARTESIAN_POINT('',(22.5,34.,0.));
#509 = DIRECTION('',(-5.045511022459E-17,0.973841209742,0.227229615606)
  );
#510 = DIRECTION('',(-2.162361866768E-16,-0.227229615606,0.973841209742)
  );
#511 = ADVANCED_FACE('',(#512),#545,.F.);
#512 = FACE_BOUND('',#513,.F.);
#513 = EDGE_LOOP('',(#514,#515,#523,#531,#539));
#514 = ORIENTED_EDGE('',*,*,#501,.T.);
#515 = ORIENTED_EDGE('',*,*,#516,.T.);
#516 = EDGE_CURVE('',#494,#517,#519,.T.);
#517 = VERTEX_POINT('',#518);
#518 = CARTESIAN_POINT('',(22.5,30.,30.));
#519 = LINE('',#520,#521);
#520 = CARTESIAN_POINT('',(22.5,27.,30.));
#521 = VECTOR('',#522,1.);
#522 = DIRECTION('',(0.,1.,0.));
#523 = ORIENTED_EDGE('',*,*,#524,.T.);
#524 = EDGE_CURVE('',#517,#525,#527,.T.);
#525 = VERTEX_POINT('',#526);
#526 = CARTESIAN_POINT('',(22.5,35.,7.));
#527 = LINE('',#528,#529);
#528 = CARTESIAN_POINT('',(22.5,30.,30.));
#529 = VECTOR('',#530,1.);
#530 = DIRECTION('',(2.169767396693E-16,0.212429644331,-0.977176363923)
  );
#531 = ORIENTED_EDGE('',*,*,#532,.T.);
#532 = EDGE_CURVE('',#525,#533,#535,.T.);
#533 = VERTEX_POINT('',#534);
#534 = CARTESIAN_POINT('',(22.5,35.,0.));
#535 = LINE('',#536,#537);
#536 = CARTESIAN_POINT('',(22.5,35.,7.));
#537 = VECTOR('',#538,1.);
#538 = DIRECTION('',(2.22044604925E-16,0.,-1.));
#539 = ORIENTED_EDGE('',*,*,#540,.T.);
#540 = EDGE_CURVE('',#533,#485,#541,.T.);
#541 = LINE('',#542,#543);
#542 = CARTESIAN_POINT('',(22.5,35.,0.));
#543 = VECTOR('',#544,1.);
#544 = DIRECTION('',(-0.,-1.,0.));
#545 = PLANE('',#546);
#546 = AXIS2_PLACEMENT_3D('',#547,#548,#549);
#547 = CARTESIAN_POINT('',(22.5,31.671883028125,15.4878899432));
#548 = DIRECTION('',(-1.,0.,-2.22044604925E-16));
#549 = DIRECTION('',(-2.22044604925E-16,0.,1.));
#550 = ADVANCED_FACE('',(#551),#585,.F.);
#551 = FACE_BOUND('',#552,.F.);
#552 = EDGE_LOOP('',(#553,#563,#571,#579));
#553 = ORIENTED_EDGE('',*,*,#554,.T.);
#554 = EDGE_CURVE('',#555,#557,#559,.T.);
#555 = VERTEX_POINT('',#556);
#556 = CARTESIAN_POINT('',(2.5,35.669872981078,0.));
#557 = VERTEX_POINT('',#558);
#558 = CARTESIAN_POINT('',(2.5,35.,-4.440892098501E-15));
#559 = LINE('',#560,#561);
#560 = CARTESIAN_POINT('',(2.5,37.,0.));
#561 = VECTOR('',#562,1.);
#562 = DIRECTION('',(-0.,-1.,0.));
#563 = ORIENTED_EDGE('',*,*,#564,.F.);
#564 = EDGE_CURVE('',#565,#557,#567,.T.);
#565 = VERTEX_POINT('',#566);
#566 = CARTESIAN_POINT('',(2.5,35.,7.));
#567 = LINE('',#568,#569);
#568 = CARTESIAN_POINT('',(2.5,35.,7.));
#569 = VECTOR('',#570,1.);
#570 = DIRECTION('',(2.22044604925E-16,0.,-1.));
#571 = ORIENTED_EDGE('',*,*,#572,.T.);
#572 = EDGE_CURVE('',#565,#573,#575,.T.);
#573 = VERTEX_POINT('',#574);
#574 = CARTESIAN_POINT('',(2.5,35.669872981078,7.));
#575 = LINE('',#576,#577);
#576 = CARTESIAN_POINT('',(2.5,35.,7.));
#577 = VECTOR('',#578,1.);
#578 = DIRECTION('',(0.,1.,0.));
#579 = ORIENTED_EDGE('',*,*,#580,.T.);
#580 = EDGE_CURVE('',#573,#555,#581,.T.);
#581 = LINE('',#582,#583);
#582 = CARTESIAN_POINT('',(2.5,35.669872981078,5.551115123126E-16));
#583 = VECTOR('',#584,1.);
#584 = DIRECTION('',(-0.,-0.,-1.));
#585 = PLANE('',#586);
#586 = AXIS2_PLACEMENT_3D('',#587,#588,#589);
#587 = CARTESIAN_POINT('',(2.5,18.710631804178,14.035757816263));
#588 = DIRECTION('',(-1.,0.,-2.22044604925E-16));
#589 = DIRECTION('',(-2.22044604925E-16,0.,1.));
#590 = ADVANCED_FACE('',(#591),#607,.F.);
#591 = FACE_BOUND('',#592,.F.);
#592 = EDGE_LOOP('',(#593,#599,#600,#606));
#593 = ORIENTED_EDGE('',*,*,#594,.T.);
#594 = EDGE_CURVE('',#525,#565,#595,.T.);
#595 = LINE('',#596,#597);
#596 = CARTESIAN_POINT('',(22.5,35.,7.));
#597 = VECTOR('',#598,1.);
#598 = DIRECTION('',(-1.,0.,-2.22044604925E-16));
#599 = ORIENTED_EDGE('',*,*,#564,.T.);
#600 = ORIENTED_EDGE('',*,*,#601,.F.);
#601 = EDGE_CURVE('',#533,#557,#602,.T.);
#602 = LINE('',#603,#604);
#603 = CARTESIAN_POINT('',(22.5,35.,0.));
#604 = VECTOR('',#605,1.);
#605 = DIRECTION('',(-1.,0.,-2.22044604925E-16));
#606 = ORIENTED_EDGE('',*,*,#532,.F.);
#607 = PLANE('',#608);
#608 = AXIS2_PLACEMENT_3D('',#609,#610,#611);
#609 = CARTESIAN_POINT('',(22.5,35.,7.));
#610 = DIRECTION('',(-0.,-1.,0.));
#611 = DIRECTION('',(2.22044604925E-16,0.,-1.));
#612 = ADVANCED_FACE('',(#613,#638),#649,.T.);
#613 = FACE_BOUND('',#614,.T.);
#614 = EDGE_LOOP('',(#615,#616,#617,#618,#619,#620,#621,#622,#631));
#615 = ORIENTED_EDGE('',*,*,#554,.T.);
#616 = ORIENTED_EDGE('',*,*,#601,.F.);
#617 = ORIENTED_EDGE('',*,*,#540,.T.);
#618 = ORIENTED_EDGE('',*,*,#484,.T.);
#619 = ORIENTED_EDGE('',*,*,#406,.T.);
#620 = ORIENTED_EDGE('',*,*,#366,.T.);
#621 = ORIENTED_EDGE('',*,*,#437,.F.);
#622 = ORIENTED_EDGE('',*,*,#623,.F.);
#623 = EDGE_CURVE('',#624,#438,#626,.T.);
#624 = VERTEX_POINT('',#625);
#625 = CARTESIAN_POINT('',(5.,40.,0.));
#626 = CIRCLE('',#627,5.);
#627 = AXIS2_PLACEMENT_3D('',#628,#629,#630);
#628 = CARTESIAN_POINT('',(0.,40.,0.));
#629 = DIRECTION('',(0.,0.,1.));
#630 = DIRECTION('',(1.,0.,0.));
#631 = ORIENTED_EDGE('',*,*,#632,.F.);
#632 = EDGE_CURVE('',#555,#624,#633,.T.);
#633 = CIRCLE('',#634,5.);
#634 = AXIS2_PLACEMENT_3D('',#635,#636,#637);
#635 = CARTESIAN_POINT('',(0.,40.,0.));
#636 = DIRECTION('',(0.,0.,1.));
#637 = DIRECTION('',(1.,0.,0.));
#638 = FACE_BOUND('',#639,.T.);
#639 = EDGE_LOOP('',(#640));
#640 = ORIENTED_EDGE('',*,*,#641,.T.);
#641 = EDGE_CURVE('',#642,#642,#644,.T.);
#642 = VERTEX_POINT('',#643);
#643 = CARTESIAN_POINT('',(-1.7,40.,0.));
#644 = CIRCLE('',#645,1.7);
#645 = AXIS2_PLACEMENT_3D('',#646,#647,#648);
#646 = CARTESIAN_POINT('',(7.347880794884E-16,40.,0.));
#647 = DIRECTION('',(-1.224646799147E-16,0.,1.));
#648 = DIRECTION('',(-1.,0.,-1.224646799147E-16));
#649 = PLANE('',#650);
#650 = AXIS2_PLACEMENT_3D('',#651,#652,#653);
#651 = CARTESIAN_POINT('',(3.891755480738,27.103782034103,
    -9.483169240429E-16));
#652 = DIRECTION('',(-0.,-0.,-1.));
#653 = DIRECTION('',(-1.,0.,0.));
#654 = ADVANCED_FACE('',(#655),#689,.T.);
#655 = FACE_BOUND('',#656,.T.);
#656 = EDGE_LOOP('',(#657,#667,#675,#683));
#657 = ORIENTED_EDGE('',*,*,#658,.F.);
#658 = EDGE_CURVE('',#659,#661,#663,.T.);
#659 = VERTEX_POINT('',#660);
#660 = CARTESIAN_POINT('',(-1.6,37.22871870789,7.));
#661 = VERTEX_POINT('',#662);
#662 = CARTESIAN_POINT('',(-3.2,40.,7.));
#663 = LINE('',#664,#665);
#664 = CARTESIAN_POINT('',(-2.,37.921539030917,7.));
#665 = VECTOR('',#666,1.);
#666 = DIRECTION('',(-0.5,0.866025403784,0.));
#667 = ORIENTED_EDGE('',*,*,#668,.T.);
#668 = EDGE_CURVE('',#659,#669,#671,.T.);
#669 = VERTEX_POINT('',#670);
#670 = CARTESIAN_POINT('',(-1.6,37.22871870789,4.85));
#671 = LINE('',#672,#673);
#672 = CARTESIAN_POINT('',(-1.6,37.22871870789,7.15));
#673 = VECTOR('',#674,1.);
#674 = DIRECTION('',(1.224646799147E-16,0.,-1.));
#675 = ORIENTED_EDGE('',*,*,#676,.T.);
#676 = EDGE_CURVE('',#669,#677,#679,.T.);
#677 = VERTEX_POINT('',#678);
#678 = CARTESIAN_POINT('',(-3.2,40.,4.85));
#679 = LINE('',#680,#681);
#680 = CARTESIAN_POINT('',(-1.6,37.22871870789,4.85));
#681 = VECTOR('',#682,1.);
#682 = DIRECTION('',(-0.5,0.866025403784,-6.123233995737E-17));
#683 = ORIENTED_EDGE('',*,*,#684,.F.);
#684 = EDGE_CURVE('',#661,#677,#685,.T.);
#685 = LINE('',#686,#687);
#686 = CARTESIAN_POINT('',(-3.2,40.,7.15));
#687 = VECTOR('',#688,1.);
#688 = DIRECTION('',(1.224646799147E-16,0.,-1.));
#689 = PLANE('',#690);
#690 = AXIS2_PLACEMENT_3D('',#691,#692,#693);
#691 = CARTESIAN_POINT('',(-1.6,37.22871870789,7.15));
#692 = DIRECTION('',(0.866025403784,0.5,1.060575238725E-16));
#693 = DIRECTION('',(-0.5,0.866025403784,-6.123233995737E-17));
#694 = ADVANCED_FACE('',(#695),#720,.T.);
#695 = FACE_BOUND('',#696,.T.);
#696 = EDGE_LOOP('',(#697,#705,#713,#719));
#697 = ORIENTED_EDGE('',*,*,#698,.F.);
#698 = EDGE_CURVE('',#699,#659,#701,.T.);
#699 = VERTEX_POINT('',#700);
#700 = CARTESIAN_POINT('',(1.6,37.22871870789,7.));
#701 = LINE('',#702,#703);
#702 = CARTESIAN_POINT('',(0.8,37.22871870789,7.));
#703 = VECTOR('',#704,1.);
#704 = DIRECTION('',(-1.,-6.938893903907E-16,0.));
#705 = ORIENTED_EDGE('',*,*,#706,.T.);
#706 = EDGE_CURVE('',#699,#707,#709,.T.);
#707 = VERTEX_POINT('',#708);
#708 = CARTESIAN_POINT('',(1.6,37.22871870789,4.85));
#709 = LINE('',#710,#711);
#710 = CARTESIAN_POINT('',(1.6,37.22871870789,7.15));
#711 = VECTOR('',#712,1.);
#712 = DIRECTION('',(1.224646799147E-16,0.,-1.));
#713 = ORIENTED_EDGE('',*,*,#714,.T.);
#714 = EDGE_CURVE('',#707,#669,#715,.T.);
#715 = LINE('',#716,#717);
#716 = CARTESIAN_POINT('',(1.6,37.22871870789,4.85));
#717 = VECTOR('',#718,1.);
#718 = DIRECTION('',(-1.,-6.938893903907E-16,-1.224646799147E-16));
#719 = ORIENTED_EDGE('',*,*,#668,.F.);
#720 = PLANE('',#721);
#721 = AXIS2_PLACEMENT_3D('',#722,#723,#724);
#722 = CARTESIAN_POINT('',(1.6,37.22871870789,7.15));
#723 = DIRECTION('',(-6.938893903907E-16,1.,-8.497694209043E-32));
#724 = DIRECTION('',(-1.,-6.938893903907E-16,-1.224646799147E-16));
#725 = ADVANCED_FACE('',(#726),#751,.T.);
#726 = FACE_BOUND('',#727,.T.);
#727 = EDGE_LOOP('',(#728,#736,#737,#745));
#728 = ORIENTED_EDGE('',*,*,#729,.F.);
#729 = EDGE_CURVE('',#661,#730,#732,.T.);
#730 = VERTEX_POINT('',#731);
#731 = CARTESIAN_POINT('',(-1.6,42.77128129211,7.));
#732 = LINE('',#733,#734);
#733 = CARTESIAN_POINT('',(-2.8,40.692820323028,7.));
#734 = VECTOR('',#735,1.);
#735 = DIRECTION('',(0.5,0.866025403784,0.));
#736 = ORIENTED_EDGE('',*,*,#684,.T.);
#737 = ORIENTED_EDGE('',*,*,#738,.T.);
#738 = EDGE_CURVE('',#677,#739,#741,.T.);
#739 = VERTEX_POINT('',#740);
#740 = CARTESIAN_POINT('',(-1.6,42.77128129211,4.85));
#741 = LINE('',#742,#743);
#742 = CARTESIAN_POINT('',(-3.2,40.,4.85));
#743 = VECTOR('',#744,1.);
#744 = DIRECTION('',(0.5,0.866025403784,6.123233995737E-17));
#745 = ORIENTED_EDGE('',*,*,#746,.F.);
#746 = EDGE_CURVE('',#730,#739,#747,.T.);
#747 = LINE('',#748,#749);
#748 = CARTESIAN_POINT('',(-1.6,42.77128129211,7.15));
#749 = VECTOR('',#750,1.);
#750 = DIRECTION('',(1.224646799147E-16,0.,-1.));
#751 = PLANE('',#752);
#752 = AXIS2_PLACEMENT_3D('',#753,#754,#755);
#753 = CARTESIAN_POINT('',(-3.2,40.,7.15));
#754 = DIRECTION('',(0.866025403784,-0.5,1.060575238725E-16));
#755 = DIRECTION('',(0.5,0.866025403784,6.123233995737E-17));
#756 = ADVANCED_FACE('',(#757),#782,.T.);
#757 = FACE_BOUND('',#758,.T.);
#758 = EDGE_LOOP('',(#759,#767,#775,#781));
#759 = ORIENTED_EDGE('',*,*,#760,.F.);
#760 = EDGE_CURVE('',#761,#699,#763,.T.);
#761 = VERTEX_POINT('',#762);
#762 = CARTESIAN_POINT('',(3.2,40.,7.));
#763 = LINE('',#764,#765);
#764 = CARTESIAN_POINT('',(2.8,39.307179676972,7.));
#765 = VECTOR('',#766,1.);
#766 = DIRECTION('',(-0.5,-0.866025403784,0.));
#767 = ORIENTED_EDGE('',*,*,#768,.T.);
#768 = EDGE_CURVE('',#761,#769,#771,.T.);
#769 = VERTEX_POINT('',#770);
#770 = CARTESIAN_POINT('',(3.2,40.,4.85));
#771 = LINE('',#772,#773);
#772 = CARTESIAN_POINT('',(3.2,40.,7.15));
#773 = VECTOR('',#774,1.);
#774 = DIRECTION('',(1.224646799147E-16,0.,-1.));
#775 = ORIENTED_EDGE('',*,*,#776,.T.);
#776 = EDGE_CURVE('',#769,#707,#777,.T.);
#777 = LINE('',#778,#779);
#778 = CARTESIAN_POINT('',(3.2,40.,4.85));
#779 = VECTOR('',#780,1.);
#780 = DIRECTION('',(-0.5,-0.866025403784,-6.123233995737E-17));
#781 = ORIENTED_EDGE('',*,*,#706,.F.);
#782 = PLANE('',#783);
#783 = AXIS2_PLACEMENT_3D('',#784,#785,#786);
#784 = CARTESIAN_POINT('',(3.2,40.,7.15));
#785 = DIRECTION('',(-0.866025403784,0.5,-1.060575238725E-16));
#786 = DIRECTION('',(-0.5,-0.866025403784,-6.123233995737E-17));
#787 = ADVANCED_FACE('',(#788),#813,.T.);
#788 = FACE_BOUND('',#789,.T.);
#789 = EDGE_LOOP('',(#790,#798,#799,#807));
#790 = ORIENTED_EDGE('',*,*,#791,.F.);
#791 = EDGE_CURVE('',#730,#792,#794,.T.);
#792 = VERTEX_POINT('',#793);
#793 = CARTESIAN_POINT('',(1.6,42.77128129211,7.));
#794 = LINE('',#795,#796);
#795 = CARTESIAN_POINT('',(-0.8,42.77128129211,7.));
#796 = VECTOR('',#797,1.);
#797 = DIRECTION('',(1.,2.775557561563E-16,0.));
#798 = ORIENTED_EDGE('',*,*,#746,.T.);
#799 = ORIENTED_EDGE('',*,*,#800,.T.);
#800 = EDGE_CURVE('',#739,#801,#803,.T.);
#801 = VERTEX_POINT('',#802);
#802 = CARTESIAN_POINT('',(1.6,42.77128129211,4.85));
#803 = LINE('',#804,#805);
#804 = CARTESIAN_POINT('',(-1.6,42.77128129211,4.85));
#805 = VECTOR('',#806,1.);
#806 = DIRECTION('',(1.,2.775557561563E-16,1.224646799147E-16));
#807 = ORIENTED_EDGE('',*,*,#808,.F.);
#808 = EDGE_CURVE('',#792,#801,#809,.T.);
#809 = LINE('',#810,#811);
#810 = CARTESIAN_POINT('',(1.6,42.77128129211,7.15));
#811 = VECTOR('',#812,1.);
#812 = DIRECTION('',(1.224646799147E-16,0.,-1.));
#813 = PLANE('',#814);
#814 = AXIS2_PLACEMENT_3D('',#815,#816,#817);
#815 = CARTESIAN_POINT('',(-1.6,42.77128129211,7.15));
#816 = DIRECTION('',(2.775557561563E-16,-1.,3.399077683617E-32));
#817 = DIRECTION('',(1.,2.775557561563E-16,1.224646799147E-16));
#818 = ADVANCED_FACE('',(#819),#835,.T.);
#819 = FACE_BOUND('',#820,.T.);
#820 = EDGE_LOOP('',(#821,#827,#828,#834));
#821 = ORIENTED_EDGE('',*,*,#822,.F.);
#822 = EDGE_CURVE('',#792,#761,#823,.T.);
#823 = LINE('',#824,#825);
#824 = CARTESIAN_POINT('',(2.,42.078460969083,7.));
#825 = VECTOR('',#826,1.);
#826 = DIRECTION('',(0.5,-0.866025403784,0.));
#827 = ORIENTED_EDGE('',*,*,#808,.T.);
#828 = ORIENTED_EDGE('',*,*,#829,.T.);
#829 = EDGE_CURVE('',#801,#769,#830,.T.);
#830 = LINE('',#831,#832);
#831 = CARTESIAN_POINT('',(1.6,42.77128129211,4.85));
#832 = VECTOR('',#833,1.);
#833 = DIRECTION('',(0.5,-0.866025403784,6.123233995737E-17));
#834 = ORIENTED_EDGE('',*,*,#768,.F.);
#835 = PLANE('',#836);
#836 = AXIS2_PLACEMENT_3D('',#837,#838,#839);
#837 = CARTESIAN_POINT('',(1.6,42.77128129211,7.15));
#838 = DIRECTION('',(-0.866025403784,-0.5,-1.060575238725E-16));
#839 = DIRECTION('',(0.5,-0.866025403784,6.123233995737E-17));
#840 = ADVANCED_FACE('',(#841,#849),#860,.F.);
#841 = FACE_BOUND('',#842,.F.);
#842 = EDGE_LOOP('',(#843,#844,#845,#846,#847,#848));
#843 = ORIENTED_EDGE('',*,*,#738,.T.);
#844 = ORIENTED_EDGE('',*,*,#800,.T.);
#845 = ORIENTED_EDGE('',*,*,#829,.T.);
#846 = ORIENTED_EDGE('',*,*,#776,.T.);
#847 = ORIENTED_EDGE('',*,*,#714,.T.);
#848 = ORIENTED_EDGE('',*,*,#676,.T.);
#849 = FACE_BOUND('',#850,.F.);
#850 = EDGE_LOOP('',(#851));
#851 = ORIENTED_EDGE('',*,*,#852,.T.);
#852 = EDGE_CURVE('',#853,#853,#855,.T.);
#853 = VERTEX_POINT('',#854);
#854 = CARTESIAN_POINT('',(-1.7,40.,4.85));
#855 = CIRCLE('',#856,1.7);
#856 = AXIS2_PLACEMENT_3D('',#857,#858,#859);
#857 = CARTESIAN_POINT('',(1.408343819019E-16,40.,4.85));
#858 = DIRECTION('',(-1.224646799147E-16,-0.,1.));
#859 = DIRECTION('',(-1.,0.,-1.224646799147E-16));
#860 = PLANE('',#861);
#861 = AXIS2_PLACEMENT_3D('',#862,#863,#864);
#862 = CARTESIAN_POINT('',(4.183901380582E-16,40.,4.85));
#863 = DIRECTION('',(1.224646799147E-16,0.,-1.));
#864 = DIRECTION('',(-1.,0.,-1.224646799147E-16));
#865 = ADVANCED_FACE('',(#866),#877,.F.);
#866 = FACE_BOUND('',#867,.T.);
#867 = EDGE_LOOP('',(#868,#874,#875,#876));
#868 = ORIENTED_EDGE('',*,*,#869,.F.);
#869 = EDGE_CURVE('',#853,#642,#870,.T.);
#870 = LINE('',#871,#872);
#871 = CARTESIAN_POINT('',(-1.7,40.,6.));
#872 = VECTOR('',#873,1.);
#873 = DIRECTION('',(1.224646799147E-16,0.,-1.));
#874 = ORIENTED_EDGE('',*,*,#852,.T.);
#875 = ORIENTED_EDGE('',*,*,#869,.T.);
#876 = ORIENTED_EDGE('',*,*,#641,.F.);
#877 = CYLINDRICAL_SURFACE('',#878,1.7);
#878 = AXIS2_PLACEMENT_3D('',#879,#880,#881);
#879 = CARTESIAN_POINT('',(0.,40.,6.));
#880 = DIRECTION('',(-1.224646799147E-16,-0.,1.));
#881 = DIRECTION('',(-1.,0.,-1.224646799147E-16));
#882 = ADVANCED_FACE('',(#883),#896,.T.);
#883 = FACE_BOUND('',#884,.T.);
#884 = EDGE_LOOP('',(#885,#886,#887,#888,#889,#895));
#885 = ORIENTED_EDGE('',*,*,#384,.F.);
#886 = ORIENTED_EDGE('',*,*,#415,.T.);
#887 = ORIENTED_EDGE('',*,*,#493,.F.);
#888 = ORIENTED_EDGE('',*,*,#516,.T.);
#889 = ORIENTED_EDGE('',*,*,#890,.T.);
#890 = EDGE_CURVE('',#517,#447,#891,.T.);
#891 = LINE('',#892,#893);
#892 = CARTESIAN_POINT('',(22.5,30.,30.));
#893 = VECTOR('',#894,1.);
#894 = DIRECTION('',(-1.,0.,-2.22044604925E-16));
#895 = ORIENTED_EDGE('',*,*,#446,.F.);
#896 = PLANE('',#897);
#897 = AXIS2_PLACEMENT_3D('',#898,#899,#900);
#898 = CARTESIAN_POINT('',(5.384615384615,21.115384615385,30.));
#899 = DIRECTION('',(0.,0.,1.));
#900 = DIRECTION('',(1.,0.,-0.));
#901 = ADVANCED_FACE('',(#902,#928),#936,.T.);
#902 = FACE_BOUND('',#903,.T.);
#903 = EDGE_LOOP('',(#904,#905,#911,#912,#921));
#904 = ORIENTED_EDGE('',*,*,#462,.F.);
#905 = ORIENTED_EDGE('',*,*,#906,.F.);
#906 = EDGE_CURVE('',#565,#455,#907,.T.);
#907 = LINE('',#908,#909);
#908 = CARTESIAN_POINT('',(2.5,35.,7.));
#909 = VECTOR('',#910,1.);
#910 = DIRECTION('',(-1.,0.,-2.22044604925E-16));
#911 = ORIENTED_EDGE('',*,*,#572,.T.);
#912 = ORIENTED_EDGE('',*,*,#913,.T.);
#913 = EDGE_CURVE('',#573,#914,#916,.T.);
#914 = VERTEX_POINT('',#915);
#915 = CARTESIAN_POINT('',(5.,40.,7.));
#916 = CIRCLE('',#917,5.);
#917 = AXIS2_PLACEMENT_3D('',#918,#919,#920);
#918 = CARTESIAN_POINT('',(0.,40.,7.));
#919 = DIRECTION('',(0.,0.,1.));
#920 = DIRECTION('',(1.,0.,0.));
#921 = ORIENTED_EDGE('',*,*,#922,.T.);
#922 = EDGE_CURVE('',#914,#463,#923,.T.);
#923 = CIRCLE('',#924,5.);
#924 = AXIS2_PLACEMENT_3D('',#925,#926,#927);
#925 = CARTESIAN_POINT('',(0.,40.,7.));
#926 = DIRECTION('',(0.,0.,1.));
#927 = DIRECTION('',(1.,0.,0.));
#928 = FACE_BOUND('',#929,.T.);
#929 = EDGE_LOOP('',(#930,#931,#932,#933,#934,#935));
#930 = ORIENTED_EDGE('',*,*,#658,.T.);
#931 = ORIENTED_EDGE('',*,*,#729,.T.);
#932 = ORIENTED_EDGE('',*,*,#791,.T.);
#933 = ORIENTED_EDGE('',*,*,#822,.T.);
#934 = ORIENTED_EDGE('',*,*,#760,.T.);
#935 = ORIENTED_EDGE('',*,*,#698,.T.);
#936 = PLANE('',#937);
#937 = AXIS2_PLACEMENT_3D('',#938,#939,#940);
#938 = CARTESIAN_POINT('',(0.15361438424,39.518907758148,7.));
#939 = DIRECTION('',(0.,0.,1.));
#940 = DIRECTION('',(1.,0.,-0.));
#941 = ADVANCED_FACE('',(#942),#949,.T.);
#942 = FACE_BOUND('',#943,.T.);
#943 = EDGE_LOOP('',(#944,#945,#946,#947,#948));
#944 = ORIENTED_EDGE('',*,*,#890,.F.);
#945 = ORIENTED_EDGE('',*,*,#524,.T.);
#946 = ORIENTED_EDGE('',*,*,#594,.T.);
#947 = ORIENTED_EDGE('',*,*,#906,.T.);
#948 = ORIENTED_EDGE('',*,*,#454,.F.);
#949 = PLANE('',#950);
#950 = AXIS2_PLACEMENT_3D('',#951,#952,#953);
#951 = CARTESIAN_POINT('',(10.,32.5,18.5));
#952 = DIRECTION('',(0.,0.977176363923,0.212429644331));
#953 = DIRECTION('',(0.,-0.212429644331,0.977176363923));
#954 = ADVANCED_FACE('',(#955),#963,.T.);
#955 = FACE_BOUND('',#956,.F.);
#956 = EDGE_LOOP('',(#957,#958,#959,#960,#961,#962));
#957 = ORIENTED_EDGE('',*,*,#580,.F.);
#958 = ORIENTED_EDGE('',*,*,#913,.T.);
#959 = ORIENTED_EDGE('',*,*,#922,.T.);
#960 = ORIENTED_EDGE('',*,*,#470,.T.);
#961 = ORIENTED_EDGE('',*,*,#623,.F.);
#962 = ORIENTED_EDGE('',*,*,#632,.F.);
#963 = CYLINDRICAL_SURFACE('',#964,5.);
#964 = AXIS2_PLACEMENT_3D('',#965,#966,#967);
#965 = CARTESIAN_POINT('',(0.,40.,0.));
#966 = DIRECTION('',(-0.,-0.,-1.));
#967 = DIRECTION('',(1.,0.,0.));
#968 = ( GEOMETRIC_REPRESENTATION_CONTEXT(3) 
GLOBAL_UNCERTAINTY_ASSIGNED_CONTEXT((#972)) GLOBAL_UNIT_ASSIGNED_CONTEXT
((#969,#970,#971)) REPRESENTATION_CONTEXT('Context #1',
  '3D Context with UNIT and UNCERTAINTY') );
#969 = ( LENGTH_UNIT() NAMED_UNIT(*) SI_UNIT(.MILLI.,.METRE.) );
#970 = ( NAMED_UNIT(*) PLANE_ANGLE_UNIT() SI_UNIT($,.RADIAN.) );
#971 = ( NAMED_UNIT(*) SI_UNIT($,.STERADIAN.) SOLID_ANGLE_UNIT() );
#972 = UNCERTAINTY_MEASURE_WITH_UNIT(LENGTH_MEASURE(2.E-06),#969,
  'distance_accuracy_value','confusion accuracy');
#973 = CONTEXT_DEPENDENT_SHAPE_REPRESENTATION(#974,#976);
#974 = ( REPRESENTATION_RELATIONSHIP('','',#359,#10) 
REPRESENTATION_RELATIONSHIP_WITH_TRANSFORMATION(#975) 
SHAPE_REPRESENTATION_RELATIONSHIP() );
#975 = ITEM_DEFINED_TRANSFORMATION('','',#11,#19);
#976 = PRODUCT_DEFINITION_SHAPE('Placement','Placement of an item',#977
  );
#977 = NEXT_ASSEMBLY_USAGE_OCCURRENCE('2','union','',#5,#354,$);
#978 = PRODUCT_RELATED_PRODUCT_CATEGORY('part',$,(#356));
#979 = SHAPE_DEFINITION_REPRESENTATION(#980,#986);
#980 = PRODUCT_DEFINITION_SHAPE('','',#981);
#981 = PRODUCT_DEFINITION('design','',#982,#985);
#982 = PRODUCT_DEFINITION_FORMATION('','',#983);
#983 = PRODUCT('difference002','difference002','',(#984));
#984 = PRODUCT_CONTEXT('',#2,'mechanical');
#985 = PRODUCT_DEFINITION_CONTEXT('part definition',#2,'design');
#986 = ADVANCED_BREP_SHAPE_REPRESENTATION('',(#11,#987),#1161);
#987 = MANIFOLD_SOLID_BREP('',#988);
#988 = CLOSED_SHELL('',(#989,#1040,#1071,#1113,#1135,#1147));
#989 = ADVANCED_FACE('',(#990),#1035,.F.);
#990 = FACE_BOUND('',#991,.F.);
#991 = EDGE_LOOP('',(#992,#1003,#1012,#1020,#1029));
#992 = ORIENTED_EDGE('',*,*,#993,.T.);
#993 = EDGE_CURVE('',#994,#996,#998,.T.);
#994 = VERTEX_POINT('',#995);
#995 = CARTESIAN_POINT('',(1.,-5.9160797831,-10.));
#996 = VERTEX_POINT('',#997);
#997 = CARTESIAN_POINT('',(6.,-1.469576158977E-15,-10.));
#998 = CIRCLE('',#999,6.);
#999 = AXIS2_PLACEMENT_3D('',#1000,#1001,#1002);
#1000 = CARTESIAN_POINT('',(0.,0.,-10.));
#1001 = DIRECTION('',(0.,0.,1.));
#1002 = DIRECTION('',(1.,0.,0.));
#1003 = ORIENTED_EDGE('',*,*,#1004,.T.);
#1004 = EDGE_CURVE('',#996,#1005,#1007,.T.);
#1005 = VERTEX_POINT('',#1006);
#1006 = CARTESIAN_POINT('',(-1.,-5.9160797831,-10.));
#1007 = CIRCLE('',#1008,6.);
#1008 = AXIS2_PLACEMENT_3D('',#1009,#1010,#1011);
#1009 = CARTESIAN_POINT('',(0.,0.,-10.));
#1010 = DIRECTION('',(0.,0.,1.));
#1011 = DIRECTION('',(1.,0.,0.));
#1012 = ORIENTED_EDGE('',*,*,#1013,.T.);
#1013 = EDGE_CURVE('',#1005,#1014,#1016,.T.);
#1014 = VERTEX_POINT('',#1015);
#1015 = CARTESIAN_POINT('',(-1.,-3.872983346207,-10.));
#1016 = LINE('',#1017,#1018);
#1017 = CARTESIAN_POINT('',(-1.,-10.,-10.));
#1018 = VECTOR('',#1019,1.);
#1019 = DIRECTION('',(0.,1.,0.));
#1020 = ORIENTED_EDGE('',*,*,#1021,.T.);
#1021 = EDGE_CURVE('',#1014,#1022,#1024,.T.);
#1022 = VERTEX_POINT('',#1023);
#1023 = CARTESIAN_POINT('',(1.,-3.872983346207,-10.));
#1024 = CIRCLE('',#1025,4.);
#1025 = AXIS2_PLACEMENT_3D('',#1026,#1027,#1028);
#1026 = CARTESIAN_POINT('',(0.,0.,-10.));
#1027 = DIRECTION('',(0.,0.,-1.));
#1028 = DIRECTION('',(1.,0.,0.));
#1029 = ORIENTED_EDGE('',*,*,#1030,.F.);
#1030 = EDGE_CURVE('',#994,#1022,#1031,.T.);
#1031 = LINE('',#1032,#1033);
#1032 = CARTESIAN_POINT('',(1.,-10.,-10.));
#1033 = VECTOR('',#1034,1.);
#1034 = DIRECTION('',(0.,1.,0.));
#1035 = PLANE('',#1036);
#1036 = AXIS2_PLACEMENT_3D('',#1037,#1038,#1039);
#1037 = CARTESIAN_POINT('',(0.,0.,-10.));
#1038 = DIRECTION('',(0.,0.,1.));
#1039 = DIRECTION('',(1.,0.,0.));
#1040 = ADVANCED_FACE('',(#1041),#1066,.T.);
#1041 = FACE_BOUND('',#1042,.T.);
#1042 = EDGE_LOOP('',(#1043,#1044,#1052,#1060));
#1043 = ORIENTED_EDGE('',*,*,#1013,.T.);
#1044 = ORIENTED_EDGE('',*,*,#1045,.F.);
#1045 = EDGE_CURVE('',#1046,#1014,#1048,.T.);
#1046 = VERTEX_POINT('',#1047);
#1047 = CARTESIAN_POINT('',(-1.,-3.872983346207,10.));
#1048 = LINE('',#1049,#1050);
#1049 = CARTESIAN_POINT('',(-1.,-3.872983346207,-10.5));
#1050 = VECTOR('',#1051,1.);
#1051 = DIRECTION('',(-0.,-0.,-1.));
#1052 = ORIENTED_EDGE('',*,*,#1053,.F.);
#1053 = EDGE_CURVE('',#1054,#1046,#1056,.T.);
#1054 = VERTEX_POINT('',#1055);
#1055 = CARTESIAN_POINT('',(-1.,-5.9160797831,10.));
#1056 = LINE('',#1057,#1058);
#1057 = CARTESIAN_POINT('',(-1.,-10.,10.));
#1058 = VECTOR('',#1059,1.);
#1059 = DIRECTION('',(0.,1.,0.));
#1060 = ORIENTED_EDGE('',*,*,#1061,.T.);
#1061 = EDGE_CURVE('',#1054,#1005,#1062,.T.);
#1062 = LINE('',#1063,#1064);
#1063 = CARTESIAN_POINT('',(-1.,-5.9160797831,-10.));
#1064 = VECTOR('',#1065,1.);
#1065 = DIRECTION('',(-0.,-0.,-1.));
#1066 = PLANE('',#1067);
#1067 = AXIS2_PLACEMENT_3D('',#1068,#1069,#1070);
#1068 = CARTESIAN_POINT('',(-1.,-20.,-10.5));
#1069 = DIRECTION('',(1.,0.,0.));
#1070 = DIRECTION('',(0.,0.,1.));
#1071 = ADVANCED_FACE('',(#1072),#1108,.T.);
#1072 = FACE_BOUND('',#1073,.T.);
#1073 = EDGE_LOOP('',(#1074,#1085,#1092,#1093,#1102));
#1074 = ORIENTED_EDGE('',*,*,#1075,.T.);
#1075 = EDGE_CURVE('',#1076,#1078,#1080,.T.);
#1076 = VERTEX_POINT('',#1077);
#1077 = CARTESIAN_POINT('',(1.,-5.9160797831,10.));
#1078 = VERTEX_POINT('',#1079);
#1079 = CARTESIAN_POINT('',(6.,-1.469576158977E-15,10.));
#1080 = CIRCLE('',#1081,6.);
#1081 = AXIS2_PLACEMENT_3D('',#1082,#1083,#1084);
#1082 = CARTESIAN_POINT('',(0.,0.,10.));
#1083 = DIRECTION('',(0.,0.,1.));
#1084 = DIRECTION('',(1.,0.,0.));
#1085 = ORIENTED_EDGE('',*,*,#1086,.T.);
#1086 = EDGE_CURVE('',#1078,#1054,#1087,.T.);
#1087 = CIRCLE('',#1088,6.);
#1088 = AXIS2_PLACEMENT_3D('',#1089,#1090,#1091);
#1089 = CARTESIAN_POINT('',(0.,0.,10.));
#1090 = DIRECTION('',(0.,0.,1.));
#1091 = DIRECTION('',(1.,0.,0.));
#1092 = ORIENTED_EDGE('',*,*,#1053,.T.);
#1093 = ORIENTED_EDGE('',*,*,#1094,.T.);
#1094 = EDGE_CURVE('',#1046,#1095,#1097,.T.);
#1095 = VERTEX_POINT('',#1096);
#1096 = CARTESIAN_POINT('',(1.,-3.872983346207,10.));
#1097 = CIRCLE('',#1098,4.);
#1098 = AXIS2_PLACEMENT_3D('',#1099,#1100,#1101);
#1099 = CARTESIAN_POINT('',(0.,0.,10.));
#1100 = DIRECTION('',(0.,0.,-1.));
#1101 = DIRECTION('',(1.,0.,0.));
#1102 = ORIENTED_EDGE('',*,*,#1103,.F.);
#1103 = EDGE_CURVE('',#1076,#1095,#1104,.T.);
#1104 = LINE('',#1105,#1106);
#1105 = CARTESIAN_POINT('',(1.,-10.,10.));
#1106 = VECTOR('',#1107,1.);
#1107 = DIRECTION('',(0.,1.,0.));
#1108 = PLANE('',#1109);
#1109 = AXIS2_PLACEMENT_3D('',#1110,#1111,#1112);
#1110 = CARTESIAN_POINT('',(0.,0.,10.));
#1111 = DIRECTION('',(0.,0.,1.));
#1112 = DIRECTION('',(1.,0.,0.));
#1113 = ADVANCED_FACE('',(#1114),#1130,.F.);
#1114 = FACE_BOUND('',#1115,.F.);
#1115 = EDGE_LOOP('',(#1116,#1117,#1123,#1124));
#1116 = ORIENTED_EDGE('',*,*,#1030,.T.);
#1117 = ORIENTED_EDGE('',*,*,#1118,.F.);
#1118 = EDGE_CURVE('',#1095,#1022,#1119,.T.);
#1119 = LINE('',#1120,#1121);
#1120 = CARTESIAN_POINT('',(1.,-3.872983346207,-10.5));
#1121 = VECTOR('',#1122,1.);
#1122 = DIRECTION('',(-0.,-0.,-1.));
#1123 = ORIENTED_EDGE('',*,*,#1103,.F.);
#1124 = ORIENTED_EDGE('',*,*,#1125,.T.);
#1125 = EDGE_CURVE('',#1076,#994,#1126,.T.);
#1126 = LINE('',#1127,#1128);
#1127 = CARTESIAN_POINT('',(1.,-5.9160797831,-10.));
#1128 = VECTOR('',#1129,1.);
#1129 = DIRECTION('',(-0.,-0.,-1.));
#1130 = PLANE('',#1131);
#1131 = AXIS2_PLACEMENT_3D('',#1132,#1133,#1134);
#1132 = CARTESIAN_POINT('',(1.,-20.,-10.5));
#1133 = DIRECTION('',(1.,0.,0.));
#1134 = DIRECTION('',(0.,0.,1.));
#1135 = ADVANCED_FACE('',(#1136),#1142,.F.);
#1136 = FACE_BOUND('',#1137,.T.);
#1137 = EDGE_LOOP('',(#1138,#1139,#1140,#1141));
#1138 = ORIENTED_EDGE('',*,*,#1118,.F.);
#1139 = ORIENTED_EDGE('',*,*,#1094,.F.);
#1140 = ORIENTED_EDGE('',*,*,#1045,.T.);
#1141 = ORIENTED_EDGE('',*,*,#1021,.T.);
#1142 = CYLINDRICAL_SURFACE('',#1143,4.);
#1143 = AXIS2_PLACEMENT_3D('',#1144,#1145,#1146);
#1144 = CARTESIAN_POINT('',(0.,0.,-10.5));
#1145 = DIRECTION('',(-0.,-0.,-1.));
#1146 = DIRECTION('',(1.,0.,0.));
#1147 = ADVANCED_FACE('',(#1148),#1156,.T.);
#1148 = FACE_BOUND('',#1149,.F.);
#1149 = EDGE_LOOP('',(#1150,#1151,#1152,#1153,#1154,#1155));
#1150 = ORIENTED_EDGE('',*,*,#1125,.F.);
#1151 = ORIENTED_EDGE('',*,*,#1075,.T.);
#1152 = ORIENTED_EDGE('',*,*,#1086,.T.);
#1153 = ORIENTED_EDGE('',*,*,#1061,.T.);
#1154 = ORIENTED_EDGE('',*,*,#1004,.F.);
#1155 = ORIENTED_EDGE('',*,*,#993,.F.);
#1156 = CYLINDRICAL_SURFACE('',#1157,6.);
#1157 = AXIS2_PLACEMENT_3D('',#1158,#1159,#1160);
#1158 = CARTESIAN_POINT('',(0.,0.,-10.));
#1159 = DIRECTION('',(-0.,-0.,-1.));
#1160 = DIRECTION('',(1.,0.,0.));
#1161 = ( GEOMETRIC_REPRESENTATION_CONTEXT(3) 
GLOBAL_UNCERTAINTY_ASSIGNED_CONTEXT((#1165)) 
GLOBAL_UNIT_ASSIGNED_CONTEXT((#1162,#1163,#1164)) REPRESENTATION_CONTEXT
('Context #1','3D Context with UNIT and UNCERTAINTY') );
#1162 = ( LENGTH_UNIT() NAMED_UNIT(*) SI_UNIT(.MILLI.,.METRE.) );
#1163 = ( NAMED_UNIT(*) PLANE_ANGLE_UNIT() SI_UNIT($,.RADIAN.) );
#1164 = ( NAMED_UNIT(*) SI_UNIT($,.STERADIAN.) SOLID_ANGLE_UNIT() );
#1165 = UNCERTAINTY_MEASURE_WITH_UNIT(LENGTH_MEASURE(2.E-05),#1162,
  'distance_accuracy_value','confusion accuracy');
#1166 = CONTEXT_DEPENDENT_SHAPE_REPRESENTATION(#1167,#1169);
#1167 = ( REPRESENTATION_RELATIONSHIP('','',#986,#10) 
REPRESENTATION_RELATIONSHIP_WITH_TRANSFORMATION(#1168) 
SHAPE_REPRESENTATION_RELATIONSHIP() );
#1168 = ITEM_DEFINED_TRANSFORMATION('','',#11,#23);
#1169 = PRODUCT_DEFINITION_SHAPE('Placement','Placement of an item',
  #1170);
#1170 = NEXT_ASSEMBLY_USAGE_OCCURRENCE('3','difference002','',#5,#981,$
  );
#1171 = PRODUCT_RELATED_PRODUCT_CATEGORY('part',$,(#983));
ENDSEC;
END-ISO-10303-21;
