ISO-10303-21;
HEADER;
FILE_DESCRIPTION(('FreeCAD Model'),'2;1');
FILE_NAME('Open CASCADE Shape Model','2026-03-05T20:22:55',(''),(''),
  'Open CASCADE STEP processor 7.8','FreeCAD','Unknown');
FILE_SCHEMA(('AUTOMOTIVE_DESIGN { 1 0 10303 214 1 1 1 1 }'));
ENDSEC;
DATA;
#1 = APPLICATION_PROTOCOL_DEFINITION('international standard',
  'automotive_design',2000,#2);
#2 = APPLICATION_CONTEXT(
  'core data for automotive mechanical design processes');
#3 = SHAPE_DEFINITION_REPRESENTATION(#4,#10);
#4 = PRODUCT_DEFINITION_SHAPE('','',#5);
#5 = PRODUCT_DEFINITION('design','',#6,#9);
#6 = PRODUCT_DEFINITION_FORMATION('','',#7);
#7 = PRODUCT('Group','Group','',(#8));
#8 = PRODUCT_CONTEXT('',#2,'mechanical');
#9 = PRODUCT_DEFINITION_CONTEXT('part definition',#2,'design');
#10 = ADVANCED_BREP_SHAPE_REPRESENTATION('',(#11,#15),#636);
#11 = AXIS2_PLACEMENT_3D('',#12,#13,#14);
#12 = CARTESIAN_POINT('',(0.,0.,0.));
#13 = DIRECTION('',(0.,0.,1.));
#14 = DIRECTION('',(1.,0.,-0.));
#15 = MANIFOLD_SOLID_BREP('',#16);
#16 = CLOSED_SHELL('',(#17,#68,#99,#152,#183,#225,#256,#287,#318,#349,
    #371,#388,#405,#478,#503,#528,#553,#578,#603));
#17 = ADVANCED_FACE('',(#18,#52),#63,.T.);
#18 = FACE_BOUND('',#19,.T.);
#19 = EDGE_LOOP('',(#20,#30,#38,#46));
#20 = ORIENTED_EDGE('',*,*,#21,.F.);
#21 = EDGE_CURVE('',#22,#24,#26,.T.);
#22 = VERTEX_POINT('',#23);
#23 = CARTESIAN_POINT('',(-41.5,0.,4.5));
#24 = VERTEX_POINT('',#25);
#25 = CARTESIAN_POINT('',(-21.1,2.109423746788E-15,4.5));
#26 = LINE('',#27,#28);
#27 = CARTESIAN_POINT('',(-41.5,0.,4.5));
#28 = VECTOR('',#29,1.);
#29 = DIRECTION('',(1.,0.,0.));
#30 = ORIENTED_EDGE('',*,*,#31,.F.);
#31 = EDGE_CURVE('',#32,#22,#34,.T.);
#32 = VERTEX_POINT('',#33);
#33 = CARTESIAN_POINT('',(-41.5,-6.8,4.5));
#34 = LINE('',#35,#36);
#35 = CARTESIAN_POINT('',(-41.5,-6.8,4.5));
#36 = VECTOR('',#37,1.);
#37 = DIRECTION('',(0.,1.,0.));
#38 = ORIENTED_EDGE('',*,*,#39,.T.);
#39 = EDGE_CURVE('',#32,#40,#42,.T.);
#40 = VERTEX_POINT('',#41);
#41 = CARTESIAN_POINT('',(-21.1,-6.8,4.5));
#42 = LINE('',#43,#44);
#43 = CARTESIAN_POINT('',(-41.5,-6.8,4.5));
#44 = VECTOR('',#45,1.);
#45 = DIRECTION('',(1.,0.,0.));
#46 = ORIENTED_EDGE('',*,*,#47,.F.);
#47 = EDGE_CURVE('',#24,#40,#48,.T.);
#48 = LINE('',#49,#50);
#49 = CARTESIAN_POINT('',(-21.1,-3.4,4.5));
#50 = VECTOR('',#51,1.);
#51 = DIRECTION('',(0.,-1.,0.));
#52 = FACE_BOUND('',#53,.T.);
#53 = EDGE_LOOP('',(#54));
#54 = ORIENTED_EDGE('',*,*,#55,.T.);
#55 = EDGE_CURVE('',#56,#56,#58,.T.);
#56 = VERTEX_POINT('',#57);
#57 = CARTESIAN_POINT('',(-34.3,-3.4,4.5));
#58 = CIRCLE('',#59,2.2);
#59 = AXIS2_PLACEMENT_3D('',#60,#61,#62);
#60 = CARTESIAN_POINT('',(-36.5,-3.4,4.5));
#61 = DIRECTION('',(0.,0.,-1.));
#62 = DIRECTION('',(1.,0.,0.));
#63 = PLANE('',#64);
#64 = AXIS2_PLACEMENT_3D('',#65,#66,#67);
#65 = CARTESIAN_POINT('',(-41.5,-6.8,4.5));
#66 = DIRECTION('',(0.,0.,1.));
#67 = DIRECTION('',(1.,0.,0.));
#68 = ADVANCED_FACE('',(#69),#94,.F.);
#69 = FACE_BOUND('',#70,.F.);
#70 = EDGE_LOOP('',(#71,#79,#87,#93));
#71 = ORIENTED_EDGE('',*,*,#72,.F.);
#72 = EDGE_CURVE('',#73,#32,#75,.T.);
#73 = VERTEX_POINT('',#74);
#74 = CARTESIAN_POINT('',(-41.5,-6.8,-0.5));
#75 = LINE('',#76,#77);
#76 = CARTESIAN_POINT('',(-41.5,-6.8,-0.5));
#77 = VECTOR('',#78,1.);
#78 = DIRECTION('',(0.,0.,1.));
#79 = ORIENTED_EDGE('',*,*,#80,.T.);
#80 = EDGE_CURVE('',#73,#81,#83,.T.);
#81 = VERTEX_POINT('',#82);
#82 = CARTESIAN_POINT('',(-41.5,0.,-0.5));
#83 = LINE('',#84,#85);
#84 = CARTESIAN_POINT('',(-41.5,-6.8,-0.5));
#85 = VECTOR('',#86,1.);
#86 = DIRECTION('',(0.,1.,0.));
#87 = ORIENTED_EDGE('',*,*,#88,.T.);
#88 = EDGE_CURVE('',#81,#22,#89,.T.);
#89 = LINE('',#90,#91);
#90 = CARTESIAN_POINT('',(-41.5,0.,-0.5));
#91 = VECTOR('',#92,1.);
#92 = DIRECTION('',(0.,0.,1.));
#93 = ORIENTED_EDGE('',*,*,#31,.F.);
#94 = PLANE('',#95);
#95 = AXIS2_PLACEMENT_3D('',#96,#97,#98);
#96 = CARTESIAN_POINT('',(-41.5,-6.8,-0.5));
#97 = DIRECTION('',(1.,0.,0.));
#98 = DIRECTION('',(0.,0.,1.));
#99 = ADVANCED_FACE('',(#100,#125,#136),#147,.F.);
#100 = FACE_BOUND('',#101,.F.);
#101 = EDGE_LOOP('',(#102,#103,#111,#119));
#102 = ORIENTED_EDGE('',*,*,#80,.F.);
#103 = ORIENTED_EDGE('',*,*,#104,.T.);
#104 = EDGE_CURVE('',#73,#105,#107,.T.);
#105 = VERTEX_POINT('',#106);
#106 = CARTESIAN_POINT('',(41.5,-6.8,-0.5));
#107 = LINE('',#108,#109);
#108 = CARTESIAN_POINT('',(-41.5,-6.8,-0.5));
#109 = VECTOR('',#110,1.);
#110 = DIRECTION('',(1.,0.,0.));
#111 = ORIENTED_EDGE('',*,*,#112,.T.);
#112 = EDGE_CURVE('',#105,#113,#115,.T.);
#113 = VERTEX_POINT('',#114);
#114 = CARTESIAN_POINT('',(41.5,0.,-0.5));
#115 = LINE('',#116,#117);
#116 = CARTESIAN_POINT('',(41.5,-6.8,-0.5));
#117 = VECTOR('',#118,1.);
#118 = DIRECTION('',(0.,1.,0.));
#119 = ORIENTED_EDGE('',*,*,#120,.F.);
#120 = EDGE_CURVE('',#81,#113,#121,.T.);
#121 = LINE('',#122,#123);
#122 = CARTESIAN_POINT('',(-41.5,0.,-0.5));
#123 = VECTOR('',#124,1.);
#124 = DIRECTION('',(1.,0.,0.));
#125 = FACE_BOUND('',#126,.F.);
#126 = EDGE_LOOP('',(#127));
#127 = ORIENTED_EDGE('',*,*,#128,.F.);
#128 = EDGE_CURVE('',#129,#129,#131,.T.);
#129 = VERTEX_POINT('',#130);
#130 = CARTESIAN_POINT('',(-34.3,-3.4,-0.5));
#131 = CIRCLE('',#132,2.2);
#132 = AXIS2_PLACEMENT_3D('',#133,#134,#135);
#133 = CARTESIAN_POINT('',(-36.5,-3.4,-0.5));
#134 = DIRECTION('',(0.,0.,1.));
#135 = DIRECTION('',(1.,0.,0.));
#136 = FACE_BOUND('',#137,.F.);
#137 = EDGE_LOOP('',(#138));
#138 = ORIENTED_EDGE('',*,*,#139,.F.);
#139 = EDGE_CURVE('',#140,#140,#142,.T.);
#140 = VERTEX_POINT('',#141);
#141 = CARTESIAN_POINT('',(38.7,-3.4,-0.5));
#142 = CIRCLE('',#143,2.2);
#143 = AXIS2_PLACEMENT_3D('',#144,#145,#146);
#144 = CARTESIAN_POINT('',(36.5,-3.4,-0.5));
#145 = DIRECTION('',(0.,0.,1.));
#146 = DIRECTION('',(1.,0.,0.));
#147 = PLANE('',#148);
#148 = AXIS2_PLACEMENT_3D('',#149,#150,#151);
#149 = CARTESIAN_POINT('',(-41.5,-6.8,-0.5));
#150 = DIRECTION('',(0.,0.,1.));
#151 = DIRECTION('',(1.,0.,0.));
#152 = ADVANCED_FACE('',(#153),#178,.T.);
#153 = FACE_BOUND('',#154,.T.);
#154 = EDGE_LOOP('',(#155,#163,#164,#172));
#155 = ORIENTED_EDGE('',*,*,#156,.F.);
#156 = EDGE_CURVE('',#105,#157,#159,.T.);
#157 = VERTEX_POINT('',#158);
#158 = CARTESIAN_POINT('',(41.5,-6.8,4.5));
#159 = LINE('',#160,#161);
#160 = CARTESIAN_POINT('',(41.5,-6.8,-0.5));
#161 = VECTOR('',#162,1.);
#162 = DIRECTION('',(0.,0.,1.));
#163 = ORIENTED_EDGE('',*,*,#112,.T.);
#164 = ORIENTED_EDGE('',*,*,#165,.T.);
#165 = EDGE_CURVE('',#113,#166,#168,.T.);
#166 = VERTEX_POINT('',#167);
#167 = CARTESIAN_POINT('',(41.5,0.,4.5));
#168 = LINE('',#169,#170);
#169 = CARTESIAN_POINT('',(41.5,0.,-0.5));
#170 = VECTOR('',#171,1.);
#171 = DIRECTION('',(0.,0.,1.));
#172 = ORIENTED_EDGE('',*,*,#173,.F.);
#173 = EDGE_CURVE('',#157,#166,#174,.T.);
#174 = LINE('',#175,#176);
#175 = CARTESIAN_POINT('',(41.5,-6.8,4.5));
#176 = VECTOR('',#177,1.);
#177 = DIRECTION('',(0.,1.,0.));
#178 = PLANE('',#179);
#179 = AXIS2_PLACEMENT_3D('',#180,#181,#182);
#180 = CARTESIAN_POINT('',(41.5,-6.8,-0.5));
#181 = DIRECTION('',(1.,0.,0.));
#182 = DIRECTION('',(0.,0.,1.));
#183 = ADVANCED_FACE('',(#184,#209),#220,.T.);
#184 = FACE_BOUND('',#185,.T.);
#185 = EDGE_LOOP('',(#186,#194,#202,#208));
#186 = ORIENTED_EDGE('',*,*,#187,.F.);
#187 = EDGE_CURVE('',#188,#166,#190,.T.);
#188 = VERTEX_POINT('',#189);
#189 = CARTESIAN_POINT('',(21.1,2.109423746788E-15,4.5));
#190 = LINE('',#191,#192);
#191 = CARTESIAN_POINT('',(-41.5,0.,4.5));
#192 = VECTOR('',#193,1.);
#193 = DIRECTION('',(1.,0.,0.));
#194 = ORIENTED_EDGE('',*,*,#195,.T.);
#195 = EDGE_CURVE('',#188,#196,#198,.T.);
#196 = VERTEX_POINT('',#197);
#197 = CARTESIAN_POINT('',(21.1,-6.8,4.5));
#198 = LINE('',#199,#200);
#199 = CARTESIAN_POINT('',(21.1,-3.4,4.5));
#200 = VECTOR('',#201,1.);
#201 = DIRECTION('',(0.,-1.,0.));
#202 = ORIENTED_EDGE('',*,*,#203,.T.);
#203 = EDGE_CURVE('',#196,#157,#204,.T.);
#204 = LINE('',#205,#206);
#205 = CARTESIAN_POINT('',(-41.5,-6.8,4.5));
#206 = VECTOR('',#207,1.);
#207 = DIRECTION('',(1.,0.,0.));
#208 = ORIENTED_EDGE('',*,*,#173,.T.);
#209 = FACE_BOUND('',#210,.T.);
#210 = EDGE_LOOP('',(#211));
#211 = ORIENTED_EDGE('',*,*,#212,.T.);
#212 = EDGE_CURVE('',#213,#213,#215,.T.);
#213 = VERTEX_POINT('',#214);
#214 = CARTESIAN_POINT('',(38.7,-3.4,4.5));
#215 = CIRCLE('',#216,2.2);
#216 = AXIS2_PLACEMENT_3D('',#217,#218,#219);
#217 = CARTESIAN_POINT('',(36.5,-3.4,4.5));
#218 = DIRECTION('',(0.,0.,-1.));
#219 = DIRECTION('',(1.,0.,0.));
#220 = PLANE('',#221);
#221 = AXIS2_PLACEMENT_3D('',#222,#223,#224);
#222 = CARTESIAN_POINT('',(-41.5,-6.8,4.5));
#223 = DIRECTION('',(0.,0.,1.));
#224 = DIRECTION('',(1.,0.,0.));
#225 = ADVANCED_FACE('',(#226),#251,.F.);
#226 = FACE_BOUND('',#227,.F.);
#227 = EDGE_LOOP('',(#228,#236,#237,#245));
#228 = ORIENTED_EDGE('',*,*,#229,.F.);
#229 = EDGE_CURVE('',#40,#230,#232,.T.);
#230 = VERTEX_POINT('',#231);
#231 = CARTESIAN_POINT('',(-21.1,-6.8,39.7));
#232 = LINE('',#233,#234);
#233 = CARTESIAN_POINT('',(-21.1,-6.8,1.5));
#234 = VECTOR('',#235,1.);
#235 = DIRECTION('',(0.,-2.22044604925E-16,1.));
#236 = ORIENTED_EDGE('',*,*,#47,.F.);
#237 = ORIENTED_EDGE('',*,*,#238,.T.);
#238 = EDGE_CURVE('',#24,#239,#241,.T.);
#239 = VERTEX_POINT('',#240);
#240 = CARTESIAN_POINT('',(-21.1,-3.996802888651E-15,39.7));
#241 = LINE('',#242,#243);
#242 = CARTESIAN_POINT('',(-21.1,4.884981308351E-15,1.5));
#243 = VECTOR('',#244,1.);
#244 = DIRECTION('',(0.,-2.22044604925E-16,1.));
#245 = ORIENTED_EDGE('',*,*,#246,.T.);
#246 = EDGE_CURVE('',#239,#230,#247,.T.);
#247 = LINE('',#248,#249);
#248 = CARTESIAN_POINT('',(-21.1,0.5,39.7));
#249 = VECTOR('',#250,1.);
#250 = DIRECTION('',(0.,-1.,-2.22044604925E-16));
#251 = PLANE('',#252);
#252 = AXIS2_PLACEMENT_3D('',#253,#254,#255);
#253 = CARTESIAN_POINT('',(-21.1,4.884981308351E-15,1.5));
#254 = DIRECTION('',(1.,0.,0.));
#255 = DIRECTION('',(0.,-1.,-2.22044604925E-16));
#256 = ADVANCED_FACE('',(#257),#282,.T.);
#257 = FACE_BOUND('',#258,.T.);
#258 = EDGE_LOOP('',(#259,#269,#275,#276));
#259 = ORIENTED_EDGE('',*,*,#260,.F.);
#260 = EDGE_CURVE('',#261,#263,#265,.T.);
#261 = VERTEX_POINT('',#262);
#262 = CARTESIAN_POINT('',(-17.1,-4.884981308351E-15,43.7));
#263 = VERTEX_POINT('',#264);
#264 = CARTESIAN_POINT('',(-17.1,-6.8,43.7));
#265 = LINE('',#266,#267);
#266 = CARTESIAN_POINT('',(-17.1,1.,43.7));
#267 = VECTOR('',#268,1.);
#268 = DIRECTION('',(0.,-1.,-2.22044604925E-16));
#269 = ORIENTED_EDGE('',*,*,#270,.T.);
#270 = EDGE_CURVE('',#261,#239,#271,.T.);
#271 = LINE('',#272,#273);
#272 = CARTESIAN_POINT('',(-28.65,-2.22044604925E-15,32.15));
#273 = VECTOR('',#274,1.);
#274 = DIRECTION('',(-0.707106781187,1.570092458684E-16,-0.707106781187)
  );
#275 = ORIENTED_EDGE('',*,*,#246,.T.);
#276 = ORIENTED_EDGE('',*,*,#277,.F.);
#277 = EDGE_CURVE('',#263,#230,#278,.T.);
#278 = LINE('',#279,#280);
#279 = CARTESIAN_POINT('',(-28.65,-6.8,32.15));
#280 = VECTOR('',#281,1.);
#281 = DIRECTION('',(-0.707106781187,1.570092458684E-16,-0.707106781187)
  );
#282 = PLANE('',#283);
#283 = AXIS2_PLACEMENT_3D('',#284,#285,#286);
#284 = CARTESIAN_POINT('',(-17.1,1.,43.7));
#285 = DIRECTION('',(-0.707106781187,-1.570092458684E-16,0.707106781187)
  );
#286 = DIRECTION('',(0.,-1.,-2.22044604925E-16));
#287 = ADVANCED_FACE('',(#288),#313,.T.);
#288 = FACE_BOUND('',#289,.T.);
#289 = EDGE_LOOP('',(#290,#298,#299,#307));
#290 = ORIENTED_EDGE('',*,*,#291,.F.);
#291 = EDGE_CURVE('',#261,#292,#294,.T.);
#292 = VERTEX_POINT('',#293);
#293 = CARTESIAN_POINT('',(17.1,-4.884981308351E-15,43.7));
#294 = LINE('',#295,#296);
#295 = CARTESIAN_POINT('',(-21.1,-4.485301019486E-15,43.7));
#296 = VECTOR('',#297,1.);
#297 = DIRECTION('',(1.,0.,0.));
#298 = ORIENTED_EDGE('',*,*,#260,.T.);
#299 = ORIENTED_EDGE('',*,*,#300,.T.);
#300 = EDGE_CURVE('',#263,#301,#303,.T.);
#301 = VERTEX_POINT('',#302);
#302 = CARTESIAN_POINT('',(17.1,-6.8,43.7));
#303 = LINE('',#304,#305);
#304 = CARTESIAN_POINT('',(-21.1,-6.8,43.7));
#305 = VECTOR('',#306,1.);
#306 = DIRECTION('',(1.,0.,0.));
#307 = ORIENTED_EDGE('',*,*,#308,.T.);
#308 = EDGE_CURVE('',#301,#292,#309,.T.);
#309 = LINE('',#310,#311);
#310 = CARTESIAN_POINT('',(17.1,0.5,43.7));
#311 = VECTOR('',#312,1.);
#312 = DIRECTION('',(0.,1.,2.22044604925E-16));
#313 = PLANE('',#314);
#314 = AXIS2_PLACEMENT_3D('',#315,#316,#317);
#315 = CARTESIAN_POINT('',(-21.1,-4.485301019486E-15,43.7));
#316 = DIRECTION('',(0.,-2.22044604925E-16,1.));
#317 = DIRECTION('',(0.,-1.,-2.22044604925E-16));
#318 = ADVANCED_FACE('',(#319),#344,.T.);
#319 = FACE_BOUND('',#320,.T.);
#320 = EDGE_LOOP('',(#321,#331,#337,#338));
#321 = ORIENTED_EDGE('',*,*,#322,.F.);
#322 = EDGE_CURVE('',#323,#325,#327,.T.);
#323 = VERTEX_POINT('',#324);
#324 = CARTESIAN_POINT('',(21.1,-3.996802888651E-15,39.7));
#325 = VERTEX_POINT('',#326);
#326 = CARTESIAN_POINT('',(21.1,-6.8,39.7));
#327 = LINE('',#328,#329);
#328 = CARTESIAN_POINT('',(21.1,1.,39.7));
#329 = VECTOR('',#330,1.);
#330 = DIRECTION('',(0.,-1.,-2.22044604925E-16));
#331 = ORIENTED_EDGE('',*,*,#332,.T.);
#332 = EDGE_CURVE('',#323,#292,#333,.T.);
#333 = LINE('',#334,#335);
#334 = CARTESIAN_POINT('',(20.1,-3.996802888651E-15,40.7));
#335 = VECTOR('',#336,1.);
#336 = DIRECTION('',(-0.707106781187,-1.570092458684E-16,0.707106781187)
  );
#337 = ORIENTED_EDGE('',*,*,#308,.F.);
#338 = ORIENTED_EDGE('',*,*,#339,.F.);
#339 = EDGE_CURVE('',#325,#301,#340,.T.);
#340 = LINE('',#341,#342);
#341 = CARTESIAN_POINT('',(20.1,-6.8,40.7));
#342 = VECTOR('',#343,1.);
#343 = DIRECTION('',(-0.707106781187,-1.570092458684E-16,0.707106781187)
  );
#344 = PLANE('',#345);
#345 = AXIS2_PLACEMENT_3D('',#346,#347,#348);
#346 = CARTESIAN_POINT('',(21.1,1.,39.7));
#347 = DIRECTION('',(0.707106781187,-1.570092458684E-16,0.707106781187)
  );
#348 = DIRECTION('',(0.,-1.,-2.22044604925E-16));
#349 = ADVANCED_FACE('',(#350),#366,.T.);
#350 = FACE_BOUND('',#351,.T.);
#351 = EDGE_LOOP('',(#352,#358,#359,#365));
#352 = ORIENTED_EDGE('',*,*,#353,.F.);
#353 = EDGE_CURVE('',#196,#325,#354,.T.);
#354 = LINE('',#355,#356);
#355 = CARTESIAN_POINT('',(21.1,-6.8,1.5));
#356 = VECTOR('',#357,1.);
#357 = DIRECTION('',(0.,-2.22044604925E-16,1.));
#358 = ORIENTED_EDGE('',*,*,#195,.F.);
#359 = ORIENTED_EDGE('',*,*,#360,.T.);
#360 = EDGE_CURVE('',#188,#323,#361,.T.);
#361 = LINE('',#362,#363);
#362 = CARTESIAN_POINT('',(21.1,4.884981308351E-15,1.5));
#363 = VECTOR('',#364,1.);
#364 = DIRECTION('',(0.,-2.22044604925E-16,1.));
#365 = ORIENTED_EDGE('',*,*,#322,.T.);
#366 = PLANE('',#367);
#367 = AXIS2_PLACEMENT_3D('',#368,#369,#370);
#368 = CARTESIAN_POINT('',(21.1,4.884981308351E-15,1.5));
#369 = DIRECTION('',(1.,0.,0.));
#370 = DIRECTION('',(0.,-1.,-2.22044604925E-16));
#371 = ADVANCED_FACE('',(#372),#383,.F.);
#372 = FACE_BOUND('',#373,.T.);
#373 = EDGE_LOOP('',(#374,#375,#381,#382));
#374 = ORIENTED_EDGE('',*,*,#139,.F.);
#375 = ORIENTED_EDGE('',*,*,#376,.T.);
#376 = EDGE_CURVE('',#140,#213,#377,.T.);
#377 = LINE('',#378,#379);
#378 = CARTESIAN_POINT('',(38.7,-3.4,-0.5));
#379 = VECTOR('',#380,1.);
#380 = DIRECTION('',(0.,0.,1.));
#381 = ORIENTED_EDGE('',*,*,#212,.F.);
#382 = ORIENTED_EDGE('',*,*,#376,.F.);
#383 = CYLINDRICAL_SURFACE('',#384,2.2);
#384 = AXIS2_PLACEMENT_3D('',#385,#386,#387);
#385 = CARTESIAN_POINT('',(36.5,-3.4,-0.5));
#386 = DIRECTION('',(-0.,-0.,-1.));
#387 = DIRECTION('',(1.,0.,0.));
#388 = ADVANCED_FACE('',(#389),#400,.F.);
#389 = FACE_BOUND('',#390,.T.);
#390 = EDGE_LOOP('',(#391,#392,#398,#399));
#391 = ORIENTED_EDGE('',*,*,#128,.F.);
#392 = ORIENTED_EDGE('',*,*,#393,.T.);
#393 = EDGE_CURVE('',#129,#56,#394,.T.);
#394 = LINE('',#395,#396);
#395 = CARTESIAN_POINT('',(-34.3,-3.4,-0.5));
#396 = VECTOR('',#397,1.);
#397 = DIRECTION('',(0.,0.,1.));
#398 = ORIENTED_EDGE('',*,*,#55,.F.);
#399 = ORIENTED_EDGE('',*,*,#393,.F.);
#400 = CYLINDRICAL_SURFACE('',#401,2.2);
#401 = AXIS2_PLACEMENT_3D('',#402,#403,#404);
#402 = CARTESIAN_POINT('',(-36.5,-3.4,-0.5));
#403 = DIRECTION('',(-0.,-0.,-1.));
#404 = DIRECTION('',(1.,0.,0.));
#405 = ADVANCED_FACE('',(#406,#418,#429,#440,#451,#462),#473,.T.);
#406 = FACE_BOUND('',#407,.T.);
#407 = EDGE_LOOP('',(#408,#409,#410,#411,#412,#413,#414,#415,#416,#417)
  );
#408 = ORIENTED_EDGE('',*,*,#156,.T.);
#409 = ORIENTED_EDGE('',*,*,#203,.F.);
#410 = ORIENTED_EDGE('',*,*,#353,.T.);
#411 = ORIENTED_EDGE('',*,*,#339,.T.);
#412 = ORIENTED_EDGE('',*,*,#300,.F.);
#413 = ORIENTED_EDGE('',*,*,#277,.T.);
#414 = ORIENTED_EDGE('',*,*,#229,.F.);
#415 = ORIENTED_EDGE('',*,*,#39,.F.);
#416 = ORIENTED_EDGE('',*,*,#72,.F.);
#417 = ORIENTED_EDGE('',*,*,#104,.T.);
#418 = FACE_BOUND('',#419,.T.);
#419 = EDGE_LOOP('',(#420));
#420 = ORIENTED_EDGE('',*,*,#421,.T.);
#421 = EDGE_CURVE('',#422,#422,#424,.T.);
#422 = VERTEX_POINT('',#423);
#423 = CARTESIAN_POINT('',(11.1,-6.8,22.6));
#424 = CIRCLE('',#425,11.1);
#425 = AXIS2_PLACEMENT_3D('',#426,#427,#428);
#426 = CARTESIAN_POINT('',(0.,-6.8,22.6));
#427 = DIRECTION('',(-0.,1.,2.22044604925E-16));
#428 = DIRECTION('',(1.,0.,0.));
#429 = FACE_BOUND('',#430,.T.);
#430 = EDGE_LOOP('',(#431));
#431 = ORIENTED_EDGE('',*,*,#432,.T.);
#432 = EDGE_CURVE('',#433,#433,#435,.T.);
#433 = VERTEX_POINT('',#434);
#434 = CARTESIAN_POINT('',(-13.2,-6.8,7.6));
#435 = CIRCLE('',#436,2.3);
#436 = AXIS2_PLACEMENT_3D('',#437,#438,#439);
#437 = CARTESIAN_POINT('',(-15.5,-6.8,7.6));
#438 = DIRECTION('',(-0.,1.,2.22044604925E-16));
#439 = DIRECTION('',(1.,0.,0.));
#440 = FACE_BOUND('',#441,.T.);
#441 = EDGE_LOOP('',(#442));
#442 = ORIENTED_EDGE('',*,*,#443,.T.);
#443 = EDGE_CURVE('',#444,#444,#446,.T.);
#444 = VERTEX_POINT('',#445);
#445 = CARTESIAN_POINT('',(17.8,-6.8,7.6));
#446 = CIRCLE('',#447,2.3);
#447 = AXIS2_PLACEMENT_3D('',#448,#449,#450);
#448 = CARTESIAN_POINT('',(15.5,-6.8,7.6));
#449 = DIRECTION('',(-0.,1.,2.22044604925E-16));
#450 = DIRECTION('',(1.,0.,0.));
#451 = FACE_BOUND('',#452,.T.);
#452 = EDGE_LOOP('',(#453));
#453 = ORIENTED_EDGE('',*,*,#454,.T.);
#454 = EDGE_CURVE('',#455,#455,#457,.T.);
#455 = VERTEX_POINT('',#456);
#456 = CARTESIAN_POINT('',(-13.2,-6.8,37.6));
#457 = CIRCLE('',#458,2.3);
#458 = AXIS2_PLACEMENT_3D('',#459,#460,#461);
#459 = CARTESIAN_POINT('',(-15.5,-6.8,37.6));
#460 = DIRECTION('',(-0.,1.,2.22044604925E-16));
#461 = DIRECTION('',(1.,0.,0.));
#462 = FACE_BOUND('',#463,.T.);
#463 = EDGE_LOOP('',(#464));
#464 = ORIENTED_EDGE('',*,*,#465,.T.);
#465 = EDGE_CURVE('',#466,#466,#468,.T.);
#466 = VERTEX_POINT('',#467);
#467 = CARTESIAN_POINT('',(17.8,-6.8,37.6));
#468 = CIRCLE('',#469,2.3);
#469 = AXIS2_PLACEMENT_3D('',#470,#471,#472);
#470 = CARTESIAN_POINT('',(15.5,-6.8,37.6));
#471 = DIRECTION('',(-0.,1.,2.22044604925E-16));
#472 = DIRECTION('',(1.,0.,0.));
#473 = PLANE('',#474);
#474 = AXIS2_PLACEMENT_3D('',#475,#476,#477);
#475 = CARTESIAN_POINT('',(0.,-6.8,14.753942290768));
#476 = DIRECTION('',(-0.,-1.,-0.));
#477 = DIRECTION('',(0.,0.,-1.));
#478 = ADVANCED_FACE('',(#479),#498,.F.);
#479 = FACE_BOUND('',#480,.T.);
#480 = EDGE_LOOP('',(#481,#490,#496,#497));
#481 = ORIENTED_EDGE('',*,*,#482,.T.);
#482 = EDGE_CURVE('',#483,#483,#485,.T.);
#483 = VERTEX_POINT('',#484);
#484 = CARTESIAN_POINT('',(11.1,0.,22.6));
#485 = CIRCLE('',#486,11.1);
#486 = AXIS2_PLACEMENT_3D('',#487,#488,#489);
#487 = CARTESIAN_POINT('',(0.,0.,22.6));
#488 = DIRECTION('',(-0.,1.,2.22044604925E-16));
#489 = DIRECTION('',(1.,0.,0.));
#490 = ORIENTED_EDGE('',*,*,#491,.T.);
#491 = EDGE_CURVE('',#483,#422,#492,.T.);
#492 = LINE('',#493,#494);
#493 = CARTESIAN_POINT('',(11.1,1.,22.6));
#494 = VECTOR('',#495,1.);
#495 = DIRECTION('',(0.,-1.,-2.22044604925E-16));
#496 = ORIENTED_EDGE('',*,*,#421,.F.);
#497 = ORIENTED_EDGE('',*,*,#491,.F.);
#498 = CYLINDRICAL_SURFACE('',#499,11.1);
#499 = AXIS2_PLACEMENT_3D('',#500,#501,#502);
#500 = CARTESIAN_POINT('',(0.,1.,22.6));
#501 = DIRECTION('',(-0.,1.,2.22044604925E-16));
#502 = DIRECTION('',(1.,0.,0.));
#503 = ADVANCED_FACE('',(#504),#523,.F.);
#504 = FACE_BOUND('',#505,.T.);
#505 = EDGE_LOOP('',(#506,#515,#521,#522));
#506 = ORIENTED_EDGE('',*,*,#507,.T.);
#507 = EDGE_CURVE('',#508,#508,#510,.T.);
#508 = VERTEX_POINT('',#509);
#509 = CARTESIAN_POINT('',(-13.2,3.10862446895E-15,7.6));
#510 = CIRCLE('',#511,2.3);
#511 = AXIS2_PLACEMENT_3D('',#512,#513,#514);
#512 = CARTESIAN_POINT('',(-15.5,3.10862446895E-15,7.6));
#513 = DIRECTION('',(-0.,1.,2.22044604925E-16));
#514 = DIRECTION('',(1.,0.,0.));
#515 = ORIENTED_EDGE('',*,*,#516,.T.);
#516 = EDGE_CURVE('',#508,#433,#517,.T.);
#517 = LINE('',#518,#519);
#518 = CARTESIAN_POINT('',(-13.2,1.,7.6));
#519 = VECTOR('',#520,1.);
#520 = DIRECTION('',(0.,-1.,-2.22044604925E-16));
#521 = ORIENTED_EDGE('',*,*,#432,.F.);
#522 = ORIENTED_EDGE('',*,*,#516,.F.);
#523 = CYLINDRICAL_SURFACE('',#524,2.3);
#524 = AXIS2_PLACEMENT_3D('',#525,#526,#527);
#525 = CARTESIAN_POINT('',(-15.5,1.,7.6));
#526 = DIRECTION('',(-0.,1.,2.22044604925E-16));
#527 = DIRECTION('',(1.,0.,0.));
#528 = ADVANCED_FACE('',(#529),#548,.F.);
#529 = FACE_BOUND('',#530,.T.);
#530 = EDGE_LOOP('',(#531,#540,#546,#547));
#531 = ORIENTED_EDGE('',*,*,#532,.T.);
#532 = EDGE_CURVE('',#533,#533,#535,.T.);
#533 = VERTEX_POINT('',#534);
#534 = CARTESIAN_POINT('',(17.8,3.10862446895E-15,7.6));
#535 = CIRCLE('',#536,2.3);
#536 = AXIS2_PLACEMENT_3D('',#537,#538,#539);
#537 = CARTESIAN_POINT('',(15.5,3.10862446895E-15,7.6));
#538 = DIRECTION('',(-0.,1.,2.22044604925E-16));
#539 = DIRECTION('',(1.,0.,0.));
#540 = ORIENTED_EDGE('',*,*,#541,.T.);
#541 = EDGE_CURVE('',#533,#444,#542,.T.);
#542 = LINE('',#543,#544);
#543 = CARTESIAN_POINT('',(17.8,1.,7.6));
#544 = VECTOR('',#545,1.);
#545 = DIRECTION('',(0.,-1.,-2.22044604925E-16));
#546 = ORIENTED_EDGE('',*,*,#443,.F.);
#547 = ORIENTED_EDGE('',*,*,#541,.F.);
#548 = CYLINDRICAL_SURFACE('',#549,2.3);
#549 = AXIS2_PLACEMENT_3D('',#550,#551,#552);
#550 = CARTESIAN_POINT('',(15.5,1.,7.6));
#551 = DIRECTION('',(-0.,1.,2.22044604925E-16));
#552 = DIRECTION('',(1.,0.,0.));
#553 = ADVANCED_FACE('',(#554),#573,.F.);
#554 = FACE_BOUND('',#555,.T.);
#555 = EDGE_LOOP('',(#556,#565,#571,#572));
#556 = ORIENTED_EDGE('',*,*,#557,.T.);
#557 = EDGE_CURVE('',#558,#558,#560,.T.);
#558 = VERTEX_POINT('',#559);
#559 = CARTESIAN_POINT('',(-13.2,-3.10862446895E-15,37.6));
#560 = CIRCLE('',#561,2.3);
#561 = AXIS2_PLACEMENT_3D('',#562,#563,#564);
#562 = CARTESIAN_POINT('',(-15.5,-3.10862446895E-15,37.6));
#563 = DIRECTION('',(-0.,1.,2.22044604925E-16));
#564 = DIRECTION('',(1.,0.,0.));
#565 = ORIENTED_EDGE('',*,*,#566,.T.);
#566 = EDGE_CURVE('',#558,#455,#567,.T.);
#567 = LINE('',#568,#569);
#568 = CARTESIAN_POINT('',(-13.2,1.,37.6));
#569 = VECTOR('',#570,1.);
#570 = DIRECTION('',(0.,-1.,-2.22044604925E-16));
#571 = ORIENTED_EDGE('',*,*,#454,.F.);
#572 = ORIENTED_EDGE('',*,*,#566,.F.);
#573 = CYLINDRICAL_SURFACE('',#574,2.3);
#574 = AXIS2_PLACEMENT_3D('',#575,#576,#577);
#575 = CARTESIAN_POINT('',(-15.5,1.,37.6));
#576 = DIRECTION('',(-0.,1.,2.22044604925E-16));
#577 = DIRECTION('',(1.,0.,0.));
#578 = ADVANCED_FACE('',(#579),#598,.F.);
#579 = FACE_BOUND('',#580,.T.);
#580 = EDGE_LOOP('',(#581,#590,#596,#597));
#581 = ORIENTED_EDGE('',*,*,#582,.T.);
#582 = EDGE_CURVE('',#583,#583,#585,.T.);
#583 = VERTEX_POINT('',#584);
#584 = CARTESIAN_POINT('',(17.8,-3.10862446895E-15,37.6));
#585 = CIRCLE('',#586,2.3);
#586 = AXIS2_PLACEMENT_3D('',#587,#588,#589);
#587 = CARTESIAN_POINT('',(15.5,-3.10862446895E-15,37.6));
#588 = DIRECTION('',(-0.,1.,2.22044604925E-16));
#589 = DIRECTION('',(1.,0.,0.));
#590 = ORIENTED_EDGE('',*,*,#591,.T.);
#591 = EDGE_CURVE('',#583,#466,#592,.T.);
#592 = LINE('',#593,#594);
#593 = CARTESIAN_POINT('',(17.8,1.,37.6));
#594 = VECTOR('',#595,1.);
#595 = DIRECTION('',(0.,-1.,-2.22044604925E-16));
#596 = ORIENTED_EDGE('',*,*,#465,.F.);
#597 = ORIENTED_EDGE('',*,*,#591,.F.);
#598 = CYLINDRICAL_SURFACE('',#599,2.3);
#599 = AXIS2_PLACEMENT_3D('',#600,#601,#602);
#600 = CARTESIAN_POINT('',(15.5,1.,37.6));
#601 = DIRECTION('',(-0.,1.,2.22044604925E-16));
#602 = DIRECTION('',(1.,0.,0.));
#603 = ADVANCED_FACE('',(#604,#616,#619,#622,#625,#628),#631,.T.);
#604 = FACE_BOUND('',#605,.T.);
#605 = EDGE_LOOP('',(#606,#607,#608,#609,#610,#611,#612,#613,#614,#615)
  );
#606 = ORIENTED_EDGE('',*,*,#165,.F.);
#607 = ORIENTED_EDGE('',*,*,#120,.F.);
#608 = ORIENTED_EDGE('',*,*,#88,.T.);
#609 = ORIENTED_EDGE('',*,*,#21,.T.);
#610 = ORIENTED_EDGE('',*,*,#238,.T.);
#611 = ORIENTED_EDGE('',*,*,#270,.F.);
#612 = ORIENTED_EDGE('',*,*,#291,.T.);
#613 = ORIENTED_EDGE('',*,*,#332,.F.);
#614 = ORIENTED_EDGE('',*,*,#360,.F.);
#615 = ORIENTED_EDGE('',*,*,#187,.T.);
#616 = FACE_BOUND('',#617,.T.);
#617 = EDGE_LOOP('',(#618));
#618 = ORIENTED_EDGE('',*,*,#482,.F.);
#619 = FACE_BOUND('',#620,.T.);
#620 = EDGE_LOOP('',(#621));
#621 = ORIENTED_EDGE('',*,*,#507,.F.);
#622 = FACE_BOUND('',#623,.T.);
#623 = EDGE_LOOP('',(#624));
#624 = ORIENTED_EDGE('',*,*,#532,.F.);
#625 = FACE_BOUND('',#626,.T.);
#626 = EDGE_LOOP('',(#627));
#627 = ORIENTED_EDGE('',*,*,#557,.F.);
#628 = FACE_BOUND('',#629,.T.);
#629 = EDGE_LOOP('',(#630));
#630 = ORIENTED_EDGE('',*,*,#582,.F.);
#631 = PLANE('',#632);
#632 = AXIS2_PLACEMENT_3D('',#633,#634,#635);
#633 = CARTESIAN_POINT('',(4.552687091349E-16,-7.278556646946E-16,
    14.753942290768));
#634 = DIRECTION('',(0.,1.,0.));
#635 = DIRECTION('',(0.,-0.,1.));
#636 = ( GEOMETRIC_REPRESENTATION_CONTEXT(3) 
GLOBAL_UNCERTAINTY_ASSIGNED_CONTEXT((#640)) GLOBAL_UNIT_ASSIGNED_CONTEXT
((#637,#638,#639)) REPRESENTATION_CONTEXT('Context #1',
  '3D Context with UNIT and UNCERTAINTY') );
#637 = ( LENGTH_UNIT() NAMED_UNIT(*) SI_UNIT(.MILLI.,.METRE.) );
#638 = ( NAMED_UNIT(*) PLANE_ANGLE_UNIT() SI_UNIT($,.RADIAN.) );
#639 = ( NAMED_UNIT(*) SI_UNIT($,.STERADIAN.) SOLID_ANGLE_UNIT() );
#640 = UNCERTAINTY_MEASURE_WITH_UNIT(LENGTH_MEASURE(2.E-05),#637,
  'distance_accuracy_value','confusion accuracy');
#641 = PRODUCT_RELATED_PRODUCT_CATEGORY('part',$,(#7));
ENDSEC;
END-ISO-10303-21;
