ISO-10303-21;
HEADER;
FILE_DESCRIPTION(('FreeCAD Model'),'2;1');
FILE_NAME('Open CASCADE Shape Model','2026-03-05T20:22:56',(''),(''),
  'Open CASCADE STEP processor 7.8','FreeCAD','Unknown');
FILE_SCHEMA(('AUTOMOTIVE_DESIGN { 1 0 10303 214 1 1 1 1 }'));
ENDSEC;
DATA;
#1 = APPLICATION_PROTOCOL_DEFINITION('international standard',
  'automotive_design',2000,#2);
#2 = APPLICATION_CONTEXT(
  'core data for automotive mechanical design processes');
#3 = SHAPE_DEFINITION_REPRESENTATION(#4,#10);
#4 = PRODUCT_DEFINITION_SHAPE('','',#5);
#5 = PRODUCT_DEFINITION('design','',#6,#9);
#6 = PRODUCT_DEFINITION_FORMATION('','',#7);
#7 = PRODUCT('fan_mount','fan_mount','',(#8));
#8 = PRODUCT_CONTEXT('',#2,'mechanical');
#9 = PRODUCT_DEFINITION_CONTEXT('part definition',#2,'design');
#10 = SHAPE_REPRESENTATION('',(#11,#15,#19,#23,#27,#31),#35);
#11 = AXIS2_PLACEMENT_3D('',#12,#13,#14);
#12 = CARTESIAN_POINT('',(0.,0.,0.));
#13 = DIRECTION('',(0.,0.,1.));
#14 = DIRECTION('',(1.,0.,-0.));
#15 = AXIS2_PLACEMENT_3D('',#16,#17,#18);
#16 = CARTESIAN_POINT('',(0.,15.414927829867,22.839549032325));
#17 = DIRECTION('',(0.,-0.707106781187,0.707106781187));
#18 = DIRECTION('',(1.,0.,0.));
#19 = AXIS2_PLACEMENT_3D('',#20,#21,#22);
#20 = CARTESIAN_POINT('',(50.,-16.22810062823,54.482577490423));
#21 = DIRECTION('',(0.,-0.707106781187,0.707106781187));
#22 = DIRECTION('',(1.,0.,0.));
#23 = AXIS2_PLACEMENT_3D('',#24,#25,#26);
#24 = CARTESIAN_POINT('',(0.,50.,0.));
#25 = DIRECTION('',(0.,0.,1.));
#26 = DIRECTION('',(1.,0.,0.));
#27 = AXIS2_PLACEMENT_3D('',#28,#29,#30);
#28 = CARTESIAN_POINT('',(50.,88.2545,0.));
#29 = DIRECTION('',(0.,0.,1.));
#30 = DIRECTION('',(1.,0.,0.));
#31 = AXIS2_PLACEMENT_3D('',#32,#33,#34);
#32 = CARTESIAN_POINT('',(0.,88.2545,0.));
#33 = DIRECTION('',(0.,0.,1.));
#34 = DIRECTION('',(1.,0.,0.));
#35 = ( GEOMETRIC_REPRESENTATION_CONTEXT(3) 
GLOBAL_UNCERTAINTY_ASSIGNED_CONTEXT((#39)) GLOBAL_UNIT_ASSIGNED_CONTEXT(
(#36,#37,#38)) REPRESENTATION_CONTEXT('Context #1',
  '3D Context with UNIT and UNCERTAINTY') );
#36 = ( LENGTH_UNIT() NAMED_UNIT(*) SI_UNIT(.MILLI.,.METRE.) );
#37 = ( NAMED_UNIT(*) PLANE_ANGLE_UNIT() SI_UNIT($,.RADIAN.) );
#38 = ( NAMED_UNIT(*) SI_UNIT($,.STERADIAN.) SOLID_ANGLE_UNIT() );
#39 = UNCERTAINTY_MEASURE_WITH_UNIT(LENGTH_MEASURE(2.E-05),#36,
  'distance_accuracy_value','confusion accuracy');
#40 = PRODUCT_RELATED_PRODUCT_CATEGORY('part',$,(#7));
#41 = SHAPE_DEFINITION_REPRESENTATION(#42,#48);
#42 = PRODUCT_DEFINITION_SHAPE('','',#43);
#43 = PRODUCT_DEFINITION('design','',#44,#47);
#44 = PRODUCT_DEFINITION_FORMATION('','',#45);
#45 = PRODUCT('difference','difference','',(#46));
#46 = PRODUCT_CONTEXT('',#2,'mechanical');
#47 = PRODUCT_DEFINITION_CONTEXT('part definition',#2,'design');
#48 = ADVANCED_BREP_SHAPE_REPRESENTATION('',(#11,#49),#335);
#49 = MANIFOLD_SOLID_BREP('',#50);
#50 = CLOSED_SHELL('',(#51,#91,#122,#180,#204,#255,#267,#289,#306,#323)
  );
#51 = ADVANCED_FACE('',(#52),#86,.F.);
#52 = FACE_BOUND('',#53,.F.);
#53 = EDGE_LOOP('',(#54,#64,#72,#80));
#54 = ORIENTED_EDGE('',*,*,#55,.F.);
#55 = EDGE_CURVE('',#56,#58,#60,.T.);
#56 = VERTEX_POINT('',#57);
#57 = CARTESIAN_POINT('',(-9.,-27.05,-5.25));
#58 = VERTEX_POINT('',#59);
#59 = CARTESIAN_POINT('',(-9.,-27.05,5.25));
#60 = LINE('',#61,#62);
#61 = CARTESIAN_POINT('',(-9.,-27.05,-5.25));
#62 = VECTOR('',#63,1.);
#63 = DIRECTION('',(0.,0.,1.));
#64 = ORIENTED_EDGE('',*,*,#65,.T.);
#65 = EDGE_CURVE('',#56,#66,#68,.T.);
#66 = VERTEX_POINT('',#67);
#67 = CARTESIAN_POINT('',(-9.,27.05,-5.25));
#68 = LINE('',#69,#70);
#69 = CARTESIAN_POINT('',(-9.,-27.05,-5.25));
#70 = VECTOR('',#71,1.);
#71 = DIRECTION('',(0.,1.,0.));
#72 = ORIENTED_EDGE('',*,*,#73,.T.);
#73 = EDGE_CURVE('',#66,#74,#76,.T.);
#74 = VERTEX_POINT('',#75);
#75 = CARTESIAN_POINT('',(-9.,27.05,5.25));
#76 = LINE('',#77,#78);
#77 = CARTESIAN_POINT('',(-9.,27.05,-5.25));
#78 = VECTOR('',#79,1.);
#79 = DIRECTION('',(0.,0.,1.));
#80 = ORIENTED_EDGE('',*,*,#81,.F.);
#81 = EDGE_CURVE('',#58,#74,#82,.T.);
#82 = LINE('',#83,#84);
#83 = CARTESIAN_POINT('',(-9.,-27.05,5.25));
#84 = VECTOR('',#85,1.);
#85 = DIRECTION('',(0.,1.,0.));
#86 = PLANE('',#87);
#87 = AXIS2_PLACEMENT_3D('',#88,#89,#90);
#88 = CARTESIAN_POINT('',(-9.,-27.05,-5.25));
#89 = DIRECTION('',(1.,0.,0.));
#90 = DIRECTION('',(0.,0.,1.));
#91 = ADVANCED_FACE('',(#92),#117,.F.);
#92 = FACE_BOUND('',#93,.F.);
#93 = EDGE_LOOP('',(#94,#102,#103,#111));
#94 = ORIENTED_EDGE('',*,*,#95,.F.);
#95 = EDGE_CURVE('',#56,#96,#98,.T.);
#96 = VERTEX_POINT('',#97);
#97 = CARTESIAN_POINT('',(9.,-27.05,-5.25));
#98 = LINE('',#99,#100);
#99 = CARTESIAN_POINT('',(-9.,-27.05,-5.25));
#100 = VECTOR('',#101,1.);
#101 = DIRECTION('',(1.,0.,0.));
#102 = ORIENTED_EDGE('',*,*,#55,.T.);
#103 = ORIENTED_EDGE('',*,*,#104,.T.);
#104 = EDGE_CURVE('',#58,#105,#107,.T.);
#105 = VERTEX_POINT('',#106);
#106 = CARTESIAN_POINT('',(9.,-27.05,5.25));
#107 = LINE('',#108,#109);
#108 = CARTESIAN_POINT('',(-9.,-27.05,5.25));
#109 = VECTOR('',#110,1.);
#110 = DIRECTION('',(1.,0.,0.));
#111 = ORIENTED_EDGE('',*,*,#112,.F.);
#112 = EDGE_CURVE('',#96,#105,#113,.T.);
#113 = LINE('',#114,#115);
#114 = CARTESIAN_POINT('',(9.,-27.05,-5.25));
#115 = VECTOR('',#116,1.);
#116 = DIRECTION('',(0.,0.,1.));
#117 = PLANE('',#118);
#118 = AXIS2_PLACEMENT_3D('',#119,#120,#121);
#119 = CARTESIAN_POINT('',(-9.,-27.05,-5.25));
#120 = DIRECTION('',(0.,1.,0.));
#121 = DIRECTION('',(0.,0.,1.));
#122 = ADVANCED_FACE('',(#123,#141),#175,.T.);
#123 = FACE_BOUND('',#124,.T.);
#124 = EDGE_LOOP('',(#125,#126,#127,#135));
#125 = ORIENTED_EDGE('',*,*,#81,.F.);
#126 = ORIENTED_EDGE('',*,*,#104,.T.);
#127 = ORIENTED_EDGE('',*,*,#128,.T.);
#128 = EDGE_CURVE('',#105,#129,#131,.T.);
#129 = VERTEX_POINT('',#130);
#130 = CARTESIAN_POINT('',(9.,27.05,5.25));
#131 = LINE('',#132,#133);
#132 = CARTESIAN_POINT('',(9.,-27.05,5.25));
#133 = VECTOR('',#134,1.);
#134 = DIRECTION('',(0.,1.,0.));
#135 = ORIENTED_EDGE('',*,*,#136,.F.);
#136 = EDGE_CURVE('',#74,#129,#137,.T.);
#137 = LINE('',#138,#139);
#138 = CARTESIAN_POINT('',(-9.,27.05,5.25));
#139 = VECTOR('',#140,1.);
#140 = DIRECTION('',(1.,0.,0.));
#141 = FACE_BOUND('',#142,.T.);
#142 = EDGE_LOOP('',(#143,#153,#161,#169));
#143 = ORIENTED_EDGE('',*,*,#144,.T.);
#144 = EDGE_CURVE('',#145,#147,#149,.T.);
#145 = VERTEX_POINT('',#146);
#146 = CARTESIAN_POINT('',(7.5,-25.55,5.25));
#147 = VERTEX_POINT('',#148);
#148 = CARTESIAN_POINT('',(-7.5,-25.55,5.25));
#149 = LINE('',#150,#151);
#150 = CARTESIAN_POINT('',(-8.25,-25.55,5.25));
#151 = VECTOR('',#152,1.);
#152 = DIRECTION('',(-1.,0.,0.));
#153 = ORIENTED_EDGE('',*,*,#154,.T.);
#154 = EDGE_CURVE('',#147,#155,#157,.T.);
#155 = VERTEX_POINT('',#156);
#156 = CARTESIAN_POINT('',(-7.5,25.55,5.25));
#157 = LINE('',#158,#159);
#158 = CARTESIAN_POINT('',(-7.5,-26.3,5.25));
#159 = VECTOR('',#160,1.);
#160 = DIRECTION('',(0.,1.,0.));
#161 = ORIENTED_EDGE('',*,*,#162,.F.);
#162 = EDGE_CURVE('',#163,#155,#165,.T.);
#163 = VERTEX_POINT('',#164);
#164 = CARTESIAN_POINT('',(7.5,25.55,5.25));
#165 = LINE('',#166,#167);
#166 = CARTESIAN_POINT('',(-8.25,25.55,5.25));
#167 = VECTOR('',#168,1.);
#168 = DIRECTION('',(-1.,0.,0.));
#169 = ORIENTED_EDGE('',*,*,#170,.F.);
#170 = EDGE_CURVE('',#145,#163,#171,.T.);
#171 = LINE('',#172,#173);
#172 = CARTESIAN_POINT('',(7.5,-26.3,5.25));
#173 = VECTOR('',#174,1.);
#174 = DIRECTION('',(0.,1.,0.));
#175 = PLANE('',#176);
#176 = AXIS2_PLACEMENT_3D('',#177,#178,#179);
#177 = CARTESIAN_POINT('',(-9.,-27.05,5.25));
#178 = DIRECTION('',(0.,0.,1.));
#179 = DIRECTION('',(1.,0.,0.));
#180 = ADVANCED_FACE('',(#181),#199,.T.);
#181 = FACE_BOUND('',#182,.T.);
#182 = EDGE_LOOP('',(#183,#191,#192,#193));
#183 = ORIENTED_EDGE('',*,*,#184,.F.);
#184 = EDGE_CURVE('',#66,#185,#187,.T.);
#185 = VERTEX_POINT('',#186);
#186 = CARTESIAN_POINT('',(9.,27.05,-5.25));
#187 = LINE('',#188,#189);
#188 = CARTESIAN_POINT('',(-9.,27.05,-5.25));
#189 = VECTOR('',#190,1.);
#190 = DIRECTION('',(1.,0.,0.));
#191 = ORIENTED_EDGE('',*,*,#73,.T.);
#192 = ORIENTED_EDGE('',*,*,#136,.T.);
#193 = ORIENTED_EDGE('',*,*,#194,.F.);
#194 = EDGE_CURVE('',#185,#129,#195,.T.);
#195 = LINE('',#196,#197);
#196 = CARTESIAN_POINT('',(9.,27.05,-5.25));
#197 = VECTOR('',#198,1.);
#198 = DIRECTION('',(0.,0.,1.));
#199 = PLANE('',#200);
#200 = AXIS2_PLACEMENT_3D('',#201,#202,#203);
#201 = CARTESIAN_POINT('',(-9.,27.05,-5.25));
#202 = DIRECTION('',(0.,1.,0.));
#203 = DIRECTION('',(0.,0.,1.));
#204 = ADVANCED_FACE('',(#205,#216),#250,.F.);
#205 = FACE_BOUND('',#206,.F.);
#206 = EDGE_LOOP('',(#207,#208,#209,#215));
#207 = ORIENTED_EDGE('',*,*,#65,.F.);
#208 = ORIENTED_EDGE('',*,*,#95,.T.);
#209 = ORIENTED_EDGE('',*,*,#210,.T.);
#210 = EDGE_CURVE('',#96,#185,#211,.T.);
#211 = LINE('',#212,#213);
#212 = CARTESIAN_POINT('',(9.,-27.05,-5.25));
#213 = VECTOR('',#214,1.);
#214 = DIRECTION('',(0.,1.,0.));
#215 = ORIENTED_EDGE('',*,*,#184,.F.);
#216 = FACE_BOUND('',#217,.F.);
#217 = EDGE_LOOP('',(#218,#228,#236,#244));
#218 = ORIENTED_EDGE('',*,*,#219,.T.);
#219 = EDGE_CURVE('',#220,#222,#224,.T.);
#220 = VERTEX_POINT('',#221);
#221 = CARTESIAN_POINT('',(7.5,-25.55,-5.25));
#222 = VERTEX_POINT('',#223);
#223 = CARTESIAN_POINT('',(-7.5,-25.55,-5.25));
#224 = LINE('',#225,#226);
#225 = CARTESIAN_POINT('',(-8.25,-25.55,-5.25));
#226 = VECTOR('',#227,1.);
#227 = DIRECTION('',(-1.,0.,0.));
#228 = ORIENTED_EDGE('',*,*,#229,.T.);
#229 = EDGE_CURVE('',#222,#230,#232,.T.);
#230 = VERTEX_POINT('',#231);
#231 = CARTESIAN_POINT('',(-7.5,25.55,-5.25));
#232 = LINE('',#233,#234);
#233 = CARTESIAN_POINT('',(-7.5,-26.3,-5.25));
#234 = VECTOR('',#235,1.);
#235 = DIRECTION('',(0.,1.,0.));
#236 = ORIENTED_EDGE('',*,*,#237,.F.);
#237 = EDGE_CURVE('',#238,#230,#240,.T.);
#238 = VERTEX_POINT('',#239);
#239 = CARTESIAN_POINT('',(7.5,25.55,-5.25));
#240 = LINE('',#241,#242);
#241 = CARTESIAN_POINT('',(-8.25,25.55,-5.25));
#242 = VECTOR('',#243,1.);
#243 = DIRECTION('',(-1.,0.,0.));
#244 = ORIENTED_EDGE('',*,*,#245,.F.);
#245 = EDGE_CURVE('',#220,#238,#246,.T.);
#246 = LINE('',#247,#248);
#247 = CARTESIAN_POINT('',(7.5,-26.3,-5.25));
#248 = VECTOR('',#249,1.);
#249 = DIRECTION('',(0.,1.,0.));
#250 = PLANE('',#251);
#251 = AXIS2_PLACEMENT_3D('',#252,#253,#254);
#252 = CARTESIAN_POINT('',(-9.,-27.05,-5.25));
#253 = DIRECTION('',(0.,0.,1.));
#254 = DIRECTION('',(1.,0.,0.));
#255 = ADVANCED_FACE('',(#256),#262,.T.);
#256 = FACE_BOUND('',#257,.T.);
#257 = EDGE_LOOP('',(#258,#259,#260,#261));
#258 = ORIENTED_EDGE('',*,*,#112,.F.);
#259 = ORIENTED_EDGE('',*,*,#210,.T.);
#260 = ORIENTED_EDGE('',*,*,#194,.T.);
#261 = ORIENTED_EDGE('',*,*,#128,.F.);
#262 = PLANE('',#263);
#263 = AXIS2_PLACEMENT_3D('',#264,#265,#266);
#264 = CARTESIAN_POINT('',(9.,-27.05,-5.25));
#265 = DIRECTION('',(1.,0.,0.));
#266 = DIRECTION('',(0.,0.,1.));
#267 = ADVANCED_FACE('',(#268),#284,.T.);
#268 = FACE_BOUND('',#269,.T.);
#269 = EDGE_LOOP('',(#270,#276,#277,#283));
#270 = ORIENTED_EDGE('',*,*,#271,.F.);
#271 = EDGE_CURVE('',#220,#145,#272,.T.);
#272 = LINE('',#273,#274);
#273 = CARTESIAN_POINT('',(7.5,-25.55,-6.25));
#274 = VECTOR('',#275,1.);
#275 = DIRECTION('',(0.,0.,1.));
#276 = ORIENTED_EDGE('',*,*,#219,.T.);
#277 = ORIENTED_EDGE('',*,*,#278,.T.);
#278 = EDGE_CURVE('',#222,#147,#279,.T.);
#279 = LINE('',#280,#281);
#280 = CARTESIAN_POINT('',(-7.5,-25.55,-6.25));
#281 = VECTOR('',#282,1.);
#282 = DIRECTION('',(0.,0.,1.));
#283 = ORIENTED_EDGE('',*,*,#144,.F.);
#284 = PLANE('',#285);
#285 = AXIS2_PLACEMENT_3D('',#286,#287,#288);
#286 = CARTESIAN_POINT('',(-7.5,-25.55,-6.25));
#287 = DIRECTION('',(0.,1.,0.));
#288 = DIRECTION('',(0.,0.,1.));
#289 = ADVANCED_FACE('',(#290),#301,.F.);
#290 = FACE_BOUND('',#291,.F.);
#291 = EDGE_LOOP('',(#292,#293,#294,#300));
#292 = ORIENTED_EDGE('',*,*,#271,.F.);
#293 = ORIENTED_EDGE('',*,*,#245,.T.);
#294 = ORIENTED_EDGE('',*,*,#295,.T.);
#295 = EDGE_CURVE('',#238,#163,#296,.T.);
#296 = LINE('',#297,#298);
#297 = CARTESIAN_POINT('',(7.5,25.55,-6.25));
#298 = VECTOR('',#299,1.);
#299 = DIRECTION('',(0.,0.,1.));
#300 = ORIENTED_EDGE('',*,*,#170,.F.);
#301 = PLANE('',#302);
#302 = AXIS2_PLACEMENT_3D('',#303,#304,#305);
#303 = CARTESIAN_POINT('',(7.5,-25.55,-6.25));
#304 = DIRECTION('',(1.,0.,0.));
#305 = DIRECTION('',(0.,0.,1.));
#306 = ADVANCED_FACE('',(#307),#318,.F.);
#307 = FACE_BOUND('',#308,.F.);
#308 = EDGE_LOOP('',(#309,#310,#311,#317));
#309 = ORIENTED_EDGE('',*,*,#295,.F.);
#310 = ORIENTED_EDGE('',*,*,#237,.T.);
#311 = ORIENTED_EDGE('',*,*,#312,.T.);
#312 = EDGE_CURVE('',#230,#155,#313,.T.);
#313 = LINE('',#314,#315);
#314 = CARTESIAN_POINT('',(-7.5,25.55,-6.25));
#315 = VECTOR('',#316,1.);
#316 = DIRECTION('',(0.,0.,1.));
#317 = ORIENTED_EDGE('',*,*,#162,.F.);
#318 = PLANE('',#319);
#319 = AXIS2_PLACEMENT_3D('',#320,#321,#322);
#320 = CARTESIAN_POINT('',(-7.5,25.55,-6.25));
#321 = DIRECTION('',(0.,1.,0.));
#322 = DIRECTION('',(0.,0.,1.));
#323 = ADVANCED_FACE('',(#324),#330,.T.);
#324 = FACE_BOUND('',#325,.T.);
#325 = EDGE_LOOP('',(#326,#327,#328,#329));
#326 = ORIENTED_EDGE('',*,*,#278,.F.);
#327 = ORIENTED_EDGE('',*,*,#229,.T.);
#328 = ORIENTED_EDGE('',*,*,#312,.T.);
#329 = ORIENTED_EDGE('',*,*,#154,.F.);
#330 = PLANE('',#331);
#331 = AXIS2_PLACEMENT_3D('',#332,#333,#334);
#332 = CARTESIAN_POINT('',(-7.5,-25.55,-6.25));
#333 = DIRECTION('',(1.,0.,0.));
#334 = DIRECTION('',(0.,0.,1.));
#335 = ( GEOMETRIC_REPRESENTATION_CONTEXT(3) 
GLOBAL_UNCERTAINTY_ASSIGNED_CONTEXT((#339)) GLOBAL_UNIT_ASSIGNED_CONTEXT
((#336,#337,#338)) REPRESENTATION_CONTEXT('Context #1',
  '3D Context with UNIT and UNCERTAINTY') );
#336 = ( LENGTH_UNIT() NAMED_UNIT(*) SI_UNIT(.MILLI.,.METRE.) );
#337 = ( NAMED_UNIT(*) PLANE_ANGLE_UNIT() SI_UNIT($,.RADIAN.) );
#338 = ( NAMED_UNIT(*) SI_UNIT($,.STERADIAN.) SOLID_ANGLE_UNIT() );
#339 = UNCERTAINTY_MEASURE_WITH_UNIT(LENGTH_MEASURE(1.E-05),#336,
  'distance_accuracy_value','confusion accuracy');
#340 = CONTEXT_DEPENDENT_SHAPE_REPRESENTATION(#341,#343);
#341 = ( REPRESENTATION_RELATIONSHIP('','',#48,#10) 
REPRESENTATION_RELATIONSHIP_WITH_TRANSFORMATION(#342) 
SHAPE_REPRESENTATION_RELATIONSHIP() );
#342 = ITEM_DEFINED_TRANSFORMATION('','',#11,#15);
#343 = PRODUCT_DEFINITION_SHAPE('Placement','Placement of an item',#344
  );
#344 = NEXT_ASSEMBLY_USAGE_OCCURRENCE('18','difference','',#5,#43,$);
#345 = PRODUCT_RELATED_PRODUCT_CATEGORY('part',$,(#45));
#346 = SHAPE_DEFINITION_REPRESENTATION(#347,#353);
#347 = PRODUCT_DEFINITION_SHAPE('','',#348);
#348 = PRODUCT_DEFINITION('design','',#349,#352);
#349 = PRODUCT_DEFINITION_FORMATION('','',#350);
#350 = PRODUCT('difference001','difference001','',(#351));
#351 = PRODUCT_CONTEXT('',#2,'mechanical');
#352 = PRODUCT_DEFINITION_CONTEXT('part definition',#2,'design');
#353 = ADVANCED_BREP_SHAPE_REPRESENTATION('',(#11,#354),#640);
#354 = MANIFOLD_SOLID_BREP('',#355);
#355 = CLOSED_SHELL('',(#356,#396,#427,#485,#509,#560,#572,#594,#611,
    #628));
#356 = ADVANCED_FACE('',(#357),#391,.F.);
#357 = FACE_BOUND('',#358,.F.);
#358 = EDGE_LOOP('',(#359,#369,#377,#385));
#359 = ORIENTED_EDGE('',*,*,#360,.F.);
#360 = EDGE_CURVE('',#361,#363,#365,.T.);
#361 = VERTEX_POINT('',#362);
#362 = CARTESIAN_POINT('',(-9.,-27.05,-50.));
#363 = VERTEX_POINT('',#364);
#364 = CARTESIAN_POINT('',(-9.,-27.05,50.));
#365 = LINE('',#366,#367);
#366 = CARTESIAN_POINT('',(-9.,-27.05,-50.));
#367 = VECTOR('',#368,1.);
#368 = DIRECTION('',(0.,0.,1.));
#369 = ORIENTED_EDGE('',*,*,#370,.T.);
#370 = EDGE_CURVE('',#361,#371,#373,.T.);
#371 = VERTEX_POINT('',#372);
#372 = CARTESIAN_POINT('',(-9.,27.05,-50.));
#373 = LINE('',#374,#375);
#374 = CARTESIAN_POINT('',(-9.,-27.05,-50.));
#375 = VECTOR('',#376,1.);
#376 = DIRECTION('',(0.,1.,0.));
#377 = ORIENTED_EDGE('',*,*,#378,.T.);
#378 = EDGE_CURVE('',#371,#379,#381,.T.);
#379 = VERTEX_POINT('',#380);
#380 = CARTESIAN_POINT('',(-9.,27.05,50.));
#381 = LINE('',#382,#383);
#382 = CARTESIAN_POINT('',(-9.,27.05,-50.));
#383 = VECTOR('',#384,1.);
#384 = DIRECTION('',(0.,0.,1.));
#385 = ORIENTED_EDGE('',*,*,#386,.F.);
#386 = EDGE_CURVE('',#363,#379,#387,.T.);
#387 = LINE('',#388,#389);
#388 = CARTESIAN_POINT('',(-9.,-27.05,50.));
#389 = VECTOR('',#390,1.);
#390 = DIRECTION('',(0.,1.,0.));
#391 = PLANE('',#392);
#392 = AXIS2_PLACEMENT_3D('',#393,#394,#395);
#393 = CARTESIAN_POINT('',(-9.,-27.05,-50.));
#394 = DIRECTION('',(1.,0.,0.));
#395 = DIRECTION('',(0.,0.,1.));
#396 = ADVANCED_FACE('',(#397),#422,.F.);
#397 = FACE_BOUND('',#398,.F.);
#398 = EDGE_LOOP('',(#399,#407,#408,#416));
#399 = ORIENTED_EDGE('',*,*,#400,.F.);
#400 = EDGE_CURVE('',#361,#401,#403,.T.);
#401 = VERTEX_POINT('',#402);
#402 = CARTESIAN_POINT('',(9.,-27.05,-50.));
#403 = LINE('',#404,#405);
#404 = CARTESIAN_POINT('',(-9.,-27.05,-50.));
#405 = VECTOR('',#406,1.);
#406 = DIRECTION('',(1.,0.,0.));
#407 = ORIENTED_EDGE('',*,*,#360,.T.);
#408 = ORIENTED_EDGE('',*,*,#409,.T.);
#409 = EDGE_CURVE('',#363,#410,#412,.T.);
#410 = VERTEX_POINT('',#411);
#411 = CARTESIAN_POINT('',(9.,-27.05,50.));
#412 = LINE('',#413,#414);
#413 = CARTESIAN_POINT('',(-9.,-27.05,50.));
#414 = VECTOR('',#415,1.);
#415 = DIRECTION('',(1.,0.,0.));
#416 = ORIENTED_EDGE('',*,*,#417,.F.);
#417 = EDGE_CURVE('',#401,#410,#418,.T.);
#418 = LINE('',#419,#420);
#419 = CARTESIAN_POINT('',(9.,-27.05,-50.));
#420 = VECTOR('',#421,1.);
#421 = DIRECTION('',(0.,0.,1.));
#422 = PLANE('',#423);
#423 = AXIS2_PLACEMENT_3D('',#424,#425,#426);
#424 = CARTESIAN_POINT('',(-9.,-27.05,-50.));
#425 = DIRECTION('',(0.,1.,0.));
#426 = DIRECTION('',(0.,0.,1.));
#427 = ADVANCED_FACE('',(#428,#446),#480,.T.);
#428 = FACE_BOUND('',#429,.T.);
#429 = EDGE_LOOP('',(#430,#431,#432,#440));
#430 = ORIENTED_EDGE('',*,*,#386,.F.);
#431 = ORIENTED_EDGE('',*,*,#409,.T.);
#432 = ORIENTED_EDGE('',*,*,#433,.T.);
#433 = EDGE_CURVE('',#410,#434,#436,.T.);
#434 = VERTEX_POINT('',#435);
#435 = CARTESIAN_POINT('',(9.,27.05,50.));
#436 = LINE('',#437,#438);
#437 = CARTESIAN_POINT('',(9.,-27.05,50.));
#438 = VECTOR('',#439,1.);
#439 = DIRECTION('',(0.,1.,0.));
#440 = ORIENTED_EDGE('',*,*,#441,.F.);
#441 = EDGE_CURVE('',#379,#434,#442,.T.);
#442 = LINE('',#443,#444);
#443 = CARTESIAN_POINT('',(-9.,27.05,50.));
#444 = VECTOR('',#445,1.);
#445 = DIRECTION('',(1.,0.,0.));
#446 = FACE_BOUND('',#447,.T.);
#447 = EDGE_LOOP('',(#448,#458,#466,#474));
#448 = ORIENTED_EDGE('',*,*,#449,.T.);
#449 = EDGE_CURVE('',#450,#452,#454,.T.);
#450 = VERTEX_POINT('',#451);
#451 = CARTESIAN_POINT('',(7.5,-25.55,50.));
#452 = VERTEX_POINT('',#453);
#453 = CARTESIAN_POINT('',(-7.5,-25.55,50.));
#454 = LINE('',#455,#456);
#455 = CARTESIAN_POINT('',(-8.25,-25.55,50.));
#456 = VECTOR('',#457,1.);
#457 = DIRECTION('',(-1.,0.,0.));
#458 = ORIENTED_EDGE('',*,*,#459,.T.);
#459 = EDGE_CURVE('',#452,#460,#462,.T.);
#460 = VERTEX_POINT('',#461);
#461 = CARTESIAN_POINT('',(-7.5,25.55,50.));
#462 = LINE('',#463,#464);
#463 = CARTESIAN_POINT('',(-7.5,-26.3,50.));
#464 = VECTOR('',#465,1.);
#465 = DIRECTION('',(0.,1.,0.));
#466 = ORIENTED_EDGE('',*,*,#467,.F.);
#467 = EDGE_CURVE('',#468,#460,#470,.T.);
#468 = VERTEX_POINT('',#469);
#469 = CARTESIAN_POINT('',(7.5,25.55,50.));
#470 = LINE('',#471,#472);
#471 = CARTESIAN_POINT('',(-8.25,25.55,50.));
#472 = VECTOR('',#473,1.);
#473 = DIRECTION('',(-1.,0.,0.));
#474 = ORIENTED_EDGE('',*,*,#475,.F.);
#475 = EDGE_CURVE('',#450,#468,#476,.T.);
#476 = LINE('',#477,#478);
#477 = CARTESIAN_POINT('',(7.5,-26.3,50.));
#478 = VECTOR('',#479,1.);
#479 = DIRECTION('',(0.,1.,0.));
#480 = PLANE('',#481);
#481 = AXIS2_PLACEMENT_3D('',#482,#483,#484);
#482 = CARTESIAN_POINT('',(-9.,-27.05,50.));
#483 = DIRECTION('',(0.,0.,1.));
#484 = DIRECTION('',(1.,0.,0.));
#485 = ADVANCED_FACE('',(#486),#504,.T.);
#486 = FACE_BOUND('',#487,.T.);
#487 = EDGE_LOOP('',(#488,#496,#497,#498));
#488 = ORIENTED_EDGE('',*,*,#489,.F.);
#489 = EDGE_CURVE('',#371,#490,#492,.T.);
#490 = VERTEX_POINT('',#491);
#491 = CARTESIAN_POINT('',(9.,27.05,-50.));
#492 = LINE('',#493,#494);
#493 = CARTESIAN_POINT('',(-9.,27.05,-50.));
#494 = VECTOR('',#495,1.);
#495 = DIRECTION('',(1.,0.,0.));
#496 = ORIENTED_EDGE('',*,*,#378,.T.);
#497 = ORIENTED_EDGE('',*,*,#441,.T.);
#498 = ORIENTED_EDGE('',*,*,#499,.F.);
#499 = EDGE_CURVE('',#490,#434,#500,.T.);
#500 = LINE('',#501,#502);
#501 = CARTESIAN_POINT('',(9.,27.05,-50.));
#502 = VECTOR('',#503,1.);
#503 = DIRECTION('',(0.,0.,1.));
#504 = PLANE('',#505);
#505 = AXIS2_PLACEMENT_3D('',#506,#507,#508);
#506 = CARTESIAN_POINT('',(-9.,27.05,-50.));
#507 = DIRECTION('',(0.,1.,0.));
#508 = DIRECTION('',(0.,0.,1.));
#509 = ADVANCED_FACE('',(#510,#521),#555,.F.);
#510 = FACE_BOUND('',#511,.F.);
#511 = EDGE_LOOP('',(#512,#513,#514,#520));
#512 = ORIENTED_EDGE('',*,*,#370,.F.);
#513 = ORIENTED_EDGE('',*,*,#400,.T.);
#514 = ORIENTED_EDGE('',*,*,#515,.T.);
#515 = EDGE_CURVE('',#401,#490,#516,.T.);
#516 = LINE('',#517,#518);
#517 = CARTESIAN_POINT('',(9.,-27.05,-50.));
#518 = VECTOR('',#519,1.);
#519 = DIRECTION('',(0.,1.,0.));
#520 = ORIENTED_EDGE('',*,*,#489,.F.);
#521 = FACE_BOUND('',#522,.F.);
#522 = EDGE_LOOP('',(#523,#533,#541,#549));
#523 = ORIENTED_EDGE('',*,*,#524,.T.);
#524 = EDGE_CURVE('',#525,#527,#529,.T.);
#525 = VERTEX_POINT('',#526);
#526 = CARTESIAN_POINT('',(7.5,-25.55,-50.));
#527 = VERTEX_POINT('',#528);
#528 = CARTESIAN_POINT('',(-7.5,-25.55,-50.));
#529 = LINE('',#530,#531);
#530 = CARTESIAN_POINT('',(-8.25,-25.55,-50.));
#531 = VECTOR('',#532,1.);
#532 = DIRECTION('',(-1.,0.,0.));
#533 = ORIENTED_EDGE('',*,*,#534,.T.);
#534 = EDGE_CURVE('',#527,#535,#537,.T.);
#535 = VERTEX_POINT('',#536);
#536 = CARTESIAN_POINT('',(-7.5,25.55,-50.));
#537 = LINE('',#538,#539);
#538 = CARTESIAN_POINT('',(-7.5,-26.3,-50.));
#539 = VECTOR('',#540,1.);
#540 = DIRECTION('',(0.,1.,0.));
#541 = ORIENTED_EDGE('',*,*,#542,.F.);
#542 = EDGE_CURVE('',#543,#535,#545,.T.);
#543 = VERTEX_POINT('',#544);
#544 = CARTESIAN_POINT('',(7.5,25.55,-50.));
#545 = LINE('',#546,#547);
#546 = CARTESIAN_POINT('',(-8.25,25.55,-50.));
#547 = VECTOR('',#548,1.);
#548 = DIRECTION('',(-1.,0.,0.));
#549 = ORIENTED_EDGE('',*,*,#550,.F.);
#550 = EDGE_CURVE('',#525,#543,#551,.T.);
#551 = LINE('',#552,#553);
#552 = CARTESIAN_POINT('',(7.5,-26.3,-50.));
#553 = VECTOR('',#554,1.);
#554 = DIRECTION('',(0.,1.,0.));
#555 = PLANE('',#556);
#556 = AXIS2_PLACEMENT_3D('',#557,#558,#559);
#557 = CARTESIAN_POINT('',(-9.,-27.05,-50.));
#558 = DIRECTION('',(0.,0.,1.));
#559 = DIRECTION('',(1.,0.,0.));
#560 = ADVANCED_FACE('',(#561),#567,.T.);
#561 = FACE_BOUND('',#562,.T.);
#562 = EDGE_LOOP('',(#563,#564,#565,#566));
#563 = ORIENTED_EDGE('',*,*,#417,.F.);
#564 = ORIENTED_EDGE('',*,*,#515,.T.);
#565 = ORIENTED_EDGE('',*,*,#499,.T.);
#566 = ORIENTED_EDGE('',*,*,#433,.F.);
#567 = PLANE('',#568);
#568 = AXIS2_PLACEMENT_3D('',#569,#570,#571);
#569 = CARTESIAN_POINT('',(9.,-27.05,-50.));
#570 = DIRECTION('',(1.,0.,0.));
#571 = DIRECTION('',(0.,0.,1.));
#572 = ADVANCED_FACE('',(#573),#589,.T.);
#573 = FACE_BOUND('',#574,.T.);
#574 = EDGE_LOOP('',(#575,#581,#582,#588));
#575 = ORIENTED_EDGE('',*,*,#576,.F.);
#576 = EDGE_CURVE('',#525,#450,#577,.T.);
#577 = LINE('',#578,#579);
#578 = CARTESIAN_POINT('',(7.5,-25.55,-51.));
#579 = VECTOR('',#580,1.);
#580 = DIRECTION('',(0.,0.,1.));
#581 = ORIENTED_EDGE('',*,*,#524,.T.);
#582 = ORIENTED_EDGE('',*,*,#583,.T.);
#583 = EDGE_CURVE('',#527,#452,#584,.T.);
#584 = LINE('',#585,#586);
#585 = CARTESIAN_POINT('',(-7.5,-25.55,-51.));
#586 = VECTOR('',#587,1.);
#587 = DIRECTION('',(0.,0.,1.));
#588 = ORIENTED_EDGE('',*,*,#449,.F.);
#589 = PLANE('',#590);
#590 = AXIS2_PLACEMENT_3D('',#591,#592,#593);
#591 = CARTESIAN_POINT('',(-7.5,-25.55,-51.));
#592 = DIRECTION('',(0.,1.,0.));
#593 = DIRECTION('',(0.,0.,1.));
#594 = ADVANCED_FACE('',(#595),#606,.F.);
#595 = FACE_BOUND('',#596,.F.);
#596 = EDGE_LOOP('',(#597,#598,#599,#605));
#597 = ORIENTED_EDGE('',*,*,#576,.F.);
#598 = ORIENTED_EDGE('',*,*,#550,.T.);
#599 = ORIENTED_EDGE('',*,*,#600,.T.);
#600 = EDGE_CURVE('',#543,#468,#601,.T.);
#601 = LINE('',#602,#603);
#602 = CARTESIAN_POINT('',(7.5,25.55,-51.));
#603 = VECTOR('',#604,1.);
#604 = DIRECTION('',(0.,0.,1.));
#605 = ORIENTED_EDGE('',*,*,#475,.F.);
#606 = PLANE('',#607);
#607 = AXIS2_PLACEMENT_3D('',#608,#609,#610);
#608 = CARTESIAN_POINT('',(7.5,-25.55,-51.));
#609 = DIRECTION('',(1.,0.,0.));
#610 = DIRECTION('',(0.,0.,1.));
#611 = ADVANCED_FACE('',(#612),#623,.F.);
#612 = FACE_BOUND('',#613,.F.);
#613 = EDGE_LOOP('',(#614,#615,#616,#622));
#614 = ORIENTED_EDGE('',*,*,#600,.F.);
#615 = ORIENTED_EDGE('',*,*,#542,.T.);
#616 = ORIENTED_EDGE('',*,*,#617,.T.);
#617 = EDGE_CURVE('',#535,#460,#618,.T.);
#618 = LINE('',#619,#620);
#619 = CARTESIAN_POINT('',(-7.5,25.55,-51.));
#620 = VECTOR('',#621,1.);
#621 = DIRECTION('',(0.,0.,1.));
#622 = ORIENTED_EDGE('',*,*,#467,.F.);
#623 = PLANE('',#624);
#624 = AXIS2_PLACEMENT_3D('',#625,#626,#627);
#625 = CARTESIAN_POINT('',(-7.5,25.55,-51.));
#626 = DIRECTION('',(0.,1.,0.));
#627 = DIRECTION('',(0.,0.,1.));
#628 = ADVANCED_FACE('',(#629),#635,.T.);
#629 = FACE_BOUND('',#630,.T.);
#630 = EDGE_LOOP('',(#631,#632,#633,#634));
#631 = ORIENTED_EDGE('',*,*,#583,.F.);
#632 = ORIENTED_EDGE('',*,*,#534,.T.);
#633 = ORIENTED_EDGE('',*,*,#617,.T.);
#634 = ORIENTED_EDGE('',*,*,#459,.F.);
#635 = PLANE('',#636);
#636 = AXIS2_PLACEMENT_3D('',#637,#638,#639);
#637 = CARTESIAN_POINT('',(-7.5,-25.55,-51.));
#638 = DIRECTION('',(1.,0.,0.));
#639 = DIRECTION('',(0.,0.,1.));
#640 = ( GEOMETRIC_REPRESENTATION_CONTEXT(3) 
GLOBAL_UNCERTAINTY_ASSIGNED_CONTEXT((#644)) GLOBAL_UNIT_ASSIGNED_CONTEXT
((#641,#642,#643)) REPRESENTATION_CONTEXT('Context #1',
  '3D Context with UNIT and UNCERTAINTY') );
#641 = ( LENGTH_UNIT() NAMED_UNIT(*) SI_UNIT(.MILLI.,.METRE.) );
#642 = ( NAMED_UNIT(*) PLANE_ANGLE_UNIT() SI_UNIT($,.RADIAN.) );
#643 = ( NAMED_UNIT(*) SI_UNIT($,.STERADIAN.) SOLID_ANGLE_UNIT() );
#644 = UNCERTAINTY_MEASURE_WITH_UNIT(LENGTH_MEASURE(2.E-05),#641,
  'distance_accuracy_value','confusion accuracy');
#645 = CONTEXT_DEPENDENT_SHAPE_REPRESENTATION(#646,#648);
#646 = ( REPRESENTATION_RELATIONSHIP('','',#353,#10) 
REPRESENTATION_RELATIONSHIP_WITH_TRANSFORMATION(#647) 
SHAPE_REPRESENTATION_RELATIONSHIP() );
#647 = ITEM_DEFINED_TRANSFORMATION('','',#11,#19);
#648 = PRODUCT_DEFINITION_SHAPE('Placement','Placement of an item',#649
  );
#649 = NEXT_ASSEMBLY_USAGE_OCCURRENCE('19','difference001','',#5,#348,$
  );
#650 = PRODUCT_RELATED_PRODUCT_CATEGORY('part',$,(#350));
#651 = SHAPE_DEFINITION_REPRESENTATION(#652,#658);
#652 = PRODUCT_DEFINITION_SHAPE('','',#653);
#653 = PRODUCT_DEFINITION('design','',#654,#657);
#654 = PRODUCT_DEFINITION_FORMATION('','',#655);
#655 = PRODUCT('Group','Group','',(#656));
#656 = PRODUCT_CONTEXT('',#2,'mechanical');
#657 = PRODUCT_DEFINITION_CONTEXT('part definition',#2,'design');
#658 = ADVANCED_BREP_SHAPE_REPRESENTATION('',(#11,#659),#1017);
#659 = MANIFOLD_SOLID_BREP('',#660);
#660 = CLOSED_SHELL('',(#661,#701,#766,#797,#828,#859,#890,#912,#937,
    #961,#978,#991,#1004));
#661 = ADVANCED_FACE('',(#662),#696,.F.);
#662 = FACE_BOUND('',#663,.F.);
#663 = EDGE_LOOP('',(#664,#674,#682,#690));
#664 = ORIENTED_EDGE('',*,*,#665,.F.);
#665 = EDGE_CURVE('',#666,#668,#670,.T.);
#666 = VERTEX_POINT('',#667);
#667 = CARTESIAN_POINT('',(-9.,0.,0.));
#668 = VERTEX_POINT('',#669);
#669 = CARTESIAN_POINT('',(9.,0.,0.));
#670 = LINE('',#671,#672);
#671 = CARTESIAN_POINT('',(-9.,0.,0.));
#672 = VECTOR('',#673,1.);
#673 = DIRECTION('',(1.,0.,0.));
#674 = ORIENTED_EDGE('',*,*,#675,.T.);
#675 = EDGE_CURVE('',#666,#676,#678,.T.);
#676 = VERTEX_POINT('',#677);
#677 = CARTESIAN_POINT('',(-9.,-7.424621202459,7.424621202459));
#678 = LINE('',#679,#680);
#679 = CARTESIAN_POINT('',(-9.,0.,0.));
#680 = VECTOR('',#681,1.);
#681 = DIRECTION('',(0.,-0.707106781187,0.707106781187));
#682 = ORIENTED_EDGE('',*,*,#683,.T.);
#683 = EDGE_CURVE('',#676,#684,#686,.T.);
#684 = VERTEX_POINT('',#685);
#685 = CARTESIAN_POINT('',(9.,-7.424621202459,7.424621202459));
#686 = LINE('',#687,#688);
#687 = CARTESIAN_POINT('',(-9.,-7.424621202459,7.424621202459));
#688 = VECTOR('',#689,1.);
#689 = DIRECTION('',(1.,0.,0.));
#690 = ORIENTED_EDGE('',*,*,#691,.F.);
#691 = EDGE_CURVE('',#668,#684,#692,.T.);
#692 = LINE('',#693,#694);
#693 = CARTESIAN_POINT('',(9.,0.,0.));
#694 = VECTOR('',#695,1.);
#695 = DIRECTION('',(0.,-0.707106781187,0.707106781187));
#696 = PLANE('',#697);
#697 = AXIS2_PLACEMENT_3D('',#698,#699,#700);
#698 = CARTESIAN_POINT('',(-9.,0.,0.));
#699 = DIRECTION('',(0.,0.707106781187,0.707106781187));
#700 = DIRECTION('',(0.,-0.707106781187,0.707106781187));
#701 = ADVANCED_FACE('',(#702,#727),#761,.T.);
#702 = FACE_BOUND('',#703,.T.);
#703 = EDGE_LOOP('',(#704,#712,#713,#721));
#704 = ORIENTED_EDGE('',*,*,#705,.F.);
#705 = EDGE_CURVE('',#676,#706,#708,.T.);
#706 = VERTEX_POINT('',#707);
#707 = CARTESIAN_POINT('',(-9.,30.829855659733,45.679098064651));
#708 = LINE('',#709,#710);
#709 = CARTESIAN_POINT('',(-9.,-7.424621202459,7.424621202459));
#710 = VECTOR('',#711,1.);
#711 = DIRECTION('',(0.,0.707106781187,0.707106781187));
#712 = ORIENTED_EDGE('',*,*,#683,.T.);
#713 = ORIENTED_EDGE('',*,*,#714,.T.);
#714 = EDGE_CURVE('',#684,#715,#717,.T.);
#715 = VERTEX_POINT('',#716);
#716 = CARTESIAN_POINT('',(9.,30.829855659733,45.679098064651));
#717 = LINE('',#718,#719);
#718 = CARTESIAN_POINT('',(9.,-7.424621202459,7.424621202459));
#719 = VECTOR('',#720,1.);
#720 = DIRECTION('',(0.,0.707106781187,0.707106781187));
#721 = ORIENTED_EDGE('',*,*,#722,.F.);
#722 = EDGE_CURVE('',#706,#715,#723,.T.);
#723 = LINE('',#724,#725);
#724 = CARTESIAN_POINT('',(-9.,30.829855659733,45.679098064651));
#725 = VECTOR('',#726,1.);
#726 = DIRECTION('',(1.,0.,0.));
#727 = FACE_BOUND('',#728,.T.);
#728 = EDGE_LOOP('',(#729,#739,#747,#755));
#729 = ORIENTED_EDGE('',*,*,#730,.T.);
#730 = EDGE_CURVE('',#731,#733,#735,.T.);
#731 = VERTEX_POINT('',#732);
#732 = CARTESIAN_POINT('',(7.5,-6.363961030679,8.485281374239));
#733 = VERTEX_POINT('',#734);
#734 = CARTESIAN_POINT('',(-7.5,-6.363961030679,8.485281374239));
#735 = LINE('',#736,#737);
#736 = CARTESIAN_POINT('',(-8.25,-6.363961030679,8.485281374239));
#737 = VECTOR('',#738,1.);
#738 = DIRECTION('',(-1.,0.,0.));
#739 = ORIENTED_EDGE('',*,*,#740,.T.);
#740 = EDGE_CURVE('',#733,#741,#743,.T.);
#741 = VERTEX_POINT('',#742);
#742 = CARTESIAN_POINT('',(-7.5,29.769195487954,44.618437892871));
#743 = LINE('',#744,#745);
#744 = CARTESIAN_POINT('',(-7.5,-6.894291116569,7.954951288349));
#745 = VECTOR('',#746,1.);
#746 = DIRECTION('',(0.,0.707106781187,0.707106781187));
#747 = ORIENTED_EDGE('',*,*,#748,.F.);
#748 = EDGE_CURVE('',#749,#741,#751,.T.);
#749 = VERTEX_POINT('',#750);
#750 = CARTESIAN_POINT('',(7.5,29.769195487954,44.618437892871));
#751 = LINE('',#752,#753);
#752 = CARTESIAN_POINT('',(-8.25,29.769195487954,44.618437892871));
#753 = VECTOR('',#754,1.);
#754 = DIRECTION('',(-1.,0.,0.));
#755 = ORIENTED_EDGE('',*,*,#756,.F.);
#756 = EDGE_CURVE('',#731,#749,#757,.T.);
#757 = LINE('',#758,#759);
#758 = CARTESIAN_POINT('',(7.5,-6.894291116569,7.954951288349));
#759 = VECTOR('',#760,1.);
#760 = DIRECTION('',(0.,0.707106781187,0.707106781187));
#761 = PLANE('',#762);
#762 = AXIS2_PLACEMENT_3D('',#763,#764,#765);
#763 = CARTESIAN_POINT('',(-9.,-7.424621202459,7.424621202459));
#764 = DIRECTION('',(0.,-0.707106781187,0.707106781187));
#765 = DIRECTION('',(1.,0.,0.));
#766 = ADVANCED_FACE('',(#767),#792,.T.);
#767 = FACE_BOUND('',#768,.T.);
#768 = EDGE_LOOP('',(#769,#779,#785,#786));
#769 = ORIENTED_EDGE('',*,*,#770,.F.);
#770 = EDGE_CURVE('',#771,#773,#775,.T.);
#771 = VERTEX_POINT('',#772);
#772 = CARTESIAN_POINT('',(-9.,38.254488431096,38.254488431096));
#773 = VERTEX_POINT('',#774);
#774 = CARTESIAN_POINT('',(9.,38.254488431096,38.254488431096));
#775 = LINE('',#776,#777);
#776 = CARTESIAN_POINT('',(7.5,38.2545,38.2545));
#777 = VECTOR('',#778,1.);
#778 = DIRECTION('',(1.,0.,0.));
#779 = ORIENTED_EDGE('',*,*,#780,.T.);
#780 = EDGE_CURVE('',#771,#706,#781,.T.);
#781 = LINE('',#782,#783);
#782 = CARTESIAN_POINT('',(-9.,38.254476862192,38.254476862192));
#783 = VECTOR('',#784,1.);
#784 = DIRECTION('',(0.,-0.707106781187,0.707106781187));
#785 = ORIENTED_EDGE('',*,*,#722,.T.);
#786 = ORIENTED_EDGE('',*,*,#787,.F.);
#787 = EDGE_CURVE('',#773,#715,#788,.T.);
#788 = LINE('',#789,#790);
#789 = CARTESIAN_POINT('',(9.,38.254476862192,38.254476862192));
#790 = VECTOR('',#791,1.);
#791 = DIRECTION('',(0.,-0.707106781187,0.707106781187));
#792 = PLANE('',#793);
#793 = AXIS2_PLACEMENT_3D('',#794,#795,#796);
#794 = CARTESIAN_POINT('',(-9.,38.254476862192,38.254476862192));
#795 = DIRECTION('',(0.,0.707106781187,0.707106781187));
#796 = DIRECTION('',(0.,-0.707106781187,0.707106781187));
#797 = ADVANCED_FACE('',(#798),#823,.T.);
#798 = FACE_BOUND('',#799,.T.);
#799 = EDGE_LOOP('',(#800,#808,#816,#822));
#800 = ORIENTED_EDGE('',*,*,#801,.F.);
#801 = EDGE_CURVE('',#802,#731,#804,.T.);
#802 = VERTEX_POINT('',#803);
#803 = CARTESIAN_POINT('',(7.5,0.62132034356,1.5));
#804 = LINE('',#805,#806);
#805 = CARTESIAN_POINT('',(7.5,1.767766952966,0.353553390593));
#806 = VECTOR('',#807,1.);
#807 = DIRECTION('',(0.,-0.707106781187,0.707106781187));
#808 = ORIENTED_EDGE('',*,*,#809,.F.);
#809 = EDGE_CURVE('',#810,#802,#812,.T.);
#810 = VERTEX_POINT('',#811);
#811 = CARTESIAN_POINT('',(-7.5,0.62132034356,1.5));
#812 = LINE('',#813,#814);
#813 = CARTESIAN_POINT('',(-8.25,0.62132034356,1.5));
#814 = VECTOR('',#815,1.);
#815 = DIRECTION('',(1.,0.,0.));
#816 = ORIENTED_EDGE('',*,*,#817,.T.);
#817 = EDGE_CURVE('',#810,#733,#818,.T.);
#818 = LINE('',#819,#820);
#819 = CARTESIAN_POINT('',(-7.5,1.767766952966,0.353553390593));
#820 = VECTOR('',#821,1.);
#821 = DIRECTION('',(0.,-0.707106781187,0.707106781187));
#822 = ORIENTED_EDGE('',*,*,#730,.F.);
#823 = PLANE('',#824);
#824 = AXIS2_PLACEMENT_3D('',#825,#826,#827);
#825 = CARTESIAN_POINT('',(-7.5,1.767766952966,0.353553390593));
#826 = DIRECTION('',(0.,0.707106781187,0.707106781187));
#827 = DIRECTION('',(0.,-0.707106781187,0.707106781187));
#828 = ADVANCED_FACE('',(#829),#854,.F.);
#829 = FACE_BOUND('',#830,.F.);
#830 = EDGE_LOOP('',(#831,#839,#847,#853));
#831 = ORIENTED_EDGE('',*,*,#832,.F.);
#832 = EDGE_CURVE('',#833,#749,#835,.T.);
#833 = VERTEX_POINT('',#834);
#834 = CARTESIAN_POINT('',(7.5,36.7545,37.633133380825));
#835 = LINE('',#836,#837);
#836 = CARTESIAN_POINT('',(7.5,37.900923471599,36.486709909226));
#837 = VECTOR('',#838,1.);
#838 = DIRECTION('',(0.,-0.707106781187,0.707106781187));
#839 = ORIENTED_EDGE('',*,*,#840,.T.);
#840 = EDGE_CURVE('',#833,#841,#843,.T.);
#841 = VERTEX_POINT('',#842);
#842 = CARTESIAN_POINT('',(-7.5,36.7545,37.633133380825));
#843 = LINE('',#844,#845);
#844 = CARTESIAN_POINT('',(-8.25,36.7545,37.633133380825));
#845 = VECTOR('',#846,1.);
#846 = DIRECTION('',(-1.,0.,0.));
#847 = ORIENTED_EDGE('',*,*,#848,.T.);
#848 = EDGE_CURVE('',#841,#741,#849,.T.);
#849 = LINE('',#850,#851);
#850 = CARTESIAN_POINT('',(-7.5,37.900923471599,36.486709909226));
#851 = VECTOR('',#852,1.);
#852 = DIRECTION('',(0.,-0.707106781187,0.707106781187));
#853 = ORIENTED_EDGE('',*,*,#748,.F.);
#854 = PLANE('',#855);
#855 = AXIS2_PLACEMENT_3D('',#856,#857,#858);
#856 = CARTESIAN_POINT('',(-7.5,37.900923471599,36.486709909226));
#857 = DIRECTION('',(0.,0.707106781187,0.707106781187));
#858 = DIRECTION('',(0.,-0.707106781187,0.707106781187));
#859 = ADVANCED_FACE('',(#860),#885,.T.);
#860 = FACE_BOUND('',#861,.T.);
#861 = EDGE_LOOP('',(#862,#870,#871,#879));
#862 = ORIENTED_EDGE('',*,*,#863,.T.);
#863 = EDGE_CURVE('',#864,#810,#866,.T.);
#864 = VERTEX_POINT('',#865);
#865 = CARTESIAN_POINT('',(-7.5,36.7545,1.5));
#866 = LINE('',#867,#868);
#867 = CARTESIAN_POINT('',(-7.5,0.,1.5));
#868 = VECTOR('',#869,1.);
#869 = DIRECTION('',(0.,-1.,0.));
#870 = ORIENTED_EDGE('',*,*,#809,.T.);
#871 = ORIENTED_EDGE('',*,*,#872,.F.);
#872 = EDGE_CURVE('',#873,#802,#875,.T.);
#873 = VERTEX_POINT('',#874);
#874 = CARTESIAN_POINT('',(7.5,36.7545,1.5));
#875 = LINE('',#876,#877);
#876 = CARTESIAN_POINT('',(7.5,0.883883476483,1.5));
#877 = VECTOR('',#878,1.);
#878 = DIRECTION('',(0.,-1.,0.));
#879 = ORIENTED_EDGE('',*,*,#880,.T.);
#880 = EDGE_CURVE('',#873,#864,#881,.T.);
#881 = LINE('',#882,#883);
#882 = CARTESIAN_POINT('',(-9.,36.7545,1.5));
#883 = VECTOR('',#884,1.);
#884 = DIRECTION('',(-1.,0.,0.));
#885 = PLANE('',#886);
#886 = AXIS2_PLACEMENT_3D('',#887,#888,#889);
#887 = CARTESIAN_POINT('',(-9.,0.,1.5));
#888 = DIRECTION('',(0.,0.,1.));
#889 = DIRECTION('',(1.,0.,0.));
#890 = ADVANCED_FACE('',(#891),#907,.F.);
#891 = FACE_BOUND('',#892,.F.);
#892 = EDGE_LOOP('',(#893,#894,#900,#901));
#893 = ORIENTED_EDGE('',*,*,#880,.T.);
#894 = ORIENTED_EDGE('',*,*,#895,.T.);
#895 = EDGE_CURVE('',#864,#841,#896,.T.);
#896 = LINE('',#897,#898);
#897 = CARTESIAN_POINT('',(-7.5,36.7545,0.176776695297));
#898 = VECTOR('',#899,1.);
#899 = DIRECTION('',(0.,0.,1.));
#900 = ORIENTED_EDGE('',*,*,#840,.F.);
#901 = ORIENTED_EDGE('',*,*,#902,.F.);
#902 = EDGE_CURVE('',#873,#833,#903,.T.);
#903 = LINE('',#904,#905);
#904 = CARTESIAN_POINT('',(7.5,36.7545,0.));
#905 = VECTOR('',#906,1.);
#906 = DIRECTION('',(0.,0.,1.));
#907 = PLANE('',#908);
#908 = AXIS2_PLACEMENT_3D('',#909,#910,#911);
#909 = CARTESIAN_POINT('',(-9.,36.7545,0.));
#910 = DIRECTION('',(0.,1.,0.));
#911 = DIRECTION('',(0.,0.,1.));
#912 = ADVANCED_FACE('',(#913),#932,.T.);
#913 = FACE_BOUND('',#914,.T.);
#914 = EDGE_LOOP('',(#915,#916,#917,#918,#926));
#915 = ORIENTED_EDGE('',*,*,#675,.T.);
#916 = ORIENTED_EDGE('',*,*,#705,.T.);
#917 = ORIENTED_EDGE('',*,*,#780,.F.);
#918 = ORIENTED_EDGE('',*,*,#919,.F.);
#919 = EDGE_CURVE('',#920,#771,#922,.T.);
#920 = VERTEX_POINT('',#921);
#921 = CARTESIAN_POINT('',(-9.,38.2545,0.));
#922 = LINE('',#923,#924);
#923 = CARTESIAN_POINT('',(-9.,38.2545,0.));
#924 = VECTOR('',#925,1.);
#925 = DIRECTION('',(0.,0.,1.));
#926 = ORIENTED_EDGE('',*,*,#927,.F.);
#927 = EDGE_CURVE('',#666,#920,#928,.T.);
#928 = LINE('',#929,#930);
#929 = CARTESIAN_POINT('',(-9.,0.,0.));
#930 = VECTOR('',#931,1.);
#931 = DIRECTION('',(0.,1.,0.));
#932 = PLANE('',#933);
#933 = AXIS2_PLACEMENT_3D('',#934,#935,#936);
#934 = CARTESIAN_POINT('',(-9.,20.789895269222,17.464593269391));
#935 = DIRECTION('',(-1.,-0.,-0.));
#936 = DIRECTION('',(0.,0.,-1.));
#937 = ADVANCED_FACE('',(#938),#956,.T.);
#938 = FACE_BOUND('',#939,.T.);
#939 = EDGE_LOOP('',(#940,#941,#949,#955));
#940 = ORIENTED_EDGE('',*,*,#927,.T.);
#941 = ORIENTED_EDGE('',*,*,#942,.T.);
#942 = EDGE_CURVE('',#920,#943,#945,.T.);
#943 = VERTEX_POINT('',#944);
#944 = CARTESIAN_POINT('',(9.,38.2545,0.));
#945 = LINE('',#946,#947);
#946 = CARTESIAN_POINT('',(-9.,38.2545,0.));
#947 = VECTOR('',#948,1.);
#948 = DIRECTION('',(1.,0.,0.));
#949 = ORIENTED_EDGE('',*,*,#950,.F.);
#950 = EDGE_CURVE('',#668,#943,#951,.T.);
#951 = LINE('',#952,#953);
#952 = CARTESIAN_POINT('',(9.,0.,0.));
#953 = VECTOR('',#954,1.);
#954 = DIRECTION('',(0.,1.,0.));
#955 = ORIENTED_EDGE('',*,*,#665,.F.);
#956 = PLANE('',#957);
#957 = AXIS2_PLACEMENT_3D('',#958,#959,#960);
#958 = CARTESIAN_POINT('',(0.,19.12725,0.));
#959 = DIRECTION('',(-0.,-0.,-1.));
#960 = DIRECTION('',(-1.,0.,0.));
#961 = ADVANCED_FACE('',(#962),#973,.T.);
#962 = FACE_BOUND('',#963,.T.);
#963 = EDGE_LOOP('',(#964,#965,#966,#967));
#964 = ORIENTED_EDGE('',*,*,#942,.F.);
#965 = ORIENTED_EDGE('',*,*,#919,.T.);
#966 = ORIENTED_EDGE('',*,*,#770,.T.);
#967 = ORIENTED_EDGE('',*,*,#968,.F.);
#968 = EDGE_CURVE('',#943,#773,#969,.T.);
#969 = LINE('',#970,#971);
#970 = CARTESIAN_POINT('',(9.,38.2545,0.));
#971 = VECTOR('',#972,1.);
#972 = DIRECTION('',(0.,0.,1.));
#973 = PLANE('',#974);
#974 = AXIS2_PLACEMENT_3D('',#975,#976,#977);
#975 = CARTESIAN_POINT('',(0.,38.254496915206,19.127246915206));
#976 = DIRECTION('',(0.,1.,1.699871407149E-07));
#977 = DIRECTION('',(0.,-1.699871407149E-07,1.));
#978 = ADVANCED_FACE('',(#979),#986,.T.);
#979 = FACE_BOUND('',#980,.T.);
#980 = EDGE_LOOP('',(#981,#982,#983,#984,#985));
#981 = ORIENTED_EDGE('',*,*,#691,.F.);
#982 = ORIENTED_EDGE('',*,*,#950,.T.);
#983 = ORIENTED_EDGE('',*,*,#968,.T.);
#984 = ORIENTED_EDGE('',*,*,#787,.T.);
#985 = ORIENTED_EDGE('',*,*,#714,.F.);
#986 = PLANE('',#987);
#987 = AXIS2_PLACEMENT_3D('',#988,#989,#990);
#988 = CARTESIAN_POINT('',(9.,20.789895269222,17.464593269391));
#989 = DIRECTION('',(1.,0.,0.));
#990 = DIRECTION('',(-0.,0.,1.));
#991 = ADVANCED_FACE('',(#992),#999,.T.);
#992 = FACE_BOUND('',#993,.T.);
#993 = EDGE_LOOP('',(#994,#995,#996,#997,#998));
#994 = ORIENTED_EDGE('',*,*,#801,.T.);
#995 = ORIENTED_EDGE('',*,*,#756,.T.);
#996 = ORIENTED_EDGE('',*,*,#832,.F.);
#997 = ORIENTED_EDGE('',*,*,#902,.F.);
#998 = ORIENTED_EDGE('',*,*,#872,.T.);
#999 = PLANE('',#1000);
#1000 = AXIS2_PLACEMENT_3D('',#1001,#1002,#1003);
#1001 = CARTESIAN_POINT('',(7.5,20.272895943947,17.981589179224));
#1002 = DIRECTION('',(-1.,-0.,-0.));
#1003 = DIRECTION('',(0.,0.,-1.));
#1004 = ADVANCED_FACE('',(#1005),#1012,.T.);
#1005 = FACE_BOUND('',#1006,.T.);
#1006 = EDGE_LOOP('',(#1007,#1008,#1009,#1010,#1011));
#1007 = ORIENTED_EDGE('',*,*,#817,.F.);
#1008 = ORIENTED_EDGE('',*,*,#863,.F.);
#1009 = ORIENTED_EDGE('',*,*,#895,.T.);
#1010 = ORIENTED_EDGE('',*,*,#848,.T.);
#1011 = ORIENTED_EDGE('',*,*,#740,.F.);
#1012 = PLANE('',#1013);
#1013 = AXIS2_PLACEMENT_3D('',#1014,#1015,#1016);
#1014 = CARTESIAN_POINT('',(-7.5,20.272895943947,17.981589179224));
#1015 = DIRECTION('',(1.,0.,0.));
#1016 = DIRECTION('',(-0.,0.,1.));
#1017 = ( GEOMETRIC_REPRESENTATION_CONTEXT(3) 
GLOBAL_UNCERTAINTY_ASSIGNED_CONTEXT((#1021)) 
GLOBAL_UNIT_ASSIGNED_CONTEXT((#1018,#1019,#1020)) REPRESENTATION_CONTEXT
('Context #1','3D Context with UNIT and UNCERTAINTY') );
#1018 = ( LENGTH_UNIT() NAMED_UNIT(*) SI_UNIT(.MILLI.,.METRE.) );
#1019 = ( NAMED_UNIT(*) PLANE_ANGLE_UNIT() SI_UNIT($,.RADIAN.) );
#1020 = ( NAMED_UNIT(*) SI_UNIT($,.STERADIAN.) SOLID_ANGLE_UNIT() );
#1021 = UNCERTAINTY_MEASURE_WITH_UNIT(LENGTH_MEASURE(2.E-05),#1018,
  'distance_accuracy_value','confusion accuracy');
#1022 = CONTEXT_DEPENDENT_SHAPE_REPRESENTATION(#1023,#1025);
#1023 = ( REPRESENTATION_RELATIONSHIP('','',#658,#10) 
REPRESENTATION_RELATIONSHIP_WITH_TRANSFORMATION(#1024) 
SHAPE_REPRESENTATION_RELATIONSHIP() );
#1024 = ITEM_DEFINED_TRANSFORMATION('','',#11,#23);
#1025 = PRODUCT_DEFINITION_SHAPE('Placement','Placement of an item',
  #1026);
#1026 = NEXT_ASSEMBLY_USAGE_OCCURRENCE('20','Group','',#5,#653,$);
#1027 = PRODUCT_RELATED_PRODUCT_CATEGORY('part',$,(#655));
#1028 = SHAPE_DEFINITION_REPRESENTATION(#1029,#1035);
#1029 = PRODUCT_DEFINITION_SHAPE('','',#1030);
#1030 = PRODUCT_DEFINITION('design','',#1031,#1034);
#1031 = PRODUCT_DEFINITION_FORMATION('','',#1032);
#1032 = PRODUCT('difference008','difference008','',(#1033));
#1033 = PRODUCT_CONTEXT('',#2,'mechanical');
#1034 = PRODUCT_DEFINITION_CONTEXT('part definition',#2,'design');
#1035 = ADVANCED_BREP_SHAPE_REPRESENTATION('',(#11,#1036),#1558);
#1036 = MANIFOLD_SOLID_BREP('',#1037);
#1037 = CLOSED_SHELL('',(#1038,#1078,#1125,#1157,#1189,#1240,#1280,#1311
    ,#1323,#1354,#1385,#1416,#1447,#1478,#1506,#1534,#1546));
#1038 = ADVANCED_FACE('',(#1039),#1073,.F.);
#1039 = FACE_BOUND('',#1040,.F.);
#1040 = EDGE_LOOP('',(#1041,#1051,#1059,#1067));
#1041 = ORIENTED_EDGE('',*,*,#1042,.F.);
#1042 = EDGE_CURVE('',#1043,#1045,#1047,.T.);
#1043 = VERTEX_POINT('',#1044);
#1044 = CARTESIAN_POINT('',(-9.,-38.2545,0.));
#1045 = VERTEX_POINT('',#1046);
#1046 = CARTESIAN_POINT('',(9.,-38.2545,0.));
#1047 = LINE('',#1048,#1049);
#1048 = CARTESIAN_POINT('',(-9.,-38.2545,0.));
#1049 = VECTOR('',#1050,1.);
#1050 = DIRECTION('',(1.,0.,0.));
#1051 = ORIENTED_EDGE('',*,*,#1052,.T.);
#1052 = EDGE_CURVE('',#1043,#1053,#1055,.T.);
#1053 = VERTEX_POINT('',#1054);
#1054 = CARTESIAN_POINT('',(-9.,-45.67912120245,7.424621202459));
#1055 = LINE('',#1056,#1057);
#1056 = CARTESIAN_POINT('',(-9.,-38.2545,0.));
#1057 = VECTOR('',#1058,1.);
#1058 = DIRECTION('',(0.,-0.707106781187,0.707106781187));
#1059 = ORIENTED_EDGE('',*,*,#1060,.T.);
#1060 = EDGE_CURVE('',#1053,#1061,#1063,.T.);
#1061 = VERTEX_POINT('',#1062);
#1062 = CARTESIAN_POINT('',(9.,-45.67912120245,7.424621202459));
#1063 = LINE('',#1064,#1065);
#1064 = CARTESIAN_POINT('',(-9.,-45.67912120245,7.424621202459));
#1065 = VECTOR('',#1066,1.);
#1066 = DIRECTION('',(1.,0.,0.));
#1067 = ORIENTED_EDGE('',*,*,#1068,.F.);
#1068 = EDGE_CURVE('',#1045,#1061,#1069,.T.);
#1069 = LINE('',#1070,#1071);
#1070 = CARTESIAN_POINT('',(9.,-38.2545,0.));
#1071 = VECTOR('',#1072,1.);
#1072 = DIRECTION('',(0.,-0.707106781187,0.707106781187));
#1073 = PLANE('',#1074);
#1074 = AXIS2_PLACEMENT_3D('',#1075,#1076,#1077);
#1075 = CARTESIAN_POINT('',(-9.,-38.2545,0.));
#1076 = DIRECTION('',(0.,0.707106781187,0.707106781187));
#1077 = DIRECTION('',(0.,-0.707106781187,0.707106781187));
#1078 = ADVANCED_FACE('',(#1079),#1120,.T.);
#1079 = FACE_BOUND('',#1080,.T.);
#1080 = EDGE_LOOP('',(#1081,#1089,#1097,#1105,#1113,#1119));
#1081 = ORIENTED_EDGE('',*,*,#1082,.T.);
#1082 = EDGE_CURVE('',#1043,#1083,#1085,.T.);
#1083 = VERTEX_POINT('',#1084);
#1084 = CARTESIAN_POINT('',(-9.,0.,0.));
#1085 = LINE('',#1086,#1087);
#1086 = CARTESIAN_POINT('',(-9.,-38.2545,0.));
#1087 = VECTOR('',#1088,1.);
#1088 = DIRECTION('',(0.,1.,0.));
#1089 = ORIENTED_EDGE('',*,*,#1090,.T.);
#1090 = EDGE_CURVE('',#1083,#1091,#1093,.T.);
#1091 = VERTEX_POINT('',#1092);
#1092 = CARTESIAN_POINT('',(-7.5,0.,0.));
#1093 = LINE('',#1094,#1095);
#1094 = CARTESIAN_POINT('',(-9.,0.,0.));
#1095 = VECTOR('',#1096,1.);
#1096 = DIRECTION('',(1.,0.,0.));
#1097 = ORIENTED_EDGE('',*,*,#1098,.T.);
#1098 = EDGE_CURVE('',#1091,#1099,#1101,.T.);
#1099 = VERTEX_POINT('',#1100);
#1100 = CARTESIAN_POINT('',(7.5,0.,0.));
#1101 = LINE('',#1102,#1103);
#1102 = CARTESIAN_POINT('',(-9.,0.,0.));
#1103 = VECTOR('',#1104,1.);
#1104 = DIRECTION('',(1.,0.,0.));
#1105 = ORIENTED_EDGE('',*,*,#1106,.T.);
#1106 = EDGE_CURVE('',#1099,#1107,#1109,.T.);
#1107 = VERTEX_POINT('',#1108);
#1108 = CARTESIAN_POINT('',(9.,0.,0.));
#1109 = LINE('',#1110,#1111);
#1110 = CARTESIAN_POINT('',(-9.,0.,0.));
#1111 = VECTOR('',#1112,1.);
#1112 = DIRECTION('',(1.,0.,0.));
#1113 = ORIENTED_EDGE('',*,*,#1114,.F.);
#1114 = EDGE_CURVE('',#1045,#1107,#1115,.T.);
#1115 = LINE('',#1116,#1117);
#1116 = CARTESIAN_POINT('',(9.,-38.2545,0.));
#1117 = VECTOR('',#1118,1.);
#1118 = DIRECTION('',(0.,1.,0.));
#1119 = ORIENTED_EDGE('',*,*,#1042,.F.);
#1120 = PLANE('',#1121);
#1121 = AXIS2_PLACEMENT_3D('',#1122,#1123,#1124);
#1122 = CARTESIAN_POINT('',(0.,-19.12725,0.));
#1123 = DIRECTION('',(-0.,-0.,-1.));
#1124 = DIRECTION('',(-1.,0.,0.));
#1125 = ADVANCED_FACE('',(#1126),#1152,.T.);
#1126 = FACE_BOUND('',#1127,.T.);
#1127 = EDGE_LOOP('',(#1128,#1129,#1137,#1145,#1151));
#1128 = ORIENTED_EDGE('',*,*,#1052,.T.);
#1129 = ORIENTED_EDGE('',*,*,#1130,.T.);
#1130 = EDGE_CURVE('',#1053,#1131,#1133,.T.);
#1131 = VERTEX_POINT('',#1132);
#1132 = CARTESIAN_POINT('',(-9.,-7.424644340267,45.679098064651));
#1133 = LINE('',#1134,#1135);
#1134 = CARTESIAN_POINT('',(-9.,-45.67912120245,7.424621202459));
#1135 = VECTOR('',#1136,1.);
#1136 = DIRECTION('',(0.,0.707106781187,0.707106781187));
#1137 = ORIENTED_EDGE('',*,*,#1138,.F.);
#1138 = EDGE_CURVE('',#1139,#1131,#1141,.T.);
#1139 = VERTEX_POINT('',#1140);
#1140 = CARTESIAN_POINT('',(-9.,-1.156890388643E-05,38.254488431096));
#1141 = LINE('',#1142,#1143);
#1142 = CARTESIAN_POINT('',(-9.,-2.313780777996E-05,38.254476862192));
#1143 = VECTOR('',#1144,1.);
#1144 = DIRECTION('',(0.,-0.707106781187,0.707106781187));
#1145 = ORIENTED_EDGE('',*,*,#1146,.F.);
#1146 = EDGE_CURVE('',#1083,#1139,#1147,.T.);
#1147 = LINE('',#1148,#1149);
#1148 = CARTESIAN_POINT('',(-9.,0.,0.));
#1149 = VECTOR('',#1150,1.);
#1150 = DIRECTION('',(0.,0.,1.));
#1151 = ORIENTED_EDGE('',*,*,#1082,.F.);
#1152 = PLANE('',#1153);
#1153 = AXIS2_PLACEMENT_3D('',#1154,#1155,#1156);
#1154 = CARTESIAN_POINT('',(-9.,-17.46460473077,17.464593269391));
#1155 = DIRECTION('',(-1.,-0.,-0.));
#1156 = DIRECTION('',(0.,0.,-1.));
#1157 = ADVANCED_FACE('',(#1158),#1184,.T.);
#1158 = FACE_BOUND('',#1159,.T.);
#1159 = EDGE_LOOP('',(#1160,#1161,#1162,#1170,#1178));
#1160 = ORIENTED_EDGE('',*,*,#1068,.F.);
#1161 = ORIENTED_EDGE('',*,*,#1114,.T.);
#1162 = ORIENTED_EDGE('',*,*,#1163,.T.);
#1163 = EDGE_CURVE('',#1107,#1164,#1166,.T.);
#1164 = VERTEX_POINT('',#1165);
#1165 = CARTESIAN_POINT('',(9.,-1.156890388643E-05,38.254488431096));
#1166 = LINE('',#1167,#1168);
#1167 = CARTESIAN_POINT('',(9.,0.,0.));
#1168 = VECTOR('',#1169,1.);
#1169 = DIRECTION('',(0.,0.,1.));
#1170 = ORIENTED_EDGE('',*,*,#1171,.T.);
#1171 = EDGE_CURVE('',#1164,#1172,#1174,.T.);
#1172 = VERTEX_POINT('',#1173);
#1173 = CARTESIAN_POINT('',(9.,-7.424644340267,45.679098064651));
#1174 = LINE('',#1175,#1176);
#1175 = CARTESIAN_POINT('',(9.,-2.313780777996E-05,38.254476862192));
#1176 = VECTOR('',#1177,1.);
#1177 = DIRECTION('',(0.,-0.707106781187,0.707106781187));
#1178 = ORIENTED_EDGE('',*,*,#1179,.F.);
#1179 = EDGE_CURVE('',#1061,#1172,#1180,.T.);
#1180 = LINE('',#1181,#1182);
#1181 = CARTESIAN_POINT('',(9.,-45.67912120245,7.424621202459));
#1182 = VECTOR('',#1183,1.);
#1183 = DIRECTION('',(0.,0.707106781187,0.707106781187));
#1184 = PLANE('',#1185);
#1185 = AXIS2_PLACEMENT_3D('',#1186,#1187,#1188);
#1186 = CARTESIAN_POINT('',(9.,-17.46460473077,17.464593269391));
#1187 = DIRECTION('',(1.,0.,0.));
#1188 = DIRECTION('',(0.,0.,1.));
#1189 = ADVANCED_FACE('',(#1190,#1201),#1235,.T.);
#1190 = FACE_BOUND('',#1191,.T.);
#1191 = EDGE_LOOP('',(#1192,#1193,#1194,#1195));
#1192 = ORIENTED_EDGE('',*,*,#1130,.F.);
#1193 = ORIENTED_EDGE('',*,*,#1060,.T.);
#1194 = ORIENTED_EDGE('',*,*,#1179,.T.);
#1195 = ORIENTED_EDGE('',*,*,#1196,.F.);
#1196 = EDGE_CURVE('',#1131,#1172,#1197,.T.);
#1197 = LINE('',#1198,#1199);
#1198 = CARTESIAN_POINT('',(-9.,-7.424644340267,45.679098064651));
#1199 = VECTOR('',#1200,1.);
#1200 = DIRECTION('',(1.,0.,0.));
#1201 = FACE_BOUND('',#1202,.T.);
#1202 = EDGE_LOOP('',(#1203,#1213,#1221,#1229));
#1203 = ORIENTED_EDGE('',*,*,#1204,.T.);
#1204 = EDGE_CURVE('',#1205,#1207,#1209,.T.);
#1205 = VERTEX_POINT('',#1206);
#1206 = CARTESIAN_POINT('',(7.5,-44.61846103067,8.485281374239));
#1207 = VERTEX_POINT('',#1208);
#1208 = CARTESIAN_POINT('',(-7.5,-44.61846103067,8.485281374239));
#1209 = LINE('',#1210,#1211);
#1210 = CARTESIAN_POINT('',(-8.25,-44.61846103067,8.485281374239));
#1211 = VECTOR('',#1212,1.);
#1212 = DIRECTION('',(-1.,0.,0.));
#1213 = ORIENTED_EDGE('',*,*,#1214,.T.);
#1214 = EDGE_CURVE('',#1207,#1215,#1217,.T.);
#1215 = VERTEX_POINT('',#1216);
#1216 = CARTESIAN_POINT('',(-7.5,-8.485304512046,44.618437892871));
#1217 = LINE('',#1218,#1219);
#1218 = CARTESIAN_POINT('',(-7.5,-45.14879111656,7.954951288349));
#1219 = VECTOR('',#1220,1.);
#1220 = DIRECTION('',(0.,0.707106781187,0.707106781187));
#1221 = ORIENTED_EDGE('',*,*,#1222,.F.);
#1222 = EDGE_CURVE('',#1223,#1215,#1225,.T.);
#1223 = VERTEX_POINT('',#1224);
#1224 = CARTESIAN_POINT('',(7.5,-8.485304512046,44.618437892871));
#1225 = LINE('',#1226,#1227);
#1226 = CARTESIAN_POINT('',(-8.25,-8.485304512046,44.618437892871));
#1227 = VECTOR('',#1228,1.);
#1228 = DIRECTION('',(-1.,0.,0.));
#1229 = ORIENTED_EDGE('',*,*,#1230,.F.);
#1230 = EDGE_CURVE('',#1205,#1223,#1231,.T.);
#1231 = LINE('',#1232,#1233);
#1232 = CARTESIAN_POINT('',(7.5,-45.14879111656,7.954951288349));
#1233 = VECTOR('',#1234,1.);
#1234 = DIRECTION('',(0.,0.707106781187,0.707106781187));
#1235 = PLANE('',#1236);
#1236 = AXIS2_PLACEMENT_3D('',#1237,#1238,#1239);
#1237 = CARTESIAN_POINT('',(-9.,-45.67912120245,7.424621202459));
#1238 = DIRECTION('',(0.,-0.707106781187,0.707106781187));
#1239 = DIRECTION('',(1.,0.,0.));
#1240 = ADVANCED_FACE('',(#1241),#1275,.T.);
#1241 = FACE_BOUND('',#1242,.T.);
#1242 = EDGE_LOOP('',(#1243,#1244,#1245,#1251,#1252,#1253,#1261,#1269));
#1243 = ORIENTED_EDGE('',*,*,#1090,.F.);
#1244 = ORIENTED_EDGE('',*,*,#1146,.T.);
#1245 = ORIENTED_EDGE('',*,*,#1246,.T.);
#1246 = EDGE_CURVE('',#1139,#1164,#1247,.T.);
#1247 = LINE('',#1248,#1249);
#1248 = CARTESIAN_POINT('',(7.5,0.,38.2545));
#1249 = VECTOR('',#1250,1.);
#1250 = DIRECTION('',(1.,0.,0.));
#1251 = ORIENTED_EDGE('',*,*,#1163,.F.);
#1252 = ORIENTED_EDGE('',*,*,#1106,.F.);
#1253 = ORIENTED_EDGE('',*,*,#1254,.F.);
#1254 = EDGE_CURVE('',#1255,#1099,#1257,.T.);
#1255 = VERTEX_POINT('',#1256);
#1256 = CARTESIAN_POINT('',(7.5,-3.142045450488E-07,2.828427438951));
#1257 = LINE('',#1258,#1259);
#1258 = CARTESIAN_POINT('',(7.5,-2.568656801927E-06,16.090914509602));
#1259 = VECTOR('',#1260,1.);
#1260 = DIRECTION('',(0.,1.699871407149E-07,-1.));
#1261 = ORIENTED_EDGE('',*,*,#1262,.F.);
#1262 = EDGE_CURVE('',#1263,#1255,#1265,.T.);
#1263 = VERTEX_POINT('',#1264);
#1264 = CARTESIAN_POINT('',(-7.5,-3.142045450488E-07,2.828427438951));
#1265 = LINE('',#1266,#1267);
#1266 = CARTESIAN_POINT('',(-3.75,-3.14204545307E-07,2.828427438951));
#1267 = VECTOR('',#1268,1.);
#1268 = DIRECTION('',(1.,0.,0.));
#1269 = ORIENTED_EDGE('',*,*,#1270,.F.);
#1270 = EDGE_CURVE('',#1091,#1263,#1271,.T.);
#1271 = LINE('',#1272,#1273);
#1272 = CARTESIAN_POINT('',(-7.5,-2.568656801927E-06,16.090914509602));
#1273 = VECTOR('',#1274,1.);
#1274 = DIRECTION('',(0.,-1.699871407149E-07,1.));
#1275 = PLANE('',#1276);
#1276 = AXIS2_PLACEMENT_3D('',#1277,#1278,#1279);
#1277 = CARTESIAN_POINT('',(0.,-3.084794265362E-06,19.127246915206));
#1278 = DIRECTION('',(0.,1.,1.699871407149E-07));
#1279 = DIRECTION('',(0.,-1.699871407149E-07,1.));
#1280 = ADVANCED_FACE('',(#1281),#1306,.T.);
#1281 = FACE_BOUND('',#1282,.T.);
#1282 = EDGE_LOOP('',(#1283,#1291,#1292,#1300));
#1283 = ORIENTED_EDGE('',*,*,#1284,.F.);
#1284 = EDGE_CURVE('',#1099,#1285,#1287,.T.);
#1285 = VERTEX_POINT('',#1286);
#1286 = CARTESIAN_POINT('',(7.5,-1.5,1.5));
#1287 = LINE('',#1288,#1289);
#1288 = CARTESIAN_POINT('',(7.5,17.677669529664,-17.67766952966));
#1289 = VECTOR('',#1290,1.);
#1290 = DIRECTION('',(0.,-0.707106781187,0.707106781187));
#1291 = ORIENTED_EDGE('',*,*,#1098,.F.);
#1292 = ORIENTED_EDGE('',*,*,#1293,.T.);
#1293 = EDGE_CURVE('',#1091,#1294,#1296,.T.);
#1294 = VERTEX_POINT('',#1295);
#1295 = CARTESIAN_POINT('',(-7.5,-1.5,1.5));
#1296 = LINE('',#1297,#1298);
#1297 = CARTESIAN_POINT('',(-7.5,17.677669529664,-17.67766952966));
#1298 = VECTOR('',#1299,1.);
#1299 = DIRECTION('',(0.,-0.707106781187,0.707106781187));
#1300 = ORIENTED_EDGE('',*,*,#1301,.F.);
#1301 = EDGE_CURVE('',#1285,#1294,#1302,.T.);
#1302 = LINE('',#1303,#1304);
#1303 = CARTESIAN_POINT('',(-9.,-1.5,1.5));
#1304 = VECTOR('',#1305,1.);
#1305 = DIRECTION('',(-1.,0.,0.));
#1306 = PLANE('',#1307);
#1307 = AXIS2_PLACEMENT_3D('',#1308,#1309,#1310);
#1308 = CARTESIAN_POINT('',(-7.5,17.677669529664,-17.67766952966));
#1309 = DIRECTION('',(0.,0.707106781187,0.707106781187));
#1310 = DIRECTION('',(0.,-0.707106781187,0.707106781187));
#1311 = ADVANCED_FACE('',(#1312),#1318,.T.);
#1312 = FACE_BOUND('',#1313,.T.);
#1313 = EDGE_LOOP('',(#1314,#1315,#1316,#1317));
#1314 = ORIENTED_EDGE('',*,*,#1246,.F.);
#1315 = ORIENTED_EDGE('',*,*,#1138,.T.);
#1316 = ORIENTED_EDGE('',*,*,#1196,.T.);
#1317 = ORIENTED_EDGE('',*,*,#1171,.F.);
#1318 = PLANE('',#1319);
#1319 = AXIS2_PLACEMENT_3D('',#1320,#1321,#1322);
#1320 = CARTESIAN_POINT('',(-9.,-2.313780777996E-05,38.254476862192));
#1321 = DIRECTION('',(0.,0.707106781187,0.707106781187));
#1322 = DIRECTION('',(0.,-0.707106781187,0.707106781187));
#1323 = ADVANCED_FACE('',(#1324),#1349,.T.);
#1324 = FACE_BOUND('',#1325,.T.);
#1325 = EDGE_LOOP('',(#1326,#1334,#1342,#1348));
#1326 = ORIENTED_EDGE('',*,*,#1327,.F.);
#1327 = EDGE_CURVE('',#1328,#1205,#1330,.T.);
#1328 = VERTEX_POINT('',#1329);
#1329 = CARTESIAN_POINT('',(7.5,-39.7545,3.62132034356));
#1330 = LINE('',#1331,#1332);
#1331 = CARTESIAN_POINT('',(7.5,-36.48673304703,0.353553390593));
#1332 = VECTOR('',#1333,1.);
#1333 = DIRECTION('',(0.,-0.707106781187,0.707106781187));
#1334 = ORIENTED_EDGE('',*,*,#1335,.T.);
#1335 = EDGE_CURVE('',#1328,#1336,#1338,.T.);
#1336 = VERTEX_POINT('',#1337);
#1337 = CARTESIAN_POINT('',(-7.5,-39.7545,3.62132034356));
#1338 = LINE('',#1339,#1340);
#1339 = CARTESIAN_POINT('',(-7.5,-39.7545,3.62132034356));
#1340 = VECTOR('',#1341,1.);
#1341 = DIRECTION('',(-1.,0.,0.));
#1342 = ORIENTED_EDGE('',*,*,#1343,.T.);
#1343 = EDGE_CURVE('',#1336,#1207,#1344,.T.);
#1344 = LINE('',#1345,#1346);
#1345 = CARTESIAN_POINT('',(-7.5,-36.48673304703,0.353553390593));
#1346 = VECTOR('',#1347,1.);
#1347 = DIRECTION('',(0.,-0.707106781187,0.707106781187));
#1348 = ORIENTED_EDGE('',*,*,#1204,.F.);
#1349 = PLANE('',#1350);
#1350 = AXIS2_PLACEMENT_3D('',#1351,#1352,#1353);
#1351 = CARTESIAN_POINT('',(-7.5,-36.48673304703,0.353553390593));
#1352 = DIRECTION('',(0.,0.707106781187,0.707106781187));
#1353 = DIRECTION('',(0.,-0.707106781187,0.707106781187));
#1354 = ADVANCED_FACE('',(#1355),#1380,.F.);
#1355 = FACE_BOUND('',#1356,.F.);
#1356 = EDGE_LOOP('',(#1357,#1365,#1373,#1379));
#1357 = ORIENTED_EDGE('',*,*,#1358,.F.);
#1358 = EDGE_CURVE('',#1359,#1223,#1361,.T.);
#1359 = VERTEX_POINT('',#1360);
#1360 = CARTESIAN_POINT('',(7.5,-3.621366619175,39.7545));
#1361 = LINE('',#1362,#1363);
#1362 = CARTESIAN_POINT('',(7.5,-0.353576528401,36.486709909226));
#1363 = VECTOR('',#1364,1.);
#1364 = DIRECTION('',(0.,-0.707106781187,0.707106781187));
#1365 = ORIENTED_EDGE('',*,*,#1366,.F.);
#1366 = EDGE_CURVE('',#1367,#1359,#1369,.T.);
#1367 = VERTEX_POINT('',#1368);
#1368 = CARTESIAN_POINT('',(-7.5,-3.621366619175,39.7545));
#1369 = LINE('',#1370,#1371);
#1370 = CARTESIAN_POINT('',(-7.5,-3.621366619175,39.7545));
#1371 = VECTOR('',#1372,1.);
#1372 = DIRECTION('',(1.,0.,0.));
#1373 = ORIENTED_EDGE('',*,*,#1374,.T.);
#1374 = EDGE_CURVE('',#1367,#1215,#1375,.T.);
#1375 = LINE('',#1376,#1377);
#1376 = CARTESIAN_POINT('',(-7.5,-0.353576528401,36.486709909226));
#1377 = VECTOR('',#1378,1.);
#1378 = DIRECTION('',(0.,-0.707106781187,0.707106781187));
#1379 = ORIENTED_EDGE('',*,*,#1222,.F.);
#1380 = PLANE('',#1381);
#1381 = AXIS2_PLACEMENT_3D('',#1382,#1383,#1384);
#1382 = CARTESIAN_POINT('',(-7.5,-0.353576528401,36.486709909226));
#1383 = DIRECTION('',(0.,0.707106781187,0.707106781187));
#1384 = DIRECTION('',(0.,-0.707106781187,0.707106781187));
#1385 = ADVANCED_FACE('',(#1386),#1411,.F.);
#1386 = FACE_BOUND('',#1387,.F.);
#1387 = EDGE_LOOP('',(#1388,#1396,#1397,#1405));
#1388 = ORIENTED_EDGE('',*,*,#1389,.F.);
#1389 = EDGE_CURVE('',#1255,#1390,#1392,.T.);
#1390 = VERTEX_POINT('',#1391);
#1391 = CARTESIAN_POINT('',(7.5,-1.5,4.328427124746));
#1392 = LINE('',#1393,#1394);
#1393 = CARTESIAN_POINT('',(7.5,19.091883092037,-16.26345596729));
#1394 = VECTOR('',#1395,1.);
#1395 = DIRECTION('',(0.,-0.707106781187,0.707106781187));
#1396 = ORIENTED_EDGE('',*,*,#1262,.F.);
#1397 = ORIENTED_EDGE('',*,*,#1398,.T.);
#1398 = EDGE_CURVE('',#1263,#1399,#1401,.T.);
#1399 = VERTEX_POINT('',#1400);
#1400 = CARTESIAN_POINT('',(-7.5,-1.5,4.328427124746));
#1401 = LINE('',#1402,#1403);
#1402 = CARTESIAN_POINT('',(-7.5,19.091883092037,-16.26345596729));
#1403 = VECTOR('',#1404,1.);
#1404 = DIRECTION('',(0.,-0.707106781187,0.707106781187));
#1405 = ORIENTED_EDGE('',*,*,#1406,.F.);
#1406 = EDGE_CURVE('',#1390,#1399,#1407,.T.);
#1407 = LINE('',#1408,#1409);
#1408 = CARTESIAN_POINT('',(-7.5,-1.5,4.328427124746));
#1409 = VECTOR('',#1410,1.);
#1410 = DIRECTION('',(-1.,0.,0.));
#1411 = PLANE('',#1412);
#1412 = AXIS2_PLACEMENT_3D('',#1413,#1414,#1415);
#1413 = CARTESIAN_POINT('',(-7.5,19.091883092037,-16.26345596729));
#1414 = DIRECTION('',(0.,0.707106781187,0.707106781187));
#1415 = DIRECTION('',(0.,-0.707106781187,0.707106781187));
#1416 = ADVANCED_FACE('',(#1417),#1442,.T.);
#1417 = FACE_BOUND('',#1418,.T.);
#1418 = EDGE_LOOP('',(#1419,#1429,#1435,#1436));
#1419 = ORIENTED_EDGE('',*,*,#1420,.F.);
#1420 = EDGE_CURVE('',#1421,#1423,#1425,.T.);
#1421 = VERTEX_POINT('',#1422);
#1422 = CARTESIAN_POINT('',(-7.5,-39.7545,1.5));
#1423 = VERTEX_POINT('',#1424);
#1424 = CARTESIAN_POINT('',(7.5,-39.7545,1.5));
#1425 = LINE('',#1426,#1427);
#1426 = CARTESIAN_POINT('',(-7.5,-39.7545,1.5));
#1427 = VECTOR('',#1428,1.);
#1428 = DIRECTION('',(1.,0.,0.));
#1429 = ORIENTED_EDGE('',*,*,#1430,.T.);
#1430 = EDGE_CURVE('',#1421,#1336,#1431,.T.);
#1431 = LINE('',#1432,#1433);
#1432 = CARTESIAN_POINT('',(-7.5,-39.7545,1.5));
#1433 = VECTOR('',#1434,1.);
#1434 = DIRECTION('',(0.,0.,1.));
#1435 = ORIENTED_EDGE('',*,*,#1335,.F.);
#1436 = ORIENTED_EDGE('',*,*,#1437,.F.);
#1437 = EDGE_CURVE('',#1423,#1328,#1438,.T.);
#1438 = LINE('',#1439,#1440);
#1439 = CARTESIAN_POINT('',(7.5,-39.7545,1.5));
#1440 = VECTOR('',#1441,1.);
#1441 = DIRECTION('',(0.,0.,1.));
#1442 = PLANE('',#1443);
#1443 = AXIS2_PLACEMENT_3D('',#1444,#1445,#1446);
#1444 = CARTESIAN_POINT('',(-7.5,-39.7545,1.5));
#1445 = DIRECTION('',(0.,1.,0.));
#1446 = DIRECTION('',(0.,0.,1.));
#1447 = ADVANCED_FACE('',(#1448),#1473,.F.);
#1448 = FACE_BOUND('',#1449,.F.);
#1449 = EDGE_LOOP('',(#1450,#1458,#1459,#1467));
#1450 = ORIENTED_EDGE('',*,*,#1451,.F.);
#1451 = EDGE_CURVE('',#1367,#1452,#1454,.T.);
#1452 = VERTEX_POINT('',#1453);
#1453 = CARTESIAN_POINT('',(-7.5,-1.5,39.7545));
#1454 = LINE('',#1455,#1456);
#1455 = CARTESIAN_POINT('',(-7.5,-39.7545,39.7545));
#1456 = VECTOR('',#1457,1.);
#1457 = DIRECTION('',(0.,1.,0.));
#1458 = ORIENTED_EDGE('',*,*,#1366,.T.);
#1459 = ORIENTED_EDGE('',*,*,#1460,.T.);
#1460 = EDGE_CURVE('',#1359,#1461,#1463,.T.);
#1461 = VERTEX_POINT('',#1462);
#1462 = CARTESIAN_POINT('',(7.5,-1.5,39.7545));
#1463 = LINE('',#1464,#1465);
#1464 = CARTESIAN_POINT('',(7.5,-39.7545,39.7545));
#1465 = VECTOR('',#1466,1.);
#1466 = DIRECTION('',(0.,1.,0.));
#1467 = ORIENTED_EDGE('',*,*,#1468,.F.);
#1468 = EDGE_CURVE('',#1452,#1461,#1469,.T.);
#1469 = LINE('',#1470,#1471);
#1470 = CARTESIAN_POINT('',(-7.5,-1.5,39.7545));
#1471 = VECTOR('',#1472,1.);
#1472 = DIRECTION('',(1.,0.,0.));
#1473 = PLANE('',#1474);
#1474 = AXIS2_PLACEMENT_3D('',#1475,#1476,#1477);
#1475 = CARTESIAN_POINT('',(-7.5,-39.7545,39.7545));
#1476 = DIRECTION('',(0.,0.,1.));
#1477 = DIRECTION('',(1.,0.,0.));
#1478 = ADVANCED_FACE('',(#1479),#1501,.T.);
#1479 = FACE_BOUND('',#1480,.T.);
#1480 = EDGE_LOOP('',(#1481,#1482,#1483,#1484,#1490,#1491,#1492,#1493,
    #1499,#1500));
#1481 = ORIENTED_EDGE('',*,*,#1230,.T.);
#1482 = ORIENTED_EDGE('',*,*,#1358,.F.);
#1483 = ORIENTED_EDGE('',*,*,#1460,.T.);
#1484 = ORIENTED_EDGE('',*,*,#1485,.F.);
#1485 = EDGE_CURVE('',#1390,#1461,#1486,.T.);
#1486 = LINE('',#1487,#1488);
#1487 = CARTESIAN_POINT('',(7.5,-1.5,1.5));
#1488 = VECTOR('',#1489,1.);
#1489 = DIRECTION('',(0.,0.,1.));
#1490 = ORIENTED_EDGE('',*,*,#1389,.F.);
#1491 = ORIENTED_EDGE('',*,*,#1254,.T.);
#1492 = ORIENTED_EDGE('',*,*,#1284,.T.);
#1493 = ORIENTED_EDGE('',*,*,#1494,.T.);
#1494 = EDGE_CURVE('',#1285,#1423,#1495,.T.);
#1495 = LINE('',#1496,#1497);
#1496 = CARTESIAN_POINT('',(7.5,-37.37061652351,1.5));
#1497 = VECTOR('',#1498,1.);
#1498 = DIRECTION('',(0.,-1.,0.));
#1499 = ORIENTED_EDGE('',*,*,#1437,.T.);
#1500 = ORIENTED_EDGE('',*,*,#1327,.T.);
#1501 = PLANE('',#1502);
#1502 = AXIS2_PLACEMENT_3D('',#1503,#1504,#1505);
#1503 = CARTESIAN_POINT('',(7.5,-17.50930059112,17.549333439235));
#1504 = DIRECTION('',(-1.,-0.,-0.));
#1505 = DIRECTION('',(0.,0.,-1.));
#1506 = ADVANCED_FACE('',(#1507),#1529,.T.);
#1507 = FACE_BOUND('',#1508,.T.);
#1508 = EDGE_LOOP('',(#1509,#1510,#1511,#1517,#1518,#1519,#1520,#1526,
    #1527,#1528));
#1509 = ORIENTED_EDGE('',*,*,#1343,.F.);
#1510 = ORIENTED_EDGE('',*,*,#1430,.F.);
#1511 = ORIENTED_EDGE('',*,*,#1512,.T.);
#1512 = EDGE_CURVE('',#1421,#1294,#1513,.T.);
#1513 = LINE('',#1514,#1515);
#1514 = CARTESIAN_POINT('',(-7.5,-39.7545,1.5));
#1515 = VECTOR('',#1516,1.);
#1516 = DIRECTION('',(0.,1.,0.));
#1517 = ORIENTED_EDGE('',*,*,#1293,.F.);
#1518 = ORIENTED_EDGE('',*,*,#1270,.T.);
#1519 = ORIENTED_EDGE('',*,*,#1398,.T.);
#1520 = ORIENTED_EDGE('',*,*,#1521,.T.);
#1521 = EDGE_CURVE('',#1399,#1452,#1522,.T.);
#1522 = LINE('',#1523,#1524);
#1523 = CARTESIAN_POINT('',(-7.5,-1.5,0.176776695297));
#1524 = VECTOR('',#1525,1.);
#1525 = DIRECTION('',(0.,0.,1.));
#1526 = ORIENTED_EDGE('',*,*,#1451,.F.);
#1527 = ORIENTED_EDGE('',*,*,#1374,.T.);
#1528 = ORIENTED_EDGE('',*,*,#1214,.F.);
#1529 = PLANE('',#1530);
#1530 = AXIS2_PLACEMENT_3D('',#1531,#1532,#1533);
#1531 = CARTESIAN_POINT('',(-7.5,-17.50930059112,17.549333439235));
#1532 = DIRECTION('',(1.,0.,0.));
#1533 = DIRECTION('',(-0.,0.,1.));
#1534 = ADVANCED_FACE('',(#1535),#1541,.T.);
#1535 = FACE_BOUND('',#1536,.T.);
#1536 = EDGE_LOOP('',(#1537,#1538,#1539,#1540));
#1537 = ORIENTED_EDGE('',*,*,#1512,.F.);
#1538 = ORIENTED_EDGE('',*,*,#1420,.T.);
#1539 = ORIENTED_EDGE('',*,*,#1494,.F.);
#1540 = ORIENTED_EDGE('',*,*,#1301,.T.);
#1541 = PLANE('',#1542);
#1542 = AXIS2_PLACEMENT_3D('',#1543,#1544,#1545);
#1543 = CARTESIAN_POINT('',(0.,-20.62725,1.5));
#1544 = DIRECTION('',(0.,0.,1.));
#1545 = DIRECTION('',(1.,0.,-0.));
#1546 = ADVANCED_FACE('',(#1547),#1553,.T.);
#1547 = FACE_BOUND('',#1548,.T.);
#1548 = EDGE_LOOP('',(#1549,#1550,#1551,#1552));
#1549 = ORIENTED_EDGE('',*,*,#1485,.T.);
#1550 = ORIENTED_EDGE('',*,*,#1468,.F.);
#1551 = ORIENTED_EDGE('',*,*,#1521,.F.);
#1552 = ORIENTED_EDGE('',*,*,#1406,.F.);
#1553 = PLANE('',#1554);
#1554 = AXIS2_PLACEMENT_3D('',#1555,#1556,#1557);
#1555 = CARTESIAN_POINT('',(-5.636312290413E-16,-1.5,22.041463562373));
#1556 = DIRECTION('',(-0.,-1.,-0.));
#1557 = DIRECTION('',(0.,0.,-1.));
#1558 = ( GEOMETRIC_REPRESENTATION_CONTEXT(3) 
GLOBAL_UNCERTAINTY_ASSIGNED_CONTEXT((#1562)) 
GLOBAL_UNIT_ASSIGNED_CONTEXT((#1559,#1560,#1561)) REPRESENTATION_CONTEXT
('Context #1','3D Context with UNIT and UNCERTAINTY') );
#1559 = ( LENGTH_UNIT() NAMED_UNIT(*) SI_UNIT(.MILLI.,.METRE.) );
#1560 = ( NAMED_UNIT(*) PLANE_ANGLE_UNIT() SI_UNIT($,.RADIAN.) );
#1561 = ( NAMED_UNIT(*) SI_UNIT($,.STERADIAN.) SOLID_ANGLE_UNIT() );
#1562 = UNCERTAINTY_MEASURE_WITH_UNIT(LENGTH_MEASURE(5.E-05),#1559,
  'distance_accuracy_value','confusion accuracy');
#1563 = CONTEXT_DEPENDENT_SHAPE_REPRESENTATION(#1564,#1566);
#1564 = ( REPRESENTATION_RELATIONSHIP('','',#1035,#10) 
REPRESENTATION_RELATIONSHIP_WITH_TRANSFORMATION(#1565) 
SHAPE_REPRESENTATION_RELATIONSHIP() );
#1565 = ITEM_DEFINED_TRANSFORMATION('','',#11,#27);
#1566 = PRODUCT_DEFINITION_SHAPE('Placement','Placement of an item',
  #1567);
#1567 = NEXT_ASSEMBLY_USAGE_OCCURRENCE('21','difference008','',#5,#1030,
  $);
#1568 = PRODUCT_RELATED_PRODUCT_CATEGORY('part',$,(#1032));
#1569 = SHAPE_DEFINITION_REPRESENTATION(#1570,#1576);
#1570 = PRODUCT_DEFINITION_SHAPE('','',#1571);
#1571 = PRODUCT_DEFINITION('design','',#1572,#1575);
#1572 = PRODUCT_DEFINITION_FORMATION('','',#1573);
#1573 = PRODUCT('Group003','Group003','',(#1574));
#1574 = PRODUCT_CONTEXT('',#2,'mechanical');
#1575 = PRODUCT_DEFINITION_CONTEXT('part definition',#2,'design');
#1576 = ADVANCED_BREP_SHAPE_REPRESENTATION('',(#11,#1577),#1826);
#1577 = MANIFOLD_SOLID_BREP('',#1578);
#1578 = CLOSED_SHELL('',(#1579,#1619,#1650,#1681,#1712,#1743,#1774,#1796
    ,#1811));
#1579 = ADVANCED_FACE('',(#1580),#1614,.T.);
#1580 = FACE_BOUND('',#1581,.T.);
#1581 = EDGE_LOOP('',(#1582,#1592,#1600,#1608));
#1582 = ORIENTED_EDGE('',*,*,#1583,.F.);
#1583 = EDGE_CURVE('',#1584,#1586,#1588,.T.);
#1584 = VERTEX_POINT('',#1585);
#1585 = CARTESIAN_POINT('',(7.5,19.091883092037,-16.26345596729));
#1586 = VERTEX_POINT('',#1587);
#1587 = CARTESIAN_POINT('',(7.5,-1.5,4.328427124746));
#1588 = LINE('',#1589,#1590);
#1589 = CARTESIAN_POINT('',(7.5,19.091883092037,-16.26345596729));
#1590 = VECTOR('',#1591,1.);
#1591 = DIRECTION('',(0.,-0.707106781187,0.707106781187));
#1592 = ORIENTED_EDGE('',*,*,#1593,.F.);
#1593 = EDGE_CURVE('',#1594,#1584,#1596,.T.);
#1594 = VERTEX_POINT('',#1595);
#1595 = CARTESIAN_POINT('',(-7.5,19.091883092037,-16.26345596729));
#1596 = LINE('',#1597,#1598);
#1597 = CARTESIAN_POINT('',(-7.5,19.091883092037,-16.26345596729));
#1598 = VECTOR('',#1599,1.);
#1599 = DIRECTION('',(1.,0.,0.));
#1600 = ORIENTED_EDGE('',*,*,#1601,.T.);
#1601 = EDGE_CURVE('',#1594,#1602,#1604,.T.);
#1602 = VERTEX_POINT('',#1603);
#1603 = CARTESIAN_POINT('',(-7.5,-1.5,4.328427124746));
#1604 = LINE('',#1605,#1606);
#1605 = CARTESIAN_POINT('',(-7.5,19.091883092037,-16.26345596729));
#1606 = VECTOR('',#1607,1.);
#1607 = DIRECTION('',(0.,-0.707106781187,0.707106781187));
#1608 = ORIENTED_EDGE('',*,*,#1609,.F.);
#1609 = EDGE_CURVE('',#1586,#1602,#1610,.T.);
#1610 = LINE('',#1611,#1612);
#1611 = CARTESIAN_POINT('',(-7.5,-1.5,4.328427124746));
#1612 = VECTOR('',#1613,1.);
#1613 = DIRECTION('',(-1.,0.,0.));
#1614 = PLANE('',#1615);
#1615 = AXIS2_PLACEMENT_3D('',#1616,#1617,#1618);
#1616 = CARTESIAN_POINT('',(-7.5,19.091883092037,-16.26345596729));
#1617 = DIRECTION('',(0.,0.707106781187,0.707106781187));
#1618 = DIRECTION('',(0.,-0.707106781187,0.707106781187));
#1619 = ADVANCED_FACE('',(#1620),#1645,.F.);
#1620 = FACE_BOUND('',#1621,.F.);
#1621 = EDGE_LOOP('',(#1622,#1630,#1638,#1644));
#1622 = ORIENTED_EDGE('',*,*,#1623,.F.);
#1623 = EDGE_CURVE('',#1624,#1594,#1626,.T.);
#1624 = VERTEX_POINT('',#1625);
#1625 = CARTESIAN_POINT('',(-7.5,17.677669529664,-17.67766952966));
#1626 = LINE('',#1627,#1628);
#1627 = CARTESIAN_POINT('',(-7.5,17.677669529664,-17.67766952966));
#1628 = VECTOR('',#1629,1.);
#1629 = DIRECTION('',(0.,0.707106781187,0.707106781187));
#1630 = ORIENTED_EDGE('',*,*,#1631,.T.);
#1631 = EDGE_CURVE('',#1624,#1632,#1634,.T.);
#1632 = VERTEX_POINT('',#1633);
#1633 = CARTESIAN_POINT('',(7.5,17.677669529664,-17.67766952966));
#1634 = LINE('',#1635,#1636);
#1635 = CARTESIAN_POINT('',(-7.5,17.677669529664,-17.67766952966));
#1636 = VECTOR('',#1637,1.);
#1637 = DIRECTION('',(1.,0.,0.));
#1638 = ORIENTED_EDGE('',*,*,#1639,.T.);
#1639 = EDGE_CURVE('',#1632,#1584,#1640,.T.);
#1640 = LINE('',#1641,#1642);
#1641 = CARTESIAN_POINT('',(7.5,17.677669529664,-17.67766952966));
#1642 = VECTOR('',#1643,1.);
#1643 = DIRECTION('',(0.,0.707106781187,0.707106781187));
#1644 = ORIENTED_EDGE('',*,*,#1593,.F.);
#1645 = PLANE('',#1646);
#1646 = AXIS2_PLACEMENT_3D('',#1647,#1648,#1649);
#1647 = CARTESIAN_POINT('',(-7.5,17.677669529664,-17.67766952966));
#1648 = DIRECTION('',(0.,-0.707106781187,0.707106781187));
#1649 = DIRECTION('',(1.,0.,0.));
#1650 = ADVANCED_FACE('',(#1651),#1676,.F.);
#1651 = FACE_BOUND('',#1652,.F.);
#1652 = EDGE_LOOP('',(#1653,#1661,#1662,#1670));
#1653 = ORIENTED_EDGE('',*,*,#1654,.F.);
#1654 = EDGE_CURVE('',#1632,#1655,#1657,.T.);
#1655 = VERTEX_POINT('',#1656);
#1656 = CARTESIAN_POINT('',(7.5,-1.5,1.5));
#1657 = LINE('',#1658,#1659);
#1658 = CARTESIAN_POINT('',(7.5,17.677669529664,-17.67766952966));
#1659 = VECTOR('',#1660,1.);
#1660 = DIRECTION('',(0.,-0.707106781187,0.707106781187));
#1661 = ORIENTED_EDGE('',*,*,#1631,.F.);
#1662 = ORIENTED_EDGE('',*,*,#1663,.T.);
#1663 = EDGE_CURVE('',#1624,#1664,#1666,.T.);
#1664 = VERTEX_POINT('',#1665);
#1665 = CARTESIAN_POINT('',(-7.5,-1.5,1.5));
#1666 = LINE('',#1667,#1668);
#1667 = CARTESIAN_POINT('',(-7.5,17.677669529664,-17.67766952966));
#1668 = VECTOR('',#1669,1.);
#1669 = DIRECTION('',(0.,-0.707106781187,0.707106781187));
#1670 = ORIENTED_EDGE('',*,*,#1671,.T.);
#1671 = EDGE_CURVE('',#1664,#1655,#1672,.T.);
#1672 = LINE('',#1673,#1674);
#1673 = CARTESIAN_POINT('',(-7.5,-1.5,1.5));
#1674 = VECTOR('',#1675,1.);
#1675 = DIRECTION('',(1.,0.,0.));
#1676 = PLANE('',#1677);
#1677 = AXIS2_PLACEMENT_3D('',#1678,#1679,#1680);
#1678 = CARTESIAN_POINT('',(-7.5,17.677669529664,-17.67766952966));
#1679 = DIRECTION('',(0.,0.707106781187,0.707106781187));
#1680 = DIRECTION('',(0.,-0.707106781187,0.707106781187));
#1681 = ADVANCED_FACE('',(#1682),#1707,.F.);
#1682 = FACE_BOUND('',#1683,.F.);
#1683 = EDGE_LOOP('',(#1684,#1692,#1700,#1706));
#1684 = ORIENTED_EDGE('',*,*,#1685,.F.);
#1685 = EDGE_CURVE('',#1686,#1664,#1688,.T.);
#1686 = VERTEX_POINT('',#1687);
#1687 = CARTESIAN_POINT('',(-7.5,-39.7545,1.5));
#1688 = LINE('',#1689,#1690);
#1689 = CARTESIAN_POINT('',(-7.5,-39.7545,1.5));
#1690 = VECTOR('',#1691,1.);
#1691 = DIRECTION('',(0.,1.,0.));
#1692 = ORIENTED_EDGE('',*,*,#1693,.T.);
#1693 = EDGE_CURVE('',#1686,#1694,#1696,.T.);
#1694 = VERTEX_POINT('',#1695);
#1695 = CARTESIAN_POINT('',(7.5,-39.7545,1.5));
#1696 = LINE('',#1697,#1698);
#1697 = CARTESIAN_POINT('',(-7.5,-39.7545,1.5));
#1698 = VECTOR('',#1699,1.);
#1699 = DIRECTION('',(1.,0.,0.));
#1700 = ORIENTED_EDGE('',*,*,#1701,.T.);
#1701 = EDGE_CURVE('',#1694,#1655,#1702,.T.);
#1702 = LINE('',#1703,#1704);
#1703 = CARTESIAN_POINT('',(7.5,-39.7545,1.5));
#1704 = VECTOR('',#1705,1.);
#1705 = DIRECTION('',(0.,1.,0.));
#1706 = ORIENTED_EDGE('',*,*,#1671,.F.);
#1707 = PLANE('',#1708);
#1708 = AXIS2_PLACEMENT_3D('',#1709,#1710,#1711);
#1709 = CARTESIAN_POINT('',(-7.5,-39.7545,1.5));
#1710 = DIRECTION('',(0.,0.,1.));
#1711 = DIRECTION('',(1.,0.,0.));
#1712 = ADVANCED_FACE('',(#1713),#1738,.T.);
#1713 = FACE_BOUND('',#1714,.T.);
#1714 = EDGE_LOOP('',(#1715,#1716,#1724,#1732));
#1715 = ORIENTED_EDGE('',*,*,#1609,.T.);
#1716 = ORIENTED_EDGE('',*,*,#1717,.T.);
#1717 = EDGE_CURVE('',#1602,#1718,#1720,.T.);
#1718 = VERTEX_POINT('',#1719);
#1719 = CARTESIAN_POINT('',(-7.5,-1.5,39.7545));
#1720 = LINE('',#1721,#1722);
#1721 = CARTESIAN_POINT('',(-7.5,-1.5,1.5));
#1722 = VECTOR('',#1723,1.);
#1723 = DIRECTION('',(0.,0.,1.));
#1724 = ORIENTED_EDGE('',*,*,#1725,.T.);
#1725 = EDGE_CURVE('',#1718,#1726,#1728,.T.);
#1726 = VERTEX_POINT('',#1727);
#1727 = CARTESIAN_POINT('',(7.5,-1.5,39.7545));
#1728 = LINE('',#1729,#1730);
#1729 = CARTESIAN_POINT('',(-7.5,-1.5,39.7545));
#1730 = VECTOR('',#1731,1.);
#1731 = DIRECTION('',(1.,0.,0.));
#1732 = ORIENTED_EDGE('',*,*,#1733,.F.);
#1733 = EDGE_CURVE('',#1586,#1726,#1734,.T.);
#1734 = LINE('',#1735,#1736);
#1735 = CARTESIAN_POINT('',(7.5,-1.5,1.5));
#1736 = VECTOR('',#1737,1.);
#1737 = DIRECTION('',(0.,0.,1.));
#1738 = PLANE('',#1739);
#1739 = AXIS2_PLACEMENT_3D('',#1740,#1741,#1742);
#1740 = CARTESIAN_POINT('',(-7.5,-1.5,1.5));
#1741 = DIRECTION('',(0.,1.,0.));
#1742 = DIRECTION('',(0.,0.,1.));
#1743 = ADVANCED_FACE('',(#1744),#1769,.F.);
#1744 = FACE_BOUND('',#1745,.F.);
#1745 = EDGE_LOOP('',(#1746,#1747,#1755,#1763));
#1746 = ORIENTED_EDGE('',*,*,#1693,.F.);
#1747 = ORIENTED_EDGE('',*,*,#1748,.T.);
#1748 = EDGE_CURVE('',#1686,#1749,#1751,.T.);
#1749 = VERTEX_POINT('',#1750);
#1750 = CARTESIAN_POINT('',(-7.5,-39.7545,39.7545));
#1751 = LINE('',#1752,#1753);
#1752 = CARTESIAN_POINT('',(-7.5,-39.7545,1.5));
#1753 = VECTOR('',#1754,1.);
#1754 = DIRECTION('',(0.,0.,1.));
#1755 = ORIENTED_EDGE('',*,*,#1756,.T.);
#1756 = EDGE_CURVE('',#1749,#1757,#1759,.T.);
#1757 = VERTEX_POINT('',#1758);
#1758 = CARTESIAN_POINT('',(7.5,-39.7545,39.7545));
#1759 = LINE('',#1760,#1761);
#1760 = CARTESIAN_POINT('',(-7.5,-39.7545,39.7545));
#1761 = VECTOR('',#1762,1.);
#1762 = DIRECTION('',(1.,0.,0.));
#1763 = ORIENTED_EDGE('',*,*,#1764,.F.);
#1764 = EDGE_CURVE('',#1694,#1757,#1765,.T.);
#1765 = LINE('',#1766,#1767);
#1766 = CARTESIAN_POINT('',(7.5,-39.7545,1.5));
#1767 = VECTOR('',#1768,1.);
#1768 = DIRECTION('',(0.,0.,1.));
#1769 = PLANE('',#1770);
#1770 = AXIS2_PLACEMENT_3D('',#1771,#1772,#1773);
#1771 = CARTESIAN_POINT('',(-7.5,-39.7545,1.5));
#1772 = DIRECTION('',(0.,1.,0.));
#1773 = DIRECTION('',(0.,0.,1.));
#1774 = ADVANCED_FACE('',(#1775),#1791,.T.);
#1775 = FACE_BOUND('',#1776,.T.);
#1776 = EDGE_LOOP('',(#1777,#1783,#1784,#1790));
#1777 = ORIENTED_EDGE('',*,*,#1778,.F.);
#1778 = EDGE_CURVE('',#1749,#1718,#1779,.T.);
#1779 = LINE('',#1780,#1781);
#1780 = CARTESIAN_POINT('',(-7.5,-39.7545,39.7545));
#1781 = VECTOR('',#1782,1.);
#1782 = DIRECTION('',(0.,1.,0.));
#1783 = ORIENTED_EDGE('',*,*,#1756,.T.);
#1784 = ORIENTED_EDGE('',*,*,#1785,.T.);
#1785 = EDGE_CURVE('',#1757,#1726,#1786,.T.);
#1786 = LINE('',#1787,#1788);
#1787 = CARTESIAN_POINT('',(7.5,-39.7545,39.7545));
#1788 = VECTOR('',#1789,1.);
#1789 = DIRECTION('',(0.,1.,0.));
#1790 = ORIENTED_EDGE('',*,*,#1725,.F.);
#1791 = PLANE('',#1792);
#1792 = AXIS2_PLACEMENT_3D('',#1793,#1794,#1795);
#1793 = CARTESIAN_POINT('',(-7.5,-39.7545,39.7545));
#1794 = DIRECTION('',(0.,0.,1.));
#1795 = DIRECTION('',(1.,0.,0.));
#1796 = ADVANCED_FACE('',(#1797),#1806,.T.);
#1797 = FACE_BOUND('',#1798,.T.);
#1798 = EDGE_LOOP('',(#1799,#1800,#1801,#1802,#1803,#1804,#1805));
#1799 = ORIENTED_EDGE('',*,*,#1663,.T.);
#1800 = ORIENTED_EDGE('',*,*,#1685,.F.);
#1801 = ORIENTED_EDGE('',*,*,#1748,.T.);
#1802 = ORIENTED_EDGE('',*,*,#1778,.T.);
#1803 = ORIENTED_EDGE('',*,*,#1717,.F.);
#1804 = ORIENTED_EDGE('',*,*,#1601,.F.);
#1805 = ORIENTED_EDGE('',*,*,#1623,.F.);
#1806 = PLANE('',#1807);
#1807 = AXIS2_PLACEMENT_3D('',#1808,#1809,#1810);
#1808 = CARTESIAN_POINT('',(-7.5,-12.66502423846,13.054579951107));
#1809 = DIRECTION('',(-1.,-0.,-0.));
#1810 = DIRECTION('',(0.,0.,-1.));
#1811 = ADVANCED_FACE('',(#1812),#1821,.T.);
#1812 = FACE_BOUND('',#1813,.T.);
#1813 = EDGE_LOOP('',(#1814,#1815,#1816,#1817,#1818,#1819,#1820));
#1814 = ORIENTED_EDGE('',*,*,#1654,.F.);
#1815 = ORIENTED_EDGE('',*,*,#1639,.T.);
#1816 = ORIENTED_EDGE('',*,*,#1583,.T.);
#1817 = ORIENTED_EDGE('',*,*,#1733,.T.);
#1818 = ORIENTED_EDGE('',*,*,#1785,.F.);
#1819 = ORIENTED_EDGE('',*,*,#1764,.F.);
#1820 = ORIENTED_EDGE('',*,*,#1701,.T.);
#1821 = PLANE('',#1822);
#1822 = AXIS2_PLACEMENT_3D('',#1823,#1824,#1825);
#1823 = CARTESIAN_POINT('',(7.5,-12.66502423846,13.054579951107));
#1824 = DIRECTION('',(1.,0.,0.));
#1825 = DIRECTION('',(-0.,0.,1.));
#1826 = ( GEOMETRIC_REPRESENTATION_CONTEXT(3) 
GLOBAL_UNCERTAINTY_ASSIGNED_CONTEXT((#1830)) 
GLOBAL_UNIT_ASSIGNED_CONTEXT((#1827,#1828,#1829)) REPRESENTATION_CONTEXT
('Context #1','3D Context with UNIT and UNCERTAINTY') );
#1827 = ( LENGTH_UNIT() NAMED_UNIT(*) SI_UNIT(.MILLI.,.METRE.) );
#1828 = ( NAMED_UNIT(*) PLANE_ANGLE_UNIT() SI_UNIT($,.RADIAN.) );
#1829 = ( NAMED_UNIT(*) SI_UNIT($,.STERADIAN.) SOLID_ANGLE_UNIT() );
#1830 = UNCERTAINTY_MEASURE_WITH_UNIT(LENGTH_MEASURE(5.E-06),#1827,
  'distance_accuracy_value','confusion accuracy');
#1831 = CONTEXT_DEPENDENT_SHAPE_REPRESENTATION(#1832,#1834);
#1832 = ( REPRESENTATION_RELATIONSHIP('','',#1576,#10) 
REPRESENTATION_RELATIONSHIP_WITH_TRANSFORMATION(#1833) 
SHAPE_REPRESENTATION_RELATIONSHIP() );
#1833 = ITEM_DEFINED_TRANSFORMATION('','',#11,#31);
#1834 = PRODUCT_DEFINITION_SHAPE('Placement','Placement of an item',
  #1835);
#1835 = NEXT_ASSEMBLY_USAGE_OCCURRENCE('22','Group003','',#5,#1571,$);
#1836 = PRODUCT_RELATED_PRODUCT_CATEGORY('part',$,(#1573));
ENDSEC;
END-ISO-10303-21;
