ISO-10303-21;
HEADER;
FILE_DESCRIPTION(('FreeCAD Model'),'2;1');
FILE_NAME('Open CASCADE Shape Model','2026-03-05T20:23:08',(''),(''),
  'Open CASCADE STEP processor 7.8','FreeCAD','Unknown');
FILE_SCHEMA(('AUTOMOTIVE_DESIGN { 1 0 10303 214 1 1 1 1 }'));
ENDSEC;
DATA;
#1 = APPLICATION_PROTOCOL_DEFINITION('international standard',
  'automotive_design',2000,#2);
#2 = APPLICATION_CONTEXT(
  'core data for automotive mechanical design processes');
#3 = SHAPE_DEFINITION_REPRESENTATION(#4,#10);
#4 = PRODUCT_DEFINITION_SHAPE('','',#5);
#5 = PRODUCT_DEFINITION('design','',#6,#9);
#6 = PRODUCT_DEFINITION_FORMATION('','',#7);
#7 = PRODUCT('misc_parts','misc_parts','',(#8));
#8 = PRODUCT_CONTEXT('',#2,'mechanical');
#9 = PRODUCT_DEFINITION_CONTEXT('part definition',#2,'design');
#10 = SHAPE_REPRESENTATION('',(#11,#15,#19,#23,#27,#31,#35),#39);
#11 = AXIS2_PLACEMENT_3D('',#12,#13,#14);
#12 = CARTESIAN_POINT('',(0.,0.,0.));
#13 = DIRECTION('',(0.,0.,1.));
#14 = DIRECTION('',(1.,0.,-0.));
#15 = AXIS2_PLACEMENT_3D('',#16,#17,#18);
#16 = CARTESIAN_POINT('',(0.,0.,0.));
#17 = DIRECTION('',(0.,0.,1.));
#18 = DIRECTION('',(1.,0.,0.));
#19 = AXIS2_PLACEMENT_3D('',#20,#21,#22);
#20 = CARTESIAN_POINT('',(0.,10.,0.));
#21 = DIRECTION('',(0.,0.,1.));
#22 = DIRECTION('',(1.,0.,0.));
#23 = AXIS2_PLACEMENT_3D('',#24,#25,#26);
#24 = CARTESIAN_POINT('',(20.,10.,0.));
#25 = DIRECTION('',(0.,0.,1.));
#26 = DIRECTION('',(1.,0.,0.));
#27 = AXIS2_PLACEMENT_3D('',#28,#29,#30);
#28 = CARTESIAN_POINT('',(0.,30.,2.5));
#29 = DIRECTION('',(0.,0.,1.));
#30 = DIRECTION('',(1.,0.,0.));
#31 = AXIS2_PLACEMENT_3D('',#32,#33,#34);
#32 = CARTESIAN_POINT('',(0.,50.,0.));
#33 = DIRECTION('',(0.,0.,1.));
#34 = DIRECTION('',(1.,0.,0.));
#35 = AXIS2_PLACEMENT_3D('',#36,#37,#38);
#36 = CARTESIAN_POINT('',(0.,70.,0.));
#37 = DIRECTION('',(0.,0.,1.));
#38 = DIRECTION('',(1.,0.,0.));
#39 = ( GEOMETRIC_REPRESENTATION_CONTEXT(3) 
GLOBAL_UNCERTAINTY_ASSIGNED_CONTEXT((#43)) GLOBAL_UNIT_ASSIGNED_CONTEXT(
(#40,#41,#42)) REPRESENTATION_CONTEXT('Context #1',
  '3D Context with UNIT and UNCERTAINTY') );
#40 = ( LENGTH_UNIT() NAMED_UNIT(*) SI_UNIT(.MILLI.,.METRE.) );
#41 = ( NAMED_UNIT(*) PLANE_ANGLE_UNIT() SI_UNIT($,.RADIAN.) );
#42 = ( NAMED_UNIT(*) SI_UNIT($,.STERADIAN.) SOLID_ANGLE_UNIT() );
#43 = UNCERTAINTY_MEASURE_WITH_UNIT(LENGTH_MEASURE(5.E-07),#40,
  'distance_accuracy_value','confusion accuracy');
#44 = PRODUCT_RELATED_PRODUCT_CATEGORY('part',$,(#7));
#45 = SHAPE_DEFINITION_REPRESENTATION(#46,#52);
#46 = PRODUCT_DEFINITION_SHAPE('','',#47);
#47 = PRODUCT_DEFINITION('design','',#48,#51);
#48 = PRODUCT_DEFINITION_FORMATION('','',#49);
#49 = PRODUCT('Group','Group','',(#50));
#50 = PRODUCT_CONTEXT('',#2,'mechanical');
#51 = PRODUCT_DEFINITION_CONTEXT('part definition',#2,'design');
#52 = ADVANCED_BREP_SHAPE_REPRESENTATION('',(#11,#53),#314);
#53 = MANIFOLD_SOLID_BREP('',#54);
#54 = CLOSED_SHELL('',(#55,#88,#147,#156,#187,#211,#235,#259,#283,#300)
  );
#55 = ADVANCED_FACE('',(#56),#83,.T.);
#56 = FACE_BOUND('',#57,.F.);
#57 = EDGE_LOOP('',(#58,#67,#75,#82));
#58 = ORIENTED_EDGE('',*,*,#59,.T.);
#59 = EDGE_CURVE('',#60,#60,#62,.T.);
#60 = VERTEX_POINT('',#61);
#61 = CARTESIAN_POINT('',(1.7,-4.163799117101E-16,1.15));
#62 = CIRCLE('',#63,1.7);
#63 = AXIS2_PLACEMENT_3D('',#64,#65,#66);
#64 = CARTESIAN_POINT('',(0.,0.,1.15));
#65 = DIRECTION('',(0.,0.,-1.));
#66 = DIRECTION('',(1.,0.,0.));
#67 = ORIENTED_EDGE('',*,*,#68,.T.);
#68 = EDGE_CURVE('',#60,#69,#71,.T.);
#69 = VERTEX_POINT('',#70);
#70 = CARTESIAN_POINT('',(1.7,-4.163799117101E-16,10.));
#71 = LINE('',#72,#73);
#72 = CARTESIAN_POINT('',(1.7,-4.163799117101E-16,0.));
#73 = VECTOR('',#74,1.);
#74 = DIRECTION('',(0.,0.,1.));
#75 = ORIENTED_EDGE('',*,*,#76,.T.);
#76 = EDGE_CURVE('',#69,#69,#77,.T.);
#77 = CIRCLE('',#78,1.7);
#78 = AXIS2_PLACEMENT_3D('',#79,#80,#81);
#79 = CARTESIAN_POINT('',(0.,0.,10.));
#80 = DIRECTION('',(0.,0.,1.));
#81 = DIRECTION('',(1.,0.,0.));
#82 = ORIENTED_EDGE('',*,*,#68,.F.);
#83 = CYLINDRICAL_SURFACE('',#84,1.7);
#84 = AXIS2_PLACEMENT_3D('',#85,#86,#87);
#85 = CARTESIAN_POINT('',(0.,0.,0.));
#86 = DIRECTION('',(-0.,-0.,-1.));
#87 = DIRECTION('',(1.,0.,0.));
#88 = ADVANCED_FACE('',(#89,#139),#142,.T.);
#89 = FACE_BOUND('',#90,.T.);
#90 = EDGE_LOOP('',(#91,#101,#109,#117,#125,#133));
#91 = ORIENTED_EDGE('',*,*,#92,.T.);
#92 = EDGE_CURVE('',#93,#95,#97,.T.);
#93 = VERTEX_POINT('',#94);
#94 = CARTESIAN_POINT('',(3.2,0.,1.15));
#95 = VERTEX_POINT('',#96);
#96 = CARTESIAN_POINT('',(1.6,2.77128129211,1.15));
#97 = LINE('',#98,#99);
#98 = CARTESIAN_POINT('',(3.2,0.,1.15));
#99 = VECTOR('',#100,1.);
#100 = DIRECTION('',(-0.5,0.866025403784,0.));
#101 = ORIENTED_EDGE('',*,*,#102,.T.);
#102 = EDGE_CURVE('',#95,#103,#105,.T.);
#103 = VERTEX_POINT('',#104);
#104 = CARTESIAN_POINT('',(-1.6,2.77128129211,1.15));
#105 = LINE('',#106,#107);
#106 = CARTESIAN_POINT('',(1.6,2.77128129211,1.15));
#107 = VECTOR('',#108,1.);
#108 = DIRECTION('',(-1.,2.775557561563E-16,0.));
#109 = ORIENTED_EDGE('',*,*,#110,.T.);
#110 = EDGE_CURVE('',#103,#111,#113,.T.);
#111 = VERTEX_POINT('',#112);
#112 = CARTESIAN_POINT('',(-3.2,1.33226762955E-15,1.15));
#113 = LINE('',#114,#115);
#114 = CARTESIAN_POINT('',(-1.6,2.77128129211,1.15));
#115 = VECTOR('',#116,1.);
#116 = DIRECTION('',(-0.5,-0.866025403784,0.));
#117 = ORIENTED_EDGE('',*,*,#118,.T.);
#118 = EDGE_CURVE('',#111,#119,#121,.T.);
#119 = VERTEX_POINT('',#120);
#120 = CARTESIAN_POINT('',(-1.6,-2.77128129211,1.15));
#121 = LINE('',#122,#123);
#122 = CARTESIAN_POINT('',(-3.2,1.33226762955E-15,1.15));
#123 = VECTOR('',#124,1.);
#124 = DIRECTION('',(0.5,-0.866025403784,0.));
#125 = ORIENTED_EDGE('',*,*,#126,.T.);
#126 = EDGE_CURVE('',#119,#127,#129,.T.);
#127 = VERTEX_POINT('',#128);
#128 = CARTESIAN_POINT('',(1.6,-2.77128129211,1.15));
#129 = LINE('',#130,#131);
#130 = CARTESIAN_POINT('',(-1.6,-2.77128129211,1.15));
#131 = VECTOR('',#132,1.);
#132 = DIRECTION('',(1.,-6.938893903907E-16,0.));
#133 = ORIENTED_EDGE('',*,*,#134,.T.);
#134 = EDGE_CURVE('',#127,#93,#135,.T.);
#135 = LINE('',#136,#137);
#136 = CARTESIAN_POINT('',(1.6,-2.77128129211,1.15));
#137 = VECTOR('',#138,1.);
#138 = DIRECTION('',(0.5,0.866025403784,0.));
#139 = FACE_BOUND('',#140,.T.);
#140 = EDGE_LOOP('',(#141));
#141 = ORIENTED_EDGE('',*,*,#59,.T.);
#142 = PLANE('',#143);
#143 = AXIS2_PLACEMENT_3D('',#144,#145,#146);
#144 = CARTESIAN_POINT('',(-2.775557561563E-16,9.251858538543E-17,1.15)
  );
#145 = DIRECTION('',(0.,0.,1.));
#146 = DIRECTION('',(1.,0.,0.));
#147 = ADVANCED_FACE('',(#148),#151,.T.);
#148 = FACE_BOUND('',#149,.F.);
#149 = EDGE_LOOP('',(#150));
#150 = ORIENTED_EDGE('',*,*,#76,.F.);
#151 = PLANE('',#152);
#152 = AXIS2_PLACEMENT_3D('',#153,#154,#155);
#153 = CARTESIAN_POINT('',(0.,0.,10.));
#154 = DIRECTION('',(0.,0.,1.));
#155 = DIRECTION('',(1.,0.,0.));
#156 = ADVANCED_FACE('',(#157),#182,.F.);
#157 = FACE_BOUND('',#158,.F.);
#158 = EDGE_LOOP('',(#159,#167,#168,#176));
#159 = ORIENTED_EDGE('',*,*,#160,.T.);
#160 = EDGE_CURVE('',#161,#93,#163,.T.);
#161 = VERTEX_POINT('',#162);
#162 = CARTESIAN_POINT('',(3.2,0.,-1.15));
#163 = LINE('',#164,#165);
#164 = CARTESIAN_POINT('',(3.2,0.,-1.15));
#165 = VECTOR('',#166,1.);
#166 = DIRECTION('',(0.,0.,1.));
#167 = ORIENTED_EDGE('',*,*,#92,.T.);
#168 = ORIENTED_EDGE('',*,*,#169,.F.);
#169 = EDGE_CURVE('',#170,#95,#172,.T.);
#170 = VERTEX_POINT('',#171);
#171 = CARTESIAN_POINT('',(1.6,2.77128129211,-1.15));
#172 = LINE('',#173,#174);
#173 = CARTESIAN_POINT('',(1.6,2.77128129211,-1.15));
#174 = VECTOR('',#175,1.);
#175 = DIRECTION('',(0.,0.,1.));
#176 = ORIENTED_EDGE('',*,*,#177,.F.);
#177 = EDGE_CURVE('',#161,#170,#178,.T.);
#178 = LINE('',#179,#180);
#179 = CARTESIAN_POINT('',(3.2,0.,-1.15));
#180 = VECTOR('',#181,1.);
#181 = DIRECTION('',(-0.5,0.866025403784,0.));
#182 = PLANE('',#183);
#183 = AXIS2_PLACEMENT_3D('',#184,#185,#186);
#184 = CARTESIAN_POINT('',(3.2,0.,-1.15));
#185 = DIRECTION('',(-0.866025403784,-0.5,0.));
#186 = DIRECTION('',(-0.5,0.866025403784,0.));
#187 = ADVANCED_FACE('',(#188),#206,.F.);
#188 = FACE_BOUND('',#189,.F.);
#189 = EDGE_LOOP('',(#190,#198,#199,#200));
#190 = ORIENTED_EDGE('',*,*,#191,.T.);
#191 = EDGE_CURVE('',#192,#127,#194,.T.);
#192 = VERTEX_POINT('',#193);
#193 = CARTESIAN_POINT('',(1.6,-2.77128129211,-1.15));
#194 = LINE('',#195,#196);
#195 = CARTESIAN_POINT('',(1.6,-2.77128129211,-1.15));
#196 = VECTOR('',#197,1.);
#197 = DIRECTION('',(0.,0.,1.));
#198 = ORIENTED_EDGE('',*,*,#134,.T.);
#199 = ORIENTED_EDGE('',*,*,#160,.F.);
#200 = ORIENTED_EDGE('',*,*,#201,.F.);
#201 = EDGE_CURVE('',#192,#161,#202,.T.);
#202 = LINE('',#203,#204);
#203 = CARTESIAN_POINT('',(1.6,-2.77128129211,-1.15));
#204 = VECTOR('',#205,1.);
#205 = DIRECTION('',(0.5,0.866025403784,0.));
#206 = PLANE('',#207);
#207 = AXIS2_PLACEMENT_3D('',#208,#209,#210);
#208 = CARTESIAN_POINT('',(1.6,-2.77128129211,-1.15));
#209 = DIRECTION('',(-0.866025403784,0.5,0.));
#210 = DIRECTION('',(0.5,0.866025403784,0.));
#211 = ADVANCED_FACE('',(#212),#230,.F.);
#212 = FACE_BOUND('',#213,.F.);
#213 = EDGE_LOOP('',(#214,#215,#216,#224));
#214 = ORIENTED_EDGE('',*,*,#169,.T.);
#215 = ORIENTED_EDGE('',*,*,#102,.T.);
#216 = ORIENTED_EDGE('',*,*,#217,.F.);
#217 = EDGE_CURVE('',#218,#103,#220,.T.);
#218 = VERTEX_POINT('',#219);
#219 = CARTESIAN_POINT('',(-1.6,2.77128129211,-1.15));
#220 = LINE('',#221,#222);
#221 = CARTESIAN_POINT('',(-1.6,2.77128129211,-1.15));
#222 = VECTOR('',#223,1.);
#223 = DIRECTION('',(0.,0.,1.));
#224 = ORIENTED_EDGE('',*,*,#225,.F.);
#225 = EDGE_CURVE('',#170,#218,#226,.T.);
#226 = LINE('',#227,#228);
#227 = CARTESIAN_POINT('',(1.6,2.77128129211,-1.15));
#228 = VECTOR('',#229,1.);
#229 = DIRECTION('',(-1.,2.775557561563E-16,0.));
#230 = PLANE('',#231);
#231 = AXIS2_PLACEMENT_3D('',#232,#233,#234);
#232 = CARTESIAN_POINT('',(1.6,2.77128129211,-1.15));
#233 = DIRECTION('',(-2.775557561563E-16,-1.,0.));
#234 = DIRECTION('',(-1.,2.775557561563E-16,0.));
#235 = ADVANCED_FACE('',(#236),#254,.F.);
#236 = FACE_BOUND('',#237,.F.);
#237 = EDGE_LOOP('',(#238,#246,#247,#248));
#238 = ORIENTED_EDGE('',*,*,#239,.T.);
#239 = EDGE_CURVE('',#240,#119,#242,.T.);
#240 = VERTEX_POINT('',#241);
#241 = CARTESIAN_POINT('',(-1.6,-2.77128129211,-1.15));
#242 = LINE('',#243,#244);
#243 = CARTESIAN_POINT('',(-1.6,-2.77128129211,-1.15));
#244 = VECTOR('',#245,1.);
#245 = DIRECTION('',(0.,0.,1.));
#246 = ORIENTED_EDGE('',*,*,#126,.T.);
#247 = ORIENTED_EDGE('',*,*,#191,.F.);
#248 = ORIENTED_EDGE('',*,*,#249,.F.);
#249 = EDGE_CURVE('',#240,#192,#250,.T.);
#250 = LINE('',#251,#252);
#251 = CARTESIAN_POINT('',(-1.6,-2.77128129211,-1.15));
#252 = VECTOR('',#253,1.);
#253 = DIRECTION('',(1.,-6.938893903907E-16,0.));
#254 = PLANE('',#255);
#255 = AXIS2_PLACEMENT_3D('',#256,#257,#258);
#256 = CARTESIAN_POINT('',(-1.6,-2.77128129211,-1.15));
#257 = DIRECTION('',(6.938893903907E-16,1.,0.));
#258 = DIRECTION('',(1.,-6.938893903907E-16,0.));
#259 = ADVANCED_FACE('',(#260),#278,.F.);
#260 = FACE_BOUND('',#261,.F.);
#261 = EDGE_LOOP('',(#262,#263,#264,#272));
#262 = ORIENTED_EDGE('',*,*,#217,.T.);
#263 = ORIENTED_EDGE('',*,*,#110,.T.);
#264 = ORIENTED_EDGE('',*,*,#265,.F.);
#265 = EDGE_CURVE('',#266,#111,#268,.T.);
#266 = VERTEX_POINT('',#267);
#267 = CARTESIAN_POINT('',(-3.2,1.33226762955E-15,-1.15));
#268 = LINE('',#269,#270);
#269 = CARTESIAN_POINT('',(-3.2,1.33226762955E-15,-1.15));
#270 = VECTOR('',#271,1.);
#271 = DIRECTION('',(0.,0.,1.));
#272 = ORIENTED_EDGE('',*,*,#273,.F.);
#273 = EDGE_CURVE('',#218,#266,#274,.T.);
#274 = LINE('',#275,#276);
#275 = CARTESIAN_POINT('',(-1.6,2.77128129211,-1.15));
#276 = VECTOR('',#277,1.);
#277 = DIRECTION('',(-0.5,-0.866025403784,0.));
#278 = PLANE('',#279);
#279 = AXIS2_PLACEMENT_3D('',#280,#281,#282);
#280 = CARTESIAN_POINT('',(-1.6,2.77128129211,-1.15));
#281 = DIRECTION('',(0.866025403784,-0.5,0.));
#282 = DIRECTION('',(-0.5,-0.866025403784,0.));
#283 = ADVANCED_FACE('',(#284),#295,.F.);
#284 = FACE_BOUND('',#285,.F.);
#285 = EDGE_LOOP('',(#286,#287,#288,#289));
#286 = ORIENTED_EDGE('',*,*,#265,.T.);
#287 = ORIENTED_EDGE('',*,*,#118,.T.);
#288 = ORIENTED_EDGE('',*,*,#239,.F.);
#289 = ORIENTED_EDGE('',*,*,#290,.F.);
#290 = EDGE_CURVE('',#266,#240,#291,.T.);
#291 = LINE('',#292,#293);
#292 = CARTESIAN_POINT('',(-3.2,1.33226762955E-15,-1.15));
#293 = VECTOR('',#294,1.);
#294 = DIRECTION('',(0.5,-0.866025403784,0.));
#295 = PLANE('',#296);
#296 = AXIS2_PLACEMENT_3D('',#297,#298,#299);
#297 = CARTESIAN_POINT('',(-3.2,1.33226762955E-15,-1.15));
#298 = DIRECTION('',(0.866025403784,0.5,0.));
#299 = DIRECTION('',(0.5,-0.866025403784,0.));
#300 = ADVANCED_FACE('',(#301),#309,.F.);
#301 = FACE_BOUND('',#302,.F.);
#302 = EDGE_LOOP('',(#303,#304,#305,#306,#307,#308));
#303 = ORIENTED_EDGE('',*,*,#177,.T.);
#304 = ORIENTED_EDGE('',*,*,#225,.T.);
#305 = ORIENTED_EDGE('',*,*,#273,.T.);
#306 = ORIENTED_EDGE('',*,*,#290,.T.);
#307 = ORIENTED_EDGE('',*,*,#249,.T.);
#308 = ORIENTED_EDGE('',*,*,#201,.T.);
#309 = PLANE('',#310);
#310 = AXIS2_PLACEMENT_3D('',#311,#312,#313);
#311 = CARTESIAN_POINT('',(-2.775557561563E-16,9.251858538543E-17,-1.15)
  );
#312 = DIRECTION('',(0.,0.,1.));
#313 = DIRECTION('',(1.,0.,0.));
#314 = ( GEOMETRIC_REPRESENTATION_CONTEXT(3) 
GLOBAL_UNCERTAINTY_ASSIGNED_CONTEXT((#318)) GLOBAL_UNIT_ASSIGNED_CONTEXT
((#315,#316,#317)) REPRESENTATION_CONTEXT('Context #1',
  '3D Context with UNIT and UNCERTAINTY') );
#315 = ( LENGTH_UNIT() NAMED_UNIT(*) SI_UNIT(.MILLI.,.METRE.) );
#316 = ( NAMED_UNIT(*) PLANE_ANGLE_UNIT() SI_UNIT($,.RADIAN.) );
#317 = ( NAMED_UNIT(*) SI_UNIT($,.STERADIAN.) SOLID_ANGLE_UNIT() );
#318 = UNCERTAINTY_MEASURE_WITH_UNIT(LENGTH_MEASURE(1.E-07),#315,
  'distance_accuracy_value','confusion accuracy');
#319 = CONTEXT_DEPENDENT_SHAPE_REPRESENTATION(#320,#322);
#320 = ( REPRESENTATION_RELATIONSHIP('','',#52,#10) 
REPRESENTATION_RELATIONSHIP_WITH_TRANSFORMATION(#321) 
SHAPE_REPRESENTATION_RELATIONSHIP() );
#321 = ITEM_DEFINED_TRANSFORMATION('','',#11,#15);
#322 = PRODUCT_DEFINITION_SHAPE('Placement','Placement of an item',#323
  );
#323 = NEXT_ASSEMBLY_USAGE_OCCURRENCE('44','Group','',#5,#47,$);
#324 = PRODUCT_RELATED_PRODUCT_CATEGORY('part',$,(#49));
#325 = SHAPE_DEFINITION_REPRESENTATION(#326,#332);
#326 = PRODUCT_DEFINITION_SHAPE('','',#327);
#327 = PRODUCT_DEFINITION('design','',#328,#331);
#328 = PRODUCT_DEFINITION_FORMATION('','',#329);
#329 = PRODUCT('Group001','Group001','',(#330));
#330 = PRODUCT_CONTEXT('',#2,'mechanical');
#331 = PRODUCT_DEFINITION_CONTEXT('part definition',#2,'design');
#332 = ADVANCED_BREP_SHAPE_REPRESENTATION('',(#11,#333),#594);
#333 = MANIFOLD_SOLID_BREP('',#334);
#334 = CLOSED_SHELL('',(#335,#368,#427,#436,#467,#491,#515,#539,#563,
    #580));
#335 = ADVANCED_FACE('',(#336),#363,.T.);
#336 = FACE_BOUND('',#337,.F.);
#337 = EDGE_LOOP('',(#338,#347,#355,#362));
#338 = ORIENTED_EDGE('',*,*,#339,.T.);
#339 = EDGE_CURVE('',#340,#340,#342,.T.);
#340 = VERTEX_POINT('',#341);
#341 = CARTESIAN_POINT('',(2.2,-5.388445916248E-16,1.65));
#342 = CIRCLE('',#343,2.2);
#343 = AXIS2_PLACEMENT_3D('',#344,#345,#346);
#344 = CARTESIAN_POINT('',(0.,0.,1.65));
#345 = DIRECTION('',(0.,0.,-1.));
#346 = DIRECTION('',(1.,0.,0.));
#347 = ORIENTED_EDGE('',*,*,#348,.T.);
#348 = EDGE_CURVE('',#340,#349,#351,.T.);
#349 = VERTEX_POINT('',#350);
#350 = CARTESIAN_POINT('',(2.2,-5.388445916248E-16,10.));
#351 = LINE('',#352,#353);
#352 = CARTESIAN_POINT('',(2.2,-5.388445916248E-16,0.));
#353 = VECTOR('',#354,1.);
#354 = DIRECTION('',(0.,0.,1.));
#355 = ORIENTED_EDGE('',*,*,#356,.T.);
#356 = EDGE_CURVE('',#349,#349,#357,.T.);
#357 = CIRCLE('',#358,2.2);
#358 = AXIS2_PLACEMENT_3D('',#359,#360,#361);
#359 = CARTESIAN_POINT('',(0.,0.,10.));
#360 = DIRECTION('',(0.,0.,1.));
#361 = DIRECTION('',(1.,0.,0.));
#362 = ORIENTED_EDGE('',*,*,#348,.F.);
#363 = CYLINDRICAL_SURFACE('',#364,2.2);
#364 = AXIS2_PLACEMENT_3D('',#365,#366,#367);
#365 = CARTESIAN_POINT('',(0.,0.,0.));
#366 = DIRECTION('',(-0.,-0.,-1.));
#367 = DIRECTION('',(1.,0.,0.));
#368 = ADVANCED_FACE('',(#369,#419),#422,.T.);
#369 = FACE_BOUND('',#370,.T.);
#370 = EDGE_LOOP('',(#371,#381,#389,#397,#405,#413));
#371 = ORIENTED_EDGE('',*,*,#372,.T.);
#372 = EDGE_CURVE('',#373,#375,#377,.T.);
#373 = VERTEX_POINT('',#374);
#374 = CARTESIAN_POINT('',(3.95,0.,1.65));
#375 = VERTEX_POINT('',#376);
#376 = CARTESIAN_POINT('',(1.975,3.420800344949,1.65));
#377 = LINE('',#378,#379);
#378 = CARTESIAN_POINT('',(3.95,0.,1.65));
#379 = VECTOR('',#380,1.);
#380 = DIRECTION('',(-0.5,0.866025403784,0.));
#381 = ORIENTED_EDGE('',*,*,#382,.T.);
#382 = EDGE_CURVE('',#375,#383,#385,.T.);
#383 = VERTEX_POINT('',#384);
#384 = CARTESIAN_POINT('',(-1.975,3.420800344949,1.65));
#385 = LINE('',#386,#387);
#386 = CARTESIAN_POINT('',(1.975,3.420800344949,1.65));
#387 = VECTOR('',#388,1.);
#388 = DIRECTION('',(-1.,2.248552961266E-16,0.));
#389 = ORIENTED_EDGE('',*,*,#390,.T.);
#390 = EDGE_CURVE('',#383,#391,#393,.T.);
#391 = VERTEX_POINT('',#392);
#392 = CARTESIAN_POINT('',(-3.95,1.554312234475E-15,1.65));
#393 = LINE('',#394,#395);
#394 = CARTESIAN_POINT('',(-1.975,3.420800344949,1.65));
#395 = VECTOR('',#396,1.);
#396 = DIRECTION('',(-0.5,-0.866025403784,0.));
#397 = ORIENTED_EDGE('',*,*,#398,.T.);
#398 = EDGE_CURVE('',#391,#399,#401,.T.);
#399 = VERTEX_POINT('',#400);
#400 = CARTESIAN_POINT('',(-1.975,-3.420800344949,1.65));
#401 = LINE('',#402,#403);
#402 = CARTESIAN_POINT('',(-3.95,1.554312234475E-15,1.65));
#403 = VECTOR('',#404,1.);
#404 = DIRECTION('',(0.5,-0.866025403784,0.));
#405 = ORIENTED_EDGE('',*,*,#406,.T.);
#406 = EDGE_CURVE('',#399,#407,#409,.T.);
#407 = VERTEX_POINT('',#408);
#408 = CARTESIAN_POINT('',(1.975,-3.420800344949,1.65));
#409 = LINE('',#410,#411);
#410 = CARTESIAN_POINT('',(-1.975,-3.420800344949,1.65));
#411 = VECTOR('',#412,1.);
#412 = DIRECTION('',(1.,-5.621382403165E-16,0.));
#413 = ORIENTED_EDGE('',*,*,#414,.T.);
#414 = EDGE_CURVE('',#407,#373,#415,.T.);
#415 = LINE('',#416,#417);
#416 = CARTESIAN_POINT('',(1.975,-3.420800344949,1.65));
#417 = VECTOR('',#418,1.);
#418 = DIRECTION('',(0.5,0.866025403784,0.));
#419 = FACE_BOUND('',#420,.T.);
#420 = EDGE_LOOP('',(#421));
#421 = ORIENTED_EDGE('',*,*,#339,.T.);
#422 = PLANE('',#423);
#423 = AXIS2_PLACEMENT_3D('',#424,#425,#426);
#424 = CARTESIAN_POINT('',(-2.623311788144E-16,0.,1.65));
#425 = DIRECTION('',(0.,0.,1.));
#426 = DIRECTION('',(1.,0.,0.));
#427 = ADVANCED_FACE('',(#428),#431,.T.);
#428 = FACE_BOUND('',#429,.F.);
#429 = EDGE_LOOP('',(#430));
#430 = ORIENTED_EDGE('',*,*,#356,.F.);
#431 = PLANE('',#432);
#432 = AXIS2_PLACEMENT_3D('',#433,#434,#435);
#433 = CARTESIAN_POINT('',(0.,0.,10.));
#434 = DIRECTION('',(0.,0.,1.));
#435 = DIRECTION('',(1.,0.,0.));
#436 = ADVANCED_FACE('',(#437),#462,.F.);
#437 = FACE_BOUND('',#438,.F.);
#438 = EDGE_LOOP('',(#439,#447,#448,#456));
#439 = ORIENTED_EDGE('',*,*,#440,.T.);
#440 = EDGE_CURVE('',#441,#373,#443,.T.);
#441 = VERTEX_POINT('',#442);
#442 = CARTESIAN_POINT('',(3.95,0.,-1.65));
#443 = LINE('',#444,#445);
#444 = CARTESIAN_POINT('',(3.95,0.,-1.65));
#445 = VECTOR('',#446,1.);
#446 = DIRECTION('',(0.,0.,1.));
#447 = ORIENTED_EDGE('',*,*,#372,.T.);
#448 = ORIENTED_EDGE('',*,*,#449,.F.);
#449 = EDGE_CURVE('',#450,#375,#452,.T.);
#450 = VERTEX_POINT('',#451);
#451 = CARTESIAN_POINT('',(1.975,3.420800344949,-1.65));
#452 = LINE('',#453,#454);
#453 = CARTESIAN_POINT('',(1.975,3.420800344949,-1.65));
#454 = VECTOR('',#455,1.);
#455 = DIRECTION('',(0.,0.,1.));
#456 = ORIENTED_EDGE('',*,*,#457,.F.);
#457 = EDGE_CURVE('',#441,#450,#458,.T.);
#458 = LINE('',#459,#460);
#459 = CARTESIAN_POINT('',(3.95,0.,-1.65));
#460 = VECTOR('',#461,1.);
#461 = DIRECTION('',(-0.5,0.866025403784,0.));
#462 = PLANE('',#463);
#463 = AXIS2_PLACEMENT_3D('',#464,#465,#466);
#464 = CARTESIAN_POINT('',(3.95,0.,-1.65));
#465 = DIRECTION('',(-0.866025403784,-0.5,0.));
#466 = DIRECTION('',(-0.5,0.866025403784,0.));
#467 = ADVANCED_FACE('',(#468),#486,.F.);
#468 = FACE_BOUND('',#469,.F.);
#469 = EDGE_LOOP('',(#470,#478,#479,#480));
#470 = ORIENTED_EDGE('',*,*,#471,.T.);
#471 = EDGE_CURVE('',#472,#407,#474,.T.);
#472 = VERTEX_POINT('',#473);
#473 = CARTESIAN_POINT('',(1.975,-3.420800344949,-1.65));
#474 = LINE('',#475,#476);
#475 = CARTESIAN_POINT('',(1.975,-3.420800344949,-1.65));
#476 = VECTOR('',#477,1.);
#477 = DIRECTION('',(0.,0.,1.));
#478 = ORIENTED_EDGE('',*,*,#414,.T.);
#479 = ORIENTED_EDGE('',*,*,#440,.F.);
#480 = ORIENTED_EDGE('',*,*,#481,.F.);
#481 = EDGE_CURVE('',#472,#441,#482,.T.);
#482 = LINE('',#483,#484);
#483 = CARTESIAN_POINT('',(1.975,-3.420800344949,-1.65));
#484 = VECTOR('',#485,1.);
#485 = DIRECTION('',(0.5,0.866025403784,0.));
#486 = PLANE('',#487);
#487 = AXIS2_PLACEMENT_3D('',#488,#489,#490);
#488 = CARTESIAN_POINT('',(1.975,-3.420800344949,-1.65));
#489 = DIRECTION('',(-0.866025403784,0.5,0.));
#490 = DIRECTION('',(0.5,0.866025403784,0.));
#491 = ADVANCED_FACE('',(#492),#510,.F.);
#492 = FACE_BOUND('',#493,.F.);
#493 = EDGE_LOOP('',(#494,#495,#496,#504));
#494 = ORIENTED_EDGE('',*,*,#449,.T.);
#495 = ORIENTED_EDGE('',*,*,#382,.T.);
#496 = ORIENTED_EDGE('',*,*,#497,.F.);
#497 = EDGE_CURVE('',#498,#383,#500,.T.);
#498 = VERTEX_POINT('',#499);
#499 = CARTESIAN_POINT('',(-1.975,3.420800344949,-1.65));
#500 = LINE('',#501,#502);
#501 = CARTESIAN_POINT('',(-1.975,3.420800344949,-1.65));
#502 = VECTOR('',#503,1.);
#503 = DIRECTION('',(0.,0.,1.));
#504 = ORIENTED_EDGE('',*,*,#505,.F.);
#505 = EDGE_CURVE('',#450,#498,#506,.T.);
#506 = LINE('',#507,#508);
#507 = CARTESIAN_POINT('',(1.975,3.420800344949,-1.65));
#508 = VECTOR('',#509,1.);
#509 = DIRECTION('',(-1.,2.248552961266E-16,0.));
#510 = PLANE('',#511);
#511 = AXIS2_PLACEMENT_3D('',#512,#513,#514);
#512 = CARTESIAN_POINT('',(1.975,3.420800344949,-1.65));
#513 = DIRECTION('',(-2.248552961266E-16,-1.,0.));
#514 = DIRECTION('',(-1.,2.248552961266E-16,0.));
#515 = ADVANCED_FACE('',(#516),#534,.F.);
#516 = FACE_BOUND('',#517,.F.);
#517 = EDGE_LOOP('',(#518,#526,#527,#528));
#518 = ORIENTED_EDGE('',*,*,#519,.T.);
#519 = EDGE_CURVE('',#520,#399,#522,.T.);
#520 = VERTEX_POINT('',#521);
#521 = CARTESIAN_POINT('',(-1.975,-3.420800344949,-1.65));
#522 = LINE('',#523,#524);
#523 = CARTESIAN_POINT('',(-1.975,-3.420800344949,-1.65));
#524 = VECTOR('',#525,1.);
#525 = DIRECTION('',(0.,0.,1.));
#526 = ORIENTED_EDGE('',*,*,#406,.T.);
#527 = ORIENTED_EDGE('',*,*,#471,.F.);
#528 = ORIENTED_EDGE('',*,*,#529,.F.);
#529 = EDGE_CURVE('',#520,#472,#530,.T.);
#530 = LINE('',#531,#532);
#531 = CARTESIAN_POINT('',(-1.975,-3.420800344949,-1.65));
#532 = VECTOR('',#533,1.);
#533 = DIRECTION('',(1.,-5.621382403165E-16,0.));
#534 = PLANE('',#535);
#535 = AXIS2_PLACEMENT_3D('',#536,#537,#538);
#536 = CARTESIAN_POINT('',(-1.975,-3.420800344949,-1.65));
#537 = DIRECTION('',(5.621382403165E-16,1.,0.));
#538 = DIRECTION('',(1.,-5.621382403165E-16,0.));
#539 = ADVANCED_FACE('',(#540),#558,.F.);
#540 = FACE_BOUND('',#541,.F.);
#541 = EDGE_LOOP('',(#542,#543,#544,#552));
#542 = ORIENTED_EDGE('',*,*,#497,.T.);
#543 = ORIENTED_EDGE('',*,*,#390,.T.);
#544 = ORIENTED_EDGE('',*,*,#545,.F.);
#545 = EDGE_CURVE('',#546,#391,#548,.T.);
#546 = VERTEX_POINT('',#547);
#547 = CARTESIAN_POINT('',(-3.95,1.554312234475E-15,-1.65));
#548 = LINE('',#549,#550);
#549 = CARTESIAN_POINT('',(-3.95,1.554312234475E-15,-1.65));
#550 = VECTOR('',#551,1.);
#551 = DIRECTION('',(0.,0.,1.));
#552 = ORIENTED_EDGE('',*,*,#553,.F.);
#553 = EDGE_CURVE('',#498,#546,#554,.T.);
#554 = LINE('',#555,#556);
#555 = CARTESIAN_POINT('',(-1.975,3.420800344949,-1.65));
#556 = VECTOR('',#557,1.);
#557 = DIRECTION('',(-0.5,-0.866025403784,0.));
#558 = PLANE('',#559);
#559 = AXIS2_PLACEMENT_3D('',#560,#561,#562);
#560 = CARTESIAN_POINT('',(-1.975,3.420800344949,-1.65));
#561 = DIRECTION('',(0.866025403784,-0.5,0.));
#562 = DIRECTION('',(-0.5,-0.866025403784,0.));
#563 = ADVANCED_FACE('',(#564),#575,.F.);
#564 = FACE_BOUND('',#565,.F.);
#565 = EDGE_LOOP('',(#566,#567,#568,#569));
#566 = ORIENTED_EDGE('',*,*,#545,.T.);
#567 = ORIENTED_EDGE('',*,*,#398,.T.);
#568 = ORIENTED_EDGE('',*,*,#519,.F.);
#569 = ORIENTED_EDGE('',*,*,#570,.F.);
#570 = EDGE_CURVE('',#546,#520,#571,.T.);
#571 = LINE('',#572,#573);
#572 = CARTESIAN_POINT('',(-3.95,1.554312234475E-15,-1.65));
#573 = VECTOR('',#574,1.);
#574 = DIRECTION('',(0.5,-0.866025403784,0.));
#575 = PLANE('',#576);
#576 = AXIS2_PLACEMENT_3D('',#577,#578,#579);
#577 = CARTESIAN_POINT('',(-3.95,1.554312234475E-15,-1.65));
#578 = DIRECTION('',(0.866025403784,0.5,0.));
#579 = DIRECTION('',(0.5,-0.866025403784,0.));
#580 = ADVANCED_FACE('',(#581),#589,.F.);
#581 = FACE_BOUND('',#582,.F.);
#582 = EDGE_LOOP('',(#583,#584,#585,#586,#587,#588));
#583 = ORIENTED_EDGE('',*,*,#457,.T.);
#584 = ORIENTED_EDGE('',*,*,#505,.T.);
#585 = ORIENTED_EDGE('',*,*,#553,.T.);
#586 = ORIENTED_EDGE('',*,*,#570,.T.);
#587 = ORIENTED_EDGE('',*,*,#529,.T.);
#588 = ORIENTED_EDGE('',*,*,#481,.T.);
#589 = PLANE('',#590);
#590 = AXIS2_PLACEMENT_3D('',#591,#592,#593);
#591 = CARTESIAN_POINT('',(-2.623311788144E-16,0.,-1.65));
#592 = DIRECTION('',(0.,0.,1.));
#593 = DIRECTION('',(1.,0.,0.));
#594 = ( GEOMETRIC_REPRESENTATION_CONTEXT(3) 
GLOBAL_UNCERTAINTY_ASSIGNED_CONTEXT((#598)) GLOBAL_UNIT_ASSIGNED_CONTEXT
((#595,#596,#597)) REPRESENTATION_CONTEXT('Context #1',
  '3D Context with UNIT and UNCERTAINTY') );
#595 = ( LENGTH_UNIT() NAMED_UNIT(*) SI_UNIT(.MILLI.,.METRE.) );
#596 = ( NAMED_UNIT(*) PLANE_ANGLE_UNIT() SI_UNIT($,.RADIAN.) );
#597 = ( NAMED_UNIT(*) SI_UNIT($,.STERADIAN.) SOLID_ANGLE_UNIT() );
#598 = UNCERTAINTY_MEASURE_WITH_UNIT(LENGTH_MEASURE(1.E-07),#595,
  'distance_accuracy_value','confusion accuracy');
#599 = CONTEXT_DEPENDENT_SHAPE_REPRESENTATION(#600,#602);
#600 = ( REPRESENTATION_RELATIONSHIP('','',#332,#10) 
REPRESENTATION_RELATIONSHIP_WITH_TRANSFORMATION(#601) 
SHAPE_REPRESENTATION_RELATIONSHIP() );
#601 = ITEM_DEFINED_TRANSFORMATION('','',#11,#19);
#602 = PRODUCT_DEFINITION_SHAPE('Placement','Placement of an item',#603
  );
#603 = NEXT_ASSEMBLY_USAGE_OCCURRENCE('45','Group001','',#5,#327,$);
#604 = PRODUCT_RELATED_PRODUCT_CATEGORY('part',$,(#329));
#605 = SHAPE_DEFINITION_REPRESENTATION(#606,#612);
#606 = PRODUCT_DEFINITION_SHAPE('','',#607);
#607 = PRODUCT_DEFINITION('design','',#608,#611);
#608 = PRODUCT_DEFINITION_FORMATION('','',#609);
#609 = PRODUCT('Group002','Group002','',(#610));
#610 = PRODUCT_CONTEXT('',#2,'mechanical');
#611 = PRODUCT_DEFINITION_CONTEXT('part definition',#2,'design');
#612 = ADVANCED_BREP_SHAPE_REPRESENTATION('',(#11,#613),#874);
#613 = MANIFOLD_SOLID_BREP('',#614);
#614 = CLOSED_SHELL('',(#615,#648,#707,#716,#747,#771,#795,#819,#843,
    #860));
#615 = ADVANCED_FACE('',(#616),#643,.T.);
#616 = FACE_BOUND('',#617,.F.);
#617 = EDGE_LOOP('',(#618,#627,#635,#642));
#618 = ORIENTED_EDGE('',*,*,#619,.T.);
#619 = EDGE_CURVE('',#620,#620,#622,.T.);
#620 = VERTEX_POINT('',#621);
#621 = CARTESIAN_POINT('',(2.7,-6.613092715396E-16,2.));
#622 = CIRCLE('',#623,2.7);
#623 = AXIS2_PLACEMENT_3D('',#624,#625,#626);
#624 = CARTESIAN_POINT('',(0.,0.,2.));
#625 = DIRECTION('',(0.,0.,-1.));
#626 = DIRECTION('',(1.,0.,0.));
#627 = ORIENTED_EDGE('',*,*,#628,.T.);
#628 = EDGE_CURVE('',#620,#629,#631,.T.);
#629 = VERTEX_POINT('',#630);
#630 = CARTESIAN_POINT('',(2.7,-6.613092715396E-16,10.));
#631 = LINE('',#632,#633);
#632 = CARTESIAN_POINT('',(2.7,-6.613092715396E-16,0.));
#633 = VECTOR('',#634,1.);
#634 = DIRECTION('',(0.,0.,1.));
#635 = ORIENTED_EDGE('',*,*,#636,.T.);
#636 = EDGE_CURVE('',#629,#629,#637,.T.);
#637 = CIRCLE('',#638,2.7);
#638 = AXIS2_PLACEMENT_3D('',#639,#640,#641);
#639 = CARTESIAN_POINT('',(0.,0.,10.));
#640 = DIRECTION('',(0.,0.,1.));
#641 = DIRECTION('',(1.,0.,0.));
#642 = ORIENTED_EDGE('',*,*,#628,.F.);
#643 = CYLINDRICAL_SURFACE('',#644,2.7);
#644 = AXIS2_PLACEMENT_3D('',#645,#646,#647);
#645 = CARTESIAN_POINT('',(0.,0.,0.));
#646 = DIRECTION('',(-0.,-0.,-1.));
#647 = DIRECTION('',(1.,0.,0.));
#648 = ADVANCED_FACE('',(#649,#699),#702,.T.);
#649 = FACE_BOUND('',#650,.T.);
#650 = EDGE_LOOP('',(#651,#661,#669,#677,#685,#693));
#651 = ORIENTED_EDGE('',*,*,#652,.T.);
#652 = EDGE_CURVE('',#653,#655,#657,.T.);
#653 = VERTEX_POINT('',#654);
#654 = CARTESIAN_POINT('',(4.95,0.,2.));
#655 = VERTEX_POINT('',#656);
#656 = CARTESIAN_POINT('',(2.475,4.286825748733,2.));
#657 = LINE('',#658,#659);
#658 = CARTESIAN_POINT('',(4.95,0.,2.));
#659 = VECTOR('',#660,1.);
#660 = DIRECTION('',(-0.5,0.866025403784,0.));
#661 = ORIENTED_EDGE('',*,*,#662,.T.);
#662 = EDGE_CURVE('',#655,#663,#665,.T.);
#663 = VERTEX_POINT('',#664);
#664 = CARTESIAN_POINT('',(-2.475,4.286825748733,2.));
#665 = LINE('',#666,#667);
#666 = CARTESIAN_POINT('',(2.475,4.286825748733,2.));
#667 = VECTOR('',#668,1.);
#668 = DIRECTION('',(-1.,1.794299837778E-16,0.));
#669 = ORIENTED_EDGE('',*,*,#670,.T.);
#670 = EDGE_CURVE('',#663,#671,#673,.T.);
#671 = VERTEX_POINT('',#672);
#672 = CARTESIAN_POINT('',(-4.95,1.7763568394E-15,2.));
#673 = LINE('',#674,#675);
#674 = CARTESIAN_POINT('',(-2.475,4.286825748733,2.));
#675 = VECTOR('',#676,1.);
#676 = DIRECTION('',(-0.5,-0.866025403784,0.));
#677 = ORIENTED_EDGE('',*,*,#678,.T.);
#678 = EDGE_CURVE('',#671,#679,#681,.T.);
#679 = VERTEX_POINT('',#680);
#680 = CARTESIAN_POINT('',(-2.475,-4.286825748733,2.));
#681 = LINE('',#682,#683);
#682 = CARTESIAN_POINT('',(-4.95,1.7763568394E-15,2.));
#683 = VECTOR('',#684,1.);
#684 = DIRECTION('',(0.5,-0.866025403784,0.));
#685 = ORIENTED_EDGE('',*,*,#686,.T.);
#686 = EDGE_CURVE('',#679,#687,#689,.T.);
#687 = VERTEX_POINT('',#688);
#688 = CARTESIAN_POINT('',(2.475,-4.286825748733,2.));
#689 = LINE('',#690,#691);
#690 = CARTESIAN_POINT('',(-2.475,-4.286825748733,2.));
#691 = VECTOR('',#692,1.);
#692 = DIRECTION('',(1.,-5.382899513334E-16,0.));
#693 = ORIENTED_EDGE('',*,*,#694,.T.);
#694 = EDGE_CURVE('',#687,#653,#695,.T.);
#695 = LINE('',#696,#697);
#696 = CARTESIAN_POINT('',(2.475,-4.286825748733,2.));
#697 = VECTOR('',#698,1.);
#698 = DIRECTION('',(0.5,0.866025403784,0.));
#699 = FACE_BOUND('',#700,.T.);
#700 = EDGE_LOOP('',(#701));
#701 = ORIENTED_EDGE('',*,*,#619,.T.);
#702 = PLANE('',#703);
#703 = AXIS2_PLACEMENT_3D('',#704,#705,#706);
#704 = CARTESIAN_POINT('',(1.794299837778E-16,-5.98099945926E-17,2.));
#705 = DIRECTION('',(0.,0.,1.));
#706 = DIRECTION('',(1.,0.,0.));
#707 = ADVANCED_FACE('',(#708),#711,.T.);
#708 = FACE_BOUND('',#709,.F.);
#709 = EDGE_LOOP('',(#710));
#710 = ORIENTED_EDGE('',*,*,#636,.F.);
#711 = PLANE('',#712);
#712 = AXIS2_PLACEMENT_3D('',#713,#714,#715);
#713 = CARTESIAN_POINT('',(0.,0.,10.));
#714 = DIRECTION('',(0.,0.,1.));
#715 = DIRECTION('',(1.,0.,0.));
#716 = ADVANCED_FACE('',(#717),#742,.F.);
#717 = FACE_BOUND('',#718,.F.);
#718 = EDGE_LOOP('',(#719,#727,#728,#736));
#719 = ORIENTED_EDGE('',*,*,#720,.T.);
#720 = EDGE_CURVE('',#721,#653,#723,.T.);
#721 = VERTEX_POINT('',#722);
#722 = CARTESIAN_POINT('',(4.95,0.,-2.));
#723 = LINE('',#724,#725);
#724 = CARTESIAN_POINT('',(4.95,0.,-2.));
#725 = VECTOR('',#726,1.);
#726 = DIRECTION('',(0.,0.,1.));
#727 = ORIENTED_EDGE('',*,*,#652,.T.);
#728 = ORIENTED_EDGE('',*,*,#729,.F.);
#729 = EDGE_CURVE('',#730,#655,#732,.T.);
#730 = VERTEX_POINT('',#731);
#731 = CARTESIAN_POINT('',(2.475,4.286825748733,-2.));
#732 = LINE('',#733,#734);
#733 = CARTESIAN_POINT('',(2.475,4.286825748733,-2.));
#734 = VECTOR('',#735,1.);
#735 = DIRECTION('',(0.,0.,1.));
#736 = ORIENTED_EDGE('',*,*,#737,.F.);
#737 = EDGE_CURVE('',#721,#730,#738,.T.);
#738 = LINE('',#739,#740);
#739 = CARTESIAN_POINT('',(4.95,0.,-2.));
#740 = VECTOR('',#741,1.);
#741 = DIRECTION('',(-0.5,0.866025403784,0.));
#742 = PLANE('',#743);
#743 = AXIS2_PLACEMENT_3D('',#744,#745,#746);
#744 = CARTESIAN_POINT('',(4.95,0.,-2.));
#745 = DIRECTION('',(-0.866025403784,-0.5,0.));
#746 = DIRECTION('',(-0.5,0.866025403784,0.));
#747 = ADVANCED_FACE('',(#748),#766,.F.);
#748 = FACE_BOUND('',#749,.F.);
#749 = EDGE_LOOP('',(#750,#758,#759,#760));
#750 = ORIENTED_EDGE('',*,*,#751,.T.);
#751 = EDGE_CURVE('',#752,#687,#754,.T.);
#752 = VERTEX_POINT('',#753);
#753 = CARTESIAN_POINT('',(2.475,-4.286825748733,-2.));
#754 = LINE('',#755,#756);
#755 = CARTESIAN_POINT('',(2.475,-4.286825748733,-2.));
#756 = VECTOR('',#757,1.);
#757 = DIRECTION('',(0.,0.,1.));
#758 = ORIENTED_EDGE('',*,*,#694,.T.);
#759 = ORIENTED_EDGE('',*,*,#720,.F.);
#760 = ORIENTED_EDGE('',*,*,#761,.F.);
#761 = EDGE_CURVE('',#752,#721,#762,.T.);
#762 = LINE('',#763,#764);
#763 = CARTESIAN_POINT('',(2.475,-4.286825748733,-2.));
#764 = VECTOR('',#765,1.);
#765 = DIRECTION('',(0.5,0.866025403784,0.));
#766 = PLANE('',#767);
#767 = AXIS2_PLACEMENT_3D('',#768,#769,#770);
#768 = CARTESIAN_POINT('',(2.475,-4.286825748733,-2.));
#769 = DIRECTION('',(-0.866025403784,0.5,0.));
#770 = DIRECTION('',(0.5,0.866025403784,0.));
#771 = ADVANCED_FACE('',(#772),#790,.F.);
#772 = FACE_BOUND('',#773,.F.);
#773 = EDGE_LOOP('',(#774,#775,#776,#784));
#774 = ORIENTED_EDGE('',*,*,#729,.T.);
#775 = ORIENTED_EDGE('',*,*,#662,.T.);
#776 = ORIENTED_EDGE('',*,*,#777,.F.);
#777 = EDGE_CURVE('',#778,#663,#780,.T.);
#778 = VERTEX_POINT('',#779);
#779 = CARTESIAN_POINT('',(-2.475,4.286825748733,-2.));
#780 = LINE('',#781,#782);
#781 = CARTESIAN_POINT('',(-2.475,4.286825748733,-2.));
#782 = VECTOR('',#783,1.);
#783 = DIRECTION('',(0.,0.,1.));
#784 = ORIENTED_EDGE('',*,*,#785,.F.);
#785 = EDGE_CURVE('',#730,#778,#786,.T.);
#786 = LINE('',#787,#788);
#787 = CARTESIAN_POINT('',(2.475,4.286825748733,-2.));
#788 = VECTOR('',#789,1.);
#789 = DIRECTION('',(-1.,1.794299837778E-16,0.));
#790 = PLANE('',#791);
#791 = AXIS2_PLACEMENT_3D('',#792,#793,#794);
#792 = CARTESIAN_POINT('',(2.475,4.286825748733,-2.));
#793 = DIRECTION('',(-1.794299837778E-16,-1.,0.));
#794 = DIRECTION('',(-1.,1.794299837778E-16,0.));
#795 = ADVANCED_FACE('',(#796),#814,.F.);
#796 = FACE_BOUND('',#797,.F.);
#797 = EDGE_LOOP('',(#798,#806,#807,#808));
#798 = ORIENTED_EDGE('',*,*,#799,.T.);
#799 = EDGE_CURVE('',#800,#679,#802,.T.);
#800 = VERTEX_POINT('',#801);
#801 = CARTESIAN_POINT('',(-2.475,-4.286825748733,-2.));
#802 = LINE('',#803,#804);
#803 = CARTESIAN_POINT('',(-2.475,-4.286825748733,-2.));
#804 = VECTOR('',#805,1.);
#805 = DIRECTION('',(0.,0.,1.));
#806 = ORIENTED_EDGE('',*,*,#686,.T.);
#807 = ORIENTED_EDGE('',*,*,#751,.F.);
#808 = ORIENTED_EDGE('',*,*,#809,.F.);
#809 = EDGE_CURVE('',#800,#752,#810,.T.);
#810 = LINE('',#811,#812);
#811 = CARTESIAN_POINT('',(-2.475,-4.286825748733,-2.));
#812 = VECTOR('',#813,1.);
#813 = DIRECTION('',(1.,-5.382899513334E-16,0.));
#814 = PLANE('',#815);
#815 = AXIS2_PLACEMENT_3D('',#816,#817,#818);
#816 = CARTESIAN_POINT('',(-2.475,-4.286825748733,-2.));
#817 = DIRECTION('',(5.382899513334E-16,1.,0.));
#818 = DIRECTION('',(1.,-5.382899513334E-16,0.));
#819 = ADVANCED_FACE('',(#820),#838,.F.);
#820 = FACE_BOUND('',#821,.F.);
#821 = EDGE_LOOP('',(#822,#823,#824,#832));
#822 = ORIENTED_EDGE('',*,*,#777,.T.);
#823 = ORIENTED_EDGE('',*,*,#670,.T.);
#824 = ORIENTED_EDGE('',*,*,#825,.F.);
#825 = EDGE_CURVE('',#826,#671,#828,.T.);
#826 = VERTEX_POINT('',#827);
#827 = CARTESIAN_POINT('',(-4.95,1.7763568394E-15,-2.));
#828 = LINE('',#829,#830);
#829 = CARTESIAN_POINT('',(-4.95,1.7763568394E-15,-2.));
#830 = VECTOR('',#831,1.);
#831 = DIRECTION('',(0.,0.,1.));
#832 = ORIENTED_EDGE('',*,*,#833,.F.);
#833 = EDGE_CURVE('',#778,#826,#834,.T.);
#834 = LINE('',#835,#836);
#835 = CARTESIAN_POINT('',(-2.475,4.286825748733,-2.));
#836 = VECTOR('',#837,1.);
#837 = DIRECTION('',(-0.5,-0.866025403784,0.));
#838 = PLANE('',#839);
#839 = AXIS2_PLACEMENT_3D('',#840,#841,#842);
#840 = CARTESIAN_POINT('',(-2.475,4.286825748733,-2.));
#841 = DIRECTION('',(0.866025403784,-0.5,0.));
#842 = DIRECTION('',(-0.5,-0.866025403784,0.));
#843 = ADVANCED_FACE('',(#844),#855,.F.);
#844 = FACE_BOUND('',#845,.F.);
#845 = EDGE_LOOP('',(#846,#847,#848,#849));
#846 = ORIENTED_EDGE('',*,*,#825,.T.);
#847 = ORIENTED_EDGE('',*,*,#678,.T.);
#848 = ORIENTED_EDGE('',*,*,#799,.F.);
#849 = ORIENTED_EDGE('',*,*,#850,.F.);
#850 = EDGE_CURVE('',#826,#800,#851,.T.);
#851 = LINE('',#852,#853);
#852 = CARTESIAN_POINT('',(-4.95,1.7763568394E-15,-2.));
#853 = VECTOR('',#854,1.);
#854 = DIRECTION('',(0.5,-0.866025403784,0.));
#855 = PLANE('',#856);
#856 = AXIS2_PLACEMENT_3D('',#857,#858,#859);
#857 = CARTESIAN_POINT('',(-4.95,1.7763568394E-15,-2.));
#858 = DIRECTION('',(0.866025403784,0.5,0.));
#859 = DIRECTION('',(0.5,-0.866025403784,0.));
#860 = ADVANCED_FACE('',(#861),#869,.F.);
#861 = FACE_BOUND('',#862,.F.);
#862 = EDGE_LOOP('',(#863,#864,#865,#866,#867,#868));
#863 = ORIENTED_EDGE('',*,*,#737,.T.);
#864 = ORIENTED_EDGE('',*,*,#785,.T.);
#865 = ORIENTED_EDGE('',*,*,#833,.T.);
#866 = ORIENTED_EDGE('',*,*,#850,.T.);
#867 = ORIENTED_EDGE('',*,*,#809,.T.);
#868 = ORIENTED_EDGE('',*,*,#761,.T.);
#869 = PLANE('',#870);
#870 = AXIS2_PLACEMENT_3D('',#871,#872,#873);
#871 = CARTESIAN_POINT('',(1.794299837778E-16,-5.98099945926E-17,-2.));
#872 = DIRECTION('',(0.,0.,1.));
#873 = DIRECTION('',(1.,0.,0.));
#874 = ( GEOMETRIC_REPRESENTATION_CONTEXT(3) 
GLOBAL_UNCERTAINTY_ASSIGNED_CONTEXT((#878)) GLOBAL_UNIT_ASSIGNED_CONTEXT
((#875,#876,#877)) REPRESENTATION_CONTEXT('Context #1',
  '3D Context with UNIT and UNCERTAINTY') );
#875 = ( LENGTH_UNIT() NAMED_UNIT(*) SI_UNIT(.MILLI.,.METRE.) );
#876 = ( NAMED_UNIT(*) PLANE_ANGLE_UNIT() SI_UNIT($,.RADIAN.) );
#877 = ( NAMED_UNIT(*) SI_UNIT($,.STERADIAN.) SOLID_ANGLE_UNIT() );
#878 = UNCERTAINTY_MEASURE_WITH_UNIT(LENGTH_MEASURE(1.E-07),#875,
  'distance_accuracy_value','confusion accuracy');
#879 = CONTEXT_DEPENDENT_SHAPE_REPRESENTATION(#880,#882);
#880 = ( REPRESENTATION_RELATIONSHIP('','',#612,#10) 
REPRESENTATION_RELATIONSHIP_WITH_TRANSFORMATION(#881) 
SHAPE_REPRESENTATION_RELATIONSHIP() );
#881 = ITEM_DEFINED_TRANSFORMATION('','',#11,#23);
#882 = PRODUCT_DEFINITION_SHAPE('Placement','Placement of an item',#883
  );
#883 = NEXT_ASSEMBLY_USAGE_OCCURRENCE('46','Group002','',#5,#607,$);
#884 = PRODUCT_RELATED_PRODUCT_CATEGORY('part',$,(#609));
#885 = SHAPE_DEFINITION_REPRESENTATION(#886,#892);
#886 = PRODUCT_DEFINITION_SHAPE('','',#887);
#887 = PRODUCT_DEFINITION('design','',#888,#891);
#888 = PRODUCT_DEFINITION_FORMATION('','',#889);
#889 = PRODUCT('difference','difference','',(#890));
#890 = PRODUCT_CONTEXT('',#2,'mechanical');
#891 = PRODUCT_DEFINITION_CONTEXT('part definition',#2,'design');
#892 = ADVANCED_BREP_SHAPE_REPRESENTATION('',(#11,#893),#985);
#893 = MANIFOLD_SOLID_BREP('',#894);
#894 = CLOSED_SHELL('',(#895,#928,#948,#968));
#895 = ADVANCED_FACE('',(#896),#923,.T.);
#896 = FACE_BOUND('',#897,.F.);
#897 = EDGE_LOOP('',(#898,#908,#915,#916));
#898 = ORIENTED_EDGE('',*,*,#899,.T.);
#899 = EDGE_CURVE('',#900,#902,#904,.T.);
#900 = VERTEX_POINT('',#901);
#901 = CARTESIAN_POINT('',(8.,-1.959434878636E-15,-2.5));
#902 = VERTEX_POINT('',#903);
#903 = CARTESIAN_POINT('',(8.,-1.959434878636E-15,2.5));
#904 = LINE('',#905,#906);
#905 = CARTESIAN_POINT('',(8.,-1.959434878636E-15,-2.5));
#906 = VECTOR('',#907,1.);
#907 = DIRECTION('',(0.,0.,1.));
#908 = ORIENTED_EDGE('',*,*,#909,.T.);
#909 = EDGE_CURVE('',#902,#902,#910,.T.);
#910 = CIRCLE('',#911,8.);
#911 = AXIS2_PLACEMENT_3D('',#912,#913,#914);
#912 = CARTESIAN_POINT('',(0.,0.,2.5));
#913 = DIRECTION('',(0.,0.,1.));
#914 = DIRECTION('',(1.,0.,0.));
#915 = ORIENTED_EDGE('',*,*,#899,.F.);
#916 = ORIENTED_EDGE('',*,*,#917,.F.);
#917 = EDGE_CURVE('',#900,#900,#918,.T.);
#918 = CIRCLE('',#919,8.);
#919 = AXIS2_PLACEMENT_3D('',#920,#921,#922);
#920 = CARTESIAN_POINT('',(0.,0.,-2.5));
#921 = DIRECTION('',(0.,0.,1.));
#922 = DIRECTION('',(1.,0.,0.));
#923 = CYLINDRICAL_SURFACE('',#924,8.);
#924 = AXIS2_PLACEMENT_3D('',#925,#926,#927);
#925 = CARTESIAN_POINT('',(0.,0.,-2.5));
#926 = DIRECTION('',(-0.,-0.,-1.));
#927 = DIRECTION('',(1.,0.,0.));
#928 = ADVANCED_FACE('',(#929,#932),#943,.F.);
#929 = FACE_BOUND('',#930,.F.);
#930 = EDGE_LOOP('',(#931));
#931 = ORIENTED_EDGE('',*,*,#917,.T.);
#932 = FACE_BOUND('',#933,.F.);
#933 = EDGE_LOOP('',(#934));
#934 = ORIENTED_EDGE('',*,*,#935,.T.);
#935 = EDGE_CURVE('',#936,#936,#938,.T.);
#936 = VERTEX_POINT('',#937);
#937 = CARTESIAN_POINT('',(2.5,-6.123233995737E-16,-2.5));
#938 = CIRCLE('',#939,2.5);
#939 = AXIS2_PLACEMENT_3D('',#940,#941,#942);
#940 = CARTESIAN_POINT('',(0.,0.,-2.5));
#941 = DIRECTION('',(0.,0.,-1.));
#942 = DIRECTION('',(1.,0.,0.));
#943 = PLANE('',#944);
#944 = AXIS2_PLACEMENT_3D('',#945,#946,#947);
#945 = CARTESIAN_POINT('',(0.,0.,-2.5));
#946 = DIRECTION('',(0.,0.,1.));
#947 = DIRECTION('',(1.,0.,0.));
#948 = ADVANCED_FACE('',(#949,#952),#963,.T.);
#949 = FACE_BOUND('',#950,.T.);
#950 = EDGE_LOOP('',(#951));
#951 = ORIENTED_EDGE('',*,*,#909,.T.);
#952 = FACE_BOUND('',#953,.T.);
#953 = EDGE_LOOP('',(#954));
#954 = ORIENTED_EDGE('',*,*,#955,.T.);
#955 = EDGE_CURVE('',#956,#956,#958,.T.);
#956 = VERTEX_POINT('',#957);
#957 = CARTESIAN_POINT('',(2.5,-6.123233995737E-16,2.5));
#958 = CIRCLE('',#959,2.5);
#959 = AXIS2_PLACEMENT_3D('',#960,#961,#962);
#960 = CARTESIAN_POINT('',(0.,0.,2.5));
#961 = DIRECTION('',(0.,0.,-1.));
#962 = DIRECTION('',(1.,0.,0.));
#963 = PLANE('',#964);
#964 = AXIS2_PLACEMENT_3D('',#965,#966,#967);
#965 = CARTESIAN_POINT('',(0.,0.,2.5));
#966 = DIRECTION('',(0.,0.,1.));
#967 = DIRECTION('',(1.,0.,0.));
#968 = ADVANCED_FACE('',(#969),#980,.F.);
#969 = FACE_BOUND('',#970,.T.);
#970 = EDGE_LOOP('',(#971,#972,#978,#979));
#971 = ORIENTED_EDGE('',*,*,#935,.T.);
#972 = ORIENTED_EDGE('',*,*,#973,.T.);
#973 = EDGE_CURVE('',#936,#956,#974,.T.);
#974 = LINE('',#975,#976);
#975 = CARTESIAN_POINT('',(2.5,-6.123233995737E-16,-3.));
#976 = VECTOR('',#977,1.);
#977 = DIRECTION('',(0.,0.,1.));
#978 = ORIENTED_EDGE('',*,*,#955,.F.);
#979 = ORIENTED_EDGE('',*,*,#973,.F.);
#980 = CYLINDRICAL_SURFACE('',#981,2.5);
#981 = AXIS2_PLACEMENT_3D('',#982,#983,#984);
#982 = CARTESIAN_POINT('',(0.,0.,-3.));
#983 = DIRECTION('',(-0.,-0.,-1.));
#984 = DIRECTION('',(1.,0.,0.));
#985 = ( GEOMETRIC_REPRESENTATION_CONTEXT(3) 
GLOBAL_UNCERTAINTY_ASSIGNED_CONTEXT((#989)) GLOBAL_UNIT_ASSIGNED_CONTEXT
((#986,#987,#988)) REPRESENTATION_CONTEXT('Context #1',
  '3D Context with UNIT and UNCERTAINTY') );
#986 = ( LENGTH_UNIT() NAMED_UNIT(*) SI_UNIT(.MILLI.,.METRE.) );
#987 = ( NAMED_UNIT(*) PLANE_ANGLE_UNIT() SI_UNIT($,.RADIAN.) );
#988 = ( NAMED_UNIT(*) SI_UNIT($,.STERADIAN.) SOLID_ANGLE_UNIT() );
#989 = UNCERTAINTY_MEASURE_WITH_UNIT(LENGTH_MEASURE(1.E-07),#986,
  'distance_accuracy_value','confusion accuracy');
#990 = CONTEXT_DEPENDENT_SHAPE_REPRESENTATION(#991,#993);
#991 = ( REPRESENTATION_RELATIONSHIP('','',#892,#10) 
REPRESENTATION_RELATIONSHIP_WITH_TRANSFORMATION(#992) 
SHAPE_REPRESENTATION_RELATIONSHIP() );
#992 = ITEM_DEFINED_TRANSFORMATION('','',#11,#27);
#993 = PRODUCT_DEFINITION_SHAPE('Placement','Placement of an item',#994
  );
#994 = NEXT_ASSEMBLY_USAGE_OCCURRENCE('47','difference','',#5,#887,$);
#995 = PRODUCT_RELATED_PRODUCT_CATEGORY('part',$,(#889));
#996 = SHAPE_DEFINITION_REPRESENTATION(#997,#1003);
#997 = PRODUCT_DEFINITION_SHAPE('','',#998);
#998 = PRODUCT_DEFINITION('design','',#999,#1002);
#999 = PRODUCT_DEFINITION_FORMATION('','',#1000);
#1000 = PRODUCT('Group003','Group003','',(#1001));
#1001 = PRODUCT_CONTEXT('',#2,'mechanical');
#1002 = PRODUCT_DEFINITION_CONTEXT('part definition',#2,'design');
#1003 = ADVANCED_BREP_SHAPE_REPRESENTATION('',(#11,#1004),#1294);
#1004 = MANIFOLD_SOLID_BREP('',#1005);
#1005 = CLOSED_SHELL('',(#1006,#1046,#1079,#1112,#1143,#1174,#1207,#1240
    ,#1262,#1278));
#1006 = ADVANCED_FACE('',(#1007),#1041,.F.);
#1007 = FACE_BOUND('',#1008,.F.);
#1008 = EDGE_LOOP('',(#1009,#1019,#1027,#1035));
#1009 = ORIENTED_EDGE('',*,*,#1010,.F.);
#1010 = EDGE_CURVE('',#1011,#1013,#1015,.T.);
#1011 = VERTEX_POINT('',#1012);
#1012 = CARTESIAN_POINT('',(-9.5,-2.,-15.));
#1013 = VERTEX_POINT('',#1014);
#1014 = CARTESIAN_POINT('',(-9.5,-2.,15.));
#1015 = LINE('',#1016,#1017);
#1016 = CARTESIAN_POINT('',(-9.5,-2.,-15.));
#1017 = VECTOR('',#1018,1.);
#1018 = DIRECTION('',(0.,0.,1.));
#1019 = ORIENTED_EDGE('',*,*,#1020,.T.);
#1020 = EDGE_CURVE('',#1011,#1021,#1023,.T.);
#1021 = VERTEX_POINT('',#1022);
#1022 = CARTESIAN_POINT('',(-9.5,2.,-15.));
#1023 = LINE('',#1024,#1025);
#1024 = CARTESIAN_POINT('',(-9.5,-2.,-15.));
#1025 = VECTOR('',#1026,1.);
#1026 = DIRECTION('',(0.,1.,0.));
#1027 = ORIENTED_EDGE('',*,*,#1028,.T.);
#1028 = EDGE_CURVE('',#1021,#1029,#1031,.T.);
#1029 = VERTEX_POINT('',#1030);
#1030 = CARTESIAN_POINT('',(-9.5,2.,15.));
#1031 = LINE('',#1032,#1033);
#1032 = CARTESIAN_POINT('',(-9.5,2.,-15.));
#1033 = VECTOR('',#1034,1.);
#1034 = DIRECTION('',(0.,0.,1.));
#1035 = ORIENTED_EDGE('',*,*,#1036,.F.);
#1036 = EDGE_CURVE('',#1013,#1029,#1037,.T.);
#1037 = LINE('',#1038,#1039);
#1038 = CARTESIAN_POINT('',(-9.5,-2.,15.));
#1039 = VECTOR('',#1040,1.);
#1040 = DIRECTION('',(0.,1.,0.));
#1041 = PLANE('',#1042);
#1042 = AXIS2_PLACEMENT_3D('',#1043,#1044,#1045);
#1043 = CARTESIAN_POINT('',(-9.5,-2.,-15.));
#1044 = DIRECTION('',(1.,0.,0.));
#1045 = DIRECTION('',(0.,0.,1.));
#1046 = ADVANCED_FACE('',(#1047),#1074,.T.);
#1047 = FACE_BOUND('',#1048,.F.);
#1048 = EDGE_LOOP('',(#1049,#1059,#1066,#1067));
#1049 = ORIENTED_EDGE('',*,*,#1050,.F.);
#1050 = EDGE_CURVE('',#1051,#1053,#1055,.T.);
#1051 = VERTEX_POINT('',#1052);
#1052 = CARTESIAN_POINT('',(-6.5,-5.,-15.));
#1053 = VERTEX_POINT('',#1054);
#1054 = CARTESIAN_POINT('',(-6.5,-5.,15.));
#1055 = LINE('',#1056,#1057);
#1056 = CARTESIAN_POINT('',(-6.5,-5.,-15.));
#1057 = VECTOR('',#1058,1.);
#1058 = DIRECTION('',(0.,0.,1.));
#1059 = ORIENTED_EDGE('',*,*,#1060,.F.);
#1060 = EDGE_CURVE('',#1011,#1051,#1061,.T.);
#1061 = CIRCLE('',#1062,3.);
#1062 = AXIS2_PLACEMENT_3D('',#1063,#1064,#1065);
#1063 = CARTESIAN_POINT('',(-6.5,-2.,-15.));
#1064 = DIRECTION('',(0.,0.,1.));
#1065 = DIRECTION('',(1.,0.,0.));
#1066 = ORIENTED_EDGE('',*,*,#1010,.T.);
#1067 = ORIENTED_EDGE('',*,*,#1068,.T.);
#1068 = EDGE_CURVE('',#1013,#1053,#1069,.T.);
#1069 = CIRCLE('',#1070,3.);
#1070 = AXIS2_PLACEMENT_3D('',#1071,#1072,#1073);
#1071 = CARTESIAN_POINT('',(-6.5,-2.,15.));
#1072 = DIRECTION('',(0.,0.,1.));
#1073 = DIRECTION('',(1.,0.,0.));
#1074 = CYLINDRICAL_SURFACE('',#1075,3.);
#1075 = AXIS2_PLACEMENT_3D('',#1076,#1077,#1078);
#1076 = CARTESIAN_POINT('',(-6.5,-2.,-15.));
#1077 = DIRECTION('',(-0.,-0.,-1.));
#1078 = DIRECTION('',(1.,0.,0.));
#1079 = ADVANCED_FACE('',(#1080),#1107,.T.);
#1080 = FACE_BOUND('',#1081,.F.);
#1081 = EDGE_LOOP('',(#1082,#1091,#1099,#1106));
#1082 = ORIENTED_EDGE('',*,*,#1083,.F.);
#1083 = EDGE_CURVE('',#1084,#1021,#1086,.T.);
#1084 = VERTEX_POINT('',#1085);
#1085 = CARTESIAN_POINT('',(-6.5,5.,-15.));
#1086 = CIRCLE('',#1087,3.);
#1087 = AXIS2_PLACEMENT_3D('',#1088,#1089,#1090);
#1088 = CARTESIAN_POINT('',(-6.5,2.,-15.));
#1089 = DIRECTION('',(0.,0.,1.));
#1090 = DIRECTION('',(1.,0.,0.));
#1091 = ORIENTED_EDGE('',*,*,#1092,.T.);
#1092 = EDGE_CURVE('',#1084,#1093,#1095,.T.);
#1093 = VERTEX_POINT('',#1094);
#1094 = CARTESIAN_POINT('',(-6.5,5.,15.));
#1095 = LINE('',#1096,#1097);
#1096 = CARTESIAN_POINT('',(-6.5,5.,-15.));
#1097 = VECTOR('',#1098,1.);
#1098 = DIRECTION('',(0.,0.,1.));
#1099 = ORIENTED_EDGE('',*,*,#1100,.T.);
#1100 = EDGE_CURVE('',#1093,#1029,#1101,.T.);
#1101 = CIRCLE('',#1102,3.);
#1102 = AXIS2_PLACEMENT_3D('',#1103,#1104,#1105);
#1103 = CARTESIAN_POINT('',(-6.5,2.,15.));
#1104 = DIRECTION('',(0.,0.,1.));
#1105 = DIRECTION('',(1.,0.,0.));
#1106 = ORIENTED_EDGE('',*,*,#1028,.F.);
#1107 = CYLINDRICAL_SURFACE('',#1108,3.);
#1108 = AXIS2_PLACEMENT_3D('',#1109,#1110,#1111);
#1109 = CARTESIAN_POINT('',(-6.5,2.,-15.));
#1110 = DIRECTION('',(-0.,-0.,-1.));
#1111 = DIRECTION('',(1.,0.,0.));
#1112 = ADVANCED_FACE('',(#1113),#1138,.F.);
#1113 = FACE_BOUND('',#1114,.F.);
#1114 = EDGE_LOOP('',(#1115,#1123,#1124,#1132));
#1115 = ORIENTED_EDGE('',*,*,#1116,.F.);
#1116 = EDGE_CURVE('',#1051,#1117,#1119,.T.);
#1117 = VERTEX_POINT('',#1118);
#1118 = CARTESIAN_POINT('',(6.5,-5.,-15.));
#1119 = LINE('',#1120,#1121);
#1120 = CARTESIAN_POINT('',(-6.5,-5.,-15.));
#1121 = VECTOR('',#1122,1.);
#1122 = DIRECTION('',(1.,0.,0.));
#1123 = ORIENTED_EDGE('',*,*,#1050,.T.);
#1124 = ORIENTED_EDGE('',*,*,#1125,.T.);
#1125 = EDGE_CURVE('',#1053,#1126,#1128,.T.);
#1126 = VERTEX_POINT('',#1127);
#1127 = CARTESIAN_POINT('',(6.5,-5.,15.));
#1128 = LINE('',#1129,#1130);
#1129 = CARTESIAN_POINT('',(-6.5,-5.,15.));
#1130 = VECTOR('',#1131,1.);
#1131 = DIRECTION('',(1.,0.,0.));
#1132 = ORIENTED_EDGE('',*,*,#1133,.F.);
#1133 = EDGE_CURVE('',#1117,#1126,#1134,.T.);
#1134 = LINE('',#1135,#1136);
#1135 = CARTESIAN_POINT('',(6.5,-5.,-15.));
#1136 = VECTOR('',#1137,1.);
#1137 = DIRECTION('',(0.,0.,1.));
#1138 = PLANE('',#1139);
#1139 = AXIS2_PLACEMENT_3D('',#1140,#1141,#1142);
#1140 = CARTESIAN_POINT('',(-6.5,-5.,-15.));
#1141 = DIRECTION('',(0.,1.,0.));
#1142 = DIRECTION('',(0.,0.,1.));
#1143 = ADVANCED_FACE('',(#1144),#1169,.T.);
#1144 = FACE_BOUND('',#1145,.T.);
#1145 = EDGE_LOOP('',(#1146,#1154,#1155,#1163));
#1146 = ORIENTED_EDGE('',*,*,#1147,.F.);
#1147 = EDGE_CURVE('',#1084,#1148,#1150,.T.);
#1148 = VERTEX_POINT('',#1149);
#1149 = CARTESIAN_POINT('',(6.5,5.,-15.));
#1150 = LINE('',#1151,#1152);
#1151 = CARTESIAN_POINT('',(-6.5,5.,-15.));
#1152 = VECTOR('',#1153,1.);
#1153 = DIRECTION('',(1.,0.,0.));
#1154 = ORIENTED_EDGE('',*,*,#1092,.T.);
#1155 = ORIENTED_EDGE('',*,*,#1156,.T.);
#1156 = EDGE_CURVE('',#1093,#1157,#1159,.T.);
#1157 = VERTEX_POINT('',#1158);
#1158 = CARTESIAN_POINT('',(6.5,5.,15.));
#1159 = LINE('',#1160,#1161);
#1160 = CARTESIAN_POINT('',(-6.5,5.,15.));
#1161 = VECTOR('',#1162,1.);
#1162 = DIRECTION('',(1.,0.,0.));
#1163 = ORIENTED_EDGE('',*,*,#1164,.F.);
#1164 = EDGE_CURVE('',#1148,#1157,#1165,.T.);
#1165 = LINE('',#1166,#1167);
#1166 = CARTESIAN_POINT('',(6.5,5.,-15.));
#1167 = VECTOR('',#1168,1.);
#1168 = DIRECTION('',(0.,0.,1.));
#1169 = PLANE('',#1170);
#1170 = AXIS2_PLACEMENT_3D('',#1171,#1172,#1173);
#1171 = CARTESIAN_POINT('',(-6.5,5.,-15.));
#1172 = DIRECTION('',(0.,1.,0.));
#1173 = DIRECTION('',(0.,0.,1.));
#1174 = ADVANCED_FACE('',(#1175),#1202,.T.);
#1175 = FACE_BOUND('',#1176,.F.);
#1176 = EDGE_LOOP('',(#1177,#1187,#1194,#1195));
#1177 = ORIENTED_EDGE('',*,*,#1178,.F.);
#1178 = EDGE_CURVE('',#1179,#1181,#1183,.T.);
#1179 = VERTEX_POINT('',#1180);
#1180 = CARTESIAN_POINT('',(9.5,-2.,-15.));
#1181 = VERTEX_POINT('',#1182);
#1182 = CARTESIAN_POINT('',(9.5,-2.,15.));
#1183 = LINE('',#1184,#1185);
#1184 = CARTESIAN_POINT('',(9.5,-2.,-15.));
#1185 = VECTOR('',#1186,1.);
#1186 = DIRECTION('',(0.,0.,1.));
#1187 = ORIENTED_EDGE('',*,*,#1188,.F.);
#1188 = EDGE_CURVE('',#1117,#1179,#1189,.T.);
#1189 = CIRCLE('',#1190,3.);
#1190 = AXIS2_PLACEMENT_3D('',#1191,#1192,#1193);
#1191 = CARTESIAN_POINT('',(6.5,-2.,-15.));
#1192 = DIRECTION('',(0.,0.,1.));
#1193 = DIRECTION('',(1.,0.,0.));
#1194 = ORIENTED_EDGE('',*,*,#1133,.T.);
#1195 = ORIENTED_EDGE('',*,*,#1196,.T.);
#1196 = EDGE_CURVE('',#1126,#1181,#1197,.T.);
#1197 = CIRCLE('',#1198,3.);
#1198 = AXIS2_PLACEMENT_3D('',#1199,#1200,#1201);
#1199 = CARTESIAN_POINT('',(6.5,-2.,15.));
#1200 = DIRECTION('',(0.,0.,1.));
#1201 = DIRECTION('',(1.,0.,0.));
#1202 = CYLINDRICAL_SURFACE('',#1203,3.);
#1203 = AXIS2_PLACEMENT_3D('',#1204,#1205,#1206);
#1204 = CARTESIAN_POINT('',(6.5,-2.,-15.));
#1205 = DIRECTION('',(-0.,-0.,-1.));
#1206 = DIRECTION('',(1.,0.,0.));
#1207 = ADVANCED_FACE('',(#1208),#1235,.T.);
#1208 = FACE_BOUND('',#1209,.F.);
#1209 = EDGE_LOOP('',(#1210,#1219,#1227,#1234));
#1210 = ORIENTED_EDGE('',*,*,#1211,.F.);
#1211 = EDGE_CURVE('',#1212,#1148,#1214,.T.);
#1212 = VERTEX_POINT('',#1213);
#1213 = CARTESIAN_POINT('',(9.5,2.,-15.));
#1214 = CIRCLE('',#1215,3.);
#1215 = AXIS2_PLACEMENT_3D('',#1216,#1217,#1218);
#1216 = CARTESIAN_POINT('',(6.5,2.,-15.));
#1217 = DIRECTION('',(0.,0.,1.));
#1218 = DIRECTION('',(1.,0.,0.));
#1219 = ORIENTED_EDGE('',*,*,#1220,.T.);
#1220 = EDGE_CURVE('',#1212,#1221,#1223,.T.);
#1221 = VERTEX_POINT('',#1222);
#1222 = CARTESIAN_POINT('',(9.5,2.,15.));
#1223 = LINE('',#1224,#1225);
#1224 = CARTESIAN_POINT('',(9.5,2.,-15.));
#1225 = VECTOR('',#1226,1.);
#1226 = DIRECTION('',(0.,0.,1.));
#1227 = ORIENTED_EDGE('',*,*,#1228,.T.);
#1228 = EDGE_CURVE('',#1221,#1157,#1229,.T.);
#1229 = CIRCLE('',#1230,3.);
#1230 = AXIS2_PLACEMENT_3D('',#1231,#1232,#1233);
#1231 = CARTESIAN_POINT('',(6.5,2.,15.));
#1232 = DIRECTION('',(0.,0.,1.));
#1233 = DIRECTION('',(1.,0.,0.));
#1234 = ORIENTED_EDGE('',*,*,#1164,.F.);
#1235 = CYLINDRICAL_SURFACE('',#1236,3.);
#1236 = AXIS2_PLACEMENT_3D('',#1237,#1238,#1239);
#1237 = CARTESIAN_POINT('',(6.5,2.,-15.));
#1238 = DIRECTION('',(-0.,-0.,-1.));
#1239 = DIRECTION('',(1.,0.,0.));
#1240 = ADVANCED_FACE('',(#1241),#1257,.T.);
#1241 = FACE_BOUND('',#1242,.T.);
#1242 = EDGE_LOOP('',(#1243,#1244,#1250,#1251));
#1243 = ORIENTED_EDGE('',*,*,#1178,.F.);
#1244 = ORIENTED_EDGE('',*,*,#1245,.T.);
#1245 = EDGE_CURVE('',#1179,#1212,#1246,.T.);
#1246 = LINE('',#1247,#1248);
#1247 = CARTESIAN_POINT('',(9.5,-2.,-15.));
#1248 = VECTOR('',#1249,1.);
#1249 = DIRECTION('',(0.,1.,0.));
#1250 = ORIENTED_EDGE('',*,*,#1220,.T.);
#1251 = ORIENTED_EDGE('',*,*,#1252,.F.);
#1252 = EDGE_CURVE('',#1181,#1221,#1253,.T.);
#1253 = LINE('',#1254,#1255);
#1254 = CARTESIAN_POINT('',(9.5,-2.,15.));
#1255 = VECTOR('',#1256,1.);
#1256 = DIRECTION('',(0.,1.,0.));
#1257 = PLANE('',#1258);
#1258 = AXIS2_PLACEMENT_3D('',#1259,#1260,#1261);
#1259 = CARTESIAN_POINT('',(9.5,-2.,-15.));
#1260 = DIRECTION('',(1.,0.,0.));
#1261 = DIRECTION('',(0.,0.,1.));
#1262 = ADVANCED_FACE('',(#1263),#1273,.T.);
#1263 = FACE_BOUND('',#1264,.T.);
#1264 = EDGE_LOOP('',(#1265,#1266,#1267,#1268,#1269,#1270,#1271,#1272));
#1265 = ORIENTED_EDGE('',*,*,#1036,.F.);
#1266 = ORIENTED_EDGE('',*,*,#1068,.T.);
#1267 = ORIENTED_EDGE('',*,*,#1125,.T.);
#1268 = ORIENTED_EDGE('',*,*,#1196,.T.);
#1269 = ORIENTED_EDGE('',*,*,#1252,.T.);
#1270 = ORIENTED_EDGE('',*,*,#1228,.T.);
#1271 = ORIENTED_EDGE('',*,*,#1156,.F.);
#1272 = ORIENTED_EDGE('',*,*,#1100,.T.);
#1273 = PLANE('',#1274);
#1274 = AXIS2_PLACEMENT_3D('',#1275,#1276,#1277);
#1275 = CARTESIAN_POINT('',(-2.699888378092E-16,-3.670160763969E-16,15.)
  );
#1276 = DIRECTION('',(0.,0.,1.));
#1277 = DIRECTION('',(1.,0.,-0.));
#1278 = ADVANCED_FACE('',(#1279),#1289,.T.);
#1279 = FACE_BOUND('',#1280,.T.);
#1280 = EDGE_LOOP('',(#1281,#1282,#1283,#1284,#1285,#1286,#1287,#1288));
#1281 = ORIENTED_EDGE('',*,*,#1020,.T.);
#1282 = ORIENTED_EDGE('',*,*,#1083,.F.);
#1283 = ORIENTED_EDGE('',*,*,#1147,.T.);
#1284 = ORIENTED_EDGE('',*,*,#1211,.F.);
#1285 = ORIENTED_EDGE('',*,*,#1245,.F.);
#1286 = ORIENTED_EDGE('',*,*,#1188,.F.);
#1287 = ORIENTED_EDGE('',*,*,#1116,.F.);
#1288 = ORIENTED_EDGE('',*,*,#1060,.F.);
#1289 = PLANE('',#1290);
#1290 = AXIS2_PLACEMENT_3D('',#1291,#1292,#1293);
#1291 = CARTESIAN_POINT('',(6.74972094523E-17,-1.856173259938E-16,-15.)
  );
#1292 = DIRECTION('',(-0.,-0.,-1.));
#1293 = DIRECTION('',(-1.,0.,0.));
#1294 = ( GEOMETRIC_REPRESENTATION_CONTEXT(3) 
GLOBAL_UNCERTAINTY_ASSIGNED_CONTEXT((#1298)) 
GLOBAL_UNIT_ASSIGNED_CONTEXT((#1295,#1296,#1297)) REPRESENTATION_CONTEXT
('Context #1','3D Context with UNIT and UNCERTAINTY') );
#1295 = ( LENGTH_UNIT() NAMED_UNIT(*) SI_UNIT(.MILLI.,.METRE.) );
#1296 = ( NAMED_UNIT(*) PLANE_ANGLE_UNIT() SI_UNIT($,.RADIAN.) );
#1297 = ( NAMED_UNIT(*) SI_UNIT($,.STERADIAN.) SOLID_ANGLE_UNIT() );
#1298 = UNCERTAINTY_MEASURE_WITH_UNIT(LENGTH_MEASURE(1.E-07),#1295,
  'distance_accuracy_value','confusion accuracy');
#1299 = CONTEXT_DEPENDENT_SHAPE_REPRESENTATION(#1300,#1302);
#1300 = ( REPRESENTATION_RELATIONSHIP('','',#1003,#10) 
REPRESENTATION_RELATIONSHIP_WITH_TRANSFORMATION(#1301) 
SHAPE_REPRESENTATION_RELATIONSHIP() );
#1301 = ITEM_DEFINED_TRANSFORMATION('','',#11,#31);
#1302 = PRODUCT_DEFINITION_SHAPE('Placement','Placement of an item',
  #1303);
#1303 = NEXT_ASSEMBLY_USAGE_OCCURRENCE('48','Group003','',#5,#998,$);
#1304 = PRODUCT_RELATED_PRODUCT_CATEGORY('part',$,(#1000));
#1305 = SHAPE_DEFINITION_REPRESENTATION(#1306,#1312);
#1306 = PRODUCT_DEFINITION_SHAPE('','',#1307);
#1307 = PRODUCT_DEFINITION('design','',#1308,#1311);
#1308 = PRODUCT_DEFINITION_FORMATION('','',#1309);
#1309 = PRODUCT('Group004','Group004','',(#1310));
#1310 = PRODUCT_CONTEXT('',#2,'mechanical');
#1311 = PRODUCT_DEFINITION_CONTEXT('part definition',#2,'design');
#1312 = ADVANCED_BREP_SHAPE_REPRESENTATION('',(#11,#1313),#1931);
#1313 = MANIFOLD_SOLID_BREP('',#1314);
#1314 = CLOSED_SHELL('',(#1315,#1355,#1388,#1421,#1454,#1487,#1504,#1521
    ,#1552,#1569,#1600,#1631,#1648,#1679,#1697,#1715,#1748,#1766,#1797,
    #1815,#1846,#1875,#1886,#1897,#1909,#1920));
#1315 = ADVANCED_FACE('',(#1316),#1350,.F.);
#1316 = FACE_BOUND('',#1317,.F.);
#1317 = EDGE_LOOP('',(#1318,#1328,#1336,#1344));
#1318 = ORIENTED_EDGE('',*,*,#1319,.F.);
#1319 = EDGE_CURVE('',#1320,#1322,#1324,.T.);
#1320 = VERTEX_POINT('',#1321);
#1321 = CARTESIAN_POINT('',(-10.,-3.,-5.5));
#1322 = VERTEX_POINT('',#1323);
#1323 = CARTESIAN_POINT('',(-10.,-3.,5.5));
#1324 = LINE('',#1325,#1326);
#1325 = CARTESIAN_POINT('',(-10.,-3.,-5.5));
#1326 = VECTOR('',#1327,1.);
#1327 = DIRECTION('',(0.,0.,1.));
#1328 = ORIENTED_EDGE('',*,*,#1329,.T.);
#1329 = EDGE_CURVE('',#1320,#1330,#1332,.T.);
#1330 = VERTEX_POINT('',#1331);
#1331 = CARTESIAN_POINT('',(-10.,3.,-5.5));
#1332 = LINE('',#1333,#1334);
#1333 = CARTESIAN_POINT('',(-10.,-3.,-5.5));
#1334 = VECTOR('',#1335,1.);
#1335 = DIRECTION('',(0.,1.,0.));
#1336 = ORIENTED_EDGE('',*,*,#1337,.T.);
#1337 = EDGE_CURVE('',#1330,#1338,#1340,.T.);
#1338 = VERTEX_POINT('',#1339);
#1339 = CARTESIAN_POINT('',(-10.,3.,5.5));
#1340 = LINE('',#1341,#1342);
#1341 = CARTESIAN_POINT('',(-10.,3.,-5.5));
#1342 = VECTOR('',#1343,1.);
#1343 = DIRECTION('',(0.,0.,1.));
#1344 = ORIENTED_EDGE('',*,*,#1345,.F.);
#1345 = EDGE_CURVE('',#1322,#1338,#1346,.T.);
#1346 = LINE('',#1347,#1348);
#1347 = CARTESIAN_POINT('',(-10.,-3.,5.5));
#1348 = VECTOR('',#1349,1.);
#1349 = DIRECTION('',(0.,1.,0.));
#1350 = PLANE('',#1351);
#1351 = AXIS2_PLACEMENT_3D('',#1352,#1353,#1354);
#1352 = CARTESIAN_POINT('',(-10.,-3.,-5.5));
#1353 = DIRECTION('',(1.,0.,0.));
#1354 = DIRECTION('',(0.,0.,1.));
#1355 = ADVANCED_FACE('',(#1356),#1383,.T.);
#1356 = FACE_BOUND('',#1357,.F.);
#1357 = EDGE_LOOP('',(#1358,#1367,#1375,#1382));
#1358 = ORIENTED_EDGE('',*,*,#1359,.T.);
#1359 = EDGE_CURVE('',#1322,#1360,#1362,.T.);
#1360 = VERTEX_POINT('',#1361);
#1361 = CARTESIAN_POINT('',(-8.,-5.,5.5));
#1362 = CIRCLE('',#1363,2.);
#1363 = AXIS2_PLACEMENT_3D('',#1364,#1365,#1366);
#1364 = CARTESIAN_POINT('',(-8.,-3.,5.5));
#1365 = DIRECTION('',(0.,0.,1.));
#1366 = DIRECTION('',(1.,0.,0.));
#1367 = ORIENTED_EDGE('',*,*,#1368,.F.);
#1368 = EDGE_CURVE('',#1369,#1360,#1371,.T.);
#1369 = VERTEX_POINT('',#1370);
#1370 = CARTESIAN_POINT('',(-8.,-5.,-5.5));
#1371 = LINE('',#1372,#1373);
#1372 = CARTESIAN_POINT('',(-8.,-5.,-5.5));
#1373 = VECTOR('',#1374,1.);
#1374 = DIRECTION('',(0.,0.,1.));
#1375 = ORIENTED_EDGE('',*,*,#1376,.F.);
#1376 = EDGE_CURVE('',#1320,#1369,#1377,.T.);
#1377 = CIRCLE('',#1378,2.);
#1378 = AXIS2_PLACEMENT_3D('',#1379,#1380,#1381);
#1379 = CARTESIAN_POINT('',(-8.,-3.,-5.5));
#1380 = DIRECTION('',(0.,0.,1.));
#1381 = DIRECTION('',(1.,0.,0.));
#1382 = ORIENTED_EDGE('',*,*,#1319,.T.);
#1383 = CYLINDRICAL_SURFACE('',#1384,2.);
#1384 = AXIS2_PLACEMENT_3D('',#1385,#1386,#1387);
#1385 = CARTESIAN_POINT('',(-8.,-3.,-5.5));
#1386 = DIRECTION('',(-0.,-0.,-1.));
#1387 = DIRECTION('',(1.,0.,0.));
#1388 = ADVANCED_FACE('',(#1389),#1416,.T.);
#1389 = FACE_BOUND('',#1390,.F.);
#1390 = EDGE_LOOP('',(#1391,#1400,#1408,#1415));
#1391 = ORIENTED_EDGE('',*,*,#1392,.F.);
#1392 = EDGE_CURVE('',#1393,#1338,#1395,.T.);
#1393 = VERTEX_POINT('',#1394);
#1394 = CARTESIAN_POINT('',(-8.,3.,7.5));
#1395 = CIRCLE('',#1396,2.);
#1396 = AXIS2_PLACEMENT_3D('',#1397,#1398,#1399);
#1397 = CARTESIAN_POINT('',(-8.,3.,5.5));
#1398 = DIRECTION('',(0.,-1.,-2.22044604925E-16));
#1399 = DIRECTION('',(1.,0.,0.));
#1400 = ORIENTED_EDGE('',*,*,#1401,.F.);
#1401 = EDGE_CURVE('',#1402,#1393,#1404,.T.);
#1402 = VERTEX_POINT('',#1403);
#1403 = CARTESIAN_POINT('',(-8.,-3.,7.5));
#1404 = LINE('',#1405,#1406);
#1405 = CARTESIAN_POINT('',(-8.,-3.,7.5));
#1406 = VECTOR('',#1407,1.);
#1407 = DIRECTION('',(0.,1.,0.));
#1408 = ORIENTED_EDGE('',*,*,#1409,.T.);
#1409 = EDGE_CURVE('',#1402,#1322,#1410,.T.);
#1410 = CIRCLE('',#1411,2.);
#1411 = AXIS2_PLACEMENT_3D('',#1412,#1413,#1414);
#1412 = CARTESIAN_POINT('',(-8.,-3.,5.5));
#1413 = DIRECTION('',(0.,-1.,-2.22044604925E-16));
#1414 = DIRECTION('',(1.,0.,0.));
#1415 = ORIENTED_EDGE('',*,*,#1345,.T.);
#1416 = CYLINDRICAL_SURFACE('',#1417,2.);
#1417 = AXIS2_PLACEMENT_3D('',#1418,#1419,#1420);
#1418 = CARTESIAN_POINT('',(-8.,3.,5.5));
#1419 = DIRECTION('',(-0.,1.,2.22044604925E-16));
#1420 = DIRECTION('',(1.,0.,0.));
#1421 = ADVANCED_FACE('',(#1422),#1449,.T.);
#1422 = FACE_BOUND('',#1423,.F.);
#1423 = EDGE_LOOP('',(#1424,#1434,#1441,#1442));
#1424 = ORIENTED_EDGE('',*,*,#1425,.T.);
#1425 = EDGE_CURVE('',#1426,#1428,#1430,.T.);
#1426 = VERTEX_POINT('',#1427);
#1427 = CARTESIAN_POINT('',(-8.,5.,-5.5));
#1428 = VERTEX_POINT('',#1429);
#1429 = CARTESIAN_POINT('',(-8.,5.,5.5));
#1430 = LINE('',#1431,#1432);
#1431 = CARTESIAN_POINT('',(-8.,5.,-5.5));
#1432 = VECTOR('',#1433,1.);
#1433 = DIRECTION('',(0.,0.,1.));
#1434 = ORIENTED_EDGE('',*,*,#1435,.T.);
#1435 = EDGE_CURVE('',#1428,#1338,#1436,.T.);
#1436 = CIRCLE('',#1437,2.);
#1437 = AXIS2_PLACEMENT_3D('',#1438,#1439,#1440);
#1438 = CARTESIAN_POINT('',(-8.,3.,5.5));
#1439 = DIRECTION('',(0.,0.,1.));
#1440 = DIRECTION('',(1.,0.,0.));
#1441 = ORIENTED_EDGE('',*,*,#1337,.F.);
#1442 = ORIENTED_EDGE('',*,*,#1443,.F.);
#1443 = EDGE_CURVE('',#1426,#1330,#1444,.T.);
#1444 = CIRCLE('',#1445,2.);
#1445 = AXIS2_PLACEMENT_3D('',#1446,#1447,#1448);
#1446 = CARTESIAN_POINT('',(-8.,3.,-5.5));
#1447 = DIRECTION('',(0.,0.,1.));
#1448 = DIRECTION('',(1.,0.,0.));
#1449 = CYLINDRICAL_SURFACE('',#1450,2.);
#1450 = AXIS2_PLACEMENT_3D('',#1451,#1452,#1453);
#1451 = CARTESIAN_POINT('',(-8.,3.,-5.5));
#1452 = DIRECTION('',(-0.,-0.,-1.));
#1453 = DIRECTION('',(1.,0.,0.));
#1454 = ADVANCED_FACE('',(#1455),#1482,.T.);
#1455 = FACE_BOUND('',#1456,.F.);
#1456 = EDGE_LOOP('',(#1457,#1467,#1474,#1475));
#1457 = ORIENTED_EDGE('',*,*,#1458,.T.);
#1458 = EDGE_CURVE('',#1459,#1461,#1463,.T.);
#1459 = VERTEX_POINT('',#1460);
#1460 = CARTESIAN_POINT('',(-8.,-3.,-7.5));
#1461 = VERTEX_POINT('',#1462);
#1462 = CARTESIAN_POINT('',(-8.,3.,-7.5));
#1463 = LINE('',#1464,#1465);
#1464 = CARTESIAN_POINT('',(-8.,-3.,-7.5));
#1465 = VECTOR('',#1466,1.);
#1466 = DIRECTION('',(0.,1.,0.));
#1467 = ORIENTED_EDGE('',*,*,#1468,.F.);
#1468 = EDGE_CURVE('',#1330,#1461,#1469,.T.);
#1469 = CIRCLE('',#1470,2.);
#1470 = AXIS2_PLACEMENT_3D('',#1471,#1472,#1473);
#1471 = CARTESIAN_POINT('',(-8.,3.,-5.5));
#1472 = DIRECTION('',(0.,-1.,-2.22044604925E-16));
#1473 = DIRECTION('',(1.,0.,0.));
#1474 = ORIENTED_EDGE('',*,*,#1329,.F.);
#1475 = ORIENTED_EDGE('',*,*,#1476,.T.);
#1476 = EDGE_CURVE('',#1320,#1459,#1477,.T.);
#1477 = CIRCLE('',#1478,2.);
#1478 = AXIS2_PLACEMENT_3D('',#1479,#1480,#1481);
#1479 = CARTESIAN_POINT('',(-8.,-3.,-5.5));
#1480 = DIRECTION('',(0.,-1.,-2.22044604925E-16));
#1481 = DIRECTION('',(1.,0.,0.));
#1482 = CYLINDRICAL_SURFACE('',#1483,2.);
#1483 = AXIS2_PLACEMENT_3D('',#1484,#1485,#1486);
#1484 = CARTESIAN_POINT('',(-8.,3.,-5.5));
#1485 = DIRECTION('',(-0.,1.,2.22044604925E-16));
#1486 = DIRECTION('',(1.,0.,0.));
#1487 = ADVANCED_FACE('',(#1488),#1499,.T.);
#1488 = FACE_BOUND('',#1489,.T.);
#1489 = EDGE_LOOP('',(#1490,#1497,#1498));
#1490 = ORIENTED_EDGE('',*,*,#1491,.F.);
#1491 = EDGE_CURVE('',#1402,#1360,#1492,.T.);
#1492 = CIRCLE('',#1493,2.);
#1493 = AXIS2_PLACEMENT_3D('',#1494,#1495,#1496);
#1494 = CARTESIAN_POINT('',(-8.,-3.,5.5));
#1495 = DIRECTION('',(1.,0.,-2.22044604925E-16));
#1496 = DIRECTION('',(-2.22044604925E-16,0.,-1.));
#1497 = ORIENTED_EDGE('',*,*,#1409,.T.);
#1498 = ORIENTED_EDGE('',*,*,#1359,.T.);
#1499 = SPHERICAL_SURFACE('',#1500,2.);
#1500 = AXIS2_PLACEMENT_3D('',#1501,#1502,#1503);
#1501 = CARTESIAN_POINT('',(-8.,-3.,5.5));
#1502 = DIRECTION('',(0.,0.,1.));
#1503 = DIRECTION('',(1.,0.,0.));
#1504 = ADVANCED_FACE('',(#1505),#1516,.T.);
#1505 = FACE_BOUND('',#1506,.T.);
#1506 = EDGE_LOOP('',(#1507,#1508,#1509));
#1507 = ORIENTED_EDGE('',*,*,#1376,.F.);
#1508 = ORIENTED_EDGE('',*,*,#1476,.T.);
#1509 = ORIENTED_EDGE('',*,*,#1510,.F.);
#1510 = EDGE_CURVE('',#1369,#1459,#1511,.T.);
#1511 = CIRCLE('',#1512,2.);
#1512 = AXIS2_PLACEMENT_3D('',#1513,#1514,#1515);
#1513 = CARTESIAN_POINT('',(-8.,-3.,-5.5));
#1514 = DIRECTION('',(1.,0.,-2.22044604925E-16));
#1515 = DIRECTION('',(-2.22044604925E-16,0.,-1.));
#1516 = SPHERICAL_SURFACE('',#1517,2.);
#1517 = AXIS2_PLACEMENT_3D('',#1518,#1519,#1520);
#1518 = CARTESIAN_POINT('',(-8.,-3.,-5.5));
#1519 = DIRECTION('',(0.,0.,1.));
#1520 = DIRECTION('',(1.,0.,0.));
#1521 = ADVANCED_FACE('',(#1522),#1547,.F.);
#1522 = FACE_BOUND('',#1523,.F.);
#1523 = EDGE_LOOP('',(#1524,#1532,#1533,#1541));
#1524 = ORIENTED_EDGE('',*,*,#1525,.F.);
#1525 = EDGE_CURVE('',#1369,#1526,#1528,.T.);
#1526 = VERTEX_POINT('',#1527);
#1527 = CARTESIAN_POINT('',(8.,-5.,-5.5));
#1528 = LINE('',#1529,#1530);
#1529 = CARTESIAN_POINT('',(-8.,-5.,-5.5));
#1530 = VECTOR('',#1531,1.);
#1531 = DIRECTION('',(1.,0.,0.));
#1532 = ORIENTED_EDGE('',*,*,#1368,.T.);
#1533 = ORIENTED_EDGE('',*,*,#1534,.T.);
#1534 = EDGE_CURVE('',#1360,#1535,#1537,.T.);
#1535 = VERTEX_POINT('',#1536);
#1536 = CARTESIAN_POINT('',(8.,-5.,5.5));
#1537 = LINE('',#1538,#1539);
#1538 = CARTESIAN_POINT('',(-8.,-5.,5.5));
#1539 = VECTOR('',#1540,1.);
#1540 = DIRECTION('',(1.,0.,0.));
#1541 = ORIENTED_EDGE('',*,*,#1542,.F.);
#1542 = EDGE_CURVE('',#1526,#1535,#1543,.T.);
#1543 = LINE('',#1544,#1545);
#1544 = CARTESIAN_POINT('',(8.,-5.,-5.5));
#1545 = VECTOR('',#1546,1.);
#1546 = DIRECTION('',(0.,0.,1.));
#1547 = PLANE('',#1548);
#1548 = AXIS2_PLACEMENT_3D('',#1549,#1550,#1551);
#1549 = CARTESIAN_POINT('',(-8.,-5.,-5.5));
#1550 = DIRECTION('',(0.,1.,0.));
#1551 = DIRECTION('',(0.,0.,1.));
#1552 = ADVANCED_FACE('',(#1553),#1564,.T.);
#1553 = FACE_BOUND('',#1554,.T.);
#1554 = EDGE_LOOP('',(#1555,#1556,#1563));
#1555 = ORIENTED_EDGE('',*,*,#1392,.F.);
#1556 = ORIENTED_EDGE('',*,*,#1557,.F.);
#1557 = EDGE_CURVE('',#1428,#1393,#1558,.T.);
#1558 = CIRCLE('',#1559,2.);
#1559 = AXIS2_PLACEMENT_3D('',#1560,#1561,#1562);
#1560 = CARTESIAN_POINT('',(-8.,3.,5.5));
#1561 = DIRECTION('',(1.,0.,-2.22044604925E-16));
#1562 = DIRECTION('',(-2.22044604925E-16,0.,-1.));
#1563 = ORIENTED_EDGE('',*,*,#1435,.T.);
#1564 = SPHERICAL_SURFACE('',#1565,2.);
#1565 = AXIS2_PLACEMENT_3D('',#1566,#1567,#1568);
#1566 = CARTESIAN_POINT('',(-8.,3.,5.5));
#1567 = DIRECTION('',(0.,0.,1.));
#1568 = DIRECTION('',(1.,0.,0.));
#1569 = ADVANCED_FACE('',(#1570),#1595,.T.);
#1570 = FACE_BOUND('',#1571,.T.);
#1571 = EDGE_LOOP('',(#1572,#1573,#1581,#1589));
#1572 = ORIENTED_EDGE('',*,*,#1401,.F.);
#1573 = ORIENTED_EDGE('',*,*,#1574,.T.);
#1574 = EDGE_CURVE('',#1402,#1575,#1577,.T.);
#1575 = VERTEX_POINT('',#1576);
#1576 = CARTESIAN_POINT('',(8.,-3.,7.5));
#1577 = LINE('',#1578,#1579);
#1578 = CARTESIAN_POINT('',(-8.,-3.,7.5));
#1579 = VECTOR('',#1580,1.);
#1580 = DIRECTION('',(1.,0.,0.));
#1581 = ORIENTED_EDGE('',*,*,#1582,.T.);
#1582 = EDGE_CURVE('',#1575,#1583,#1585,.T.);
#1583 = VERTEX_POINT('',#1584);
#1584 = CARTESIAN_POINT('',(8.,3.,7.5));
#1585 = LINE('',#1586,#1587);
#1586 = CARTESIAN_POINT('',(8.,-3.,7.5));
#1587 = VECTOR('',#1588,1.);
#1588 = DIRECTION('',(0.,1.,0.));
#1589 = ORIENTED_EDGE('',*,*,#1590,.F.);
#1590 = EDGE_CURVE('',#1393,#1583,#1591,.T.);
#1591 = LINE('',#1592,#1593);
#1592 = CARTESIAN_POINT('',(-8.,3.,7.5));
#1593 = VECTOR('',#1594,1.);
#1594 = DIRECTION('',(1.,0.,0.));
#1595 = PLANE('',#1596);
#1596 = AXIS2_PLACEMENT_3D('',#1597,#1598,#1599);
#1597 = CARTESIAN_POINT('',(-8.,-3.,7.5));
#1598 = DIRECTION('',(0.,0.,1.));
#1599 = DIRECTION('',(1.,0.,0.));
#1600 = ADVANCED_FACE('',(#1601),#1626,.T.);
#1601 = FACE_BOUND('',#1602,.T.);
#1602 = EDGE_LOOP('',(#1603,#1611,#1612,#1620));
#1603 = ORIENTED_EDGE('',*,*,#1604,.F.);
#1604 = EDGE_CURVE('',#1426,#1605,#1607,.T.);
#1605 = VERTEX_POINT('',#1606);
#1606 = CARTESIAN_POINT('',(8.,5.,-5.5));
#1607 = LINE('',#1608,#1609);
#1608 = CARTESIAN_POINT('',(-8.,5.,-5.5));
#1609 = VECTOR('',#1610,1.);
#1610 = DIRECTION('',(1.,0.,0.));
#1611 = ORIENTED_EDGE('',*,*,#1425,.T.);
#1612 = ORIENTED_EDGE('',*,*,#1613,.T.);
#1613 = EDGE_CURVE('',#1428,#1614,#1616,.T.);
#1614 = VERTEX_POINT('',#1615);
#1615 = CARTESIAN_POINT('',(8.,5.,5.5));
#1616 = LINE('',#1617,#1618);
#1617 = CARTESIAN_POINT('',(-8.,5.,5.5));
#1618 = VECTOR('',#1619,1.);
#1619 = DIRECTION('',(1.,0.,0.));
#1620 = ORIENTED_EDGE('',*,*,#1621,.F.);
#1621 = EDGE_CURVE('',#1605,#1614,#1622,.T.);
#1622 = LINE('',#1623,#1624);
#1623 = CARTESIAN_POINT('',(8.,5.,-5.5));
#1624 = VECTOR('',#1625,1.);
#1625 = DIRECTION('',(0.,0.,1.));
#1626 = PLANE('',#1627);
#1627 = AXIS2_PLACEMENT_3D('',#1628,#1629,#1630);
#1628 = CARTESIAN_POINT('',(-8.,5.,-5.5));
#1629 = DIRECTION('',(0.,1.,0.));
#1630 = DIRECTION('',(0.,0.,1.));
#1631 = ADVANCED_FACE('',(#1632),#1643,.T.);
#1632 = FACE_BOUND('',#1633,.T.);
#1633 = EDGE_LOOP('',(#1634,#1635,#1636));
#1634 = ORIENTED_EDGE('',*,*,#1468,.F.);
#1635 = ORIENTED_EDGE('',*,*,#1443,.F.);
#1636 = ORIENTED_EDGE('',*,*,#1637,.F.);
#1637 = EDGE_CURVE('',#1461,#1426,#1638,.T.);
#1638 = CIRCLE('',#1639,2.);
#1639 = AXIS2_PLACEMENT_3D('',#1640,#1641,#1642);
#1640 = CARTESIAN_POINT('',(-8.,3.,-5.5));
#1641 = DIRECTION('',(1.,0.,-2.22044604925E-16));
#1642 = DIRECTION('',(-2.22044604925E-16,0.,-1.));
#1643 = SPHERICAL_SURFACE('',#1644,2.);
#1644 = AXIS2_PLACEMENT_3D('',#1645,#1646,#1647);
#1645 = CARTESIAN_POINT('',(-8.,3.,-5.5));
#1646 = DIRECTION('',(0.,0.,1.));
#1647 = DIRECTION('',(1.,0.,0.));
#1648 = ADVANCED_FACE('',(#1649),#1674,.F.);
#1649 = FACE_BOUND('',#1650,.F.);
#1650 = EDGE_LOOP('',(#1651,#1652,#1660,#1668));
#1651 = ORIENTED_EDGE('',*,*,#1458,.F.);
#1652 = ORIENTED_EDGE('',*,*,#1653,.T.);
#1653 = EDGE_CURVE('',#1459,#1654,#1656,.T.);
#1654 = VERTEX_POINT('',#1655);
#1655 = CARTESIAN_POINT('',(8.,-3.,-7.5));
#1656 = LINE('',#1657,#1658);
#1657 = CARTESIAN_POINT('',(-8.,-3.,-7.5));
#1658 = VECTOR('',#1659,1.);
#1659 = DIRECTION('',(1.,0.,0.));
#1660 = ORIENTED_EDGE('',*,*,#1661,.T.);
#1661 = EDGE_CURVE('',#1654,#1662,#1664,.T.);
#1662 = VERTEX_POINT('',#1663);
#1663 = CARTESIAN_POINT('',(8.,3.,-7.5));
#1664 = LINE('',#1665,#1666);
#1665 = CARTESIAN_POINT('',(8.,-3.,-7.5));
#1666 = VECTOR('',#1667,1.);
#1667 = DIRECTION('',(0.,1.,0.));
#1668 = ORIENTED_EDGE('',*,*,#1669,.F.);
#1669 = EDGE_CURVE('',#1461,#1662,#1670,.T.);
#1670 = LINE('',#1671,#1672);
#1671 = CARTESIAN_POINT('',(-8.,3.,-7.5));
#1672 = VECTOR('',#1673,1.);
#1673 = DIRECTION('',(1.,0.,0.));
#1674 = PLANE('',#1675);
#1675 = AXIS2_PLACEMENT_3D('',#1676,#1677,#1678);
#1676 = CARTESIAN_POINT('',(-8.,-3.,-7.5));
#1677 = DIRECTION('',(0.,0.,1.));
#1678 = DIRECTION('',(1.,0.,0.));
#1679 = ADVANCED_FACE('',(#1680),#1692,.T.);
#1680 = FACE_BOUND('',#1681,.F.);
#1681 = EDGE_LOOP('',(#1682,#1683,#1684,#1685));
#1682 = ORIENTED_EDGE('',*,*,#1534,.F.);
#1683 = ORIENTED_EDGE('',*,*,#1491,.F.);
#1684 = ORIENTED_EDGE('',*,*,#1574,.T.);
#1685 = ORIENTED_EDGE('',*,*,#1686,.T.);
#1686 = EDGE_CURVE('',#1575,#1535,#1687,.T.);
#1687 = CIRCLE('',#1688,2.);
#1688 = AXIS2_PLACEMENT_3D('',#1689,#1690,#1691);
#1689 = CARTESIAN_POINT('',(8.,-3.,5.5));
#1690 = DIRECTION('',(1.,0.,-2.22044604925E-16));
#1691 = DIRECTION('',(-2.22044604925E-16,0.,-1.));
#1692 = CYLINDRICAL_SURFACE('',#1693,2.);
#1693 = AXIS2_PLACEMENT_3D('',#1694,#1695,#1696);
#1694 = CARTESIAN_POINT('',(-8.,-3.,5.5));
#1695 = DIRECTION('',(-1.,-0.,2.22044604925E-16));
#1696 = DIRECTION('',(-2.22044604925E-16,0.,-1.));
#1697 = ADVANCED_FACE('',(#1698),#1710,.T.);
#1698 = FACE_BOUND('',#1699,.F.);
#1699 = EDGE_LOOP('',(#1700,#1701,#1702,#1703));
#1700 = ORIENTED_EDGE('',*,*,#1653,.F.);
#1701 = ORIENTED_EDGE('',*,*,#1510,.F.);
#1702 = ORIENTED_EDGE('',*,*,#1525,.T.);
#1703 = ORIENTED_EDGE('',*,*,#1704,.T.);
#1704 = EDGE_CURVE('',#1526,#1654,#1705,.T.);
#1705 = CIRCLE('',#1706,2.);
#1706 = AXIS2_PLACEMENT_3D('',#1707,#1708,#1709);
#1707 = CARTESIAN_POINT('',(8.,-3.,-5.5));
#1708 = DIRECTION('',(1.,0.,-2.22044604925E-16));
#1709 = DIRECTION('',(-2.22044604925E-16,0.,-1.));
#1710 = CYLINDRICAL_SURFACE('',#1711,2.);
#1711 = AXIS2_PLACEMENT_3D('',#1712,#1713,#1714);
#1712 = CARTESIAN_POINT('',(-8.,-3.,-5.5));
#1713 = DIRECTION('',(-1.,-0.,2.22044604925E-16));
#1714 = DIRECTION('',(-2.22044604925E-16,0.,-1.));
#1715 = ADVANCED_FACE('',(#1716),#1743,.T.);
#1716 = FACE_BOUND('',#1717,.F.);
#1717 = EDGE_LOOP('',(#1718,#1728,#1735,#1736));
#1718 = ORIENTED_EDGE('',*,*,#1719,.F.);
#1719 = EDGE_CURVE('',#1720,#1722,#1724,.T.);
#1720 = VERTEX_POINT('',#1721);
#1721 = CARTESIAN_POINT('',(10.,-3.,-5.5));
#1722 = VERTEX_POINT('',#1723);
#1723 = CARTESIAN_POINT('',(10.,-3.,5.5));
#1724 = LINE('',#1725,#1726);
#1725 = CARTESIAN_POINT('',(10.,-3.,-5.5));
#1726 = VECTOR('',#1727,1.);
#1727 = DIRECTION('',(0.,0.,1.));
#1728 = ORIENTED_EDGE('',*,*,#1729,.F.);
#1729 = EDGE_CURVE('',#1526,#1720,#1730,.T.);
#1730 = CIRCLE('',#1731,2.);
#1731 = AXIS2_PLACEMENT_3D('',#1732,#1733,#1734);
#1732 = CARTESIAN_POINT('',(8.,-3.,-5.5));
#1733 = DIRECTION('',(0.,0.,1.));
#1734 = DIRECTION('',(1.,0.,0.));
#1735 = ORIENTED_EDGE('',*,*,#1542,.T.);
#1736 = ORIENTED_EDGE('',*,*,#1737,.T.);
#1737 = EDGE_CURVE('',#1535,#1722,#1738,.T.);
#1738 = CIRCLE('',#1739,2.);
#1739 = AXIS2_PLACEMENT_3D('',#1740,#1741,#1742);
#1740 = CARTESIAN_POINT('',(8.,-3.,5.5));
#1741 = DIRECTION('',(0.,0.,1.));
#1742 = DIRECTION('',(1.,0.,0.));
#1743 = CYLINDRICAL_SURFACE('',#1744,2.);
#1744 = AXIS2_PLACEMENT_3D('',#1745,#1746,#1747);
#1745 = CARTESIAN_POINT('',(8.,-3.,-5.5));
#1746 = DIRECTION('',(-0.,-0.,-1.));
#1747 = DIRECTION('',(1.,0.,0.));
#1748 = ADVANCED_FACE('',(#1749),#1761,.T.);
#1749 = FACE_BOUND('',#1750,.F.);
#1750 = EDGE_LOOP('',(#1751,#1752,#1753,#1760));
#1751 = ORIENTED_EDGE('',*,*,#1557,.F.);
#1752 = ORIENTED_EDGE('',*,*,#1613,.T.);
#1753 = ORIENTED_EDGE('',*,*,#1754,.T.);
#1754 = EDGE_CURVE('',#1614,#1583,#1755,.T.);
#1755 = CIRCLE('',#1756,2.);
#1756 = AXIS2_PLACEMENT_3D('',#1757,#1758,#1759);
#1757 = CARTESIAN_POINT('',(8.,3.,5.5));
#1758 = DIRECTION('',(1.,0.,-2.22044604925E-16));
#1759 = DIRECTION('',(-2.22044604925E-16,0.,-1.));
#1760 = ORIENTED_EDGE('',*,*,#1590,.F.);
#1761 = CYLINDRICAL_SURFACE('',#1762,2.);
#1762 = AXIS2_PLACEMENT_3D('',#1763,#1764,#1765);
#1763 = CARTESIAN_POINT('',(-8.,3.,5.5));
#1764 = DIRECTION('',(-1.,-0.,2.22044604925E-16));
#1765 = DIRECTION('',(-2.22044604925E-16,0.,-1.));
#1766 = ADVANCED_FACE('',(#1767),#1792,.T.);
#1767 = FACE_BOUND('',#1768,.F.);
#1768 = EDGE_LOOP('',(#1769,#1777,#1784,#1785));
#1769 = ORIENTED_EDGE('',*,*,#1770,.F.);
#1770 = EDGE_CURVE('',#1722,#1771,#1773,.T.);
#1771 = VERTEX_POINT('',#1772);
#1772 = CARTESIAN_POINT('',(10.,3.,5.5));
#1773 = LINE('',#1774,#1775);
#1774 = CARTESIAN_POINT('',(10.,-3.,5.5));
#1775 = VECTOR('',#1776,1.);
#1776 = DIRECTION('',(0.,1.,0.));
#1777 = ORIENTED_EDGE('',*,*,#1778,.T.);
#1778 = EDGE_CURVE('',#1722,#1575,#1779,.T.);
#1779 = CIRCLE('',#1780,2.);
#1780 = AXIS2_PLACEMENT_3D('',#1781,#1782,#1783);
#1781 = CARTESIAN_POINT('',(8.,-3.,5.5));
#1782 = DIRECTION('',(0.,-1.,-2.22044604925E-16));
#1783 = DIRECTION('',(1.,0.,0.));
#1784 = ORIENTED_EDGE('',*,*,#1582,.T.);
#1785 = ORIENTED_EDGE('',*,*,#1786,.F.);
#1786 = EDGE_CURVE('',#1771,#1583,#1787,.T.);
#1787 = CIRCLE('',#1788,2.);
#1788 = AXIS2_PLACEMENT_3D('',#1789,#1790,#1791);
#1789 = CARTESIAN_POINT('',(8.,3.,5.5));
#1790 = DIRECTION('',(0.,-1.,-2.22044604925E-16));
#1791 = DIRECTION('',(1.,0.,0.));
#1792 = CYLINDRICAL_SURFACE('',#1793,2.);
#1793 = AXIS2_PLACEMENT_3D('',#1794,#1795,#1796);
#1794 = CARTESIAN_POINT('',(8.,3.,5.5));
#1795 = DIRECTION('',(-0.,1.,2.22044604925E-16));
#1796 = DIRECTION('',(1.,0.,0.));
#1797 = ADVANCED_FACE('',(#1798),#1810,.T.);
#1798 = FACE_BOUND('',#1799,.F.);
#1799 = EDGE_LOOP('',(#1800,#1801,#1802,#1809));
#1800 = ORIENTED_EDGE('',*,*,#1637,.F.);
#1801 = ORIENTED_EDGE('',*,*,#1669,.T.);
#1802 = ORIENTED_EDGE('',*,*,#1803,.T.);
#1803 = EDGE_CURVE('',#1662,#1605,#1804,.T.);
#1804 = CIRCLE('',#1805,2.);
#1805 = AXIS2_PLACEMENT_3D('',#1806,#1807,#1808);
#1806 = CARTESIAN_POINT('',(8.,3.,-5.5));
#1807 = DIRECTION('',(1.,0.,-2.22044604925E-16));
#1808 = DIRECTION('',(-2.22044604925E-16,0.,-1.));
#1809 = ORIENTED_EDGE('',*,*,#1604,.F.);
#1810 = CYLINDRICAL_SURFACE('',#1811,2.);
#1811 = AXIS2_PLACEMENT_3D('',#1812,#1813,#1814);
#1812 = CARTESIAN_POINT('',(-8.,3.,-5.5));
#1813 = DIRECTION('',(-1.,-0.,2.22044604925E-16));
#1814 = DIRECTION('',(-2.22044604925E-16,0.,-1.));
#1815 = ADVANCED_FACE('',(#1816),#1841,.T.);
#1816 = FACE_BOUND('',#1817,.F.);
#1817 = EDGE_LOOP('',(#1818,#1827,#1833,#1840));
#1818 = ORIENTED_EDGE('',*,*,#1819,.F.);
#1819 = EDGE_CURVE('',#1820,#1605,#1822,.T.);
#1820 = VERTEX_POINT('',#1821);
#1821 = CARTESIAN_POINT('',(10.,3.,-5.5));
#1822 = CIRCLE('',#1823,2.);
#1823 = AXIS2_PLACEMENT_3D('',#1824,#1825,#1826);
#1824 = CARTESIAN_POINT('',(8.,3.,-5.5));
#1825 = DIRECTION('',(0.,0.,1.));
#1826 = DIRECTION('',(1.,0.,0.));
#1827 = ORIENTED_EDGE('',*,*,#1828,.T.);
#1828 = EDGE_CURVE('',#1820,#1771,#1829,.T.);
#1829 = LINE('',#1830,#1831);
#1830 = CARTESIAN_POINT('',(10.,3.,-5.5));
#1831 = VECTOR('',#1832,1.);
#1832 = DIRECTION('',(0.,0.,1.));
#1833 = ORIENTED_EDGE('',*,*,#1834,.T.);
#1834 = EDGE_CURVE('',#1771,#1614,#1835,.T.);
#1835 = CIRCLE('',#1836,2.);
#1836 = AXIS2_PLACEMENT_3D('',#1837,#1838,#1839);
#1837 = CARTESIAN_POINT('',(8.,3.,5.5));
#1838 = DIRECTION('',(0.,0.,1.));
#1839 = DIRECTION('',(1.,0.,0.));
#1840 = ORIENTED_EDGE('',*,*,#1621,.F.);
#1841 = CYLINDRICAL_SURFACE('',#1842,2.);
#1842 = AXIS2_PLACEMENT_3D('',#1843,#1844,#1845);
#1843 = CARTESIAN_POINT('',(8.,3.,-5.5));
#1844 = DIRECTION('',(-0.,-0.,-1.));
#1845 = DIRECTION('',(1.,0.,0.));
#1846 = ADVANCED_FACE('',(#1847),#1870,.T.);
#1847 = FACE_BOUND('',#1848,.F.);
#1848 = EDGE_LOOP('',(#1849,#1856,#1862,#1869));
#1849 = ORIENTED_EDGE('',*,*,#1850,.T.);
#1850 = EDGE_CURVE('',#1654,#1720,#1851,.T.);
#1851 = CIRCLE('',#1852,2.);
#1852 = AXIS2_PLACEMENT_3D('',#1853,#1854,#1855);
#1853 = CARTESIAN_POINT('',(8.,-3.,-5.5));
#1854 = DIRECTION('',(0.,-1.,-2.22044604925E-16));
#1855 = DIRECTION('',(1.,0.,0.));
#1856 = ORIENTED_EDGE('',*,*,#1857,.T.);
#1857 = EDGE_CURVE('',#1720,#1820,#1858,.T.);
#1858 = LINE('',#1859,#1860);
#1859 = CARTESIAN_POINT('',(10.,-3.,-5.5));
#1860 = VECTOR('',#1861,1.);
#1861 = DIRECTION('',(0.,1.,0.));
#1862 = ORIENTED_EDGE('',*,*,#1863,.F.);
#1863 = EDGE_CURVE('',#1662,#1820,#1864,.T.);
#1864 = CIRCLE('',#1865,2.);
#1865 = AXIS2_PLACEMENT_3D('',#1866,#1867,#1868);
#1866 = CARTESIAN_POINT('',(8.,3.,-5.5));
#1867 = DIRECTION('',(0.,-1.,-2.22044604925E-16));
#1868 = DIRECTION('',(1.,0.,0.));
#1869 = ORIENTED_EDGE('',*,*,#1661,.F.);
#1870 = CYLINDRICAL_SURFACE('',#1871,2.);
#1871 = AXIS2_PLACEMENT_3D('',#1872,#1873,#1874);
#1872 = CARTESIAN_POINT('',(8.,3.,-5.5));
#1873 = DIRECTION('',(-0.,1.,2.22044604925E-16));
#1874 = DIRECTION('',(1.,0.,0.));
#1875 = ADVANCED_FACE('',(#1876),#1881,.T.);
#1876 = FACE_BOUND('',#1877,.T.);
#1877 = EDGE_LOOP('',(#1878,#1879,#1880));
#1878 = ORIENTED_EDGE('',*,*,#1778,.T.);
#1879 = ORIENTED_EDGE('',*,*,#1686,.T.);
#1880 = ORIENTED_EDGE('',*,*,#1737,.T.);
#1881 = SPHERICAL_SURFACE('',#1882,2.);
#1882 = AXIS2_PLACEMENT_3D('',#1883,#1884,#1885);
#1883 = CARTESIAN_POINT('',(8.,-3.,5.5));
#1884 = DIRECTION('',(0.,0.,1.));
#1885 = DIRECTION('',(1.,0.,0.));
#1886 = ADVANCED_FACE('',(#1887),#1892,.T.);
#1887 = FACE_BOUND('',#1888,.T.);
#1888 = EDGE_LOOP('',(#1889,#1890,#1891));
#1889 = ORIENTED_EDGE('',*,*,#1850,.T.);
#1890 = ORIENTED_EDGE('',*,*,#1729,.F.);
#1891 = ORIENTED_EDGE('',*,*,#1704,.T.);
#1892 = SPHERICAL_SURFACE('',#1893,2.);
#1893 = AXIS2_PLACEMENT_3D('',#1894,#1895,#1896);
#1894 = CARTESIAN_POINT('',(8.,-3.,-5.5));
#1895 = DIRECTION('',(0.,0.,1.));
#1896 = DIRECTION('',(1.,0.,0.));
#1897 = ADVANCED_FACE('',(#1898),#1904,.T.);
#1898 = FACE_BOUND('',#1899,.T.);
#1899 = EDGE_LOOP('',(#1900,#1901,#1902,#1903));
#1900 = ORIENTED_EDGE('',*,*,#1719,.F.);
#1901 = ORIENTED_EDGE('',*,*,#1857,.T.);
#1902 = ORIENTED_EDGE('',*,*,#1828,.T.);
#1903 = ORIENTED_EDGE('',*,*,#1770,.F.);
#1904 = PLANE('',#1905);
#1905 = AXIS2_PLACEMENT_3D('',#1906,#1907,#1908);
#1906 = CARTESIAN_POINT('',(10.,-3.,-5.5));
#1907 = DIRECTION('',(1.,0.,0.));
#1908 = DIRECTION('',(0.,0.,1.));
#1909 = ADVANCED_FACE('',(#1910),#1915,.T.);
#1910 = FACE_BOUND('',#1911,.T.);
#1911 = EDGE_LOOP('',(#1912,#1913,#1914));
#1912 = ORIENTED_EDGE('',*,*,#1754,.T.);
#1913 = ORIENTED_EDGE('',*,*,#1786,.F.);
#1914 = ORIENTED_EDGE('',*,*,#1834,.T.);
#1915 = SPHERICAL_SURFACE('',#1916,2.);
#1916 = AXIS2_PLACEMENT_3D('',#1917,#1918,#1919);
#1917 = CARTESIAN_POINT('',(8.,3.,5.5));
#1918 = DIRECTION('',(0.,0.,1.));
#1919 = DIRECTION('',(1.,0.,0.));
#1920 = ADVANCED_FACE('',(#1921),#1926,.T.);
#1921 = FACE_BOUND('',#1922,.T.);
#1922 = EDGE_LOOP('',(#1923,#1924,#1925));
#1923 = ORIENTED_EDGE('',*,*,#1819,.F.);
#1924 = ORIENTED_EDGE('',*,*,#1863,.F.);
#1925 = ORIENTED_EDGE('',*,*,#1803,.T.);
#1926 = SPHERICAL_SURFACE('',#1927,2.);
#1927 = AXIS2_PLACEMENT_3D('',#1928,#1929,#1930);
#1928 = CARTESIAN_POINT('',(8.,3.,-5.5));
#1929 = DIRECTION('',(0.,0.,1.));
#1930 = DIRECTION('',(1.,0.,0.));
#1931 = ( GEOMETRIC_REPRESENTATION_CONTEXT(3) 
GLOBAL_UNCERTAINTY_ASSIGNED_CONTEXT((#1935)) 
GLOBAL_UNIT_ASSIGNED_CONTEXT((#1932,#1933,#1934)) REPRESENTATION_CONTEXT
('Context #1','3D Context with UNIT and UNCERTAINTY') );
#1932 = ( LENGTH_UNIT() NAMED_UNIT(*) SI_UNIT(.MILLI.,.METRE.) );
#1933 = ( NAMED_UNIT(*) PLANE_ANGLE_UNIT() SI_UNIT($,.RADIAN.) );
#1934 = ( NAMED_UNIT(*) SI_UNIT($,.STERADIAN.) SOLID_ANGLE_UNIT() );
#1935 = UNCERTAINTY_MEASURE_WITH_UNIT(LENGTH_MEASURE(2.E-06),#1932,
  'distance_accuracy_value','confusion accuracy');
#1936 = CONTEXT_DEPENDENT_SHAPE_REPRESENTATION(#1937,#1939);
#1937 = ( REPRESENTATION_RELATIONSHIP('','',#1312,#10) 
REPRESENTATION_RELATIONSHIP_WITH_TRANSFORMATION(#1938) 
SHAPE_REPRESENTATION_RELATIONSHIP() );
#1938 = ITEM_DEFINED_TRANSFORMATION('','',#11,#35);
#1939 = PRODUCT_DEFINITION_SHAPE('Placement','Placement of an item',
  #1940);
#1940 = NEXT_ASSEMBLY_USAGE_OCCURRENCE('49','Group004','',#5,#1307,$);
#1941 = PRODUCT_RELATED_PRODUCT_CATEGORY('part',$,(#1309));
ENDSEC;
END-ISO-10303-21;
